<?xml version="1.0" encoding="utf-8"?>
<!-- Generator: Adobe Illustrator 26.0.0, SVG Export Plug-In . SVG Version: 6.00 Build 0)  -->
<svg version="1.1" id="Layer_1" xmlns="http://www.w3.org/2000/svg" xmlns:xlink="http://www.w3.org/1999/xlink" x="0px" y="0px"
	 viewBox="0 0 187.9 43.6" style="enable-background:new 0 0 187.9 43.6;" xml:space="preserve">
<style type="text/css">
	.st000{opacity:0.8;fill:none;stroke:#FFFFFF;stroke-miterlimit:10;enable-background:new    ;}
	.st111{opacity:0.7;fill:#FFFFFF;}
</style>
<g id="Layer_2_00000027606858987339591320000014683060862818621841_">
	<g id="OBJECTS">
		<path class="st000" d="M41.4,31.9L60.5,19c2.2-1.5,4.8-2.3,7.4-2.3H77c4.2,0,8.1-2,10.6-5.3l3.1-4.1c1.1-1.5,2.5-2.7,4.1-3.6
			c6.4-3.6,14.5-1.3,18.1,5.1l5,8.9c0.2,0.3,0.3,0.5,0.5,0.8c4,6.1,12.3,7.8,18.4,3.8l0,0c4.7-3.1,10.9-2.9,15.4,0.5l8.6,6.5
			c3.9,3,9.2,3.5,13.7,1.4l13.1-6.1"/>
		<path class="st111" d="M167.1,29.4C167.1,29.4,167.1,29.4,167.1,29.4c1.3,0,2.3,1,2.3,2.3c0,1.3-1,2.3-2.3,2.3c-1.3,0-2.3-1-2.3-2.3
			C164.8,30.5,165.8,29.4,167.1,29.4z"/>
		<path class="st111" d="M146.2,17.7C146.2,17.7,146.2,17.7,146.2,17.7c1.3,0,2.3,1,2.3,2.3s-1,2.3-2.3,2.3s-2.3-1-2.3-2.3
			C143.9,18.8,144.9,17.7,146.2,17.7z"/>
		<path class="st111" d="M122.9,23.2c0-1.3,1-2.3,2.3-2.3c1.3,0,2.3,1,2.3,2.3s-1,2.3-2.3,2.3C124,25.5,122.9,24.5,122.9,23.2
			L122.9,23.2z"/>
		<path class="st111" d="M102,2.3c0-1.3,1-2.3,2.3-2.3c0,0,0,0,0,0c1.3,0,2.3,1,2.3,2.3c0,1.3-1,2.3-2.3,2.3C103,4.6,102,3.6,102,2.3
			C102,2.3,102,2.3,102,2.3z"/>
		<path class="st111" d="M83.3,12.5C83.3,12.5,83.3,12.5,83.3,12.5c1.3,0,2.3,1,2.3,2.3c0,1.3-1,2.3-2.3,2.3c-1.3,0-2.3-1-2.3-2.3
			C81,13.5,82.1,12.5,83.3,12.5z"/>
		<path class="st111" d="M60.1,18c0-1.3,1-2.3,2.3-2.3c1.2,0,2.3,1,2.3,2.2c0,1.3-1,2.3-2.2,2.3C61.1,20.4,60.1,19.4,60.1,18
			C60.1,18.1,60.1,18.1,60.1,18z"/>
	</g>
</g>
</svg>
