<?xml version="1.0" encoding="utf-8"?>
<!-- Generator: Adobe Illustrator 26.0.0, SVG Export Plug-In . SVG Version: 6.00 Build 0)  -->
<svg version="1.1" id="Layer_1" xmlns="http://www.w3.org/2000/svg" xmlns:xlink="http://www.w3.org/1999/xlink" x="0px" y="0px"
	 viewBox="0 0 190.4 27.5" style="enable-background:new 0 0 190.4 27.5;" xml:space="preserve">
<style type="text/css">
	.st0{opacity:0.8;fill:none;stroke:#FFFFFF;stroke-miterlimit:10;enable-background:new    ;}
	.st1{opacity:0.6;fill:#FFFFFF;fill-opacity:0.7;enable-background:new    ;}
	.st2{fill:#FFFFFF;fill-opacity:0.7;}
</style>
<g id="Layer_2_00000161615970511696734490000014532679549436541837_">
	<g id="Layer_4">
		<path class="st0" d="M0.2,27l13.2-7.8c7.2-4.3,16.3-4,23.2,0.8l0,0c8.9,6.2,21,4.9,28.4-3l8.6-9.1c4.2-4.4,9.9-6.9,16-6.9h9
			c6.1,0,11.9,2.5,16.1,7l6.1,6.5c7.4,8,19.7,8.9,28.1,2.1l0,0c6.5-5.2,15.4-6.2,22.8-2.5l15.8,7.7"/>
		<path class="st1" d="M29.5,16.5c0,1.6-1.3,2.9-2.9,2.9c-1.6,0-2.9-1.3-2.9-2.9c0-1.6,1.3-2.9,2.9-2.9
			C28.2,13.5,29.5,14.8,29.5,16.5z"/>
		<path class="st1" d="M56.3,23.3c0,1.6-1.3,3-2.9,3c-1.6,0-3-1.3-3-2.9c0-1.6,1.3-3,2.9-3c0,0,0,0,0,0C55,20.4,56.3,21.7,56.3,23.3
			z"/>
		<path class="st1" d="M83.2,2.9c0,1.6-1.3,3-2.9,3c-1.6,0-3-1.3-3-2.9c0-1.6,1.3-3,2.9-3c0,0,0,0,0,0C81.9,0,83.2,1.3,83.2,2.9z"/>
		<path class="st2" d="M110.1,2.9c0,1.6-1.3,3-2.9,3c-1.6,0-3-1.3-3-2.9c0-1.6,1.3-2.9,2.9-3C108.7,0,110,1.3,110.1,2.9
			C110.1,2.9,110.1,2.9,110.1,2.9z"/>
		<path class="st2" d="M136.9,20.4c0,1.6-1.3,2.9-2.9,2.9S131,22,131,20.4c0-1.6,1.3-2.9,2.9-2.9c0,0,0,0,0,0
			C135.6,17.5,136.9,18.8,136.9,20.4z"/>
		<path class="st2" d="M163.8,12c0,1.6-1.3,2.9-2.9,2.9s-2.9-1.3-2.9-2.9s1.3-2.9,2.9-2.9S163.8,10.4,163.8,12
			C163.8,12,163.8,12,163.8,12z"/>
		<circle class="st2" cx="187.5" cy="21.9" r="2.9"/>
	</g>
</g>
</svg>
