<?xml version="1.0" encoding="utf-8"?>
<!-- Generator: Adobe Illustrator 26.0.0, SVG Export Plug-In . SVG Version: 6.00 Build 0)  -->
<svg version="1.1" id="Layer_1" xmlns="http://www.w3.org/2000/svg" xmlns:xlink="http://www.w3.org/1999/xlink" x="0px" y="0px"
	 viewBox="0 0 188.5 44.7" style="enable-background:new 0 0 188.5 44.7;" xml:space="preserve">
<style type="text/css">
	.st11{opacity:0.8;fill:none;stroke:#FFFFFF;stroke-miterlimit:10;enable-background:new    ;}
	.st22{opacity:0.7;fill:#FFFFFF;}
</style>
<g id="Layer_2_00000103961312284154677140000004998421823801648553_">
	<g id="OBJECTS">
		<g class="st00">
			<path class="st11" d="M38.2,35.6l10.2-22.8c2.7-6.6,9-10.9,16.1-10.9l13.7,0c3.7,0,7.4,1.2,10.4,3.5l4,3
				c5.5,4.1,12.8,4.6,18.8,1.3l10.4-5.6c2.6-1.4,5.4-2.1,8.4-2.1l11.9,0c4.9,0,9.5,2,12.8,5.6l0,0c6.3,6.9,16.8,7.6,24,1.6l7.3-6.8"
				/>
			<path class="st22" d="M61,3.2c0,1.3-1,2.4-2.4,2.4c-1.3,0-2.4-1-2.4-2.4s1-2.4,2.4-2.4c0,0,0,0,0,0C60,0.8,61,1.9,61,3.2
				C61,3.2,61,3.2,61,3.2z"/>
			<path class="st22" d="M81.5,2.4c0,1.3-1,2.4-2.4,2.4c-1.3,0-2.4-1-2.4-2.4s1-2.4,2.4-2.4c0,0,0,0,0,0C80.5,0,81.5,1,81.5,2.4
				C81.5,2.3,81.5,2.3,81.5,2.4z"/>
			<path class="st22" d="M104,12.1c0,1.3-1.1,2.4-2.4,2.4c-1.3,0-2.4-1.1-2.4-2.4s1.1-2.4,2.4-2.4C102.9,9.8,104,10.8,104,12.1
				C104,12.1,104,12.1,104,12.1z"/>
			<path class="st22" d="M124.5,3.6c0,1.3-1.1,2.4-2.4,2.4c-1.3,0-2.4-1.1-2.4-2.4s1.1-2.4,2.4-2.4C123.4,1.3,124.5,2.3,124.5,3.6
				C124.5,3.6,124.5,3.6,124.5,3.6z"/>
			<path class="st22" d="M145.5,2.4c0,1.3-1,2.4-2.4,2.4c-1.3,0-2.4-1-2.4-2.4c0-1.3,1-2.4,2.4-2.4c0,0,0,0,0,0
				C144.5,0,145.5,1.1,145.5,2.4C145.5,2.4,145.5,2.4,145.5,2.4z"/>
			<path class="st22" d="M168.4,13c0,1.3-1.1,2.4-2.4,2.4c-1.3,0-2.4-1.1-2.4-2.4s1.1-2.4,2.4-2.4C167.3,10.7,168.4,11.7,168.4,13
				L168.4,13z"/>
			<path class="st22" d="M188.5,2.9c0,1.3-1.1,2.4-2.4,2.4c-1.3,0-2.4-1.1-2.4-2.4s1.1-2.4,2.4-2.4l0,0
				C187.4,0.6,188.5,1.6,188.5,2.9z"/>
		</g>
	</g>
</g>
</svg>
