<svg class="TGI" xmlns="http://www.w3.org/2000/svg" viewBox="0 0 677.85 656.95"><defs><style>.others{fill:none;stroke-miterlimit:10;}</style></defs><title>TGI_1</title><g id="Layer_2" data-name="Layer 2"><g id="shapes"><path class="others" d="M158.36,48.39q8.07-4.65,16.36-8.9l-.58,1c-1.42,2.39-3.31,5.61-4.67,8.1a3.45,3.45,0,0,1-.47.14c.07-.37.11-.55.2-.91.74-3.21-.78-3.89-4.55-1.94q-7.8,9.72-15.11,19.77c-3.15,4.38-4.23,7.32-2.72,7.31h.41s-.19.36-.59,1l-.37.57q-6.81.75-13.6,1.55l.41-.49c.45-.54.76-.86.76-.86l.48-.11c3.43-1.25,6.17-4.7,8.38-7.43q7.65-9.16,15.75-17.92l-2,1,0,0a74.71,74.71,0,0,0-12.65,8.59c-2.92,2.36-6.33,5.63-2.3,3.61,2.93-2.44,5.34-5.17,8.74-7.07,1.14-.64,1.66-.56.65.64a29,29,0,0,1-12.76,8.74,11.73,11.73,0,0,1-2.77.61c-1.93-1.55,3.43-4.32,4.9-5.33C146.15,55.94,152.16,51.91,158.36,48.39Z"/><path class="others" d="M155.57,62.42c4.41-6,11.13-12.67,18.23-15.6,8.25-3.4,5,7.42,3.68,10.69-2.9,7.29-9.69,14.7-18,15.83C151.56,74.42,152.33,66.86,155.57,62.42Zm4.88,9c3.24.29,8.32-8.13,10.36-12.47,1.13-2.39,4-10.31,1.94-10.29-2.94,0-8.24,8-10.54,12.21C160.72,63.59,157.77,71.17,160.45,71.41Z"/><path class="others" d="M183.76,43.56c3.44-1.17,5.17-1.73,8.64-2.83q-3.77,9.44-7.34,18.93c-1.17,3.14-.44,5,2.49,4.59a3.86,3.86,0,0,0,2.13-1.54q1.77-5.34,3.61-10.65c1-3,3.18-7.41,1.43-10.25l-.38.06s.14-.46.44-1.25l.28-.72c3.48-1.08,5.23-1.61,8.75-2.63q-2.22,6.75-4.34,13.54c-1,3.45-3.94,9-1.15,12.25l.34.31a4.49,4.49,0,0,1-.16.73q-4.94,3.21-10,6.2l-1.31.12c.74-2.31,1.12-3.46,1.87-5.76-2.35,2.64-5.11,6.26-8.89,6.72-5.62.68-2.52-7.39-1.77-9.68,1.25-3,1.88-4.53,3.16-7.51,2.4-5.63,3.16-9.13,1.79-8.9l-.37.07s.16-.41.5-1.14C183.57,44,183.64,43.82,183.76,43.56Z"/><path class="others" d="M197.43,68.75c.24-.9.43-1.42.43-1.42l.48-.12c3.53-2.21,5-8.61,5.95-12.29.78-3,3.62-9.32,1.12-12.29l-.31-.25a6.94,6.94,0,0,1,.18-.71c3.14-2.4,6.24-4.87,9.29-7.38l1.2-.31q-1.47,5.48-2.87,11c1.95-4.17,4.2-9.64,7.87-12,2.27-1.44,3.13.84,2.58,4.92-.43,3.24-2.53,6.21-3.37,5.77s-1.61-1.85-2.85-1.59c-1,.2-2.48,1.61-4.95,5.68-.68,2.68-1,4-1.68,6.72-.76,3.65-2.54,8.42-.16,11.65l.44,0s-.08.55-.29,1.49l-.2.87-13.09,1Z"/><path class="others" d="M231.34,40.78c1.92-11.45,8.86-27.48,21.56-30.7,3.74-.94,8.37-.21,10.08,3.76l0,.18c2.67,7,0,16.92-6.06,21.4a8.78,8.78,0,0,1-4.52,2.18c-4.38.67-5.8-4.18-5.15-7.59.52-2.79,2-4.7,3.05-5,3.08-.83.73,7.21,1.78,7.9,6,.08,6.6-13.9,5.26-17.86a4.84,4.84,0,0,0-4.76-1.62C243.42,16,240.28,31.58,239,39.51c-.9,5.52-3.35,24.05,6.72,23.52a18.92,18.92,0,0,0,5.47-1.24c.29-2.53.44-3.79.74-6.31.27-3,1.73-9.44-1.21-11.68l-.43,0s0-.62.18-1.67c0-.39.07-.58.12-1q6.36-.8,12.71-1.52c0,.4-.07.6-.11,1-.11,1.09-.22,1.74-.22,1.74l-.45.13c-3.54,2.46-3.47,8.7-4,12.48-.25,2.38-.38,3.57-.62,6a19.36,19.36,0,0,1-12.67,5.78C230.56,67.64,229.62,51,231.34,40.78Z"/><path class="others" d="M265.1,23.77c3.71-.57,5.57-.84,9.31-1.33q-1.19,13.35-2.29,26.72c-.36,4.41.93,7.16,3.95,7,.73,0,1.34-.83,1.87-1.9q.51-7.3,1.05-14.6c.2-3.62,1.63-11.85-1.48-14.78l-.42,0s0-.64.1-1.75c0-.41.05-.61.08-1,3.75-.47,5.63-.69,9.4-1.1q-.6,9.09-1.18,18.17c-.26,4.59-2,12.77,1.72,16.67l.43.46s0,.39,0,1c-3,2.52-6,5-9.08,7.5l-1.34,0c.21-3.15.32-4.73.54-7.86-1.34,3.25-4,8.43-7.63,8.61-5.43.25-5.15-10.69-4.68-14.48q.51-5.43,1-10.88c.23-3.2,1.75-11.12-1.21-13.68l-.42,0s0-.62.14-1.7C265,24.36,265.05,24.17,265.1,23.77Z"/><path class="others" d="M287.53,63.36c.06-1.17.14-1.86.14-1.86l.47-.11c3.64-3.24,3.38-11.48,3.58-15.77C291.94,41,293.62,33,290,29l-.42-.44a8.58,8.58,0,0,1,0-.95q4.32-3.86,8.63-7.76l1.27-.1q-.33,7-.65,14.05c1.08-4.59,2.36-11.82,6.06-14.08,2.1-1.28,3.69,1.88,3.91,7,.18,4.07-1.5,7.47-2.51,6.75s-2.14-2.71-3.44-2.63c-1.08.06-2.38,1.59-4.18,6.53-.15,3.42-.23,5.13-.38,8.57-.07,4.33-1.29,11.67,2.15,15l.46.09s0,.69,0,1.88c0,.44,0,.66,0,1.09-4.46.11-8.91.22-13.36.36C287.49,64,287.5,63.79,287.53,63.36Z"/><path class="others" d="M309.23,19.07c3.82-.23,5.74-.33,9.59-.49q-.31,14.19-.59,28.37c-.1,4.68,1.37,7.65,4.43,7.61.74,0,1.31-.82,1.79-1.93q.1-7.68.2-15.35c0-4.13.91-12.5-2.46-15.79l-.44-.09s0-.68,0-1.85c0-.43,0-.65,0-1.08,3.85-.13,5.78-.18,9.65-.24q-.07,9.48-.14,19c0,5-1.29,13.33,2.67,17.48l.46.5a9.23,9.23,0,0,1,.05,1l-8.79,7.52h-1.35l.1-8.26c-1.12,3.25-3.59,8.8-7.22,8.84-5.69.07-5.61-11.42-5.66-15.67.11-3.88.21-7.77.32-11.65s1-11.94-2.23-14.92l-.45-.07s0-.68,0-1.84C309.21,19.71,309.21,19.49,309.23,19.07Z"/><path class="others" d="M354,.59c2.48.11,3.72.17,6.18.31l0,1.06c0,1.15,0,1.82,0,1.82l-.44.08c-1.17.22-2,3.45-2.21,8.48q.33,16.45.62,32.9c0,4.31-.4,12.26,3,15.44l.46.11s.07.7.09,1.91c0,.44,0,.66,0,1.11q-7-.11-14-.14V62.55c0-1.21,0-1.92,0-1.92l.46-.09c4.34-3.11,2.41-13.07,2.42-17.73,0-2.87,0-4.3-.09-7.15,4.25-3,5.44-10,5.5-14.72.05-3.36-.78-10.25-4.31-10.86a2.79,2.79,0,0,0-2,.92,31.5,31.5,0,0,0-.78-5.85c-2.89,2.85-3.68,7.37-3.89,11.22-.16,3-1.17,13.18,3.57,12.33,1.33-4.65-2.15-11.43,2.78-14.74,1.11-.45,2.42.95,2.73,4,.57,5.07-.67,15.05-7.14,15.28A6.48,6.48,0,0,1,343.37,32C332.89,23.26,338.78-1.18,354,.59Z"/><path class="others" d="M362.43,62.71c0-1.21,0-1.91,0-1.91l.47-.09c3.53-3.31,2.45-11.84,2.37-16-.11-5,.76-13.14-3.17-17.32-.19-.2-.28-.3-.46-.51a8,8,0,0,1-.07-1c3.28-2.75,4.9-4.11,8.11-6.75l1.28.08.25,6.67c.72-3.15,4.41-7.15,7.44-6.57,3.28.63,4.6,5.23,5,8.69,1.11-3.17,5-7.86,8.11-7.41,4.63.68,5.64,10.5,5.93,15q.44,5.76.84,11.52c.44,4.48.15,11.51,3.8,14.81l.47.11c.09,1.15.13,1.72.21,2.87q-6.66-.25-13.32-.47c-.06-1.17-.09-1.75-.16-2.92l.55-.08c3.27-2.87,2-11.08,1.89-14.75-.26-4.11-.39-6.15-.65-10.23-.18-3-1-9.2-3.84-10-.85-.23-2.25,1.31-3.36,5.42.1.87.14,1.73.19,2.6q.32,5.88.62,11.77c.34,4.5-.14,11.77,3.53,15.1l.61.12.15,2.93q-6.48-.19-13-.35c0-1.19-.07-1.78-.11-3l.23-.1c3.16-3.27,2.05-11.08,2-15.06-.18-4.18-.27-6.27-.46-10.42-.12-3.06-.79-9.76-3.48-10.54-.7-.21-2,1.31-3.06,4.84l.57,15.85c.26,4.52-.36,11.91,3.3,15.3l.51.11c0,1.19.07,1.79.11,3q-6.69-.15-13.39-.25Z"/><path class="others" d="M408.46,23.24l1.25.18c.26,2.49.39,3.74.64,6.25.8-3.12,3.23-6.11,6.83-5.52,2.56.43,4.3,3.56,5.43,8.39,1.1-3,4.4-6.92,7.34-6.1,4.75,1.34,6.13,9.39,6.81,13.93.66,4.14,1,6.22,1.64,10.41a47.75,47.75,0,0,0,2.38,10.07c2.4,5.44,6.75,15.44,13.39,15.91a5.94,5.94,0,0,0,4.09-1.51,3.19,3.19,0,0,1,2.08-.73c1.3.06,2.64,1,3.3,3.37,1.22,4.33.16,7.56-2.19,8-7.83,1.58-13.79-11.15-17.35-15.44s-7.13-3.83-13.29-4.29c-.13-1.07-.2-1.61-.33-2.68l.54-.06c3-2.49,1.26-10.24.92-13.39-.52-3.75-.78-5.61-1.31-9.33-.49-3.46-1.82-8.27-4.41-9.34-.75-.3-2.09,1-2.9,4.71.14.81.24,1.6.34,2.4q.69,5.41,1.35,10.84c.64,4.29.71,11,4.4,14l.61.13c.14,1.07.2,1.61.33,2.69q-6.44-.35-12.87-.66c-.11-1.11-.17-1.67-.28-2.78l.23-.08c2.93-2.95,1.38-10.4,1.08-13.93-.42-3.89-.63-5.83-1.06-9.68-.35-3.09-1.34-9.11-4-10-.7-.24-1.84,1.07-2.69,4.3q.75,7.42,1.46,14.85c.53,4.37.4,11.32,4.1,14.43l.51.12c.11,1.11.16,1.67.27,2.78q-6.65-.3-13.29-.57c0-.42,0-.63-.07-1.05-.09-1.14-.09-1.8-.09-1.8l.45-.08c3.24-3,1.81-11.34,1.53-15-.38-5-.11-12.52-4-16.55l-.47-.51A8.87,8.87,0,0,1,401,29C404,26.6,405.51,25.45,408.46,23.24Z"/><path class="others" d="M448.26,30.36c7.83,2.07,11.55,13.29,13.13,20.19q-6.72-.87-13.48-1.61c1.22,5.16,4.3,13.45,10.8,13.24,1.18,0,2.61-1.73,3.26-5.4l.95,1.19c0,4.55-3.17,10.3-8.08,10.11-8.5-.33-12.6-11.49-13.61-18.63C440.58,44.78,438.54,27.79,448.26,30.36Zm-1,15.92c2.09.31,3.14.47,5.23.8,5.46-1.58-1.62-13.29-3.9-13.53C445.71,33.24,446.83,43.35,447.29,46.28Z"/><path class="others" d="M466.23,67.63c-.21-.95-.28-1.5-.28-1.5l.43,0c2.39-3.43.59-8.48-.27-12.21-1.08-4.6-2.06-10.45-5.89-13.87l-.52-.47a7.27,7.27,0,0,1-.23-.78c2.59-1.56,3.85-2.29,6.29-3.61l1.19.32q1.57,5.33,3.07,10.66c-.43-3.79-2.38-21.7,5.43-18.75,1.81.69,4.09,3.43,5.39,6.66,1.17,2.91,0,4-1.78,2.74a14.23,14.23,0,0,0-3.27-1.71c-6.58-2.27-4.83,12.31-4.59,15.26.56,2,.84,3,1.39,5.05,1.05,3.83,2.21,9.46,5.8,11.8l.47.11s.19.53.44,1.42l.22.82q-6.54-.52-13.09-1Z"/><path class="others" d="M480.54,58.68c.18,0,.33.12.59.16,2.09,3.9,5.35,9.31,9.63,10.09,2.05.37,3.06-1.48,2-4.33-.68-1.9-2.94-4.2-5.72-6a25.4,25.4,0,0,1-10-11.66c-1.48-3.74-.29-10,5.26-7.87a20.15,20.15,0,0,1,7.11,5c1.12,2.76,1.68,4.15,2.78,7l-.63-.15c-2.26-3.37-4.75-8-8.26-9.61-2.28-1-3.27,1.15-2.41,3.4,1.26,3.3,5.42,5.63,8.27,7.54a24.74,24.74,0,0,1,7.94,9.64c2.42,5-.47,9.78-6.07,9.29a13.26,13.26,0,0,1-7.66-3.83C482.27,63.88,481.7,62.14,480.54,58.68Z"/><path class="others" d="M501.48,70.77c-.31-.78-.44-1.24-.44-1.24h.42c1.92-2.7-.39-7.12-1.6-9.86-1.79-4-3.59-8.83-7.32-11.64l-.54-.43a6.51,6.51,0,0,1-.31-.64c2.26-1,3.35-1.4,5.45-2.11l1.15.4q4.13,7.93,8,16c1.5,3.23,3.61,8,7.08,9.63l.47.11s.25.42.6,1.14l.32.66q-6.51-.66-13-1.28ZM487.62,34c-1.41-2.94-1.17-4.23.64-3.34s3.91,3.21,5.42,6,1.25,4.1-.65,3.37S489,36.9,487.62,34Z"/><path class="others" d="M499.36,45.62q5.73,2,11.41,4.18l.38.57c.65,1,.73,1,.37.91,1.26,3.21,4.52,6,6.87,8.49,2.16,2.2,4.48,4.48,6.71,6.66-.65-2.21-1-3.28-1.76-5.34-1.42-3.91-3.33-6.5-4.57-7.14-.43-.19-.35-.17-1-1.07l-.4-.52c2.68,1.07,4,1.61,6.68,2.72l1.17,1.31-.39-.13c-1.35-.41-1.19,1.51.16,5.27a90.91,90.91,0,0,1,3.55,13.18l-1.35-.14Q519,66.53,511.43,58c-3.17-3.58-6.61-7.83-10.69-10.43l-.47-.2C499.91,46.65,499.72,46.31,499.36,45.62Z"/><path class="others" d="M531.41,58.13c5.61,3.23,12.81,7.2,18.39,11.6-4.19-1.11-8.37-2.17-12.57-3.21,3.89,3.76,8.53,7.22,14,7.83,1.08.13,1.88-.49,1.21-1.95l1.28.65c2.07,3.08-1.13,4.13-4.34,3.75-7.28-.87-13.89-5.51-18.09-11.13C530.07,64,524.17,54,531.41,58.13Zm4.44,7,4.91,1.38,1.1,0c-1.78-3.13-5.94-5.49-9-6.86C530.69,58.65,531.87,60.88,535.85,65.12Z"/><path class="others" d="M114.16,97.81,137,97.72l-1.28,1.77c-3.46,4.85-6.82,9.75-10,14.76a2,2,0,0,1-.63-.09c.28-.79.43-1.18.72-2,1-3.61,3.31-11.54-3.63-10.93a374.4,374.4,0,0,0-28.49,39.59c-2,3.48-8.25,11.79-5.64,15.9l.54.11s-.33.74-1,2c-.25.46-.37.69-.61,1.16H68.62l.65-1.16c.72-1.27,1.21-2,1.21-2l.65-.11c5.83-2.55,9.94-11,13.16-15.9a372.14,372.14,0,0,1,29-39.05l-2.8-.18.08-.09c-7.67-.8-15.59,6.32-20.33,11.5-.78.85-11.6,14.22-5.27,11.87,5.52-4.37,7.31-12.08,14.84-14.28,1.7-.47,2.15.82.16,3.72-4.38,6.38-12.17,14.88-20.38,15a5.23,5.23,0,0,1-3.7-1.17c-3.72-6.15,5.93-15,9.9-18.41C93.33,103.23,103.79,97.14,114.16,97.81Z"/><path class="others" d="M102.48,136.53c5.55-9.46,17-22.52,29.12-22.56s3,17.72.43,22.56c-5.23,10-14.79,23.84-27.51,24C90.59,160.79,99,142.48,102.48,136.53Zm3.75,20.55c5.26.71,13.46-14.52,16.86-20.55,1.12-2,10.08-19.1,6.39-19.46-5.79-.56-14.29,13.2-18,19.46C109.45,139.94,101.76,156.48,106.23,157.08Z"/><path class="others" d="M144.93,114.44h11.52q-8.22,13.78-15.31,28.14c-2.33,4.78-1.8,7.91,2.09,7.91,1,0,2-.83,3.11-2q3.58-7.86,7.41-15.59c1.49-3,7.38-11.89,5.11-15.58l-.49-.1s.33-.66,1-1.79c.24-.41.36-.62.61-1H171.5q-5,9.15-9.58,18.5c-2,4.29-7.77,12.85-4.45,17.76l.37.52a9.58,9.58,0,0,1-.36,1L143.16,160h-1.74c1.42-3.48,2.15-5.2,3.64-8.61-3.16,3.73-8.08,9-13,9.14-7.58.22-1.39-13.55-.07-16.46q3-6,6.24-11.86c1.46-2.74,7.62-11.39,5.45-14.89l-.48-.1s.36-.66,1.08-1.79Z"/><path class="others" d="M155.16,158.88c.49-1.27.84-2,.84-2l.64-.11C162,154.22,164.9,145,167,140.15c1.79-4.13,7.43-12.49,4.73-17.26l-.31-.48a8.36,8.36,0,0,1,.44-1l13.67-7h1.55q-3.5,6.91-6.67,14c3.23-4.78,7.67-11.85,13.05-13.61,3.29-1.07,3.55,2,1.81,7.12-1.38,4-4.71,7.36-5.66,6.58s-1.55-2.82-3.15-2.82c-1.33,0-3.53,1.42-7.68,6.36-1.52,3.48-2.27,5.24-3.74,8.81-1.44,3.79-5.81,12.22-2.57,15.9l.56.11s-.2.74-.64,2c-.16.46-.24.69-.41,1.16H154.72C154.89,159.57,155,159.34,155.16,158.88Z"/><path class="others" d="M204.51,127.44c4.91-13.37,17.31-30.08,33.4-30.16,4.38,0,9.59,1.6,11,6.32l-.06.18c1.74,8.44-3.88,18.25-11.39,22a12.28,12.28,0,0,1-6,1.76c-6,.12-5.9-5.76-4.88-9.52.82-3,3.43-4.89,4.79-5,3.92-.27-.6,8.21.56,9.17,6.78,1.46,10.74-13.62,10-18.52a6.3,6.3,0,0,0-5.25-2.87c-11.7.11-19.26,18-22.34,26.62-2.06,5.77-8.58,29,4.52,28.8a30.74,30.74,0,0,0,7.24-1.05c.72-2.94,1.08-4.4,1.83-7.28.78-3.35,3.59-10.75.31-13.58l-.54-.1s.15-.69.51-1.88c.13-.44.2-.65.33-1.09h16.17c-.11.44-.17.65-.28,1.09-.31,1.19-.54,1.88-.54,1.88l-.59.1c-4.56,2.08-5.67,9.33-6.81,13.58-.65,2.68-1,4-1.58,6.75-4.64,3.92-11.23,5.82-17.15,5.91C198.72,160.88,199.91,140,204.51,127.44Z"/><path class="others" d="M249.55,114.44h11.52q-3.54,14-6.51,28.14c-1,4.78.35,7.91,4.24,7.91.94,0,1.8-.83,2.59-2,.95-5.21,1.92-10.4,3-15.59.66-3.6,3.36-12.44.12-15.58l-.52-.1s.11-.66.38-1.79l.25-1h11.53c-1.28,6.15-2.46,12.32-3.58,18.5-.92,4.94-3.66,13.54.55,17.76l.51.52a8,8,0,0,1-.09,1q-6.17,3.9-12.35,7.78h-1.75c.57-3.48.86-5.2,1.46-8.61-2.62,3.76-5.83,9.06-10.7,9.14-7.09.12-5.37-12.14-4.35-16.46.91-4,1.83-7.92,2.8-11.86.73-3.29,3.75-11.92.67-14.89l-.51-.1s.13-.66.47-1.79Z"/><path class="others" d="M272.87,158.88c.17-1.27.34-2,.34-2l.61-.11c4.64-3,5.17-11.88,5.91-16.61.69-4.42,3.45-13.31-.54-17.26l-.46-.48a6.49,6.49,0,0,1,.12-1l11.3-7h1.55q-1.09,7-2.07,14c1.76-4.69,4.2-11.79,8.58-13.61,2.76-1.14,4.29,2,4.21,7.12-.06,4-2.36,7.36-3.55,6.58-1.35-.88-2.44-2.82-4-2.82-1.33,0-3.06,1.42-5.7,6.36-.47,3.48-.7,5.24-1.16,8.81-.43,4.36-2.23,12.66,1.68,15.9l.59.11s0,.74-.14,2c-.05.46-.08.69-.12,1.16H272.71C272.77,159.57,272.8,159.34,272.87,158.88Z"/><path class="others" d="M303.49,114.44H315q-1.08,14.07-2,28.14c-.41,3.56,1.11,8,5.35,7.91.93,0,1.69-.83,2.32-2q.33-7.8.69-15.59c.09-4,1.26-12.63-2.46-15.58l-.53-.1s0-.66.06-1.79c0-.41.05-.62.07-1h11.53q-.27,9.25-.49,18.5c-.16,5.31-1.49,13.77,3.13,17.76l.58.52a7.29,7.29,0,0,1,.05,1Q327.68,156.18,322,160h-1.75c.14-3.48.2-5.2.34-8.61-2.13,3.77-4.79,9.11-9.51,9.14-7,.05-7-11.53-6.55-16.46q.48-5.93,1-11.86c.23-3.67,1.74-12.12-1.8-14.89l-.52-.1s0-.66.15-1.79C303.42,115.06,303.44,114.85,303.49,114.44Z"/><path class="others" d="M356.26,97.72h7.12l.1,1c.1,1.07.11,1.69.11,1.69l-.5.09c-1.34.27-2.09,3.27-2.12,8q1.23,16.17,2.22,32.35c.18,4.55.26,13,4.45,15.9l.6.11s.11.74.19,2c0,.46,0,.69.07,1.16h-18c0-.47,0-.7,0-1.16,0-1.27,0-2,0-2l.59-.11c5.11-2.77,2.79-13.45,2.69-18.22-.12-2.9-.18-4.34-.29-7.18,4.7-2.66,6.33-9.67,6.19-14.57-.1-3.59-1.61-9.84-5.56-10.2a3.69,3.69,0,0,0-2.34.91,24.6,24.6,0,0,0-1.08-5.42c-3.11,2.49-4.11,6.83-4.3,10.59-.14,2.72-.67,13.85,4.54,11.86,1.5-4.52-2.69-11.38,2.92-14.27,1.29-.46,2.89.81,3.39,3.71,1,5.32-1,15.19-8.21,15a10,10,0,0,1-4.6-1.17C330.69,118.92,340.94,96.23,356.26,97.72Z"/><path class="others" d="M369.21,158.88c-.08-1.27-.07-2-.07-2l.59-.11c4.13-3.16,2.56-12.37,2.26-16.61-.36-5.3-.1-13.53-4.85-17.26l-.58-.48a7.71,7.71,0,0,1-.14-1q4.71-3.48,9.36-7h1.55c.33,2.58.49,3.89.82,6.53,1.12-3.81,4.43-7.07,8.44-7s6.1,4.87,7,8.24c1.49-3.84,4.94-8.24,9-8.24,5.87,0,8,10,9.16,14.74.85,4,1.64,8.09,2.42,12.15,1,4.47,1.77,13.48,6.43,15.9l.62.11.55,3.17H404.48c-.17-1.27-.26-1.91-.44-3.17l.71-.11c3.9-3,1.59-12.06,1.05-15.9q-.9-5.36-1.88-10.68c-.6-3.32-2.47-9.42-5.85-9.88-1.12-.15-2.58,1.5-3.54,5.78.2.87.34,1.75.48,2.63.65,4,1.26,8.1,1.87,12.15.73,4.33,1.19,13.58,5.77,15.9l.8.11c.17,1.26.26,1.9.43,3.17H387.09c-.12-1.27-.19-1.91-.32-3.17l.29-.11c3.75-3.32,1.89-11.76,1.46-15.9q-.66-5.34-1.39-10.68c-.45-3.28-1.95-9.82-5.16-10.36-.94-.15-2.3,1.42-3.36,5,.64,5.34,1.22,10.69,1.79,16,.55,4.25.66,13.57,5.16,15.9l.67.11c.13,1.26.2,1.9.32,3.17H369.28C369.25,159.57,369.24,159.34,369.21,158.88Z"/><path class="others" d="M423.15,114.44h1.55c.74,2.58,1.11,3.89,1.82,6.53.27-3.53,3.73-7.19,7.37-7,4.19.22,6.82,4.79,8.23,8.24.9-3.78,3.82-8.28,7.75-8.24,5.94.07,9.65,9.72,11.37,14.74,1.39,4,2.74,8.08,4.05,12.15a63.9,63.9,0,0,0,4.76,11.92c4.19,6.6,11,18.88,19.79,19.08a7.3,7.3,0,0,0,5.15-2.17,4,4,0,0,1,2.62-1.08c1.71,0,3.57,1.28,4.81,4.34s2.35,9.7-1.87,10.8c-9.65,2.52-19.59-14.09-24.76-19.34s-9.87-4-17.88-4.37c-.31-1.27-.47-1.91-.79-3.17l.69-.11c3.64-3.15.07-12.37-.87-15.9s-2.16-7.14-3.31-10.68-3.73-9.41-7.28-9.88c-1.13-.15-2.35,1.5-2.7,5.78.33.87.6,1.75.86,2.63q1.8,6.06,3.5,12.15c1.35,4.56,2.86,13.58,7.71,15.9l.8.11c.32,1.26.48,1.9.79,3.17H440.53c-.27-1.27-.41-1.91-.68-3.17l.27-.11c3.46-3.49.43-12-.46-15.9q-1.35-5.36-2.82-10.68c-1-3.49-3.27-9.82-6.67-10.36-.94-.15-2.07,1.42-2.61,5q2.07,8,4,16c1.15,4.49,2.33,13.58,7.09,15.9l.68.11c.27,1.26.41,1.9.67,3.17H422.71l-.2-1.16c-.22-1.27-.3-2-.3-2l.58-.11c3.85-3.31,1-12.73.25-16.61-1.13-5.52-2-13.69-7.23-17.26l-.66-.48a7.75,7.75,0,0,1-.28-1C417.65,119.14,420.42,116.8,423.15,114.44Z"/><path class="others" d="M473.09,114c10.64.24,17.66,14.29,21.42,22.66l-17.47.5c2.81,6.34,8,16.45,16.41,15.34,1.52-.2,3.09-2.63,3.15-7.64l1.48,1.43c-.07,5.91-1.44,14.23-8.65,14.31-10.79.12-17.86-12.6-20.78-21.73C466.68,132.67,461.24,113.71,473.09,114Zm2.61,20h6.78c6.55-2.16-5-16.55-8.11-16.11C470.56,118.37,474.52,130.58,475.7,133.94Z"/><path class="others" d="M504.2,158.88c-.44-1.27-.64-2-.64-2l.56-.11c3.39-3.62-1.46-13.2-2.84-16.61-2.38-5.89-4.93-13.75-10.89-17.26l-.77-.48s-.23-.39-.5-1c2.77-2.84,4.1-4.24,6.64-7h1.55q3.65,6.91,7,14c-1.35-4.38-9.66-30.95-.12-30.26,3.78.28,7.15,4.31,9.14,7.43,2.6,4.08,1.67,6.43-1,5.41a12.7,12.7,0,0,0-4.55-1c-8.81.11-2,19.63-.88,24.06,1.22,2.7,1.83,4.06,3,6.82,2.17,4.83,4.79,13.45,10,15.9l.64.11s.35.74.84,2c.18.46.27.69.44,1.16H504.61C504.44,159.57,504.36,159.34,504.2,158.88Z"/><path class="others" d="M520.91,143.91c.23,0,.45.1.8.1,3.17,4.87,8.76,13.24,14.73,13.6,2.81.16,3.74-3,1.71-7.22-1.72-3.59-5.28-6.31-8.84-8.11-6.32-3.22-13-8.6-15.92-14.84-2-4.34-5.28-14.94,3.78-14.4a18.18,18.18,0,0,1,10.55,4.69c2,3.49,4,7,5.93,10.59h-.83c-3.52-4.17-8.38-11.29-13.59-12.19-3.1-.53-3.58,3.26-1.76,6.47,2.43,4.29,8.54,6.71,12.75,8.86a29.86,29.86,0,0,1,12.9,13.47c2.67,6,4.4,16.41-5.83,16.17a17.9,17.9,0,0,1-10.75-4.76Q523.83,150.08,520.91,143.91Z"/><path class="others" d="M550.84,158.88c-.57-1.27-.84-2-.84-2l.55-.11c3.07-3.81-2.92-13.34-4.55-16.51-3.14-6.1-6.65-13.77-13-17.36l-.83-.48s-.34-.48-.62-1c2.42-2.84,3.57-4.24,5.75-7h1.55c5.64,8.62,10.92,17.4,15.9,26.42,2.61,4.83,6.25,13.42,11.72,15.9l.65.11s.42.74,1,2c.23.46.34.69.56,1.16H551.36ZM521,100.74c-3-4.36-3.47-7.16-1.19-7,3.71.2,7.16,4.08,9.32,7,3.2,4.35,3.45,7.35,1,7.22C526.42,107.76,523.09,103.73,521,100.74Z"/><path class="others" d="M540.26,114.44h15.52l.74,1c1.28,1.79,1.38,1.79.91,1.89,1.17,5.36,8.69,11.13,12.22,14.89,3.68,3.88,7.34,7.78,10.91,11.76-1.32-4-2.69-7.86-4.15-11.76-2-4.69-4.28-12.17-9-14.89-.6-.1-.49-.1-1.82-1.89l-.78-1h9.29c.88,1.12,1.31,1.69,2.18,2.82l-.52.1c-2.63,3.67,1.56,11.22,2.86,14.89a265.94,265.94,0,0,1,8.56,28.85h-1.81q-12.21-14.74-25.16-28.85c-4.82-5.06-10.6-12.29-17.41-14.89l-.65-.1C541.38,116.13,541,115.56,540.26,114.44Z"/><path class="others" d="M584.36,114c12.06.7,22.55,14,29.15,22.66l-17.32.5c4.76,6.25,12.18,16.36,20.92,15.34,1.43-.17,2.37-2.63,1-7.64l1.89,1.43c1.34,4.9,2.91,14.23-4.72,14.31-11.52.12-21.39-12.84-26.92-21.73C586.55,136,571.82,113.24,584.36,114Zm9.48,20h6.79c5.3-4-11.07-16.66-13.58-16.11C584.13,118.46,592.1,131.35,593.84,133.94Z"/><path class="others" d="M52.15,196l29.06-.1c-.21.75-.31,1.13-.51,1.89-1.4,5.13-2.77,10.28-3.93,15.48a3.54,3.54,0,0,1-.83-.1c-.08-.81-.12-1.22-.19-2-.16-6.35-4.71-11.44-11.13-11.46a416,416,0,0,0-12.87,40.51c-.88,4-3.71,12.62.47,15.61l.66.11s-.08.71-.33,1.94c-.09.45-.13.68-.22,1.13H31.53c.09-.45.14-.68.24-1.13.26-1.23.49-1.94.49-1.94l.71-.11c5-2.52,6.48-10.84,7.86-15.61a400.36,400.36,0,0,1,13-39.95l-3.66-.19,0-.09c-7.84-.81-14.61,5.49-17.75,12-1,2.1-6.09,14.94.79,12.18,3.45-5,2.36-12.5,9.5-14.69,1.81-.48,3.19.86,2.52,3.86-1.66,7.32-7.87,15.31-15.94,15.37a10.46,10.46,0,0,1-5.08-1.19c-6.49-4.38-3-13.88.6-18.88C31,200,41.63,195.39,52.15,196Z"/><path class="others" d="M60.13,235.88C62.84,225,71.64,212.93,83.94,213s13.28,13.56,11,22.9c-2.51,10.5-10.18,23.51-22.43,23.62C59.86,259.61,57.75,245.5,60.13,235.88Zm13.06,20.23c6.29.13,9.92-14.59,11.25-20.23.83-3.48,4.19-19.58-1.48-19.7-6.4-.14-10.78,13.91-12.22,19.7C69.77,239.81,67,256,73.19,256.11Z"/><path class="others" d="M100.57,213.46h14.16c-2.49,9.43-4.72,18.89-6.69,28.44-1,3.8.88,7.91,5.24,7.79a4.22,4.22,0,0,0,2.92-1.93q1.39-7.75,3-15.46c.7-3.65,3.59-12.94-.25-15.83l-.63-.1a18.2,18.2,0,0,1,.41-1.84l.28-1.07h14.16c-1.56,6.25-3,12.53-4.26,18.84-1,4.91-4,13.67.8,17.59l.6.51a6.91,6.91,0,0,1-.1,1L116.31,259h-2c.52-3.37.8-5,1.37-8.38-3.06,3.91-6.44,8.7-11.86,8.9-7.9.28-7-11.23-5.9-16.09q1.2-5.92,2.6-11.81c.69-3.39,3.66-12.45-.1-15.13l-.63-.1s.12-.68.46-1.84Z"/><path class="others" d="M129.62,257.85c.18-1.23.36-1.94.36-1.94l.69-.11c5-2.66,5.87-11.56,6.77-16.31.83-4.39,4.05-13.64-.52-17.36l-.55-.49a6.62,6.62,0,0,1,.15-1l13.95-7.2h1.9q-1.6,7.11-3,14.28c2.24-4.86,5.77-12.35,11-13.89,3.76-1.12,5.12,2.12,4.71,7.3-.33,4.11-3.26,7.47-4.65,6.69-1.56-.89-2.79-2.86-4.71-2.86-1.6,0-3.76,1.46-7,6.42-.66,3.5-1,5.25-1.58,8.79-.57,4.23-2.63,12.72,1.68,15.61l.67.11s0,.71-.2,1.94l-.15,1.13H129.45C129.52,258.53,129.55,258.3,129.62,257.85Z"/><path class="others" d="M177.92,226.75c2.73-16.17,14.65-31.45,32-31.32,5.5,0,12.75,1.45,15.78,6.71l0,.19c4.18,8.28-.49,19-8.67,22.74a13.58,13.58,0,0,1-6.81,1.78c-5.57,0-9.16-4.13-8.32-9.7.5-3.29,3.06-5.24,4.5-5.14,3.8.26,2.06,6.36,3.11,9.43,7.71,2.53,9.89-14.74,7.48-19.2a11.27,11.27,0,0,0-7.48-3c-12.76,0-18.49,17.62-19.78,27.55-1.16,8.9-1.8,28.59,12,28.54a36.19,36.19,0,0,0,8.08-1c.27-2.86.42-4.28.71-7.12.23-3.26,1.8-11.71-2.5-13.46l-.66-.1s0-.7.18-1.89c.06-.44.08-.66.14-1.09h19.25c-.05.43-.08.65-.12,1.09-.14,1.19-.28,1.89-.28,1.89l-.68.1c-4.54,1.75-5.14,9.39-5.42,13.46-.26,2.63-.38,4-.61,6.61-5,4.08-12.23,5.67-18.5,5.74C182.94,259.7,175.15,243.15,177.92,226.75Z"/><path class="others" d="M229.16,213.46h14.16q-1.6,14.21-2.85,28.44c-.55,4,1.76,7.88,6.1,7.79a3.69,3.69,0,0,0,2.72-1.93q.56-7.74,1.22-15.46c.4-4,1.75-13.12-2.46-15.83l-.65-.1a18.36,18.36,0,0,1,.13-1.84c.05-.43.07-.64.12-1.07h14.16q-.87,9.4-1.59,18.84c-.43,5.11-2.22,14,2.85,17.59l.65.51a5.89,5.89,0,0,1,0,1L250.52,259h-2c.21-3.37.32-5,.56-8.38-2.7,4-5.7,8.75-11,8.9-7.74.21-8.12-10.79-7.56-16.09q.54-5.91,1.17-11.81c.27-3.77,1.88-12.6-2.22-15.13l-.65-.1s0-.68.18-1.84C229.07,214.1,229.1,213.89,229.16,213.46Z"/><path class="others" d="M263.72,257.85c.06-1.23.17-1.94.17-1.94l.69-.11c4.79-2.7,4.69-11.8,5-16.31.34-4.84,2.17-13.81-2.79-17.36l-.62-.49a5.81,5.81,0,0,1,0-1l12.87-7.2H281q-.49,7.14-.93,14.28c1.6-4.66,4-12.25,9-13.89,4.21-1.39,5.69,4.2,5.8,7.3.14,4-2.22,7.47-3.71,6.69C289.4,227,287.91,225,286,225c-1.6,0-3.54,1.46-6.17,6.42-.2,3.5-.3,5.25-.48,8.79-.28,3.88-1.12,13.51,3.34,15.61l.68.11s0,.71,0,1.94c0,.45,0,.68,0,1.13H263.66C263.68,258.53,263.69,258.3,263.72,257.85Z"/><path class="others" d="M295.45,213.46h14.16q-.48,14.22-.86,28.44c-.3,4,2.19,7.87,6.54,7.79a3.41,3.41,0,0,0,2.61-1.93q.14-7.74.28-15.46c.15-4.21.79-13.18-3.6-15.83l-.66-.1s0-.68,0-1.84c0-.43,0-.64,0-1.07h14.17q-.12,9.42-.22,18.84c-.09,5.29-1.28,14,3.91,17.59l.68.51a7.52,7.52,0,0,1,.06,1q-6.41,3.79-12.83,7.57h-2c0-3.37.07-5,.12-8.38-2.5,4-5.3,8.77-10.54,8.9-7.67.18-8.66-10.61-8.41-16.09q.21-5.91.43-11.81c0-4,1-12.66-3.31-15.13l-.65-.1s0-.68,0-1.84Z"/><path class="others" d="M361.15,195.9h9.09l.05,1c0,1.13,0,1.79,0,1.79l-.64.09c-1.73.29-2.88,3.49-3.22,8.48q.54,16.44.94,32.89c0,4.46-.07,13.09,4.4,15.61l.68.11s.09.71.12,1.94c0,.45,0,.68,0,1.13H352.15c0-.45,0-.68,0-1.13,0-1.23.05-1.94.05-1.94l.68-.11c5.63-2.34,3.54-13.11,3.56-17.92-.05-2.88-.07-4.32-.12-7.17,5.3-2.48,7.89-9.39,8.07-14.83.13-4-2-10.34-6.38-10.59a5.32,5.32,0,0,0-3,1,21.65,21.65,0,0,0-1.16-5.71c-3.72,2.38-5.32,6.92-5.66,11.09-.26,3.17-.77,14.49,5.24,12.18,1.47-4.53-2.4-12.53,4.05-14.68,1.62-.48,3.55.86,4,3.86,1.13,6.83-2.52,15.36-10.47,15.35a13,13,0,0,1-5.48-1.19c-6.45-3.56-8.54-12-6.37-18.73C342.25,199,351.93,195.34,361.15,195.9Z"/><path class="others" d="M373.48,257.85c0-1.23,0-1.94,0-1.94l.68-.11c4.64-2.75,3.65-12,3.57-16.31-.09-5.27.59-13.94-4.64-17.36l-.68-.49a5.66,5.66,0,0,1-.11-1q6-3.58,12-7.2h1.9c.16,2.67.23,4,.38,6.71A12.33,12.33,0,0,1,397.65,213c4.48,0,6.76,4.61,7.46,8.46,2.59-4.32,7.21-8.38,12.2-8.46,6.68-.12,8.32,9.85,8.73,15.05q.56,6.08,1,12.16c.26,4.18.59,13.56,5.22,15.61l.69.11.2,3.07H413.54c-.06-1.23-.1-1.85-.16-3.07l.81-.11c4.42-2.49,3.41-11.6,3.1-15.61q-.37-5.34-.79-10.67c-.27-3.5-1.89-9.65-5.66-10-1.41-.15-3.36,1.55-5,5.88.13.89.19,1.77.25,2.66q.42,6.08.79,12.16c.18,4.08.34,13.66,5,15.61l.89.11c.07,1.22.1,1.84.17,3.07h-19.1c-.05-1.23-.07-1.85-.12-3.07l.34-.11c4.23-2.84,3.34-11.4,3.08-15.61q-.27-5.34-.59-10.67c-.19-3.44-1.53-10.05-5.14-10.52-1.19-.16-2.94,1.45-4.54,5.09q.4,8.06.76,16.1c.11,4,.12,13.65,4.72,15.61l.76.11c.05,1.22.07,1.84.12,3.07H373.5C373.49,258.53,373.49,258.3,373.48,257.85Z"/><path class="others" d="M442.53,213.46h1.9c.35,2.67.51,4,.84,6.71A11.35,11.35,0,0,1,455.84,213c4.52,0,7.07,4.57,8,8.46,2.31-4.33,6.66-8.32,11.62-8.46,6.79-.21,9,9.91,9.73,15.05.61,4.05,1.17,8.1,1.72,12.16a43.75,43.75,0,0,0,2.74,11.73c3.55,6.87,9.22,18.33,18.21,18.43a11,11,0,0,0,6.26-2.08,6.1,6.1,0,0,1,3.2-1c1.92,0,3.72,1.21,4.36,4.15.83,3.82-.07,9.33-4.5,10.26-10.4,2.16-18.5-12.93-23.51-18.45s-11.3-3.54-19.4-4.22c-.11-1.23-.17-1.85-.29-3.07l.81-.11c4.35-2.53,2.85-11.73,2.34-15.61q-.65-5.34-1.4-10.67c-.5-3.6-2.47-9.65-6.28-10-1.42-.15-3.26,1.55-4.67,5.88.18.89.3,1.77.42,2.66.53,4.05,1,8.1,1.48,12.16.6,4.24.9,13.62,5.72,15.61l.9.11c.11,1.22.17,1.84.29,3.07h-19.1c-.09-1.23-.14-1.85-.25-3.07l.34-.11c4.15-2.89,2.79-11.53,2.32-15.61q-.56-5.34-1.19-10.67c-.43-3.56-2.14-10.05-5.81-10.52-1.2-.15-2.84,1.45-4.21,5.09q.9,8,1.7,16.1c.53,4.21.69,13.61,5.48,15.61l.76.11.25,3.07H434.28c0-.45,0-.68-.08-1.13-.08-1.23-.06-1.94-.06-1.94l.67-.11c4.56-2.79,3.08-12.12,2.78-16.31-.38-5.45-.28-14-5.67-17.36l-.71-.49a6.34,6.34,0,0,1-.17-1Q436.8,217.08,442.53,213.46Z"/><path class="others" d="M504.07,213c11,.1,16.93,13.58,18.38,23l-20.75.5c1.8,7.21,6.11,16.18,15,15.14,1.8-.21,4.22-2.56,5.76-7.5l1.3,1.41c-1.26,6.71-6.34,14-13.71,14-11.34,0-17.42-11.45-18.64-21.32C490.23,228.72,491,212.86,504.07,213ZM501,233.29h8c7.79-1.45.53-16.47-4.72-16.34C498.81,217.09,500.51,229.46,501,233.29Z"/><path class="others" d="M527.27,257.85c-.16-1.23-.19-1.94-.19-1.94l.67-.11c4.44-2.87,2.2-12.37,1.56-16.31-.92-5.67-1.54-14-7.25-17.36l-.76-.49a7.8,7.8,0,0,1-.26-1q5.37-3.58,10.74-7.2h1.9q1.68,7.11,3.14,14.28c0-8.49.55-31.84,12.93-31.37,4,.15,6.75,4.3,7.77,7.87,1.22,4.27-1,6.72-3.81,5.65a14.63,14.63,0,0,0-5.18-1.06c-10.58.09-10.18,17.33-10.59,24.56.53,2.71.78,4.07,1.27,6.8.9,4.42,1.73,13.52,6.63,15.61l.7.11s.18.71.36,1.94c.06.45.1.68.16,1.13H527.42Z"/><path class="others" d="M551,243.21c.27,0,.49.1.89.1,2.13,5,6.56,13.09,12.49,13.31,3.28.13,5.25-2.91,4.38-7-.75-3.59-4.15-6.37-7.39-8-5.64-2.87-11.88-8.41-13.33-14.85-1.73-7.63,2.19-15,10.66-14.74a15.5,15.5,0,0,1,10.76,4.85q1.32,5.37,2.49,10.78h-1c-2.48-4.36-6.19-11.67-11.14-12.44-3.71-.57-5.8,3.4-4.93,6.63,1.18,4.4,8,7,11.67,9a20.49,20.49,0,0,1,9.94,13.41c1.7,8.51-3.3,15.78-12.26,15.79a16.3,16.3,0,0,1-10.77-4.62C552.7,251.32,551.88,247.27,551,243.21Z"/><path class="others" d="M580.4,257.85c-.21-1.23-.26-1.94-.26-1.94l.66-.11c4.36-2.9,1.68-12.41.89-16.21-1.21-5.81-2.29-14.11-8.17-17.46l-.79-.49s-.19-.49-.32-1q5.21-3.58,10.38-7.2h1.9c2.58,8.85,4.9,17.74,7,26.73,1.12,4.5,2.32,13.52,7.29,15.61l.71.11s.2.71.43,1.94l.2,1.13H580.59C580.52,258.53,580.48,258.3,580.4,257.85Zm-10.64-58.74c-1.44-4.6-.47-7.6,2.56-7.52,3.9.1,6.6,4.09,7.73,7.52,1.52,4.6.41,7.69-2.7,7.61C573.43,206.62,570.83,202.54,569.76,199.11Z"/><path class="others" d="M586.46,213.46h19.08c.14.43.21.64.34,1.07.59,1.84.72,1.84.09,1.94-1.42,4.12,5.26,12.13,7.14,15.13,2.49,3.88,5,7.78,7.37,11.71q.45-5.85.66-11.71c.24-4.3.74-12.08-3-15.13-.69-.1-.55-.1-1.16-1.94-.14-.43-.22-.64-.36-1.07H628c.41,1.16.61,1.74,1,2.91l-.69.1c-4.52,2.71-4.19,10.58-4.59,15.13-.61,9.52-1.57,19-2.86,28.41h-2q-8.15-14.41-17-28.41c-3.49-5.22-7.65-12.58-13.8-15.13l-.75-.1C587,215.2,586.81,214.62,586.46,213.46Z"/><path class="others" d="M641,213c11.37.15,18.89,13.36,21.8,23l-20.68.5c2.72,7.13,7.82,16.18,16.79,15.14,1.78-.21,4-2.56,4.9-7.5l1.47,1.41c-1.28,6.82-4.38,13.68-12.2,14-11.48.42-18.65-11.83-21-21.32C629.85,229.71,627.62,212.8,641,213Zm0,20.31h8c8-1.58-2.47-16.47-7.13-16.34C636.48,217.11,640.1,230.08,641,233.29Z"/><path class="main" d="M27,294.08l31.58-.1c0,.79,0,1.18,0,2,0,5.34,0,10.69.27,16a4.4,4.4,0,0,1-.91-.1c-.32-.84-.47-1.26-.79-2.09-2.31-6.42-8.15-12.28-15.43-11.89-1.23,13.84-1.8,27.66-1.71,41.55,0,4.1,0,13.52,4.71,15.47l.7.1s.11.7.17,1.89c0,.44,0,.66.07,1.1H24.39c0-.44,0-.66-.07-1.1-.07-1.19,0-1.89,0-1.89l.7-.1c4.43-2.45,3.77-11.4,3.68-15.47-.14-13.69.38-27.31,1.57-40.95l-4-.2v-.1c-7.83-.89-13.86,5.16-15.1,12.48-.46,2.73-1.54,15.65,4.78,12.51,1.9-4.91-1.66-12.91,5.41-15.09,1.79-.5,3.7.89,3.93,4,.58,7.28-3.88,15.75-12.06,15.74a13.81,13.81,0,0,1-5.73-1.21C.56,322.9-1,314,1.82,307.23,5.89,297.29,16.94,293.5,27,294.08Z"/><path class="main" d="M47.58,335.11c0-11.06,6.53-23.24,18.87-23.42S84,324.56,84,335.11,79,358.7,66.5,358.52C54.18,358.34,47.6,346.18,47.58,335.11Zm18.75,20.12c6.45,0,6.66-15.3,6.66-20.12S72.73,315,66.28,315c-6.71,0-7.62,15-7.61,20.13S59.62,355.22,66.33,355.23Z"/><path class="main" d="M84.35,312.19H99.48q-.6,14.49-.48,29c-.12,4.21,2.73,7.82,7.11,7.74a3.3,3.3,0,0,0,2.62-1.9q-.2-7.78-.15-15.55c0-4.37.8-13.49-3.84-16.19l-.7-.1s0-.7,0-1.9l0-1.09h15.13c-.28,6.42-.42,12.85-.47,19.28-.07,5.42-1,14.21,4.4,17.65l.71.51a5.43,5.43,0,0,1,.1,1L111.15,358h-2c-.15-3.27-.22-4.91-.32-8.19-2,4.05-5.39,8.61-10.3,8.69-7.74.13-9.61-9.95-9.65-15.83-.07-4-.09-8,0-11.93s.64-13-3.82-15.48l-.7-.1s0-.7,0-1.9Z"/><path class="main" d="M124.55,356.92c0-1.19,0-1.89,0-1.89l.7-.1c4.67-2.62,3.81-11.89,3.85-16.18,0-5.24,1.21-14.19-4.06-17.66l-.69-.5a6.16,6.16,0,0,1,0-1q6.66-3.7,13.35-7.39h2q-.28,7.31-.38,14.63c1.39-4.81,3.86-12.6,9-14.23,4.4-1.41,6.15,4.15,6.37,7.5.26,4.09-2.1,7.64-3.7,6.83-1.81-.9-3.47-2.92-5.5-2.92-1.69,0-3.7,1.5-6.19,6.56,0,3.55,0,5.35,0,8.9-.05,4.06-.14,13.51,4.54,15.47l.7.1s.09.7.14,1.89c0,.44,0,.66,0,1.1h-20.1C124.57,357.58,124.57,357.36,124.55,356.92Z"/><path class="main" d="M169.21,325.82c.21-17.21,11.15-32.22,29.33-32.33,6.21,0,14.18,1.67,18.05,7v.2c5.64,7.62,1.91,19.54-6.38,23.42a14.49,14.49,0,0,1-7,1.82A9.83,9.83,0,0,1,193.09,316c0-3.35,2.51-5.37,4.07-5.29,4.4.24,2.64,6.51,4.61,9.7,8.47,2.88,8.29-15.73,5.38-19.81a14.09,14.09,0,0,0-8.52-3.16c-13.46,0-16.88,18.3-17,28.4s2.86,28.63,16.4,28.61a36.4,36.4,0,0,0,8.17-1c-.06-2.8-.08-4.2-.12-7,0-3.69.27-11.87-4.29-13.53l-.7-.1s-.07-.71-.06-1.92v-1.11h20.22c0,.44,0,.67,0,1.11,0,1.21-.07,1.92-.07,1.92l-.71.1c-4.53,1.74-4.29,9.65-4.14,13.53,0,2.62.06,3.92.11,6.52-4.9,4.12-12.15,5.53-18.29,5.59C179.82,358.69,169,343.16,169.21,325.82Z"/><path class="main" d="M221.7,312.19h15.13q-.26,14.49-.2,29c-.16,4.19,2.64,7.83,7,7.74a3.36,3.36,0,0,0,2.64-1.9q-.08-7.78-.05-15.55c-.09-4.43.65-13.5-4.06-16.19l-.7-.1s-.06-.7,0-1.9c0-.44,0-.65,0-1.09h15.13q-.16,9.63-.17,19.28c-.05,5.37-1.11,14.2,4.27,17.65l.71.51a7.09,7.09,0,0,1,.08,1l-13,7.39h-2c-.06-3.27-.08-4.91-.12-8.19-2.5,4-5.26,8.59-10.51,8.69-7.73.15-9.37-10-9.35-15.83q0-6,0-11.93c0-4.16.49-13-4-15.48l-.7-.1s0-.7,0-1.9C221.68,312.84,221.69,312.63,221.7,312.19Z"/><path class="main" d="M261.9,356.92c0-1.19,0-1.89,0-1.89l.7-.1c4.75-2.61,4-11.83,4.09-16.18.07-5.27,1.17-14.2-4.16-17.66l-.7-.5a7.52,7.52,0,0,1-.06-1q6.58-3.7,13.19-7.39h2q-.09,7.32-.12,14.63c1.33-4.76,3.68-12.62,8.73-14.23,4.37-1.4,6.26,4.12,6.53,7.5.34,4.1-2,7.64-3.61,6.83-1.82-.9-3.49-2.92-5.53-2.92-1.68,0-3.66,1.5-6.13,6.56v8.9c-.06,4-.31,13.51,4.31,15.47l.7.1s.08.7.09,1.89c0,.44,0,.66,0,1.1h-20.1C261.91,357.58,261.91,357.36,261.9,356.92Z"/><path class="main" d="M292.51,312.19h15.13q-.08,14.49-.06,29c-.18,4.18,2.59,7.83,7,7.74a3.37,3.37,0,0,0,2.66-1.9q0-7.78,0-15.55c-.1-4.47.58-13.5-4.17-16.19l-.7-.1s-.07-.7-.06-1.9v-1.09h15.13q0,9.63,0,19.28c0,5.35-1.14,14.2,4.22,17.65l.7.51a6.4,6.4,0,0,1,.07,1L319.27,358h-2c0-3.27,0-4.91,0-8.19-2.54,4-5.35,8.58-10.61,8.69-7.73.15-9.25-10.08-9.19-15.83,0-4,0-7.95,0-11.93,0-4.19.41-13.05-4.14-15.48l-.7-.1s-.07-.7-.06-1.9C292.51,312.84,292.51,312.63,292.51,312.19Z"/><path class="main" d="M363.13,294H373c0,.43,0,.65,0,1.08a17.59,17.59,0,0,1-.05,1.87l-.69.1c-1.88.29-3.24,3.64-3.76,8.79q.07,16.83,0,33.64c-.12,4.37-.41,13.05,4.08,15.47l.7.1s.07.7.06,1.89c0,.44,0,.66,0,1.1H352.47v-1.1c0-1.19.07-1.89.07-1.89l.7-.1c5.77-2.19,3.86-13,4-17.79v-7.29c5.55-2.49,8.51-9.5,8.87-15.17.26-4.17-1.93-10.69-6.57-10.94a6,6,0,0,0-3.21,1,21.34,21.34,0,0,0-1.15-5.93c-4,2.4-5.83,7.09-6.25,11.49-.27,2.86-.74,15.54,5.42,12.51,1.68-4.75-2.31-12.93,4.58-15.09,1.75-.5,3.79.89,4.22,4,1.06,7.24-3.2,15.75-11.39,15.74a13.93,13.93,0,0,1-5.75-1.21c-6.78-3.62-9-12.26-6.68-19.24C342.6,297,353.4,293.42,363.13,294Z"/><path class="main" d="M374.32,356.92c0-1.19.09-1.89.09-1.89l.7-.1c4.8-2.61,4.19-11.79,4.27-16.18.1-5.3,1.13-14.2-4.24-17.66l-.7-.5a7.15,7.15,0,0,1-.08-1l13.06-7.39h2c0,2.75,0,4.13.06,6.89a14,14,0,0,1,12.19-7.39c4.68,0,6.91,4.68,7.38,8.7,3-4.2,8.2-8.65,13.63-8.7,7.32-.07,8,10.38,8,15.44q0,6.17,0,12.33c-.09,3.93-.51,13.5,4.05,15.47l.7.1c0,1.2,0,1.8-.06,3h-20.1l.05-3,.84-.1c4.62-2.33,4.36-11.28,4.34-15.47,0-3.61,0-7.21,0-10.82s-1.29-9.89-5.2-10.26c-1.52-.14-3.7,1.6-5.77,6,.07.9.08,1.81.08,2.72q0,6.17,0,12.33c-.08,3.88-.5,13.61,4.09,15.47l.9.1c0,1.2,0,1.8,0,3H395c0-1.19,0-1.79,0-3l.35-.1c4.43-2.69,4.05-11.16,4-15.47,0-3.61,0-7.21,0-10.82s-1.08-10.3-4.83-10.76c-1.28-.16-3.21,1.5-5.09,5.22,0,5.45,0,10.91,0,16.36-.09,3.89-.48,13.61,4.12,15.47l.77.1c0,1.2,0,1.8,0,3H374.32Z"/><path class="main" d="M449.62,312.19h2c.06,2.75.09,4.13.13,6.89a13.84,13.84,0,0,1,12.11-7.39c4.69,0,7,4.66,7.47,8.7,2.92-4.19,8.13-8.66,13.55-8.7,7.32-.06,8.09,10.34,8.08,15.44q0,6.17,0,12.33a39.14,39.14,0,0,0,1.17,11.67c2.66,6.7,7.25,17.73,15.94,17.8a13.39,13.39,0,0,0,6.67-2,7.31,7.31,0,0,1,3.4-1c2,0,3.61,1.14,3.77,4,.23,4.08-1.77,8.79-6.12,9.62-10.05,1.92-17-11.24-21.12-17.44-4-6-12.21-3.52-19.25-4.08,0-1.19,0-1.79.08-3l.84-.1c4.65-2.33,4.45-11.25,4.45-15.47,0-3.61,0-7.21,0-10.82s-1.34-9.89-5.26-10.26c-1.52-.14-3.68,1.6-5.73,6,.08.9.09,1.81.1,2.72q0,6.17,0,12.33c-.1,3.86-.58,13.61,4,15.47l.91.1c0,1.2-.05,1.8-.08,3H457.23c0-1.19,0-1.79.07-3l.35-.1c4.45-2.68,4.14-11.13,4.13-15.47,0-3.61,0-7.21,0-10.82s-1.13-10.3-4.89-10.76c-1.29-.16-3.2,1.5-5.05,5.22q.07,8.17.05,16.36c-.09,3.86-.55,13.61,4,15.47l.77.1c0,1.2,0,1.8-.07,3H436.5c0-.44,0-.66,0-1.1a18.92,18.92,0,0,1,.11-1.89l.7-.1c4.84-2.6,4.28-11.76,4.38-16.18.12-5.32,1.11-14.21-4.28-17.66l-.71-.5a7.15,7.15,0,0,1-.08-1Z"/><path class="main" d="M515.44,311.69c11.52.16,15.49,14,15.28,23.52l-21.76.51c.72,7.37,5.06,16.93,13.06,15.11,3.44-.79,5.23-4.24,7.23-7.43.45.56.67.84,1.1,1.41-3.16,6.66-8.34,13.69-16.42,13.71-11.37,0-15.91-11.08-16-21.08C497.84,326.63,502.24,311.5,515.44,311.69Zm-6.69,20.79h8.42c7.74-1.31,4.21-16.87-2.16-16.7C509.05,315.94,508.87,327.86,508.75,332.48Z"/><path class="main" d="M531.85,356.92c0-1.19.14-1.89.14-1.89l.7-.1c4.89-2.6,4.43-11.72,4.54-16.18.15-5.34,1.08-14.21-4.34-17.66l-.72-.5a6.2,6.2,0,0,1-.09-1q6.43-3.69,12.86-7.39h2q.28,7.31.39,14.63c2-10.31,7.4-32.6,20.84-32.35,4.08.08,6.26,4.53,6.46,8.18.24,4.41-2.71,7-5.46,5.85a14.5,14.5,0,0,0-5.31-1.09c-11.3,0-14.42,16.94-16.48,25.17,0,2.75,0,4.13,0,6.88-.11,3.88-.66,13.5,3.85,15.47l.7.1s0,.7,0,1.89c0,.44,0,.66,0,1.1h-20.1C531.83,357.58,531.83,357.36,531.85,356.92Z"/><path class="main" d="M559.09,342.49c.28,0,.49.1.91.1,1.14,4.87,4.35,13,10.14,13.14,3.41.09,5.88-2.69,6-6.91.08-2.81-2.25-5.93-5.94-7.94-5.52-3-10.48-8.71-10.77-15.06a14.22,14.22,0,0,1,14.65-15.13,13.14,13.14,0,0,1,10.31,5q.09,5.52,0,11h-1c-1.55-4.36-4.06-12-8.86-12.74-3.6-.54-7,3.29-6.78,6.81C568,325.1,574.64,328,578,330c4.42,2.51,7.45,8.29,7.31,13.55-.25,8.95-7.17,15.4-16,15.52-3.4,0-7.89-1.76-10.1-4.49Q559.22,348.52,559.09,342.49Z"/><path class="main" d="M586.27,356.92c.06-1.19.16-1.89.16-1.89l.7-.1c4.9-2.58,4.55-11.65,4.64-16.07.1-5.36,1.14-14.28-4.39-17.77l-.72-.5a9.72,9.72,0,0,1-.1-1q6.45-3.69,12.87-7.39h2q.62,13.63.54,27.27c-.11,3.86-.73,13.49,3.76,15.47l.7.1s0,.7,0,1.89c0,.44,0,.66-.06,1.1H586.22Zm3-59.6c-.3-4.74,1.49-7.88,4.86-7.85,4,0,6.06,4.33,6.3,7.85.33,4.76-1.6,7.94-5,7.91C591.33,305.19,589.44,300.81,589.22,297.32Z"/><path class="main" d="M603.36,312.19h20.38c0,.44,0,.65.06,1.09.1,1.9.23,1.9-.46,2-2.53,3.61,2.08,12.21,3.31,15.48,1.56,3.92,3.09,7.86,4.5,11.83q2-5.89,3.92-11.83c1.12-3.9,4.49-11.94,1.23-15.48-.71-.1-.56-.1-.67-2,0-.44,0-.65-.06-1.09h12.19c.07,1.19.1,1.79.17,3l-.77.1c-5.37,2-7.6,10.72-9.35,15.48q-4.92,14.3-10.62,28.26h-2.1q-4.79-14.26-10.23-28.26c-2.22-5.15-5-13-10.59-15.48l-.77-.1C603.45,314,603.42,313.38,603.36,312.19Z"/><path class="main" d="M661.73,311.69c11.53.17,15.84,13.88,15.62,23.52l-21.76.51c.7,7.33,4.87,16.94,12.89,15.11,3.47-.79,5.3-4.23,7.35-7.43l1.08,1.41c-3.28,6.68-8.6,13.68-16.71,13.71-11.38,0-15.6-11.18-15.64-21.08C644.51,326.75,648.53,311.49,661.73,311.69Zm-6.36,20.79h8.42c7.85-1.32,4-16.87-2.38-16.7C655.51,315.94,655.46,327.93,655.37,332.48Z"/><path class="others" d="M29.31,392.29l31.32-.11c.2.84.3,1.26.51,2.09,1.34,5.62,2.71,11.23,4.28,16.78a4.53,4.53,0,0,1-.91-.1l-1.3-2.16C59.05,402.67,53.15,396,45,396.36a423.38,423.38,0,0,0,9.39,42.24c1.48,4.64,3.39,13.1,8.58,15.12l.69.09s.29.68.67,1.84c.14.43.21.64.36,1.07H44.73l-.38-1.07c-.41-1.16-.58-1.84-.58-1.84l.62-.09c3.58-2.77,0-11.9-.88-15.12A409.15,409.15,0,0,1,33.74,397l-4-.21v-.11c-8-1.07-12.27,5.84-11.28,13.05.5,3.59,2.3,14.86,8.27,12.75.29-4.31-5.45-13,1-15.43,1.61-.52,3.88.93,5,4.11,2.15,6,1.31,16.05-7.2,16a15.77,15.77,0,0,1-5.88-1.21c-7.14-3.47-12.09-11.79-11.25-19.77C9.38,395.54,19.8,391.69,29.31,392.29Z"/><path class="others" d="M60.4,434.33c-2.41-9.59-.34-23.7,12.35-23.59,12.24.11,19.93,13.09,22.47,23.59,2.25,9.31,1.34,22.82-11,22.87S63.13,445.23,60.4,434.33ZM83.25,454c5.67-.12,2.26-16.22,1.43-19.68-1.34-5.64-5-20.33-11.29-20.21S70,430.42,71,434.33C72.45,440.12,76.86,454.14,83.25,454Z"/><path class="others" d="M90.35,411.26h14.77q2.47,14.6,5.73,29c.84,4.12,4,7.6,8.38,7.58,1,0,1.66-.79,2.07-1.87q-1.8-7.61-3.33-15.27c-1.07-4.88-2-13.57-7.06-16.3l-.7-.1s-.19-.72-.39-1.95c-.08-.45-.11-.67-.18-1.12h14.77q1.5,9.76,3.32,19.47c1.19,5.81,1.86,14,7.62,17.33l.78.49a8.43,8.43,0,0,1,.29,1q-5.29,3.59-10.55,7.19H124c-.83-3.17-1.23-4.77-2-8-1,3.8-3.34,8.45-7.81,8.45-7.43,0-11.2-9.47-12.61-15.43q-1.44-5.85-2.71-11.74c-1.13-4.7-2.23-13.08-7.16-15.6l-.71-.1s-.19-.72-.41-1.95Z"/><path class="others" d="M138.19,455.65a18.42,18.42,0,0,1-.38-1.84l.63-.09c4-2.8,1.23-12.22.55-15.81-1.07-5.69-1.59-14.14-7.22-17.57l-.77-.51a8,8,0,0,1-.23-1q5.8-3.8,11.62-7.55h2q1,7.44,2.23,14.84c.55-4.83,1.7-12.69,6.23-14.43,3.9-1.51,6.69,4.29,7.45,7.65.94,4.19-.77,7.69-2.45,6.89-1.89-.91-3.83-2.93-5.8-2.93-1.62,0-3.31,1.53-4.81,6.55.61,3.53.93,5.28,1.59,8.77.75,4.38,2.25,13.17,7,15.12l.68.09s.21.68.47,1.84c.09.43.14.64.23,1.07H138.45C138.34,456.29,138.29,456.08,138.19,455.65Z"/><path class="others" d="M175.26,425.1c-2.3-16.6,5.71-33.49,24.24-33.44,6.51,0,14.51,1.95,18.69,7.41v.21c5.63,7,4.93,19.68-3.6,24.1a12.38,12.38,0,0,1-6.51,1.82c-5.78.13-10.41-4.57-11.07-10.05-.41-3.42,1.71-5.46,3.29-5.43,4.48.07,3.54,6.95,5.69,9.91,8.76,3.17,5.53-17.08,2.89-20.46a15.08,15.08,0,0,0-8.8-3.33c-14,0-14,20.31-12.85,29.26,1.24,9.82,6.09,28.11,19.42,28.13a31.87,31.87,0,0,0,7.56-1c-.4-2.73-.59-4.09-1-6.85-.48-3.88-1.17-11.62-5.72-13.28l-.68-.1s-.15-.7-.3-1.9c-.05-.45-.08-.67-.13-1.11h19.42c.05.44.07.66.11,1.11.13,1.2.13,1.9.13,1.9l-.66.1c-4.45,1.93-2.79,9.6-2.49,13.28.32,2.56.49,3.83.82,6.36-4.67,4.16-10.71,5.2-16.47,5.43C190,457.89,177.58,441.71,175.26,425.1Z"/><path class="others" d="M224.46,411.26h14.77q1.05,14.52,2.44,29c.25,4.06,3,7.63,7.33,7.58,1,0,1.77-.79,2.33-1.87-.48-5.08-.93-10.18-1.34-15.27-.47-4.67-.48-13.54-5.28-16.3l-.69-.1s-.12-.72-.2-1.95c0-.45,0-.67-.08-1.12h14.78q.56,9.74,1.24,19.47c.35,5.44,0,13.95,5.33,17.33l.7.49a6.59,6.59,0,0,1,.15,1q-5.82,3.59-11.64,7.19h-1.89c-.34-3.17-.5-4.77-.81-8-1.55,3.85-4.51,8.39-9.09,8.45-7.34.09-9.79-9.75-10.35-15.43q-.66-5.86-1.22-11.74c-.4-4.44-.84-13.1-5.47-15.6l-.69-.1s-.13-.72-.23-1.95C224.51,411.93,224.49,411.71,224.46,411.26Z"/><path class="others" d="M266.79,455.65c-.1-1.16-.1-1.84-.1-1.84l.65-.09c4.37-2.67,3-11.79,2.78-15.81-.28-5.43.18-14.1-5.15-17.57l-.71-.51a7.56,7.56,0,0,1-.13-1q6.18-3.78,12.37-7.55h2q.31,7.42.7,14.84c1.07-4.69,2.82-12.8,7.73-14.43,4.28-1.42,6.29,4.34,6.69,7.65.49,4.17-1.61,7.69-3.2,6.89-1.79-.91-3.51-2.93-5.47-2.93-1.63,0-3.47,1.53-5.56,6.55.19,3.53.28,5.28.49,8.77.16,4,.41,13.16,4.9,15.12l.67.09s.1.68.18,1.84c0,.43,0,.64.07,1.07h-18.8C266.84,456.29,266.82,456.08,266.79,455.65Z"/><path class="others" d="M293.6,411.26h14.77q.31,14.5.74,29c-.05,4,2.54,7.64,6.79,7.58a3.13,3.13,0,0,0,2.47-1.87q-.17-7.63-.31-15.27c-.18-4.55.33-13.5-4.37-16.3l-.68-.1s-.08-.72-.1-1.95c0-.45,0-.67,0-1.12h14.78q.07,9.74.17,19.47c0,5.23-1,13.89,4.15,17.33l.67.49a6.12,6.12,0,0,1,.07,1l-12.2,7.19h-1.9c-.08-3.17-.11-4.77-.19-8-1.84,3.86-5.08,8.36-9.75,8.45-7.33.14-9-10-9.18-15.43q-.24-5.86-.45-11.74c-.12-4.32-.06-13.08-4.6-15.6l-.68-.1s-.1-.72-.14-1.95C293.62,411.93,293.61,411.71,293.6,411.26Z"/><path class="others" d="M363,392.18h9.83c0,.46,0,.69,0,1.15,0,1.26-.11,2-.11,2l-.69.1c-1.87.32-3.31,3.87-4,9.25q-.36,17-.87,33.93c-.22,4.17-.8,12.66,3.41,15.12l.66.09s0,.68,0,1.84c0,.43,0,.64,0,1.07H351.57c0-.43,0-.64,0-1.07,0-1.16.1-1.84.1-1.84l.66-.09c5.52-2.22,3.83-12.68,4-17.4,0-2.87.07-4.31.12-7.2,5.52-2.56,8.42-9.65,8.89-15.3.34-4.11-1.53-11.05-6.19-11.33a5.73,5.73,0,0,0-3.18,1,23.92,23.92,0,0,0-1-6.23c-4,2.59-5.83,7.47-6.28,12-.32,3.19-1.13,15.18,5.12,12.76,1.7-4.84-2.12-13.12,4.7-15.43,1.73-.52,3.7.93,4.05,4.11.84,7.09-3.1,16-11.31,16a13,13,0,0,1-5.53-1.21c-6.76-3.78-8.6-12.66-6.42-19.63C342.47,395.67,352.94,391.56,363,392.18Z"/><path class="others" d="M372,455.65c0-1.16.14-1.84.14-1.84l.67-.09c4.64-2.6,4.36-11.46,4.6-15.81.29-5.16,1.67-14-3.46-17.57l-.67-.51a8.2,8.2,0,0,1,0-1l13-7.55h2c-.1,2.83-.15,4.24-.26,7.05a14.39,14.39,0,0,1,12.25-7.57c4.66,0,6.48,5,6.66,8.89,3.07-4.17,8.41-8.9,13.86-8.89,7.25,0,6.94,10.8,6.51,15.67-.32,4.06-.64,8.13-1,12.19-.23,4.26-1.76,12.32,2.51,15.12l.65.09c-.12,1.17-.19,1.75-.32,2.91H410.32l.25-2.91.79-.09c4.55-2.31,4.92-10.88,5.22-15.12q.42-5.34.79-10.68c.25-3.33-.5-9.93-4.3-10.33-1.46-.15-3.7,1.64-6,6.09,0,.91,0,1.82-.09,2.73q-.37,6.09-.77,12.19c-.15,4.26-1.51,12.42,2.83,15.12l.85.09-.25,2.91H391.39c.07-1.16.11-1.74.18-2.91l.34-.09c4.33-2.66,4.41-10.81,4.63-15.12.2-3.56.4-7.12.58-10.68.18-3.34-.47-10.35-4.11-10.84-1.23-.16-3.19,1.54-5.18,5.29q-.33,8.11-.72,16.23c-.05,4.31-1.24,12.44,3.15,15.12l.72.09c-.07,1.17-.11,1.75-.18,2.91H372C372,456.29,372,456.08,372,455.65Z"/><path class="others" d="M447,411.26h2c-.22,2.83-.33,4.24-.57,7.05,2.57-4.2,7.56-7.61,12.58-7.57,4.6,0,6.27,5.05,6.27,8.89,3.24-4.15,8.72-8.88,14.26-8.89,7.3,0,6.42,11,5.77,15.67-.54,4.07-1.08,8.13-1.68,12.19a39.43,39.43,0,0,0-.52,11.42c1.43,6,4.11,17.22,12.19,17.24a13.91,13.91,0,0,0,6.49-1.9,7.49,7.49,0,0,1,3.33-1c1.81,0,3.17,1.08,2.81,3.81-.54,4.06-3.09,8.36-7.3,9.22-9.25,1.91-13.75-12.09-16.72-16.76-3.17-5-10-3.67-17.41-3.95l.45-2.91.8-.09c4.69-2.3,5.62-10.71,6.19-15.12.49-3.55.95-7.12,1.39-10.68.42-3.22,0-9.93-3.79-10.33-1.46-.15-3.77,1.64-6.28,6.09,0,.91-.13,1.82-.23,2.73-.46,4.06-.93,8.13-1.44,12.19s-2.34,12.35,1.86,15.12l.84.09-.45,2.91H449.55c.16-1.16.23-1.74.39-2.91l.34-.09c4.48-2.63,5.11-10.65,5.6-15.12q.63-5.34,1.18-10.68c.35-3.23,0-10.34-3.58-10.84-1.22-.16-3.26,1.54-5.43,5.29q-.74,8.11-1.6,16.23c-.31,4.16-2.06,12.37,2.18,15.12l.72.09c-.16,1.17-.24,1.75-.39,2.91h-18.8c0-.43.07-.64.12-1.07.13-1.16.27-1.84.27-1.84l.67-.09c4.8-2.57,5.09-11.29,5.61-15.81.58-5,2.51-14-2.52-17.57l-.64-.51a6.94,6.94,0,0,1,0-1Q440.35,415,447,411.26Z"/><path class="others" d="M511.34,410.74c11.58.13,12.58,15.16,10.9,23.69l-20.87.49c-.43,6.6,1.89,16.63,10,14.8,3.37-.76,6.15-4.18,8.09-7.26.33.55.49.83.81,1.38-4,6.2-9.75,13.07-17.75,13.36-11,.4-13.07-12.19-11.91-20.58C492.09,425.74,498.31,410.6,511.34,410.74Zm-9.69,21h8.07c6.81-1.25,7.33-17.07.56-16.79C504.54,415.18,502.29,426.81,501.65,431.73Z"/><path class="others" d="M519.53,455.65c.26-1.16.47-1.84.47-1.84l.68-.09c5.05-2.55,6.18-11.05,7.16-15.81s3.73-13.72-1.09-17.57l-.6-.51a6.63,6.63,0,0,1,.08-1q6.93-3.76,13.84-7.55h2q-1.06,7.44-2.34,14.84c3.95-10.65,13-33.55,26.71-33.39,4.2,0,5.21,5.32,4.68,8.64-.73,4.56-4.12,7.25-6.59,6.1a11.79,11.79,0,0,0-5-1.13c-11.41.05-17.22,17.05-20.85,25.51-.51,2.72-.77,4.08-1.3,6.77-.67,4-3.28,12.16.69,15.12l.64.09s-.1.68-.38,1.84l-.25,1.07H519.3C519.39,456.29,519.44,456.08,519.53,455.65Z"/><path class="others" d="M547.93,441.57c.26,0,.44.1.84.1.23,4.54,1.54,12.48,6.87,12.82,3.07.2,6.09-2.61,7.11-6.72.69-2.74-.85-5.8-3.94-7.78-5-3-8.15-9.32-7.28-14.89,1.29-8.38,8.46-15.5,17.3-15.38,3.56,0,7.38,1.73,9,5.12q-1.11,5.6-2.39,11.16h-1c-.5-4-1.47-12.25-5.86-12.9-3.61-.53-7.38,3.28-8,6.93-.73,4.31,5,7.14,8,9.19,4.18,2.89,5.2,8.59,4,13.34-2.11,8.59-9.42,15.13-18.45,15.12a9.84,9.84,0,0,1-8.53-4.35Q546.85,447.47,547.93,441.57Z"/><path class="others" d="M570.49,455.65c.32-1.16.57-1.84.57-1.84l.69-.09c5.18-2.53,6.82-10.89,8-15.71s4.54-13.68-.24-17.67l-.58-.51a10.13,10.13,0,0,1,.12-1l14.21-7.55h2c-1.7,9.18-3.66,18.27-5.87,27.34-.86,3.86-4,12.08-.16,15.12l.63.09s-.14.68-.49,1.84l-.32,1.07H570.19Zm16.15-59.91c.5-3.47,2.46-8.33,6.6-8.38s4.92,5.22,4.44,8.38c-.53,3.51-2.63,8.24-6.75,8.31S586.19,398.8,586.64,395.74Z"/><path class="others" d="M597.1,411.26H617c-.08.45-.13.67-.22,1.12-.38,1.95-.25,1.95-.95,2.05-3.17,3.28-1.23,11.79-.75,15.6s.94,7.75,1.23,11.64q3.5-5.78,6.85-11.64c2-3.59,7.54-11.39,5.29-15.6-.66-.1-.52-.1-.12-2.05.09-.45.14-.67.23-1.12h11.9c-.26,1.23-.39,1.84-.66,3.07l-.78.1c-6,2.25-10,10.49-13.23,15.6q-8.44,14-17.55,27.65h-2c-.49-9.26-1.34-18.45-2.52-27.65-.77-4.33-1.6-13.48-6.49-15.6l-.73-.1C596.77,413.1,596.88,412.49,597.1,411.26Z"/><path class="others" d="M654.25,410.74c12.15.18,10.19,15.67,8.15,23.69l-20.95.49c-1.22,6.1-1.05,16.47,7.84,14.8,3.67-.69,7-4.39,9.19-7.26l.6,1.38c-4.42,6.4-11.81,13.19-19.85,13.36-11.17.24-11-12.45-8.78-20.58C633.48,425.68,641.15,410.55,654.25,410.74Zm-12.09,21h8.07c6.25-1.16,9.73-17.12,2.52-16.79C646.9,415.21,643.5,426.57,642.16,431.73Z"/><path class="others" d="M59.87,490.45l28.19-.11,1.15,2.2c3.05,5.88,6.15,11.75,9.5,17.48a3.8,3.8,0,0,1-.84-.11c-.76-.89-1.14-1.33-1.89-2.23-5.24-5.79-12.08-12.92-20.59-12.95A384.53,384.53,0,0,0,99.75,538c3.39,4.89,7.76,12.44,13.64,14.85l.61.09s.53.66,1.37,1.79l.76,1H100l-.82-1c-.9-1.13-1.36-1.79-1.36-1.79l.46-.09c1.62-3.8-5.82-12.22-7.59-14.85a381.75,381.75,0,0,1-25.09-42.56l-3.69-.22-.06-.11c-9-1.77-7.52,8.8-4.94,13.58,1.86,3.43,7.08,14.66,12.51,13.08-1-3.7-10.29-12.29-5.44-15.85,1.22-.53,3.78,1,6,4.25,1.68,2.85,9.39,16.35.34,16.3a14.94,14.94,0,0,1-5.56-1.22C51.9,519.25,32.86,488.38,59.87,490.45Z"/><path class="others" d="M103.1,533.68c-3.49-5.89-12-24.2,1.94-24,12.7.2,22.28,14,27.54,24,2.52,4.79,11.7,22.53-.33,22.49S108.69,543.11,103.1,533.68Zm27,19.4c3.69-.36-5.33-17.42-6.46-19.4-3.42-6-11.69-21.2-16.9-20.5-4.48.61,3.29,17.11,5.32,20.5C115.82,539.93,124.37,553.64,130.12,553.08Z"/><path class="others" d="M120.67,510.23h13q6.56,15,14.17,29.39c2,3.65,5.25,7.35,9.56,7.47.85,0,1.11-.76,1.08-1.82q-4-7.54-7.74-15.2c-2.34-5-5.63-13.94-11-16.57l-.65-.11s-.37-.73-.91-2l-.5-1.16h13q4,10,8.45,19.84c2.8,6.08,5.65,13.66,11.73,17.22l.79.47a10.46,10.46,0,0,1,.55,1c-2.6,2.83-3.85,4.22-6.22,7h-1.55c-1.79-3.06-2.67-4.62-4.4-7.75.5,5.16-.34,8.34-3.39,8.21-7.08-.28-12.78-9.38-16-15.08q-3.25-5.83-6.37-11.73c-2.47-4.79-5.94-13.4-11.33-15.86l-.64-.11s-.41-.73-1-2C121,510.93,120.88,510.7,120.67,510.23Z"/><path class="others" d="M175.51,554.68c-.61-1.13-.91-1.79-.91-1.79l.49-.09c2.48-3.51-3.06-12.55-4.41-15.54-2.72-6-5.26-14-11.19-17.71l-.8-.52a10.63,10.63,0,0,1-.49-1q4-3.93,8.15-7.76h1.74q2.78,7.63,5.76,15.18c-.7-4.22-1.82-13,1.77-14.76,3.18-1.52,7,4.83,8.32,7.86,1.83,4.31,1.22,7.81-.42,7-1.86-.92-4-3-5.73-3-1.4,0-2.49,1.57-2.41,6.62,1.47,3.56,2.22,5.32,3.76,8.79,2.22,4.68,5,12.55,10.18,14.85l.58.09s.37.66.92,1.79l.51,1H176.07C175.84,555.3,175.73,555.09,175.51,554.68Z"/><path class="others" d="M198.21,524.38c-4.24-13.29-4.39-34.86,14.94-34.59,6.48.09,13.7,2.45,17.91,7.78l0,.22c5.11,6.22,8.25,19.27.63,24.85a7.63,7.63,0,0,1-5.29,1.85c-5.75-.14-9.91-4.91-11.42-10.26-1-3.51.59-5.65,1.9-5.59,4.08.19,4.35,7.17,6.72,10.18,8.28,2.56,1.23-18.57-.87-21.14-2.8-2.18-5.77-3.48-8.41-3.49-13.66-.09-7.89,23.69-5.86,30.19,2.81,9,10,27.85,22.21,28a19.67,19.67,0,0,0,6-1c-.86-2.65-1.29-4-2.12-6.69-1.2-4-2.9-11.32-7.32-13.21l-.6-.1s-.27-.7-.61-1.91l-.32-1.12h16.59c.1.45.16.67.27,1.12.29,1.21.41,1.91.41,1.91l-.55.1c-3.53,2.88-.75,9.53.17,13.21.71,2.51,1.08,3.75,1.82,6.22-2.83,3.78-7.81,5.28-12.36,5.26C215.11,556.11,202.75,538.61,198.21,524.38Z"/><path class="others" d="M238.39,510.23h13q2.74,14.76,6,29.39c.71,3.6,3.12,7.45,7.18,7.47.87,0,1.36-.76,1.68-1.82q-1.65-7.59-3.11-15.2c-1-4.89-1.87-13.51-6.58-16.57l-.62-.11s-.19-.73-.41-2c-.08-.46-.12-.69-.21-1.16h13q1.48,9.93,3.16,19.84c1,5.49,1.36,13.63,6.44,17.22l.63.47a7.39,7.39,0,0,1,.23,1q-4.33,3.45-8.6,7H268.6c-.72-3.06-1.07-4.62-1.76-7.75-1,3-2.27,8.31-6.2,8.21-6.38-.15-9.66-9.76-11-15.08q-1.5-5.85-2.86-11.73c-1.2-4.73-2.36-13-7.06-15.86l-.61-.11s-.22-.73-.49-2Z"/><path class="others" d="M280.16,554.68c-.22-1.13-.29-1.79-.29-1.79l.51-.09c3.4-3,1.13-11.94.61-15.54-.8-5.54-1.06-14-6.16-17.71l-.66-.52a8.22,8.22,0,0,1-.21-1q5-3.9,10.12-7.76h1.74q.84,7.59,1.78,15.18c.54-4.78,1.49-12.9,5.65-14.76,3.53-1.57,5.85,4.93,6.31,7.86.68,4.27-.9,7.81-2.32,7-1.59-.92-3.21-3-4.91-3-1.4,0-2.89,1.57-4.25,6.62.45,3.56.68,5.32,1.16,8.79.78,4.58,1.08,12,5.37,14.85l.55.09s.15.66.31,1.79l.15,1H280.36Z"/><path class="others" d="M299.09,510.23h13q.82,14.7,1.83,29.39c.32,4.61,2.34,7.47,5.95,7.47.88,0,1.49-.76,2-1.82q-.39-7.6-.72-15.2c-.3-4.61.09-13.44-4.28-16.57l-.6-.11s-.09-.73-.15-2c0-.46,0-.69-.06-1.16h13q.19,9.91.43,19.84c.16,5-.86,13.5,3.71,17.22l.55.47a7.89,7.89,0,0,1,.07,1q-4.94,3.46-9.84,7h-1.54c-.17-3.06-.25-4.62-.41-7.75-1.53,3.07-3.53,8.17-7.63,8.21-6.51.07-7.73-10.3-8.4-15.08q-.56-5.87-1.05-11.73c-.49-4.47-.49-13-4.86-15.86l-.6-.11s-.13-.73-.23-2Z"/><path class="others" d="M360.55,490.34h8.85c0,.48,0,.73-.06,1.21-.08,1.32-.18,2.09-.18,2.09l-.63.11c-2.9,2.12-3.48,6.26-3.88,9.66q-.93,17.26-2.08,34.54c-.35,3.91-1.42,12.09,2.12,14.85l.53.09s0,.66-.1,1.79l-.1,1h-15.9c0-.41,0-.62,0-1,0-1.13.12-1.79.12-1.79l.54-.09c4.87-2.53,3.48-12.54,3.75-17.13.11-2.86.17-4.3.28-7.22,5.18-2.86,7.57-10.15,8.15-15.58.4-3.74-.72-11.37-5.12-11.73a4.72,4.72,0,0,0-2.85,1.08,27.79,27.79,0,0,0-.8-6.5c-3.82,2.9-5.34,7.95-5.77,12.5-.27,2.78-1.44,15.29,4.26,13.08,1.53-4.85-1.76-13.24,4.46-15.86,1.53-.53,3.24,1,3.45,4.26.44,6.24-2.4,16.27-10.2,16.32a9.63,9.63,0,0,1-4.74-1.23c-6.21-4.21-7.33-13.39-5.52-20.14C341.8,494.88,350.66,489.62,360.55,490.34Z"/><path class="others" d="M365.81,554.68c.1-1.13.21-1.79.21-1.79l.55-.09c4.2-2.82,4.26-11.26,4.71-15.54.53-5.09,2.4-13.65-2-17.71l-.55-.52a8.44,8.44,0,0,1,0-1q5.87-3.9,11.74-7.76h1.74c-.26,2.92-.4,4.37-.68,7.24,2.2-4.23,6.45-7.73,11.25-7.77,4.39,0,5.25,5.74,5.06,9.12,2.82-4,8.09-9.35,13-9.12,6.49.3,4.52,11.67,3.87,16-.78,4.09-1.57,8.16-2.39,12.24-.7,3.91-3.32,11.58,0,14.85l.51.09c-.27,1.13-.41,1.7-.69,2.82H396.83c.22-1.12.33-1.69.54-2.82l.67-.09c4.27-2.52,5.33-10.59,6.08-14.85q1-5.36,1.87-10.71c.52-2.9.75-10-2.63-10.5-1.21-.17-3.38,1.69-5.77,6.21-.07.92-.2,1.84-.33,2.76-.6,4.08-1.2,8.16-1.84,12.24s-2.76,11.73.74,14.85l.68.09c-.22,1.13-.33,1.7-.54,2.82H381.46l.4-2.82.28-.09c4-2.84,4.58-10.55,5.13-14.85q.74-5.36,1.39-10.71c.4-3,.5-10.43-2.71-11-1-.18-2.89,1.58-4.86,5.39q-.82,8.17-1.73,16.34c-.35,4-2.19,11.8,1.44,14.85l.58.09-.4,2.82H365.72C365.75,555.3,365.77,555.09,365.81,554.68Z"/><path class="others" d="M433.75,510.23h1.75c-.6,2.92-.9,4.37-1.52,7.24,2.66-4.17,7.15-7.68,12.14-7.77,4.46-.08,4.58,6,4,9.12,3.26-3.93,9-9.34,14-9.12,6.54.28,3,12.21,2,16-1.3,4.1-2.63,8.17-4,12.24a54.16,54.16,0,0,0-3,11.25c-.2,4.27-1.26,16.54,5.48,16.59a12.46,12.46,0,0,0,5.71-1.81,7,7,0,0,1,2.93-.91c1.45,0,2.23,1,1.11,3.62-1.59,3.67-4.52,7.59-8.54,8.64-8.15,2.12-7.78-11.7-8.58-15.82-1-5.24-8.59-3.73-13.17-3.8l1-2.82.68-.09c4.75-2.56,6.65-10.26,8.26-14.85q1.71-5.34,3.29-10.71c.8-2.59,2-10-1.35-10.5-1.19-.18-3.57,1.69-6.51,6.21-.19.92-.43,1.84-.68,2.76q-1.68,6.13-3.46,12.24c-1,3.71-4.51,11.5-1.43,14.85l.66.09c-.39,1.13-.58,1.7-1,2.82H428.69c.33-1.12.5-1.69.84-2.82l.29-.09c4.5-2.85,5.93-10.22,7.31-14.85q1.47-5.34,2.81-10.71c.72-2.74,1.76-10.41-1.36-11-1-.19-3.08,1.58-5.5,5.39q-1.86,8.19-3.86,16.34c-.86,3.78-4,11.58-.74,14.85l.56.09-.83,2.82H412.94c.11-.41.16-.62.26-1,.28-1.13.49-1.79.49-1.79l.56-.09c4.62-2.78,5.91-11,7-15.54s4.4-13.54.24-17.71L421,519a8.33,8.33,0,0,1,.14-1Z"/><path class="others" d="M490.36,509.7c11.57.16,5.86,18.09,3.66,24.08l-17.79.5C475,538.42,473,551,480.81,548.91c3.38-.92,6.36-4.25,8.69-7.14.12.55.18.82.29,1.37-4.53,5.52-10.63,12.61-18.24,13-10.53.59-6.56-14.71-4.81-20.2C469.93,526,477.89,509.53,490.36,509.7Zm-13.14,21.38h6.86c5.06-1.26,10.36-17.08,4.41-17.06C483.3,514.05,479.13,526,477.22,531.08Z"/><path class="others" d="M485.83,554.68c.55-1.13.92-1.79.92-1.79l.58-.09c5.31-2.8,8.24-10.57,10.46-15.54,1.9-4.25,7.19-12.92,3.74-17.71l-.4-.52a10.91,10.91,0,0,1,.33-1l14-7.76h1.74q-2.9,7.63-6,15.18c6.42-10.85,20.37-35.82,32.62-34.52,3.6.38,3.08,6,1.81,9.07s-4.79,7.38-7.58,6.34a12.42,12.42,0,0,0-4.08-1.18c-11.2.15-20,18-25.25,26.06-1.2,2.73-1.82,4.09-3.06,6.77-1.56,3.54-6.49,11-4.07,14.85l.49.09s-.3.66-.9,1.79c-.23.41-.34.62-.56,1H485.32C485.53,555.3,485.63,555.09,485.83,554.68Z"/><path class="others" d="M513.55,540.89c.22,0,.34.1.67.1-1,3.44-2.64,12.1,1.4,12.56,3,.34,6.53-3.56,8.2-6.55,1.49-2.68,1.29-5.71-.65-7.67-3.89-3.78-3.48-10.49-1.57-15,3.34-7.75,10.53-15.61,19.57-15.74,2.49,0,6.14,1.61,6.32,5.28q-2.76,5.73-5.64,11.38H541c.76-3.43,2.33-12.38-1.05-13.17-3.12-.73-7.39,3.62-9,7.11-1.74,3.68,1.92,7,4,9.32,3.27,3.52.8,9.48-1.1,13.31-3.62,7.31-11.87,14.61-20.54,14.77a5,5,0,0,1-5.44-4.22Q510.77,546.69,513.55,540.89Z"/><path class="others" d="M527.29,554.68c.71-1.13,1.17-1.79,1.17-1.79l.59-.09c5.6-2.43,9.7-10.54,12.4-15.44,2.26-4.12,8.8-12.69,5.78-17.81-.14-.21-.21-.31-.34-.52,0,0,.19-.52.43-1l14.85-7.76h1.74q-6.79,14.14-14.6,27.72c-1.85,3.25-7.83,11-6,14.85l.48.09s-.39.66-1.15,1.79l-.7,1H526.65Zm33.81-60.6c1.39-3.6,4.24-8.65,8.43-8.84,2.94-.14,3.65,3.5,1.48,8.84-1.45,3.58-4.46,8.48-8.61,8.68C559.56,502.9,559.05,499.41,561.1,494.08Z"/><path class="others" d="M565.53,510.23H583l-.6,1.16c-1,2-.92,2-1.57,2.11-4,3.39-5.14,11.19-6.5,15.86-1.09,3.91-2.29,7.82-3.66,11.63q5.36-5.75,10.55-11.63c3-3.52,11-10.59,10.63-15.86-.53-.11-.41-.1.67-2.11.25-.46.38-.69.62-1.16h10.45c-.71,1.27-1.06,1.9-1.78,3.16l-.72.11c-7,2.75-12.77,10.6-17.63,15.86q-12.81,14-26.34,27.28h-1.59a236.09,236.09,0,0,0,9.15-27.28c.81-3.78,3.65-12.67-.07-15.86l-.6-.11C564.62,512.13,564.93,511.5,565.53,510.23Z"/><path class="others" d="M615.9,509.7c12.6-.21-1.07,20.84-3.27,24.08l-17.94.5c-1.28,2.11-9.84,16.94-.32,14.63,4.25-1,7.86-4.5,11.15-7.14-.06.55-.1.82-.17,1.37-6.26,5.43-14.14,12.39-22.88,13-11.41.84.34-17.33,2.2-20.2C591.09,526.05,602.33,509.92,615.9,509.7Zm-19.22,21.38h6.87c4.19-.84,15.24-16.86,9.33-17.06C607.18,513.83,600.34,525.65,596.68,531.08Z"/><path class="others" d="M127,585.32l21.3.42.75,1.14c2,3.07,3.94,6.16,5.95,9.22a3.64,3.64,0,0,1-.62-.12l-1.24-1.23a23,23,0,0,0-14.61-7.19q7,10.53,14.42,20.72c2.18,3,4.71,6.32,7.91,8.26l.43.2s.29.36.72.94c.15.22.23.33.39.54q-5.83-2.37-11.63-4.83l-.44-.46c-.49-.5-.73-.78-.73-.78l.35.11c1.26.41-.23-1.89-3.62-5.86q-7.84-9.27-15.22-18.88l-2.77-.22,0,0c-6.09-.68-6.76,1.89-4.31,4.71,2.1,2.42,6,6,8.37,5.64.89-.13-7.05-5.56-3-6a6.4,6.4,0,0,1,4.2,2.09c3.71,3.71,3.78,6.56-.94,5.5a30,30,0,0,1-4-1.24c-3-1.23-11.19-4.39-12.2-8C115,584.64,123.54,585,127,585.32Z"/><path class="others" d="M155.92,607.3c-3.22-4.41-4.06-12,3.85-10.85,8.3,1.18,15.08,8.58,18,15.87,1.29,3.23,4.6,14.07-3.63,10.62C167,620,160.33,613.34,155.92,607.3Zm17.15,13.81c2.11,0-.84-7.88-2-10.25-2.05-4.35-7.17-12.76-10.36-12.48-2.7.23.3,7.8,1.78,10.51C164.85,613.14,170.18,621.07,173.07,621.11Z"/><path class="others" d="M171.43,598c3.9.4,5.85.59,9.75,1q3.48,9.68,7.16,19.26c1.19,3.09,3.32,5.42,6,6.14.66.17,1-.23,1.11-.88q-1.87-5.25-3.67-10.55c-1.14-3.59-2.94-9.43-6.44-11.49l-.47-.12s-.21-.49-.49-1.32c-.1-.3-.16-.45-.26-.75l9.79.89q2,7,4.15,13.88c1.3,4.49,2.66,9.89,6.4,13l.52.46a6.64,6.64,0,0,1,.26.72c-2.45,1.34-3.64,1.94-5.94,3l-1.18-.36c-.8-2.2-1.2-3.31-2-5.53-.46,3.19-1.71,4.77-4,3.92-4.61-1.73-7.56-7.1-9.53-11.58-1.29-3-1.92-4.47-3.18-7.48-1.54-3.36-3.14-8.4-6.74-10.21l-.47-.12s-.23-.45-.55-1.21Z"/><path class="others" d="M206.89,632.75c-.27-.85-.38-1.34-.38-1.34l.39,0c2-3-.07-7.83-.92-11.1-1.15-4.43-2.27-10.33-6.24-13.32l-.55-.42a7.15,7.15,0,0,1-.26-.74c2.73-1.8,4.13-2.75,7-4.77l1.33.11q1.32,5.65,2.71,11.29c-.07-3.29,0-9.31,3-10.53,2-.82,4.25,2.09,5.53,6.4,1,3.42,0,6-1.13,5.18s-2.73-2.57-4-2.73c-1.06-.12-2,.92-2.64,4.52.67,2.7,1,4,1.69,6.71,1,4,2.14,9.43,5.5,12.23l.43.18s.18.54.41,1.45c.08.34.13.5.21.84-3.93-1-7.86-2.09-11.76-3.22C207,633.22,207,633.06,206.89,632.75Z"/><path class="others" d="M228.7,614.05c-1.7-10.67-.2-27.56,14.45-27.21,4.78.12,10.59,2.26,13.11,6.74l0,.18c3.41,5.68,5.15,17.14-1.56,21.36a5.63,5.63,0,0,1-4.27,1.23c-4.55-.48-7.28-5.09-7.8-9.32-.37-3,.81-4.52,1.95-4.55,3.28-.08,2.91,7.89,4.25,8.88,6.54,2.11,2.54-15.39,1.08-17.85-2-1.88-4.17-3-6.16-3-10.3-.05-8.09,18.48-7.16,24.45,1.21,7.84,4.39,23.81,13.76,25.86a13.17,13.17,0,0,0,4.89,0c-.32-2.46-.47-3.69-.79-6.17-.52-3.38-.75-10-4.14-12.18l-.46-.14s-.13-.62-.26-1.68c-.05-.39-.08-.59-.13-1q6.45.64,12.91,1.23l.1,1c.12,1.1.14,1.73.14,1.73l-.44,0c-3.13,2.44-1.64,8.4-1.35,11.84.26,2.34.39,3.5.66,5.83-2.3,2.8-7.31,3.75-10.63,3C238.07,641.45,230.53,625.63,228.7,614.05Z"/><path class="others" d="M261,604.68c4,.2,6,.29,10,.46q1.06,13.53,2.21,27.05c.37,4.36,2.06,7.3,5,7.61.71.08,1.18-.61,1.54-1.59q-.56-7.26-1.08-14.5c-.4-4.31-.24-12.26-3.85-15.47l-.47-.11s-.09-.67-.18-1.82c0-.42,0-.63-.07-1,4,.17,6,.24,10,.38q.54,9.25,1.11,18.52c.36,5.1-.21,12.77,3.72,16.89l.47.51a8.55,8.55,0,0,1,.1,1c-3.13,2.5-4.67,3.73-7.71,6.09l-1.26-.15c-.24-3.05-.36-4.57-.59-7.64-1.5,4.84-3.52,7.71-5.95,7.24-5.36-1-6.7-10.54-7-15.17-.35-3.62-.7-7.23-1-10.85-.49-4-.54-11.56-4.08-14.45l-.47-.12s-.11-.65-.21-1.77Z"/><path class="others" d="M290,648.5c-.07-1.13-.07-1.79-.07-1.79l.44-.05c3.2-3,1.95-11.47,1.78-15.15-.23-5,.4-13-3.64-17.07l-.49-.51s-.06-.39-.1-1q4.17-3.45,8.3-7l1.35,0,.6,14.36c.67-4.38,1.53-11.9,5.14-13.83,2.11-1.12,4,2.3,4.6,7.57.45,4.18-1.06,7.48-2.14,6.66s-2.39-2.94-3.72-3c-1.1,0-2.34,1.4-3.72,6.21.15,3.44.22,5.15.38,8.56.31,4.54-.17,11.55,3.33,15l.44.13s.08.68.13,1.83c0,.42,0,.63,0,1.06q-6.3-.51-12.59-1.12C290,649.12,290,648.92,290,648.5Z"/><path class="others" d="M307.85,606.28c4,.08,6,.11,10.07.17q.27,14.34.57,28.69c.09,4.63,1.64,7.63,4.61,7.71.72,0,1.25-.75,1.68-1.83l-.21-15.25c-.13-4.41.61-12.7-3-16.16l-.47-.1s-.06-.71-.08-1.92c0-.44,0-.66,0-1.1,4,0,6.06.06,10.1.08q.06,9.64.13,19.29c.06,5-1.08,13.23,2.83,17.38l.46.5s0,.39.05,1c-2.78,2.39-5.55,4.76-8.34,7.13l-1.29,0c-.05-3.21-.07-4.82-.12-8-1.2,2.76-3.2,8.43-6.64,8.28-5.42-.24-5.92-11.26-6.21-15.68l-.33-11.62c-.21-4.14.3-12.22-3.19-15.37l-.47-.11s-.06-.7-.1-1.9Z"/><path class="others" d="M355.32,587.82h6.74c0,.45,0,.67,0,1.12,0,1.22-.08,1.93-.08,1.93l-.48.1c-1.28.31-2.29,3.78-2.76,9q-.33,16.74-.67,33.48c-.16,4-.92,12,2.32,15l.44.08s0,.68,0,1.84c0,.43,0,.65,0,1.07-4.44.19-8.87.33-13.32.44v-1.08c0-1.18.06-1.86.06-1.86l.45-.11c4.27-3.15,2.61-12.84,2.73-17.51,0-2.86.05-4.29.08-7.17,4.37-3.14,5.84-10.31,6.09-15.21.18-3.38-.49-10.59-4.2-11.07a3.16,3.16,0,0,0-2.17,1,32.73,32.73,0,0,0-.7-6.1c-3.1,3-4.05,7.72-4.33,11.81-.16,2.36-1.19,14.39,3.49,12.57,1.5-4.88-2-11.78,3.24-15.25,1.18-.51,2.52.9,2.76,4,.43,5.33-1.2,15.46-7.75,15.86a6.26,6.26,0,0,1-3.77-1.18C332,611.22,339.64,586.46,355.32,587.82Z"/><path class="others" d="M361.39,650.4c0-1.17.09-1.85.09-1.85l.45-.12c3.48-3.36,3-11.6,3.12-15.87.1-4.86,1.57-13.18-2.31-17.26l-.45-.49a8.33,8.33,0,0,1,0-1q4.43-3.79,8.88-7.56l1.35,0c-.09,2.75-.14,4.12-.23,6.85,1.34-3.65,4.35-7.33,8.39-7.54,2.72-.14,4.13,3.13,4.42,8.38,1.9-3.78,5.73-8.79,9.52-8.81,4.77,0,4.45,10.76,4.13,14.54s-.55,7.69-.84,11.54-1.67,11.05,1.52,14.1l.43,0c-.09,1.11-.14,1.67-.23,2.77q-6.24.78-12.49,1.45c.07-1.14.11-1.7.18-2.84l.53-.14c3.4-3.1,3.22-10.75,3.58-14.85s.39-6.12.64-10.23c.24-3.39-.37-9-2.77-9.68-.73-.21-2.53,1.65-4.12,6,0,.87,0,1.75-.08,2.62q-.3,5.9-.62,11.79c-.11,4-1.47,11.38,1.83,14.49l.57,0c-.07,1.14-.1,1.71-.17,2.84-4.08.42-8.16.75-12.24,1.08.05-1.15.07-1.73.12-2.88l.23-.12c3.24-3.39,2.86-10.8,3.14-15s.27-6.24.45-10.42c.17-3.6-.41-9.63-2.7-10.41-.6-.21-2.18,1.55-3.55,5.24q-.27,8-.56,15.93c0,4.17-1.27,11.57,2.11,14.78l.48.07c-.05,1.15-.07,1.73-.12,2.88-4.23.3-8.45.55-12.69.78C361.37,651,361.38,650.82,361.39,650.4Z"/><path class="others" d="M412.35,604.86l1.34-.06c-.23,2.58-.35,3.87-.59,6.43,1.58-3.56,4.72-7,8.72-7.29,2.69-.2,3.9,2.79,3.88,7.61,2.16-3.66,6.08-8.23,9.94-8.36,4.7-.17,3.48,9.7,3.1,13-.64,4.19-1,6.28-1.63,10.43a42.71,42.71,0,0,0-.77,9.68c.54,3.76,1.8,13.53,7.15,12.4a10.23,10.23,0,0,0,4.17-2.63,5.93,5.93,0,0,1,2.13-1.32c1.15-.32,1.95.25,1.59,2.42-.67,4-2.91,7.24-4.94,8.53-5.94,3.75-8.77-7.74-9.95-10.59-1.73-4.17-7.39-1.69-11.1-1.07.14-1,.22-1.56.36-2.6l.53-.17c3.38-2.91,3.81-9.74,4.48-13.76.53-3.71.79-5.58,1.31-9.33.59-4.3-.1-8.88-2.11-8.73-1.09.08-2.59,1.6-4.42,5.67-.05.8-.15,1.61-.25,2.41q-.65,5.44-1.34,10.87c-.38,3.86-2,10,.83,13.13h.54c-.14,1-.21,1.56-.36,2.6q-5.94,1.1-11.91,2l.3-2.68.23-.13c3.26-3.22,3.42-10,4-14.17.43-3.86.64-5.8,1.06-9.69.48-4.45-.15-9.69-2.07-9.57-1,.06-2.25,1.51-3.79,5q-.7,7.47-1.44,14.93c-.27,3.66-1.94,10.82,1.18,13.64H413c-.11,1.08-.17,1.62-.29,2.69q-6.18.94-12.37,1.78c0-.4.05-.61.09-1,.09-1.11.19-1.76.19-1.76l.44-.15c3.48-3.27,3.52-11,3.92-15.2.42-4.43,2.24-12.33-1.37-16.21l-.42-.44a7.51,7.51,0,0,1,0-1Q407.73,608.53,412.35,604.86Z"/><path class="others" d="M455.64,601.89c8.75-.85,6.36,13.21,5.54,17.7q-6.8,1.3-13.61,2.5c-.41,3.59-.66,12.94,5.66,10.61,1.14-.42,3.26-2.58,5.61-6.66l.42,1c-2.49,5.06-6.55,11.12-12,12.86-8.3,2.62-7.41-11.3-6.77-15.35C441.72,616.47,445.43,602.88,455.64,601.89Zm-7.71,17.58,5.28-.74c4.23-1.57,5-13.64,1.43-13.42S448.91,614.9,447.93,619.47Z"/><path class="others" d="M458.08,636c.23-.91.41-1.45.41-1.45l.43-.18c3.33-2.7,4.66-8.94,5.62-12.79.84-3.33,3.55-9.94.62-13.13l-.35-.34a5.29,5.29,0,0,1,.13-.78q4.85-3.36,9.83-6.53l1.32-.11q-1.43,5.49-2.91,11c3.61-8.21,10.91-24.55,21.42-24.9,2.23-.08,3.2,2.22,2,5.68-1.05,3.12-3.67,5-5.18,4.37a6.62,6.62,0,0,0-3.18-.53c-8.31.87-13.06,12.88-16.25,19.62-.56,2-.84,3-1.4,5-.77,3.15-2.73,7.76-.75,10.61l.38,0s-.11.49-.37,1.35c-.1.31-.15.47-.24.78q-5.86,1.68-11.77,3.21C458,636.51,458,636.34,458.08,636Z"/><path class="others" d="M477.07,621.64c.17,0,.28,0,.53,0-.36,3.67.06,8.29,3.1,7.38,2-.61,4-2.77,5.08-5.53a3.26,3.26,0,0,0-1.66-4.39c-3.08-1.5-4.24-5.51-3.17-9.2,1.69-5.81,6.85-11.19,13.09-11.76,1.9-.17,4.77.57,5.27,2.72-1.19,2.9-1.79,4.35-3,7.23l-.65.11c.13-3.15.46-7.88-2.22-7.8s-5.21,2.77-6.06,5.23,1.19,3.65,4.13,5.25c2.14,1.16,2.44,4.36,1,7.79-2.29,5.43-7.24,10.88-13,12.68-2.28.7-4.12.19-4.89-1.3C475.6,626.68,476.09,625,477.07,621.64Z"/><path class="others" d="M489.69,626.83c.33-.75.56-1.2.56-1.2l.43-.19c3.43-2.38,5.27-7.1,6.88-10.64,1.28-2.84,4.29-7.62,2.14-10.69l-.32-.27s.09-.31.22-.64c3.41-2,6.88-3.88,10.38-5.69l1.3-.13q-3.76,8.22-7.78,16.32c-2.62,5.28-3.54,8.51-2.19,8.23l.36-.08s-.17.39-.55,1.07c-.13.25-.2.37-.34.62q-5.67,2.07-11.4,4C489.5,627.24,489.56,627.1,489.69,626.83Zm18.22-38.45c1.25-3.21,3.51-5.26,5.85-5.26s3,2,1.64,5-3.63,5.06-5.87,5.22S506.66,591.59,507.91,588.38Z"/><path class="others" d="M512.5,597.25q6.53-.71,13.06-1.43l-.35.6c-.61,1-.53,1-1,1.13-1.27.42-2.37,3.71-3.27,7.92-.38,1.8-.79,3.61-1.29,5.32,2.53-2.61,3.8-3.9,6.37-6.43,4.89-4.82,7.41-7.79,6.39-7.89-.41,0-.32,0,.33-1l.38-.56c3.11-.36,4.66-.54,7.76-.92l-1.1,1.39-.52.12c-4.49,1.63-8.12,5.34-11.6,8.45q-8,7.65-15.61,15.65l-1.15.46A86.46,86.46,0,0,0,513.81,607c.67-4.5-.08-7.89-1.7-7.92h-.47C512,598.34,512.16,598,512.5,597.25Z"/><path class="others" d="M550,592.72c7.94-1.89.11,6.44-.71,7.18q-6.43,1.89-12.89,3.73c-2.93,3.63-3.85,5.71,1.36,3.47A78.38,78.38,0,0,0,544.9,603a2.17,2.17,0,0,0,0,.26c-4.79,3-10.62,5.89-14.71,8.58-6.5,4.26-1.53-4.89-.94-5.69C534,599.73,542.52,594.48,550,592.72Zm-12.47,9.57,5-1.26c1.38-.42,9.58-6.84,5.52-6.55C544.41,594.74,540.35,599.13,537.5,602.29Z"/></g></g></svg>