<svg class="visited" xmlns="http://www.w3.org/2000/svg" viewBox="0 0 537.5 537.5"><defs><style>.inner{fill:#00c2b1;}.outline{fill:#00c2b1;}</style></defs><title>visited</title><g id="Layer_2" data-name="Layer 2"><g id="shapes"><path class="inner" d="M470.62,187.57,416.38,157.9a92.45,92.45,0,0,1-36.78-36.78L349.93,66.88c-35.1-64.17-127.26-64.17-162.36,0L157.9,121.12a92.45,92.45,0,0,1-36.78,36.78L66.88,187.57c-64.17,35.1-64.17,127.26,0,162.36l54.24,29.67a92.45,92.45,0,0,1,36.78,36.78l29.67,54.24c35.1,64.17,127.26,64.17,162.36,0l29.67-54.24a92.45,92.45,0,0,1,36.78-36.78l54.24-29.67C534.79,314.83,534.79,222.67,470.62,187.57Z"/><path class="outline" d="M375.79,446.68a3.68,3.68,0,0,0,.48-2.12,4,4,0,0,0-.78-2.05,5.29,5.29,0,0,0-1.82-1.58,5.23,5.23,0,0,0-2.33-.69,4,4,0,0,0-2.14.46,3.95,3.95,0,0,0-2,3.66,4,4,0,0,0,.76,2A5.41,5.41,0,0,0,369.8,448a5.48,5.48,0,0,0,2.32.69,4,4,0,0,0,2.14-.46A3.61,3.61,0,0,0,375.79,446.68Z"/><path class="outline" d="M316.21,515.06l.1.17a3.09,3.09,0,0,0,2.12,1.29,3.79,3.79,0,0,0,2.51-.48,3.61,3.61,0,0,0,1.65-4.68Z"/><path class="outline" d="M413.47,146.65a3,3,0,0,0,.34-2.45,3.77,3.77,0,0,0-1.43-2.12,3.82,3.82,0,0,0-2.42-.81,3.88,3.88,0,0,0-2.54,1.15l5.93,4.39Z"/><path class="outline" d="M41.89,195.81l-.15-.14a3.07,3.07,0,0,0-2.38-.69,3.78,3.78,0,0,0-2.3,1.12,4,4,0,0,0-1.14,2.28,3.88,3.88,0,0,0,.79,2.68Z"/><path class="outline" d="M48.42,191.92a5.31,5.31,0,0,0,1.83,1.6,4,4,0,0,0,2.12.48,3.75,3.75,0,0,0,2-.75,3.7,3.7,0,0,0,1.32-1.73,4.07,4.07,0,0,0,.17-2.17,5.52,5.52,0,0,0-1-2.22,5.37,5.37,0,0,0-1.82-1.59,4,4,0,0,0-2.13-.49,3.75,3.75,0,0,0-2,.75,3.7,3.7,0,0,0-1.32,1.73,4,4,0,0,0-.16,2.18A5.54,5.54,0,0,0,48.42,191.92Z"/><path class="outline" d="M420.26,157.8a3.74,3.74,0,0,0,2.12.48,4.1,4.1,0,0,0,2-.77,5.72,5.72,0,0,0,2.27-4.15,4.09,4.09,0,0,0-.45-2.15,4,4,0,0,0-3.66-2,4.1,4.1,0,0,0-2.05.77,5.72,5.72,0,0,0-2.28,4.16,4.12,4.12,0,0,0,.46,2.13A3.69,3.69,0,0,0,420.26,157.8Z"/><path class="outline" d="M271.87,10.56a3.07,3.07,0,0,0-1.2-2.17,3.81,3.81,0,0,0-2.42-.84,3.64,3.64,0,0,0-3.76,3.24l7.38,0Z"/><path class="outline" d="M381.79,429l-3.54,6.47.18.09a3.06,3.06,0,0,0,2.48,0,3.77,3.77,0,0,0,1.9-1.71,3.64,3.64,0,0,0-1-4.86Z"/><path class="outline" d="M79.78,366.31a3,3,0,0,0,0,2.47,3.76,3.76,0,0,0,1.71,1.91,3.65,3.65,0,0,0,4.86-1l-6.47-3.54Z"/><path class="outline" d="M156.38,430.23l-.17.09a3,3,0,0,0-1.34,2.09,3.74,3.74,0,0,0,.41,2.52,3.65,3.65,0,0,0,4.64,1.77Z"/><path class="outline" d="M357,63.1l.18-.1a3.06,3.06,0,0,0,1.26-2.13,3.72,3.72,0,0,0-.49-2.51,3.85,3.85,0,0,0-1.91-1.69,3.91,3.91,0,0,0-2.79.08Z"/><path class="outline" d="M280.56,16.89a3.92,3.92,0,0,0,4.13.61,4,4,0,0,0,1.65-1.42,5.34,5.34,0,0,0,.85-2.27,5.28,5.28,0,0,0-.16-2.42,4,4,0,0,0-1.16-1.85,3.93,3.93,0,0,0-4.13-.61,4.05,4.05,0,0,0-1.66,1.43,5.45,5.45,0,0,0-.85,2.26,5.29,5.29,0,0,0,.16,2.43A4,4,0,0,0,280.56,16.89Z"/><path class="outline" d="M15.22,298.8l-1.91-7.12-.2.05a3.07,3.07,0,0,0-1.79,1.71,3.8,3.8,0,0,0-.2,2.55,4,4,0,0,0,1.39,2.14A3.9,3.9,0,0,0,15.22,298.8Z"/><path class="outline" d="M210.38,500.71a3.76,3.76,0,0,0-2-.82,4,4,0,0,0-2.14.4,5.78,5.78,0,0,0-2.95,3.72,4,4,0,0,0,.09,2.18,3.93,3.93,0,0,0,3.27,2.6,4.13,4.13,0,0,0,2.15-.42,5.69,5.69,0,0,0,2.94-3.71,4,4,0,0,0-.09-2.18A3.78,3.78,0,0,0,210.38,500.71Z"/><path class="outline" d="M216,512.29a3.06,3.06,0,0,0,0,2.48,3.74,3.74,0,0,0,1.69,1.92,3.79,3.79,0,0,0,2.5.5,3.88,3.88,0,0,0,2.37-1.46l-6.43-3.61Z"/><path class="outline" d="M73.12,355.57a3.69,3.69,0,0,0-2.12-.48,4.09,4.09,0,0,0-2,.76,5.63,5.63,0,0,0-1.59,1.84,5.47,5.47,0,0,0-.68,2.32,4,4,0,0,0,.45,2.14,4,4,0,0,0,3.67,2,4,4,0,0,0,2-.78,5.43,5.43,0,0,0,1.59-1.82,5.51,5.51,0,0,0,.69-2.33,4.18,4.18,0,0,0-.46-2.14A3.7,3.7,0,0,0,73.12,355.57Z"/><path class="outline" d="M156.1,421.75a4.06,4.06,0,0,0,.74-2,3.75,3.75,0,0,0-.49-2.12,3.8,3.8,0,0,0-1.55-1.53,4.11,4.11,0,0,0-2.13-.44,5.44,5.44,0,0,0-2.32.72,5.35,5.35,0,0,0-1.82,1.6,4,4,0,0,0-.75,2.05,3.91,3.91,0,0,0,2,3.65,4,4,0,0,0,2.14.43,5.48,5.48,0,0,0,2.32-.71A5.39,5.39,0,0,0,156.1,421.75Z"/><path class="outline" d="M129.15,143.16,129,143a3,3,0,0,0-2.24-1.07,3.77,3.77,0,0,0-2.45.72,3.81,3.81,0,0,0-1.5,2.06,3.86,3.86,0,0,0,.33,2.77Z"/><path class="outline" d="M13.24,284.07a5.35,5.35,0,0,0,2.31-.76,4.15,4.15,0,0,0,1.49-1.6,3.77,3.77,0,0,0,.37-2.14,3.7,3.7,0,0,0-.83-2,4.1,4.1,0,0,0-1.79-1.24,5.35,5.35,0,0,0-2.42-.25,5.4,5.4,0,0,0-2.29.76,4,4,0,0,0-1.5,1.6A3.94,3.94,0,0,0,9,282.58a4.08,4.08,0,0,0,1.81,1.24A5.3,5.3,0,0,0,13.24,284.07Z"/><path class="outline" d="M501.59,210.48a3.75,3.75,0,0,0,.75,2,3.7,3.7,0,0,0,1.72,1.33,4.07,4.07,0,0,0,2.17.17,5.71,5.71,0,0,0,3.82-2.8,4,4,0,0,0,.5-2.13,3.75,3.75,0,0,0-.75-2,3.82,3.82,0,0,0-1.72-1.33,4,4,0,0,0-2.18-.16,5.69,5.69,0,0,0-3.82,2.8A4,4,0,0,0,501.59,210.48Z"/><path class="outline" d="M500,199.86a3.08,3.08,0,0,0,.68-2.38,3.75,3.75,0,0,0-1.12-2.3,3.62,3.62,0,0,0-4.95-.36L499.8,200Z"/><path class="outline" d="M307.53,515.06a4.14,4.14,0,0,0-1.93-1,3.75,3.75,0,0,0-2.16.19,3.69,3.69,0,0,0-1.73,1.31,4,4,0,0,0-.74,2.05,5.69,5.69,0,0,0,1.7,4.42,4,4,0,0,0,1.93,1,3.67,3.67,0,0,0,2.16-.19,3.63,3.63,0,0,0,1.73-1.31,4,4,0,0,0,.74-2.06,5.46,5.46,0,0,0-.37-2.39A5.4,5.4,0,0,0,307.53,515.06Z"/><path class="outline" d="M357.32,71.64a4.09,4.09,0,0,0-.76,2A3.73,3.73,0,0,0,357,75.8a3.81,3.81,0,0,0,1.53,1.55,4.16,4.16,0,0,0,2.13.46,5.81,5.81,0,0,0,4.16-2.28,4,4,0,0,0,.78-2,3.93,3.93,0,0,0-2-3.66,4.05,4.05,0,0,0-2.14-.45,5.43,5.43,0,0,0-2.32.68A5.53,5.53,0,0,0,357.32,71.64Z"/><path class="outline" d="M524.51,290.27l-1.82,7.14.2,0a3,3,0,0,0,2.4-.61,3.84,3.84,0,0,0,1.42-2.13,3.63,3.63,0,0,0-2.2-4.45Z"/><path class="outline" d="M521.7,309.59a3.68,3.68,0,0,0,.27-2.15,4.06,4.06,0,0,0-1-2,5.3,5.3,0,0,0-2-1.4,5.39,5.39,0,0,0-2.38-.46,4.1,4.1,0,0,0-2.08.66,3.93,3.93,0,0,0-1.64,3.84,4.06,4.06,0,0,0,1,2,5.11,5.11,0,0,0,2,1.4,5.3,5.3,0,0,0,2.37.46,4,4,0,0,0,2.09-.65A3.76,3.76,0,0,0,521.7,309.59Z"/><path class="outline" d="M188.93,52.3a5.37,5.37,0,0,0,2.18,1.08,3.93,3.93,0,0,0,2.18-.08,3.69,3.69,0,0,0,1.77-1.25,3.73,3.73,0,0,0,.84-2,4.17,4.17,0,0,0-.4-2.14A5.33,5.33,0,0,0,194,46a5.24,5.24,0,0,0-2.16-1.08,4.05,4.05,0,0,0-2.19.07,3.78,3.78,0,0,0-1.77,1.26,3.73,3.73,0,0,0-.84,2,4,4,0,0,0,.41,2.15A5.43,5.43,0,0,0,188.93,52.3Z"/><path class="outline" d="M452.37,369l.1.18a3.06,3.06,0,0,0,2.08,1.34,3.82,3.82,0,0,0,2.53-.41,3.64,3.64,0,0,0,1.76-4.65Z"/><path class="outline" d="M523,213.55a110.9,110.9,0,0,0-43.4-42.43l-54.24-29.67a73.52,73.52,0,0,1-29.33-29.33L366.38,57.88A110.9,110.9,0,0,0,324,14.48a112.46,112.46,0,0,0-110.4,0,110.9,110.9,0,0,0-42.43,43.4l-29.67,54.24a73.52,73.52,0,0,1-29.33,29.33L57.88,171.12a110.9,110.9,0,0,0-43.4,42.43,112.46,112.46,0,0,0,0,110.4,110.9,110.9,0,0,0,43.4,42.43l54.24,29.67a73.52,73.52,0,0,1,29.33,29.33l29.67,54.24a111.09,111.09,0,0,0,195.26,0l29.67-54.24a73.52,73.52,0,0,1,29.33-29.33l54.24-29.67A111.64,111.64,0,0,0,523,213.55Zm9.72,39.36a1.08,1.08,0,0,1,.79-.43l.4,0a1,1,0,0,1,.88.22,1.69,1.69,0,0,1,.39,1,1.62,1.62,0,0,1-.12,1,1.08,1.08,0,0,1-.79.43l-.4,0A1,1,0,0,1,533,255a2.18,2.18,0,0,1-.27-2Zm-.69,11.17a6.66,6.66,0,0,1-.35,2.4,4.4,4.4,0,0,1-1.29,2,1.09,1.09,0,0,1-.71.33,1.1,1.1,0,0,1-.79-.36.89.89,0,0,1-.25-.62.94.94,0,0,1,.27-.74,3.48,3.48,0,0,0,.86-1.32,4.13,4.13,0,0,0,.25-1.7,3.14,3.14,0,0,0-.45-1.6,1.4,1.4,0,0,0-1.34-.6,1.43,1.43,0,0,0-1.27.82,9.71,9.71,0,0,0-.72,2.29,14.17,14.17,0,0,1-.66,2.23,3.76,3.76,0,0,1-1.12,1.53,3.32,3.32,0,0,1-2,.69,3.23,3.23,0,0,1-2.07-.59,4.35,4.35,0,0,1-1.4-1.7,5.72,5.72,0,0,1-.56-2.29,7.42,7.42,0,0,1,.42-2.93,5.46,5.46,0,0,1,1.65-2.34,1.26,1.26,0,0,1,.66-.25,1,1,0,0,1,.88.48,1,1,0,0,1,.2.57,1.15,1.15,0,0,1-.34.84,5.29,5.29,0,0,0-1.21,1.67,4.79,4.79,0,0,0-.33,2.08,3.41,3.41,0,0,0,.51,1.65,1.55,1.55,0,0,0,2.64-.13,8.32,8.32,0,0,0,.72-2.19,15.62,15.62,0,0,1,.69-2.36,4.07,4.07,0,0,1,1.13-1.61,3.5,3.5,0,0,1,4-.18,4.25,4.25,0,0,1,1.4,1.64A5.62,5.62,0,0,1,532.05,264.08Zm-.2,9.76a1.08,1.08,0,0,1-.39.84,1.17,1.17,0,0,1-.86.3l-10.81-.51a1.24,1.24,0,0,1-.84-.38,1.19,1.19,0,0,1-.31-.88,1.15,1.15,0,0,1,.39-.82,1.25,1.25,0,0,1,.87-.3l10.81.52a1.17,1.17,0,0,1,.83.37A1.09,1.09,0,0,1,531.85,273.84ZM531,254.19a1.2,1.2,0,0,1-.23.91,1.17,1.17,0,0,1-.8.44L519.23,257a1.19,1.19,0,0,1-.88-.22,1.2,1.2,0,0,1-.23-1.69,1.2,1.2,0,0,1,.79-.45l10.73-1.46a1.21,1.21,0,0,1,.89.22A1.13,1.13,0,0,1,531,254.19Zm-5-16a2.32,2.32,0,0,1,.58-.26,1,1,0,0,1,.78.14,1.14,1.14,0,0,1,.51.75,1.27,1.27,0,0,1,0,.7,1.32,1.32,0,0,1-.44.6l-7.64,5.72,9.41,1.62a1.13,1.13,0,0,1,1,.87,1.09,1.09,0,0,1-.11.85,1,1,0,0,1-.64.49,1.88,1.88,0,0,1-.65,0l-11.61-2.09a1.2,1.2,0,0,1-.61-.29,1,1,0,0,1-.36-.53,1.08,1.08,0,0,1,0-.75,1.3,1.3,0,0,1,.46-.64Zm-4.46-13.41a3.34,3.34,0,0,1,.29,1.73,3.42,3.42,0,0,1-.61,1.64,3.31,3.31,0,0,1-1.39,1.14,3.26,3.26,0,0,1-1.73.29,3.39,3.39,0,0,1-1.63-.62,3.32,3.32,0,0,1-1.12-1.36,3.27,3.27,0,0,1-.29-1.72,3.39,3.39,0,0,1,.59-1.65,3.24,3.24,0,0,1,1.36-1.12,3.21,3.21,0,0,1,1.77-.3,3.31,3.31,0,0,1,1.64.61A3.26,3.26,0,0,1,521.52,224.82Zm-15.9-21.59a6.12,6.12,0,0,1,3.25.3,5.56,5.56,0,0,1,2.49,1.93,5.38,5.38,0,0,1,1,2.3,5.11,5.11,0,0,1-.07,2.31l4.74-3.48a1.18,1.18,0,0,1,.89-.24,1.14,1.14,0,0,1,.77.48,1.15,1.15,0,0,1-.26,1.68l-13,9.53a1.2,1.2,0,0,1-.88.23,1.16,1.16,0,0,1-.79-.49,1.1,1.1,0,0,1-.23-.89,1.21,1.21,0,0,1,.5-.77l.56-.41a5.3,5.3,0,0,1-4.22-2.12,5.57,5.57,0,0,1-1.11-3,6.1,6.1,0,0,1,.68-3.2,7.51,7.51,0,0,1,2.36-2.72A7.71,7.71,0,0,1,505.62,203.23Zm-7.33-11.15a5.88,5.88,0,0,1,4.32,4.22,6.2,6.2,0,0,1,0,3.2,6.4,6.4,0,0,1-1.66,2.93,1.05,1.05,0,0,1-.8.28,1.17,1.17,0,0,1-.81-.36l-6.26-6.18a4.37,4.37,0,0,0-1.07,3.06,4.25,4.25,0,0,0,1.34,2.86,4.29,4.29,0,0,0,3.21,1.41,1.48,1.48,0,0,1,.67.35,1,1,0,0,1,.3.72,1,1,0,0,1-.29.7,1.24,1.24,0,0,1-1,.32,5.65,5.65,0,0,1-2.23-.48,6.24,6.24,0,0,1-2.1-1.36,7.38,7.38,0,0,1-1.94-3.11,5.91,5.91,0,0,1,0-3.36,7,7,0,0,1,1.83-3,7.56,7.56,0,0,1,3.2-2A6.23,6.23,0,0,1,498.29,192.08Zm-10-8.71,1.15.88,1.28-1.66a1.15,1.15,0,0,1,.78-.47,1.21,1.21,0,0,1,1.35,1,1.16,1.16,0,0,1-.25.88l-1.28,1.67L493,187a1.08,1.08,0,0,1,.43.73,1.06,1.06,0,0,1-.23.81,1,1,0,0,1-.72.43,1.11,1.11,0,0,1-.81-.24L490,187.42l-4.54,5.91c-.51.67-.46,1.22.13,1.68a1.88,1.88,0,0,0,.43.22,1.85,1.85,0,0,1,.43.22.65.65,0,0,1,.27.55,1,1,0,0,1-1.27,1,2.49,2.49,0,0,1-1.3-.52,6.12,6.12,0,0,1-1.09-1.06,2.22,2.22,0,0,1-.43-1.45,3.52,3.52,0,0,1,.89-2l4.59-6L487,185.1a1.1,1.1,0,0,1-.43-.73,1.08,1.08,0,0,1,.23-.82,1,1,0,0,1,.72-.42A1.11,1.11,0,0,1,488.31,183.37Zm-3.87-6.21.21-.33a1,1,0,0,1,.75-.53,1.77,1.77,0,0,1,1,.35,1.54,1.54,0,0,1,.7.77,1,1,0,0,1-.19.87l-.22.34a1,1,0,0,1-.73.54,1.72,1.72,0,0,1-1-.35,1.6,1.6,0,0,1-.73-.79A1,1,0,0,1,484.44,177.16Zm-2,3.41a1.16,1.16,0,0,1,.75-.53,1.13,1.13,0,0,1,.89.16,1.17,1.17,0,0,1,.54.77,1.18,1.18,0,0,1-.18.89l-5.89,9.08a1.15,1.15,0,0,1-.75.53,1.1,1.1,0,0,1-.91-.17,1.15,1.15,0,0,1-.52-.75,1.2,1.2,0,0,1,.18-.9Zm-8.84-6.11a5.54,5.54,0,0,1,2.25.69,6.88,6.88,0,0,1,1.88,1.54,4.51,4.51,0,0,1,1,2.14,1.07,1.07,0,0,1-.08.78,1.09,1.09,0,0,1-.73.49.9.9,0,0,1-.65-.11.88.88,0,0,1-.49-.61,3.65,3.65,0,0,0-.69-1.43,4.19,4.19,0,0,0-1.32-1.09,3.14,3.14,0,0,0-1.61-.43,1.39,1.39,0,0,0-1.21.83,1.46,1.46,0,0,0,0,1.51,9.38,9.38,0,0,0,1.59,1.8,14.35,14.35,0,0,1,1.57,1.72,3.88,3.88,0,0,1,.72,1.75,3.3,3.3,0,0,1-.46,2.1,3.26,3.26,0,0,1-1.57,1.46,4.42,4.42,0,0,1-2.18.32,5.86,5.86,0,0,1-2.25-.71,7.45,7.45,0,0,1-2.29-1.88,5.42,5.42,0,0,1-1.15-2.62,1.19,1.19,0,0,1,.13-.7,1,1,0,0,1,.86-.49.94.94,0,0,1,.59.12,1.11,1.11,0,0,1,.55.72,5.19,5.19,0,0,0,.8,1.9,4.58,4.58,0,0,0,1.61,1.36,3.49,3.49,0,0,0,1.68.42,1.56,1.56,0,0,0,1.25-2.32A8.41,8.41,0,0,0,472,182a15.87,15.87,0,0,1-1.66-1.81,4.18,4.18,0,0,1-.8-1.8,3.49,3.49,0,0,1,1.94-3.54A4.18,4.18,0,0,1,473.59,174.46Zm-5.67-6.58.19-.35a1,1,0,0,1,.7-.58,1.67,1.67,0,0,1,1,.28,1.59,1.59,0,0,1,.77.71,1.06,1.06,0,0,1-.13.89l-.19.35a1,1,0,0,1-.7.59,2.21,2.21,0,0,1-1.8-1A1,1,0,0,1,467.92,167.88Zm-1,3a1.09,1.09,0,0,1,.9.09,1.13,1.13,0,0,1,.59.72,1.16,1.16,0,0,1-.11.91l-5.19,9.5a1.17,1.17,0,0,1-.71.58,1.2,1.2,0,0,1-1.49-.81,1.2,1.2,0,0,1,.11-.91l5.2-9.5A1.18,1.18,0,0,1,466.88,170.85Zm-13.75-6a2.2,2.2,0,0,1,.19-.61,1,1,0,0,1,.63-.48,1.18,1.18,0,0,1,.91.12,1.38,1.38,0,0,1,.5.49,1.31,1.31,0,0,1,.14.72l-.89,9.51,7.52-5.88a1.13,1.13,0,0,1,1.3-.15,1.12,1.12,0,0,1,.55.66,1,1,0,0,1-.06.8,1.79,1.79,0,0,1-.46.47l-9.35,7.2a1.34,1.34,0,0,1-.62.25,1.15,1.15,0,0,1-.64-.09,1.13,1.13,0,0,1-.57-.48,1.22,1.22,0,0,1-.16-.78Zm-15.21-5.25a3.3,3.3,0,0,1,1.24-1.3,3.37,3.37,0,0,1,3.38-.07,3.35,3.35,0,0,1,1.77,2.89,3.32,3.32,0,0,1-.43,1.75,3.24,3.24,0,0,1-1.22,1.27,3.54,3.54,0,0,1-1.67.48,3.44,3.44,0,0,1-1.71-.42A3.26,3.26,0,0,1,438,163a3.3,3.3,0,0,1-.51-1.67A3.2,3.2,0,0,1,437.92,159.59ZM419.3,148a6.15,6.15,0,0,1,3.07-1.1,5.51,5.51,0,0,1,3.07.69,5.34,5.34,0,0,1,1.89,1.66,5.28,5.28,0,0,1,.92,2.12l2.82-5.15a1.15,1.15,0,0,1,.69-.6,1.09,1.09,0,0,1,.91.11,1.15,1.15,0,0,1,.48,1.63l-7.73,14.12a1.2,1.2,0,0,1-.7.59,1.18,1.18,0,0,1-.93-.11,1.13,1.13,0,0,1-.58-.71,1.19,1.19,0,0,1,.13-.91l.34-.61a5.17,5.17,0,0,1-2.28.49,5,5,0,0,1-2.44-.62,5.59,5.59,0,0,1-2.28-2.24,6.24,6.24,0,0,1-.74-3.19,7.48,7.48,0,0,1,1-3.46A7.74,7.74,0,0,1,419.3,148Zm-8.56-8.81a5.8,5.8,0,0,1,2.95,1.12,6,6,0,0,1,1.92,2.45,6.3,6.3,0,0,1,.45,3.17,6.49,6.49,0,0,1-1.23,3.13,1.09,1.09,0,0,1-.76.39,1.2,1.2,0,0,1-.85-.24L406.15,144a4.33,4.33,0,0,0-.62,3.18,4.19,4.19,0,0,0,1.72,2.64,4.59,4.59,0,0,0,1.78.88,4.8,4.8,0,0,0,1.6.07,1.37,1.37,0,0,1,.71.25,1,1,0,0,1,.4.67,1,1,0,0,1-.19.73,1.25,1.25,0,0,1-1,.47,5.86,5.86,0,0,1-2.27-.17,6.29,6.29,0,0,1-2.27-1.05,7.24,7.24,0,0,1-2.35-2.81,5.94,5.94,0,0,1-.5-3.32,7.11,7.11,0,0,1,1.38-3.27,7.74,7.74,0,0,1,2.89-2.45A6.19,6.19,0,0,1,410.74,139.19Zm-9.81-14.71.31-.25a1,1,0,0,1,.87-.29,1.73,1.73,0,0,1,.85.64,1.59,1.59,0,0,1,.45,1,1,1,0,0,1-.45.78l-.31.25a1,1,0,0,1-.86.29,1.66,1.66,0,0,1-.84-.63,1.55,1.55,0,0,1-.46-1A1,1,0,0,1,400.93,124.48Zm-.18,6.28a1.06,1.06,0,0,1,.76-.33,1.08,1.08,0,0,1,.77.35l1,1,1.48-1.49a1.23,1.23,0,0,1,.84-.36,1.12,1.12,0,0,1,.86.36,1.14,1.14,0,0,1,.35.84,1.23,1.23,0,0,1-.36.84L405,133.48l1.47,1.46a1.05,1.05,0,0,1,.34.78,1.07,1.07,0,0,1-.34.78,1.06,1.06,0,0,1-.76.33,1.08,1.08,0,0,1-.77-.35L403.46,135l-5.26,5.27q-.88.89-.09,1.68a1.61,1.61,0,0,0,.4.27,2.22,2.22,0,0,1,.4.28.7.7,0,0,1,.19.58,1,1,0,0,1-.33.66,1.1,1.1,0,0,1-1.06.21,2.54,2.54,0,0,1-1.22-.69,6,6,0,0,1-.95-1.19,2.26,2.26,0,0,1-.24-1.49,3.55,3.55,0,0,1,1.14-1.91l5.33-5.35-1-1a1.07,1.07,0,0,1-.34-.78A1,1,0,0,1,400.75,130.76ZM398,127.13a1.22,1.22,0,0,1,.87-.28,1.22,1.22,0,0,1,1.09,1.31,1.22,1.22,0,0,1-.44.8l-8.34,6.91a1.22,1.22,0,0,1-.87.28,1.14,1.14,0,0,1-.82-.44,1.13,1.13,0,0,1-.27-.87,1.18,1.18,0,0,1,.44-.8Zm-6.2-17,.35-.19a1,1,0,0,1,.91-.12,1.71,1.71,0,0,1,.72.79,1.64,1.64,0,0,1,.26,1,1,1,0,0,1-.59.67l-.35.2a1,1,0,0,1-.9.12,1.66,1.66,0,0,1-.71-.78,1.65,1.65,0,0,1-.27-1A1,1,0,0,1,391.8,110.15Zm1.2,8.38a5.51,5.51,0,0,1,1.66,1.67,6.87,6.87,0,0,1,.94,2.24,4.55,4.55,0,0,1-.09,2.38,1.1,1.1,0,0,1-.44.65,1.13,1.13,0,0,1-.87.09,1,1,0,0,1-.67-1.17,3.55,3.55,0,0,0,.06-1.59,4.32,4.32,0,0,0-.65-1.59,3.15,3.15,0,0,0-1.21-1.13,1.39,1.39,0,0,0-1.46.17,1.45,1.45,0,0,0-.67,1.35,9.86,9.86,0,0,0,.55,2.34,14.41,14.41,0,0,1,.58,2.25,3.83,3.83,0,0,1-.18,1.89,3.35,3.35,0,0,1-1.4,1.63,3.19,3.19,0,0,1-2.07.55,4.36,4.36,0,0,1-2.07-.74,5.91,5.91,0,0,1-1.66-1.68,7.48,7.48,0,0,1-1.14-2.74,5.45,5.45,0,0,1,.22-2.85,1.27,1.27,0,0,1,.44-.56,1,1,0,0,1,1,0,1,1,0,0,1,.46.39,1.12,1.12,0,0,1,.14.89,5.25,5.25,0,0,0-.18,2,4.63,4.63,0,0,0,.78,2,3.51,3.51,0,0,0,1.28,1.16,1.56,1.56,0,0,0,2.2-1.46,8.12,8.12,0,0,0-.5-2.26,15.19,15.19,0,0,1-.61-2.38,4.2,4.2,0,0,1,.14-2,3.52,3.52,0,0,1,3.38-2.22A4.34,4.34,0,0,1,393,118.53Zm-3.67-6.44a1.21,1.21,0,0,1,.82,1.49,1.2,1.2,0,0,1-.58.71l-9.49,5.2a1.17,1.17,0,0,1-.91.11,1.21,1.21,0,0,1-.82-1.49,1.18,1.18,0,0,1,.58-.7l9.49-5.21A1.21,1.21,0,0,1,389.33,112.09Zm-7.84-12.88a1,1,0,0,1,.79-.06,1.15,1.15,0,0,1,.7.59,1.29,1.29,0,0,1,.16.68,1.35,1.35,0,0,1-.27.69L377,108.63l9.51-.9a1.17,1.17,0,0,1,1.18.58,1.18,1.18,0,0,1,.11.86,1,1,0,0,1-.49.64,1.74,1.74,0,0,1-.64.14l-11.75,1a1.51,1.51,0,0,1-.67-.12,1.22,1.22,0,0,1-.48-.42,1.12,1.12,0,0,1-.22-.72,1.26,1.26,0,0,1,.28-.74L381,99.62A2.08,2.08,0,0,1,381.49,99.21Zm-5.91-11a3.38,3.38,0,0,1-.07,3.39,3.48,3.48,0,0,1-1.31,1.24,3.33,3.33,0,0,1-1.71.41,3.5,3.5,0,0,1-1.67-.5,3.39,3.39,0,0,1-1.21-1.28,3.31,3.31,0,0,1-.41-1.69,3.44,3.44,0,0,1,.47-1.69,3.31,3.31,0,0,1,1.27-1.22,3.39,3.39,0,0,1,3.43.07A3.29,3.29,0,0,1,375.58,88.19ZM364.69,67.77A5.54,5.54,0,0,1,366.91,70a5.48,5.48,0,0,1,.7,2.42,5.32,5.32,0,0,1-.38,2.28l5.16-2.82a1.18,1.18,0,0,1,.91-.13,1.12,1.12,0,0,1,.7.59,1.14,1.14,0,0,1-.48,1.62L359.4,81.69a1.16,1.16,0,0,1-.91.11,1.13,1.13,0,0,1-.72-.59,1.11,1.11,0,0,1-.11-.9,1.15,1.15,0,0,1,.6-.7l.61-.34a5.17,5.17,0,0,1-2.18-.81A5.06,5.06,0,0,1,355,76.62a5.69,5.69,0,0,1-.71-3.12,6.22,6.22,0,0,1,1.1-3.08A8.15,8.15,0,0,1,361.52,67,6,6,0,0,1,364.69,67.77Zm-4.83-10.53a5.83,5.83,0,0,1,.82,3,6.25,6.25,0,0,1-.82,3.1,6.43,6.43,0,0,1-2.35,2.4,1.09,1.09,0,0,1-.85.07,1.23,1.23,0,0,1-.68-.55l-4.48-7.58a4.33,4.33,0,0,0-1.81,2.68,4.21,4.21,0,0,0,.56,3.11,4.47,4.47,0,0,0,1.29,1.5,4.83,4.83,0,0,0,1.45.69,1.33,1.33,0,0,1,.56.51,1,1,0,0,1,.11.76,1,1,0,0,1-.46.61,1.27,1.27,0,0,1-1.07,0,5.9,5.9,0,0,1-2-1,6.13,6.13,0,0,1-1.67-1.85,7.29,7.29,0,0,1-1.09-3.5,6,6,0,0,1,.84-3.25,7,7,0,0,1,2.55-2.48,7.57,7.57,0,0,1,3.61-1.13,6.09,6.09,0,0,1,3.25.72A5.76,5.76,0,0,1,359.86,57.24ZM352.76,44a1.17,1.17,0,0,1,.88-.24,1.2,1.2,0,0,1,1,1.34,1.15,1.15,0,0,1-.47.79l-1.66,1.28,1.26,1.64a1.07,1.07,0,0,1-.21,1.55,1,1,0,0,1-.8.22,1.07,1.07,0,0,1-.72-.44l-1.26-1.65L344.9,53c-.66.51-.77,1.06-.31,1.66A1.73,1.73,0,0,0,345,55a2,2,0,0,1,.36.32.68.68,0,0,1,.11.61,1,1,0,0,1-.42.6,1.06,1.06,0,0,1-1.08.07,2.39,2.39,0,0,1-1.11-.84A6.09,6.09,0,0,1,342,54.4a2.27,2.27,0,0,1,0-1.51,3.65,3.65,0,0,1,1.39-1.74l6-4.59-.89-1.16a1.06,1.06,0,0,1-.23-.81,1.09,1.09,0,0,1,.44-.73,1,1,0,0,1,.8-.22,1.07,1.07,0,0,1,.72.44l.88,1.15Zm-4.7-6.88.3-.27a1,1,0,0,1,.86-.32,1.86,1.86,0,0,1,.88.6,1.6,1.6,0,0,1,.48.93,1,1,0,0,1-.41.79l-.3.27a1,1,0,0,1-.85.33,1.7,1.7,0,0,1-.87-.59,1.66,1.66,0,0,1-.5-1A1,1,0,0,1,348.06,37.07Zm-1.95,2.46a1.15,1.15,0,0,1,.82.38,1.19,1.19,0,0,1,.32.88,1.21,1.21,0,0,1-.41.82l-8,7.26a1.2,1.2,0,0,1-.86.32,1.13,1.13,0,0,1-.83-.41,1.1,1.1,0,0,1-.31-.85,1.19,1.19,0,0,1,.41-.82l8-7.26A1.16,1.16,0,0,1,346.11,39.53Zm-8-7.91a5.65,5.65,0,0,1,2,1.21,6.65,6.65,0,0,1,1.46,2,4.46,4.46,0,0,1,.5,2.32,1.11,1.11,0,0,1-.27.74,1.08,1.08,0,0,1-.82.3.88.88,0,0,1-.61-.26.93.93,0,0,1-.33-.71,3.52,3.52,0,0,0-.33-1.55,4.41,4.41,0,0,0-1-1.38,3.15,3.15,0,0,0-1.45-.8,1.4,1.4,0,0,0-1.38.52,1.43,1.43,0,0,0-.31,1.47,9.37,9.37,0,0,0,1.11,2.14,14.32,14.32,0,0,1,1.11,2,3.82,3.82,0,0,1,.29,1.87,3.35,3.35,0,0,1-.95,1.93,3.25,3.25,0,0,1-1.87,1.05,4.41,4.41,0,0,1-2.2-.22,5.94,5.94,0,0,1-2-1.22,7.66,7.66,0,0,1-1.77-2.37,5.38,5.38,0,0,1-.49-2.82,1.26,1.26,0,0,1,.29-.65,1,1,0,0,1,1-.27,1,1,0,0,1,.54.26,1.17,1.17,0,0,1,.36.83,5,5,0,0,0,.33,2,4.57,4.57,0,0,0,1.23,1.71,3.67,3.67,0,0,0,1.53.81,1.56,1.56,0,0,0,1.77-2,8.51,8.51,0,0,0-1-2.07,15.79,15.79,0,0,1-1.19-2.15,4.16,4.16,0,0,1-.34-1.94,3.2,3.2,0,0,1,.92-2,3.24,3.24,0,0,1,1.8-1A4.3,4.3,0,0,1,338.11,31.62Zm-5.17-8,.25-.32a1,1,0,0,1,.78-.47,1.75,1.75,0,0,1,1,.42,1.61,1.61,0,0,1,.65.82,1.06,1.06,0,0,1-.26.86l-.24.32a1,1,0,0,1-.77.48,1.72,1.72,0,0,1-1-.42,1.6,1.6,0,0,1-.67-.83A1,1,0,0,1,332.94,23.59Zm-1.45,2.79a1.09,1.09,0,0,1,.88.22,1.16,1.16,0,0,1,.23,1.68l-6.51,8.65a1.19,1.19,0,0,1-.78.47,1.15,1.15,0,0,1-.9-.24,1.16,1.16,0,0,1-.21-1.66l6.51-8.65A1.19,1.19,0,0,1,331.49,26.38Zm-14-7.44a2,2,0,0,1,.21-.6,1,1,0,0,1,.65-.46,1.18,1.18,0,0,1,.9.16,1.3,1.3,0,0,1,.48.51,1.25,1.25,0,0,1,.12.73l-1.28,9.46,7.75-5.58a1.14,1.14,0,0,1,1.31-.09,1.12,1.12,0,0,1,.53.68,1,1,0,0,1-.1.8,1.62,1.62,0,0,1-.48.44l-9.63,6.82a1.27,1.27,0,0,1-1.26.12,1.16,1.16,0,0,1-.56-.51,1.35,1.35,0,0,1-.13-.78Zm-17.09-4.13a3.39,3.39,0,0,1,1-1.48,3.33,3.33,0,0,1,3.34-.59,3.27,3.27,0,0,1,1.44,1,3.41,3.41,0,0,1,.75,1.58,3.33,3.33,0,0,1-.16,1.79,3.38,3.38,0,0,1-1,1.45,3.47,3.47,0,0,1-1.58.73,3.28,3.28,0,0,1-1.75-.16,3.34,3.34,0,0,1-1.44-1,3.48,3.48,0,0,1-.76-1.58A3.37,3.37,0,0,1,300.36,14.81ZM277,12.29a7.68,7.68,0,0,1,1.29-3.36,6,6,0,0,1,2.5-2.1,5.55,5.55,0,0,1,3.12-.42,5.44,5.44,0,0,1,2.34.91A5.28,5.28,0,0,1,287.81,9l.86-5.81a1.18,1.18,0,0,1,.45-.8,1.12,1.12,0,0,1,.89-.21,1.16,1.16,0,0,1,1,1.36l-2.37,15.93a1.16,1.16,0,0,1-1.36,1,1.15,1.15,0,0,1-.79-.46,1.17,1.17,0,0,1-.19-.9l.1-.69a5.08,5.08,0,0,1-2,1.24,5,5,0,0,1-2.5.27A5.71,5.71,0,0,1,279,18.61a6.16,6.16,0,0,1-1.79-2.73A7.54,7.54,0,0,1,277,12.29ZM263,8.67a6.17,6.17,0,0,1,2.26-2.45,5.85,5.85,0,0,1,3-.87,5.94,5.94,0,0,1,3,.81,6.3,6.3,0,0,1,2.26,2.27,6.45,6.45,0,0,1,.89,3.24,1.11,1.11,0,0,1-.37.77,1.21,1.21,0,0,1-.83.31l-8.8.05a4.35,4.35,0,0,0,1.41,2.91,4.26,4.26,0,0,0,3,1.09,4.68,4.68,0,0,0,2-.36,4.92,4.92,0,0,0,1.32-.91,1.52,1.52,0,0,1,.73-.23.94.94,0,0,1,.71.3,1,1,0,0,1,.29.7,1.23,1.23,0,0,1-.49.95,6,6,0,0,1-1.92,1.24,6.59,6.59,0,0,1-2.45.51,7.35,7.35,0,0,1-3.57-.83A6,6,0,0,1,263,15.8a7,7,0,0,1-.86-3.44A7.67,7.67,0,0,1,263,8.67Zm-11.7-1.21a1.11,1.11,0,0,1,.74-.4l1.44-.18-.26-2.08a1.17,1.17,0,0,1,.22-.89,1.22,1.22,0,0,1,1.69-.21,1.17,1.17,0,0,1,.44.8l.27,2.08,2-.26a1.06,1.06,0,0,1,.82.21,1,1,0,0,1,.41.74,1,1,0,0,1-.21.81,1.07,1.07,0,0,1-.74.4l-2.06.26.94,7.39c.1.83.53,1.19,1.27,1.1a1.42,1.42,0,0,0,.46-.15,1.73,1.73,0,0,1,.46-.14.68.68,0,0,1,.58.2,1.05,1.05,0,0,1,.31.67,1,1,0,0,1-.48,1,2.51,2.51,0,0,1-1.29.55,6,6,0,0,1-1.52,0,2.24,2.24,0,0,1-1.33-.72,3.62,3.62,0,0,1-.81-2.08L253.7,9l-1.44.18a1.05,1.05,0,0,1-1.22-1A1,1,0,0,1,251.25,7.46Zm-3.06,1.26,2.21,10.6a1.17,1.17,0,0,1-.16.9,1.15,1.15,0,0,1-.77.52,1.11,1.11,0,0,1-.89-.17,1.21,1.21,0,0,1-.51-.77L245.86,9.21a1.17,1.17,0,0,1,.16-.9,1.1,1.1,0,0,1,.75-.52,1.14,1.14,0,0,1,.91.17A1.19,1.19,0,0,1,248.19,8.72ZM245,4.08a1.72,1.72,0,0,1,1-.45,1.55,1.55,0,0,1,1.05.05,1,1,0,0,1,.47.75l.09.39a1,1,0,0,1-.15.9,1.69,1.69,0,0,1-.95.46,1.6,1.6,0,0,1-1.07,0,1,1,0,0,1-.48-.75L244.8,5A1,1,0,0,1,245,4.08Zm-11,8.88a4.28,4.28,0,0,1,1.23-1.76,5.72,5.72,0,0,1,2.07-1.14,6.94,6.94,0,0,1,2.42-.27,4.38,4.38,0,0,1,2.25.75,1.06,1.06,0,0,1,.5.6,1.08,1.08,0,0,1-.15.86,1,1,0,0,1-1.31.32,3.6,3.6,0,0,0-1.51-.5,4.24,4.24,0,0,0-1.71.18,3.12,3.12,0,0,0-1.42.85,1.39,1.39,0,0,0-.25,1.45,1.44,1.44,0,0,0,1.11,1,9.68,9.68,0,0,0,2.41.13,13.94,13.94,0,0,1,2.32.07,3.89,3.89,0,0,1,1.76.7A3.33,3.33,0,0,1,244.84,18a3.23,3.23,0,0,1-.05,2.15,4.39,4.39,0,0,1-1.29,1.79,6.07,6.07,0,0,1-2.08,1.12,7.49,7.49,0,0,1-2.94.33,5.48,5.48,0,0,1-2.68-1,1.22,1.22,0,0,1-.41-.58,1,1,0,0,1,.25-1,.92.92,0,0,1,.5-.33,1.14,1.14,0,0,1,.89.11,5.24,5.24,0,0,0,1.92.75,4.75,4.75,0,0,0,2.1-.2,3.53,3.53,0,0,0,1.47-.91,1.43,1.43,0,0,0,.3-1.49,1.45,1.45,0,0,0-1.09-1,8.53,8.53,0,0,0-2.31-.15,16.83,16.83,0,0,1-2.45-.07,4.13,4.13,0,0,1-1.85-.69A3.18,3.18,0,0,1,233.91,15,3.22,3.22,0,0,1,233.94,13Zm-5.06.62a1.19,1.19,0,0,1,.64.66l4.13,10a1.18,1.18,0,0,1-.65,1.57,1.11,1.11,0,0,1-.91,0,1.14,1.14,0,0,1-.64-.65l-4.13-10a1.15,1.15,0,0,1,0-.91,1.09,1.09,0,0,1,.64-.64A1.12,1.12,0,0,1,228.88,13.58Zm-3.4-3.3a1.82,1.82,0,0,1,.87-.63,1.57,1.57,0,0,1,1-.15,1,1,0,0,1,.61.66l.16.37a1,1,0,0,1,0,.91,1.69,1.69,0,0,1-.85.62,1.54,1.54,0,0,1-1.06.15,1,1,0,0,1-.61-.65l-.15-.37A1,1,0,0,1,225.48,10.28Zm-12.2,11a1.13,1.13,0,0,1,.59-.69,1.29,1.29,0,0,1,.68-.16,1.35,1.35,0,0,1,.69.27l7.49,5.92-.85-9.51a1.13,1.13,0,0,1,.59-1.17,1.1,1.1,0,0,1,.85-.11,1,1,0,0,1,.64.5,1.84,1.84,0,0,1,.14.63l1,11.76a1.22,1.22,0,0,1-.12.66,1.25,1.25,0,0,1-1.14.71,1.27,1.27,0,0,1-.74-.29l-9.32-7.24a2,2,0,0,1-.4-.49A1,1,0,0,1,213.28,21.25ZM200.91,31.77a3.37,3.37,0,0,1,1-1.43,3.41,3.41,0,0,1,1.6-.74,3.4,3.4,0,0,1,3.21,1.21,3.2,3.2,0,0,1,.72,1.6,3.29,3.29,0,0,1-.17,1.73,3.41,3.41,0,0,1-2.6,2.16,3.34,3.34,0,0,1-3.19-1.15,3.46,3.46,0,0,1-.75-1.64A3.32,3.32,0,0,1,200.91,31.77Zm-16.22,16.3a5.67,5.67,0,0,1,3.17-4.47,5.23,5.23,0,0,1,2.26-.54l-4.59-3.67a1.2,1.2,0,0,1-.47-.79,1.14,1.14,0,0,1,.27-.88,1.16,1.16,0,0,1,1.69-.18L199.58,47.6a1.17,1.17,0,0,1,.45.8,1.11,1.11,0,0,1-.26.89,1.16,1.16,0,0,1-.8.45,1.17,1.17,0,0,1-.87-.29l-.55-.43a5,5,0,0,1,.09,2.33,4.93,4.93,0,0,1-1,2.29,5.56,5.56,0,0,1-2.6,1.85,6.18,6.18,0,0,1-3.26.18,8.16,8.16,0,0,1-5.49-4.39A6.06,6.06,0,0,1,184.69,48.07Zm-7.58,10.06A5.88,5.88,0,0,1,179.33,56a6.13,6.13,0,0,1,3.1-.81,6.42,6.42,0,0,1,3.25.87,1,1,0,0,1,.47.7,1.2,1.2,0,0,1-.14.87L181.6,65.2a4.32,4.32,0,0,0,3.23.26,4.26,4.26,0,0,0,2.44-2,4.63,4.63,0,0,0,.67-1.86,4.74,4.74,0,0,0-.12-1.6,1.42,1.42,0,0,1,.17-.74,1,1,0,0,1,.62-.47,1,1,0,0,1,.75.1,1.26,1.26,0,0,1,.57.91,5.85,5.85,0,0,1,.1,2.28,6.4,6.4,0,0,1-.8,2.37,7.12,7.12,0,0,1-2.52,2.66,5.81,5.81,0,0,1-3.24.87,7.16,7.16,0,0,1-3.41-1,7.68,7.68,0,0,1-2.76-2.59,6.25,6.25,0,0,1-1-3.19A5.82,5.82,0,0,1,177.11,58.13ZM168.45,68a1.12,1.12,0,0,1,.71-.57,1.16,1.16,0,0,1,.91.11l1.84,1,1-1.82a1,1,0,0,1,.65-.54,1.09,1.09,0,0,1,.84.1,1,1,0,0,1,.53.65,1.07,1.07,0,0,1-.11.83l-1,1.82,6.54,3.58c.73.4,1.27.27,1.63-.39a1.45,1.45,0,0,0,.15-.46,2.75,2.75,0,0,1,.15-.46.73.73,0,0,1,.51-.35,1.13,1.13,0,0,1,.72.14,1.05,1.05,0,0,1,.5,1,2.54,2.54,0,0,1-.31,1.36,6.42,6.42,0,0,1-.88,1.25,2.33,2.33,0,0,1-1.37.65,3.68,3.68,0,0,1-2.16-.57l-6.62-3.62-.7,1.27a1,1,0,0,1-.65.54,1.09,1.09,0,0,1-.84-.1,1,1,0,0,1-.41-1.48l.69-1.28-1.84-1a1.17,1.17,0,0,1-.58-.71A1.11,1.11,0,0,1,168.45,68Zm-.81,7.79a1.14,1.14,0,0,1,.72-.59,1.19,1.19,0,0,1,.9.12l9.5,5.19a1.23,1.23,0,0,1,.59.7,1.18,1.18,0,0,1-.11.93,1.15,1.15,0,0,1-.71.57,1.21,1.21,0,0,1-.91-.12l-9.5-5.19a1.18,1.18,0,0,1-.58-.7A1.12,1.12,0,0,1,167.64,75.76Zm-3.72-2.06a1.56,1.56,0,0,1,.71-.76,1,1,0,0,1,.89.13l.35.19a1,1,0,0,1,.59.69,1.73,1.73,0,0,1-.27,1,1.62,1.62,0,0,1-.73.79,1.1,1.1,0,0,1-.89-.13l-.35-.19a1,1,0,0,1-.58-.71A1.69,1.69,0,0,1,163.92,73.7Zm-1.43,12.09a5.54,5.54,0,0,1,.69-2.25,6.73,6.73,0,0,1,1.54-1.88,4.51,4.51,0,0,1,2.14-1,1.07,1.07,0,0,1,.78.08,1.06,1.06,0,0,1,.49.73.9.9,0,0,1-.1.65,1,1,0,0,1-.61.49,3.59,3.59,0,0,0-1.43.69,4.22,4.22,0,0,0-1.1,1.32,3.14,3.14,0,0,0-.43,1.6,1.39,1.39,0,0,0,.83,1.22,1.46,1.46,0,0,0,1.51-.05,9.38,9.38,0,0,0,1.81-1.59,15.16,15.16,0,0,1,1.71-1.57,3.88,3.88,0,0,1,1.75-.72,3.3,3.3,0,0,1,2.1.46,3.26,3.26,0,0,1,1.46,1.57,4.31,4.31,0,0,1,.32,2.18,5.7,5.7,0,0,1-.71,2.25,7.45,7.45,0,0,1-1.88,2.29,5.42,5.42,0,0,1-2.62,1.15,1.21,1.21,0,0,1-.7-.13,1,1,0,0,1-.49-.87,1,1,0,0,1,.12-.58,1.16,1.16,0,0,1,.73-.55,5.22,5.22,0,0,0,1.89-.8,4.58,4.58,0,0,0,1.36-1.61,3.49,3.49,0,0,0,.42-1.68,1.41,1.41,0,0,0-.82-1.27,1.42,1.42,0,0,0-1.5,0A8.67,8.67,0,0,0,170,87.4a15.87,15.87,0,0,1-1.81,1.66,4.13,4.13,0,0,1-1.8.8,3.52,3.52,0,0,1-3.54-1.94A4.29,4.29,0,0,1,162.49,85.79ZM159,91.61a1.13,1.13,0,0,1,.72-.59,1.16,1.16,0,0,1,.91.11l9.5,5.19a1.2,1.2,0,0,1,.58.71,1.11,1.11,0,0,1-.11.92,1.13,1.13,0,0,1-.71.57,1.18,1.18,0,0,1-.9-.11l-9.5-5.2a1.15,1.15,0,0,1-.58-.7A1.09,1.09,0,0,1,159,91.61Zm-3.72-2.07a1.66,1.66,0,0,1,.72-.76,1,1,0,0,1,.88.13l.36.19a1,1,0,0,1,.59.69,1.65,1.65,0,0,1-.28,1,1.58,1.58,0,0,1-.73.79,1,1,0,0,1-.88-.13l-.35-.19a1,1,0,0,1-.58-.7A1.77,1.77,0,0,1,155.25,89.54Zm-3.36,15a1.23,1.23,0,0,1,1.21-.65l9.51.9-5.88-7.53a1.13,1.13,0,0,1-.15-1.3,1.15,1.15,0,0,1,.66-.55,1,1,0,0,1,.8.07,1.58,1.58,0,0,1,.47.45l7.2,9.35a1.33,1.33,0,0,1,.25.63,1.13,1.13,0,0,1-.09.63,1.19,1.19,0,0,1-.48.58,1.36,1.36,0,0,1-.78.16l-11.75-1a1.91,1.91,0,0,1-.61-.19,1,1,0,0,1-.48-.63A1.16,1.16,0,0,1,151.89,104.55Zm-5.72,12.39a3.28,3.28,0,0,1,1.24-1.24,3.34,3.34,0,0,1,1.69-.45,3.4,3.4,0,0,1,1.74.47,3.26,3.26,0,0,1,1.24,1.26,3.4,3.4,0,0,1,.44,1.68,3.35,3.35,0,0,1-.47,1.7,3.26,3.26,0,0,1-1.24,1.23,3.43,3.43,0,0,1-1.68.47,3.38,3.38,0,0,1-1.71-.46,3.44,3.44,0,0,1-1.27-1.27,3.39,3.39,0,0,1-.44-1.69A3.32,3.32,0,0,1,146.17,116.94ZM132,134.66a5.69,5.69,0,0,1,3.55-4.19,5.29,5.29,0,0,1,2.29-.34l-4.25-4a1.15,1.15,0,0,1-.4-.83,1.11,1.11,0,0,1,.34-.85,1.16,1.16,0,0,1,1.7,0l11.64,11.11a1.18,1.18,0,0,1,.39.83,1.13,1.13,0,0,1-.35.87,1.11,1.11,0,0,1-.83.38,1.18,1.18,0,0,1-.84-.36l-.51-.48a5,5,0,0,1-.11,2.33,5.18,5.18,0,0,1-1.23,2.19,5.67,5.67,0,0,1-2.76,1.62,6.08,6.08,0,0,1-3.27-.11,7.51,7.51,0,0,1-3.09-1.84,7.72,7.72,0,0,1-2-3A6,6,0,0,1,132,134.66Zm-10.93,8.67a5.71,5.71,0,0,1,2-2.46,5.79,5.79,0,0,1,2.92-1.09,6.26,6.26,0,0,1,3.15.53,6.51,6.51,0,0,1,2.62,2.12,1.07,1.07,0,0,1,.14.84,1.21,1.21,0,0,1-.49.74l-7.13,5.15a4.4,4.4,0,0,0,2.83,1.56,4.24,4.24,0,0,0,3-.85,4.58,4.58,0,0,0,1.38-1.42,4.88,4.88,0,0,0,.54-1.51,1.44,1.44,0,0,1,.46-.6.93.93,0,0,1,.75-.18,1,1,0,0,1,.65.4,1.28,1.28,0,0,1,.15,1.07,5.85,5.85,0,0,1-.85,2.12,6.31,6.31,0,0,1-1.69,1.83,7.15,7.15,0,0,1-3.39,1.4,5.88,5.88,0,0,1-3.31-.54,7,7,0,0,1-2.7-2.3,7.58,7.58,0,0,1-1.46-3.5A6.33,6.33,0,0,1,121.09,143.33ZM110,149.6a1.11,1.11,0,0,1,.55-.64l1.27-.7-1-1.84a1.21,1.21,0,0,1-.12-.91,1.16,1.16,0,0,1,.59-.72,1.09,1.09,0,0,1,.9-.09,1.17,1.17,0,0,1,.71.58l1,1.84,1.82-1a1.06,1.06,0,0,1,1.49.43,1,1,0,0,1,.1.83,1.1,1.1,0,0,1-.54.64l-1.82,1,3.59,6.53c.4.73.93.92,1.58.56a1.78,1.78,0,0,0,.38-.31,2.07,2.07,0,0,1,.37-.31.71.71,0,0,1,.62,0,1.09,1.09,0,0,1,.53.51,1.05,1.05,0,0,1-.09,1.07,2.48,2.48,0,0,1-1,1,6.28,6.28,0,0,1-1.41.58,2.25,2.25,0,0,1-1.5-.19,3.55,3.55,0,0,1-1.52-1.64l-3.63-6.61-1.28.7a1.08,1.08,0,0,1-.84.1,1.14,1.14,0,0,1-.75-1.37Zm-2.66,1.19a1.17,1.17,0,0,1,.7.59l5.2,9.49a1.21,1.21,0,0,1,.11.91,1.16,1.16,0,0,1-.59.72,1.14,1.14,0,0,1-.9.1,1.18,1.18,0,0,1-.71-.59l-5.19-9.49a1.17,1.17,0,0,1-.11-.91,1.11,1.11,0,0,1,.56-.71A1.18,1.18,0,0,1,107.29,150.79Zm-3.74-2.91a1.74,1.74,0,0,1,.8-.72,1.6,1.6,0,0,1,1-.26,1.06,1.06,0,0,1,.68.59l.19.35a1,1,0,0,1,.12.9,2.22,2.22,0,0,1-1.82,1,1,1,0,0,1-.67-.59l-.19-.35A1,1,0,0,1,103.55,147.88Zm-7.77,10.66a4.23,4.23,0,0,1,.85-2,5.7,5.7,0,0,1,1.8-1.52,6.52,6.52,0,0,1,2.32-.75,4.43,4.43,0,0,1,2.35.27,1.12,1.12,0,0,1,.62.49,1.15,1.15,0,0,1,0,.88,1,1,0,0,1-1.22.58,3.65,3.65,0,0,0-1.58-.2,4.27,4.27,0,0,0-1.63.53A3,3,0,0,0,98.08,158a1.38,1.38,0,0,0,0,1.47,1.45,1.45,0,0,0,1.29.78,9.6,9.6,0,0,0,2.38-.37,14.23,14.23,0,0,1,2.29-.39,3.75,3.75,0,0,1,1.86.33,3.33,3.33,0,0,1,1.52,1.52,3.24,3.24,0,0,1,.39,2.11,4.42,4.42,0,0,1-.91,2,5.92,5.92,0,0,1-1.81,1.52,7.52,7.52,0,0,1-2.82.91,5.38,5.38,0,0,1-2.83-.45,1.28,1.28,0,0,1-.52-.48,1,1,0,0,1,.06-1,1,1,0,0,1,.42-.43,1.15,1.15,0,0,1,.9-.06,5.38,5.38,0,0,0,2,.34,4.57,4.57,0,0,0,2-.62,3.42,3.42,0,0,0,1.26-1.18,1.56,1.56,0,0,0-1.28-2.31,8.5,8.5,0,0,0-2.29.31,16.65,16.65,0,0,1-2.42.43,4.16,4.16,0,0,1-1.94-.31,3.07,3.07,0,0,1-1.55-1.5A3.22,3.22,0,0,1,95.78,158.54Zm-4.32.91a1.2,1.2,0,0,1,.71.58l5.19,9.5a1.16,1.16,0,0,1,.11.91,1.13,1.13,0,0,1-.59.72,1.09,1.09,0,0,1-.9.09,1.15,1.15,0,0,1-.7-.58l-5.2-9.5a1.2,1.2,0,0,1-.11-.91,1.13,1.13,0,0,1,.57-.7A1.12,1.12,0,0,1,91.46,159.45Zm-3.73-2.92a1.82,1.82,0,0,1,.79-.72,1.62,1.62,0,0,1,1-.25,1,1,0,0,1,.67.58l.19.35a1,1,0,0,1,.13.91,1.72,1.72,0,0,1-.78.71,1.67,1.67,0,0,1-1,.27,1.06,1.06,0,0,1-.68-.59l-.19-.35A1,1,0,0,1,87.73,156.53ZM77,167.34a1.15,1.15,0,0,1,.59-.7,1.29,1.29,0,0,1,.68-.16,1.35,1.35,0,0,1,.69.27l7.52,5.89-.9-9.51a1.15,1.15,0,0,1,.59-1.18,1.1,1.1,0,0,1,.85-.11,1,1,0,0,1,.64.49,1.69,1.69,0,0,1,.14.64l1,11.75a1.44,1.44,0,0,1-.12.66,1.19,1.19,0,0,1-.42.49,1.12,1.12,0,0,1-.72.22,1.26,1.26,0,0,1-.74-.28l-9.35-7.19a2.3,2.3,0,0,1-.41-.49A1,1,0,0,1,77,167.34Zm-12.25,7.92A3.31,3.31,0,0,1,66,174.05a3.24,3.24,0,0,1,1.71-.42,3.41,3.41,0,0,1,1.68.49,3.45,3.45,0,0,1,1.24,1.3,3.33,3.33,0,0,1,.41,1.71,3.47,3.47,0,0,1-.5,1.67A3.42,3.42,0,0,1,65.9,180a3.24,3.24,0,0,1-1.22-1.27,3.36,3.36,0,0,1-.43-1.74A3.49,3.49,0,0,1,64.74,175.26ZM45.41,186.74a5.67,5.67,0,0,1,4.21-3.51,5.31,5.31,0,0,1,2.32.06l-3.5-4.72a1.25,1.25,0,0,1-.25-.89,1.26,1.26,0,0,1,1.38-1,1.12,1.12,0,0,1,.78.5l9.57,13a1.18,1.18,0,0,1-.25,1.67,1.14,1.14,0,0,1-.89.24,1.25,1.25,0,0,1-.77-.5l-.42-.57a4.88,4.88,0,0,1-.51,2.28,5,5,0,0,1-1.59,2,5.58,5.58,0,0,1-3,1.12,6.11,6.11,0,0,1-3.2-.67,7.51,7.51,0,0,1-2.73-2.35A7.71,7.71,0,0,1,45.12,190,6,6,0,0,1,45.41,186.74ZM34,197.32A5.88,5.88,0,0,1,38.19,193a6.31,6.31,0,0,1,3.2,0,6.46,6.46,0,0,1,2.93,1.66,1.09,1.09,0,0,1,.28.8,1.26,1.26,0,0,1-.36.81l-6.18,6.26a4.37,4.37,0,0,0,3.06,1.07A4.25,4.25,0,0,0,44,202.26a4.59,4.59,0,0,0,1.12-1.63,4.84,4.84,0,0,0,.29-1.58,1.48,1.48,0,0,1,.35-.67,1,1,0,0,1,.71-.3,1,1,0,0,1,.7.29,1.25,1.25,0,0,1,.33,1,6,6,0,0,1-.48,2.23,6.24,6.24,0,0,1-1.36,2.1,7.28,7.28,0,0,1-3.11,1.94,5.91,5.91,0,0,1-3.36,0,7,7,0,0,1-3-1.83,7.56,7.56,0,0,1-2-3.2A6.22,6.22,0,0,1,34,197.32Zm-9.73,5.91a1.15,1.15,0,0,1,.79-.45,1.19,1.19,0,0,1,.88.25l1.67,1.27,1.26-1.65a1,1,0,0,1,.72-.43,1.08,1.08,0,0,1,.82.22,1,1,0,0,1,.42.72,1,1,0,0,1-.24.81l-1.25,1.65,5.92,4.52A1,1,0,0,0,36.9,210a1.78,1.78,0,0,0,.22-.44,2.39,2.39,0,0,1,.22-.43.7.7,0,0,1,.55-.27,1.15,1.15,0,0,1,.7.25,1.09,1.09,0,0,1,.35,1,2.54,2.54,0,0,1-.52,1.3,6.2,6.2,0,0,1-1.06,1.1,2.22,2.22,0,0,1-1.45.43,3.5,3.5,0,0,1-2-.88l-6-4.58L27,208.66a1.07,1.07,0,0,1-.72.44,1.08,1.08,0,0,1-.82-.23,1,1,0,0,1-.42-.72,1,1,0,0,1,.24-.81l.88-1.15-1.67-1.27a1.19,1.19,0,0,1-.23-1.69ZM22.1,211.6a1.14,1.14,0,0,1,.76-.53,1.15,1.15,0,0,1,.9.17l9.12,5.84a1.14,1.14,0,0,1,.53.74,1.21,1.21,0,0,1-.92,1.43,1.18,1.18,0,0,1-.89-.17l-9.12-5.84a1.22,1.22,0,0,1-.54-.74A1.15,1.15,0,0,1,22.1,211.6Zm-3.57-2.31a1.61,1.61,0,0,1,.77-.71,1,1,0,0,1,.88.19l.33.22a1,1,0,0,1,.54.73,1.67,1.67,0,0,1-.34,1,1.64,1.64,0,0,1-.78.73,1,1,0,0,1-.87-.19l-.34-.22a1,1,0,0,1-.53-.74A1.75,1.75,0,0,1,18.53,209.29ZM17.05,220a6.64,6.64,0,0,1,1.49-1.92A4.51,4.51,0,0,1,20.65,217a1.14,1.14,0,0,1,.78.06,1.1,1.1,0,0,1,.51.71,1,1,0,0,1-.09.66.94.94,0,0,1-.6.51,3.64,3.64,0,0,0-1.41.72,4.4,4.4,0,0,0-1.06,1.36,3.1,3.1,0,0,0-.39,1.61,1.42,1.42,0,0,0,.87,1.19,1.44,1.44,0,0,0,1.5-.09,9.4,9.4,0,0,0,1.77-1.64,14.23,14.23,0,0,1,1.67-1.61,3.73,3.73,0,0,1,1.73-.77,3.34,3.34,0,0,1,2.11.4,3.16,3.16,0,0,1,1.5,1.54,4.36,4.36,0,0,1,.38,2.17,5.84,5.84,0,0,1-.65,2.27,7.72,7.72,0,0,1-1.81,2.34,5.49,5.49,0,0,1-2.59,1.21,1.24,1.24,0,0,1-.71-.11,1,1,0,0,1-.51-.85.94.94,0,0,1,.1-.59,1.18,1.18,0,0,1,.71-.57,5.11,5.11,0,0,0,1.87-.85,4.5,4.5,0,0,0,1.32-1.64,3.49,3.49,0,0,0,.38-1.69,1.55,1.55,0,0,0-2.35-1.19A8,8,0,0,0,24,223.73a16.08,16.08,0,0,1-1.76,1.71,4.18,4.18,0,0,1-1.78.84,3.14,3.14,0,0,1-2.12-.38,3.2,3.2,0,0,1-1.47-1.46,4.17,4.17,0,0,1-.4-2.12A5.62,5.62,0,0,1,17.05,220Zm-4,9.13a1.14,1.14,0,0,1,.64-.67,1.22,1.22,0,0,1,.92,0l10,4a1.19,1.19,0,0,1,.67.63,1.16,1.16,0,0,1,0,.93,1.09,1.09,0,0,1-.63.65,1.22,1.22,0,0,1-.92,0l-10-4a1.25,1.25,0,0,1-.67-.63A1.15,1.15,0,0,1,13.09,229.17Zm-3.94-1.6a1.56,1.56,0,0,1,.62-.84,1,1,0,0,1,.89,0l.37.15a1,1,0,0,1,.67.61,1.66,1.66,0,0,1-.14,1.05,1.63,1.63,0,0,1-.63.87,1.09,1.09,0,0,1-.9,0l-.37-.15a1,1,0,0,1-.66-.63A1.79,1.79,0,0,1,9.15,227.57Zm-.87,16.51a1.23,1.23,0,0,1,.36-.6,1.33,1.33,0,0,1,.67-.3L18.78,242l-7.4-6a1.14,1.14,0,0,1-.43-1.24,1.09,1.09,0,0,1,.52-.68,1,1,0,0,1,.8-.12,2.15,2.15,0,0,1,.55.34l9.09,7.53a1.26,1.26,0,0,1,.39.55,1.16,1.16,0,0,1,.05.64,1.13,1.13,0,0,1-.35.66,1.24,1.24,0,0,1-.71.33L9.6,245.55A2.36,2.36,0,0,1,9,245.5a1,1,0,0,1-.6-.51A1.14,1.14,0,0,1,8.28,244.08ZM6.89,259.39a3.32,3.32,0,0,1,.59-1.66,3.43,3.43,0,0,1,3.12-1.43,3.37,3.37,0,0,1,2.76,1.95,3.4,3.4,0,0,1,.3,1.73,3.42,3.42,0,0,1-1.93,2.78,3.21,3.21,0,0,1-1.73.32,3.37,3.37,0,0,1-1.69-.62,3.3,3.3,0,0,1-1.12-1.34A3.2,3.2,0,0,1,6.89,259.39Zm.37,24.68a5.54,5.54,0,0,1-1.2-2.91,5.65,5.65,0,0,1,.28-2.5,5.39,5.39,0,0,1,1.22-2l-5.84.64a1.18,1.18,0,0,1-.89-.23,1.12,1.12,0,0,1-.43-.81,1.15,1.15,0,0,1,.24-.89,1.19,1.19,0,0,1,.82-.43l16-1.74a1.15,1.15,0,0,1,.88.24,1.24,1.24,0,0,1,.2,1.7,1.19,1.19,0,0,1-.82.42l-.7.07a5.12,5.12,0,0,1,1.71,1.59,5,5,0,0,1,.88,2.36,5.56,5.56,0,0,1-.53,3.15,6.1,6.1,0,0,1-2.19,2.42,7.5,7.5,0,0,1-3.41,1.18,7.66,7.66,0,0,1-3.57-.4A6,6,0,0,1,7.26,284.07ZM9,296.56a5.76,5.76,0,0,1,0-3.11,6.24,6.24,0,0,1,1.61-2.76A6.52,6.52,0,0,1,13.55,289a1.07,1.07,0,0,1,.83.16,1.27,1.27,0,0,1,.52.72l2.27,8.5a4.36,4.36,0,0,0,2.47-2.1,4.24,4.24,0,0,0,.3-3.14,4.65,4.65,0,0,0-.85-1.8,4.78,4.78,0,0,0-1.21-1,1.43,1.43,0,0,1-.4-.65.92.92,0,0,1,.1-.76,1,1,0,0,1,.6-.46,1.24,1.24,0,0,1,1.05.24,5.83,5.83,0,0,1,1.68,1.54A6.38,6.38,0,0,1,22,292.45a7.25,7.25,0,0,1,.1,3.66A6,6,0,0,1,20.45,299a7.07,7.07,0,0,1-3.12,1.7,7.63,7.63,0,0,1-3.78.12,6.17,6.17,0,0,1-2.94-1.57A5.76,5.76,0,0,1,9,296.56Zm6,22.61-.36.18a1,1,0,0,1-.91.08,1.69,1.69,0,0,1-.69-.81,1.52,1.52,0,0,1-.22-1,1,1,0,0,1,.6-.66l.36-.18a1,1,0,0,1,.91-.09,1.7,1.7,0,0,1,.68.8,1.56,1.56,0,0,1,.23,1A1,1,0,0,1,15,319.17Zm1.19-6.71a1,1,0,0,1-.83,0,1.11,1.11,0,0,1-.58-.62l-.54-1.34-1.95.79a1.2,1.2,0,0,1-.91,0,1.14,1.14,0,0,1-.65-.66,1.11,1.11,0,0,1,0-.91,1.14,1.14,0,0,1,.66-.63l1.94-.79-.78-1.93a1,1,0,0,1,0-.84,1,1,0,0,1,.61-.59,1,1,0,0,1,.83,0,1.09,1.09,0,0,1,.58.61l.78,1.93,6.9-2.81c.77-.31,1-.81.74-1.51a1.88,1.88,0,0,0-.26-.4,1.76,1.76,0,0,1-.26-.41.72.72,0,0,1,0-.62,1.17,1.17,0,0,1,.57-.47,1.07,1.07,0,0,1,1.06.22A2.48,2.48,0,0,1,25,302.6a5.82,5.82,0,0,1,.41,1.47,2.24,2.24,0,0,1-.36,1.47,3.66,3.66,0,0,1-1.8,1.31l-7,2.84.55,1.34a1,1,0,0,1,0,.85A1,1,0,0,1,16.22,312.46Zm1.34,4.86a1.12,1.12,0,0,1-.69-.59,1.17,1.17,0,0,1-.07-.93,1.15,1.15,0,0,1,.6-.68l9.67-4.88a1.16,1.16,0,0,1,.91-.08,1.14,1.14,0,0,1,.7.61,1.16,1.16,0,0,1,.07.91,1.2,1.2,0,0,1-.61.68l-9.67,4.88A1.2,1.2,0,0,1,17.56,317.32Zm4,8.05a6.48,6.48,0,0,1-.89-2.26,4.41,4.41,0,0,1,.13-2.37,1.07,1.07,0,0,1,.45-.64,1,1,0,0,1,.87-.08,1,1,0,0,1,.65,1.18,3.5,3.5,0,0,0-.09,1.58,4.51,4.51,0,0,0,.62,1.61,3.17,3.17,0,0,0,1.19,1.15A1.4,1.4,0,0,0,26,325.4a1.46,1.46,0,0,0,.69-1.34,9.46,9.46,0,0,0-.51-2.35,14.71,14.71,0,0,1-.54-2.26,3.79,3.79,0,0,1,.22-1.88A3.28,3.28,0,0,1,27.24,316a3.23,3.23,0,0,1,2.09-.52,4.45,4.45,0,0,1,2.06.79A5.88,5.88,0,0,1,33,317.94a7.7,7.7,0,0,1,1.09,2.76,5.44,5.44,0,0,1-.27,2.84,1.26,1.26,0,0,1-.45.55,1.15,1.15,0,0,1-1.46-.38,1.14,1.14,0,0,1-.12-.9,5.46,5.46,0,0,0,.22-2,4.7,4.7,0,0,0-.74-2A3.67,3.67,0,0,0,30,317.61a1.43,1.43,0,0,0-1.52.1,1.44,1.44,0,0,0-.7,1.32,8.61,8.61,0,0,0,.45,2.27,15.94,15.94,0,0,1,.58,2.39,4.35,4.35,0,0,1-.18,2,3.22,3.22,0,0,1-1.41,1.64,3.17,3.17,0,0,1-2,.51,4.31,4.31,0,0,1-2-.73A5.64,5.64,0,0,1,21.56,325.37Zm4.5,10.81-.32.24a1,1,0,0,1-.88.25A1.65,1.65,0,0,1,24,336a1.49,1.49,0,0,1-.41-1,1,1,0,0,1,.47-.76l.31-.24a1,1,0,0,1,.87-.26,1.69,1.69,0,0,1,.83.66,1.6,1.6,0,0,1,.43,1A1.05,1.05,0,0,1,26.06,336.18Zm2.13-2.31a1.08,1.08,0,0,1-.78-.44,1.17,1.17,0,0,1-.26-.9,1.23,1.23,0,0,1,.47-.79l8.56-6.62a1.19,1.19,0,0,1,.88-.25,1.13,1.13,0,0,1,.81.47,1.1,1.1,0,0,1,.23.87,1.16,1.16,0,0,1-.46.79l-8.57,6.62A1.12,1.12,0,0,1,28.19,333.87Zm16.1,0-4.52,10.9a1.94,1.94,0,0,1-.37.52,1,1,0,0,1-.75.27,1.18,1.18,0,0,1-.82-.39,1.29,1.29,0,0,1-.33-.62,1.26,1.26,0,0,1,.08-.73L41.31,335l-9,3.33a1.15,1.15,0,0,1-1.61-1,1,1,0,0,1,.31-.74,1.62,1.62,0,0,1,.57-.31l11.09-4a1.28,1.28,0,0,1,.67-.06,1.17,1.17,0,0,1,.58.28,1.12,1.12,0,0,1,.4.64A1.26,1.26,0,0,1,44.29,333.85Zm10.85,19.41a3.27,3.27,0,0,1-1.38,1.15,3.42,3.42,0,0,1-1.72.3,3.24,3.24,0,0,1-1.65-.62,3.32,3.32,0,0,1-1.13-1.34,3.39,3.39,0,0,1,.33-3.41A3.3,3.3,0,0,1,51,348.21a3.5,3.5,0,0,1,1.72-.28,3.41,3.41,0,0,1,2.76,1.95,3.41,3.41,0,0,1,.32,1.72A3.26,3.26,0,0,1,55.14,353.26Zm18.93,12.1a6,6,0,0,1-3.07,1.1,5.69,5.69,0,0,1-5-2.34,5.12,5.12,0,0,1-.91-2.12l-2.82,5.15a1.17,1.17,0,0,1-.7.6,1.14,1.14,0,0,1-.91-.11,1.19,1.19,0,0,1-.6-.71,1.2,1.2,0,0,1,.12-.92L68,351.89a1.17,1.17,0,0,1,.7-.59,1.24,1.24,0,0,1,1.51.81A1.18,1.18,0,0,1,70,353l-.33.62a5.29,5.29,0,0,1,4.71.13A5.53,5.53,0,0,1,76.69,356a6.18,6.18,0,0,1,.74,3.18,7.63,7.63,0,0,1-1,3.47A7.74,7.74,0,0,1,74.07,365.36Zm12.6,6.92a6.23,6.23,0,0,1-3.16,1.05,5.82,5.82,0,0,1-5.31-2.88,6.27,6.27,0,0,1-.89-3.07,6.44,6.44,0,0,1,.8-3.27,1,1,0,0,1,.69-.49,1.19,1.19,0,0,1,.87.12L87.4,368a4.34,4.34,0,0,0,.18-3.23,4.28,4.28,0,0,0-2.07-2.39,4.59,4.59,0,0,0-1.88-.62,4.68,4.68,0,0,0-1.59.15,1.48,1.48,0,0,1-.75-.15,1,1,0,0,1-.48-.61,1,1,0,0,1,.09-.75,1.2,1.2,0,0,1,.89-.59,6,6,0,0,1,2.28-.15,6.29,6.29,0,0,1,2.39.73,7.22,7.22,0,0,1,2.71,2.46,5.88,5.88,0,0,1,1,3.22,7.12,7.12,0,0,1-.92,3.43A7.58,7.58,0,0,1,86.67,372.28Zm7.38,7.27-1.28-.69-1,1.84a1.2,1.2,0,0,1-.71.58,1.11,1.11,0,0,1-.92-.11,1.08,1.08,0,0,1-.57-.7,1.16,1.16,0,0,1,.11-.91l1-1.84-1.82-1a1,1,0,0,1-.54-.65,1.08,1.08,0,0,1,.1-.84,1,1,0,0,1,.65-.53,1.06,1.06,0,0,1,.83.11l1.82,1,3.58-6.54c.4-.73.27-1.28-.39-1.64a2.23,2.23,0,0,0-.46-.15,1.65,1.65,0,0,1-.46-.15.69.69,0,0,1-.35-.5,1.14,1.14,0,0,1,.14-.73,1.1,1.1,0,0,1,1-.5,2.53,2.53,0,0,1,1.36.32,6.42,6.42,0,0,1,1.25.88,2.3,2.3,0,0,1,.65,1.37,3.63,3.63,0,0,1-.57,2.15L93.82,377l1.27.69a1,1,0,0,1,.54.65,1.11,1.11,0,0,1-.1.85,1.06,1.06,0,0,1-.65.53A1.11,1.11,0,0,1,94.05,379.55ZM97.79,385l-.2.36a1,1,0,0,1-.7.58,1.76,1.76,0,0,1-1-.28,1.53,1.53,0,0,1-.76-.72,1,1,0,0,1,.12-.88l.2-.35a1,1,0,0,1,.69-.59,1.73,1.73,0,0,1,1,.27,1.64,1.64,0,0,1,.78.73A1,1,0,0,1,97.79,385Zm1-3a1.1,1.1,0,0,1-.9-.1,1.11,1.11,0,0,1-.59-.72,1.21,1.21,0,0,1,.11-.91l5.2-9.49a1.17,1.17,0,0,1,.7-.59,1.18,1.18,0,0,1,.93.11,1.11,1.11,0,0,1,.56.71,1.17,1.17,0,0,1-.11.91l-5.19,9.49A1.18,1.18,0,0,1,98.82,382.08Zm9.13,5.05a5.76,5.76,0,0,1-2.26-.7,6.67,6.67,0,0,1-1.88-1.54,4.53,4.53,0,0,1-1-2.13,1.13,1.13,0,0,1,.09-.78,1.06,1.06,0,0,1,.72-.49.91.91,0,0,1,.66.1,1,1,0,0,1,.49.61,3.46,3.46,0,0,0,.69,1.43,4.22,4.22,0,0,0,1.32,1.1,3.14,3.14,0,0,0,1.6.43,1.38,1.38,0,0,0,1.21-.83,1.46,1.46,0,0,0,0-1.51,10.14,10.14,0,0,0-1.59-1.81,14.27,14.27,0,0,1-1.57-1.71,3.83,3.83,0,0,1-.73-1.75,3.32,3.32,0,0,1,.47-2.1,3.17,3.17,0,0,1,1.57-1.46,4.29,4.29,0,0,1,2.18-.32,6,6,0,0,1,2.25.7,7.72,7.72,0,0,1,2.29,1.88,5.45,5.45,0,0,1,1.15,2.63,1.29,1.29,0,0,1-.13.7,1,1,0,0,1-.87.49,1,1,0,0,1-.59-.12,1.18,1.18,0,0,1-.54-.73,5.42,5.42,0,0,0-.8-1.89A4.57,4.57,0,0,0,111,376a3.49,3.49,0,0,0-1.68-.42,1.42,1.42,0,0,0-1.28.82,1.45,1.45,0,0,0,0,1.5,8.06,8.06,0,0,0,1.5,1.76,15.87,15.87,0,0,1,1.66,1.81,4.06,4.06,0,0,1,.79,1.8,3.1,3.1,0,0,1-.43,2.11,3.19,3.19,0,0,1-1.5,1.43A4.32,4.32,0,0,1,108,387.13Zm5.66,6.57-.19.35a1,1,0,0,1-.71.59,1.78,1.78,0,0,1-1-.29,1.53,1.53,0,0,1-.76-.72,1,1,0,0,1,.13-.88l.2-.35a1,1,0,0,1,.69-.59,1.68,1.68,0,0,1,1,.28,1.64,1.64,0,0,1,.78.73A1,1,0,0,1,113.61,393.7Zm1-3a1.06,1.06,0,0,1-.9-.1,1.11,1.11,0,0,1-.59-.72,1.17,1.17,0,0,1,.12-.91l5.22-9.48a1.2,1.2,0,0,1,.71-.58,1.15,1.15,0,0,1,.92.11,1.12,1.12,0,0,1,.57.71,1.21,1.21,0,0,1-.12.91l-5.23,9.48A1.15,1.15,0,0,1,114.66,390.74Zm15.39-4.67-2.27,11.58a1.93,1.93,0,0,1-.25.59,1.06,1.06,0,0,1-.68.41,1.15,1.15,0,0,1-.88-.22,1.28,1.28,0,0,1-.45-.54,1.27,1.27,0,0,1-.07-.73l1.91-9.36-8.11,5.05a1.14,1.14,0,0,1-1.31,0,1.12,1.12,0,0,1-.48-.71,1,1,0,0,1,.15-.8,1.9,1.9,0,0,1,.5-.41l10.07-6.16a1.36,1.36,0,0,1,.65-.19,1.22,1.22,0,0,1,.62.16,1.15,1.15,0,0,1,.52.55A1.28,1.28,0,0,1,130.05,386.07Zm7.58,21.74a3.46,3.46,0,0,1-2.28-2.52,3.39,3.39,0,0,1,1.06-3.26,3.28,3.28,0,0,1,1.57-.8,3.42,3.42,0,0,1,1.74.09,3.34,3.34,0,0,1,1.47,1,3.39,3.39,0,0,1,.8,1.55,3.35,3.35,0,0,1-.07,1.75,3.27,3.27,0,0,1-.94,1.49,3.46,3.46,0,0,1-3.35.74Zm11.14,17.89a5.7,5.7,0,0,1-3-4.62,5.21,5.21,0,0,1,.35-2.29L141,421.66a1.18,1.18,0,0,1-.91.14,1.12,1.12,0,0,1-.71-.58,1.16,1.16,0,0,1-.12-.92,1.14,1.14,0,0,1,.59-.71l14-7.86a1.13,1.13,0,0,1,.91-.12,1.23,1.23,0,0,1,.85,1.48,1.19,1.19,0,0,1-.6.71l-.61.34a5.2,5.2,0,0,1,2.2.79,5,5,0,0,1,1.73,1.83,5.64,5.64,0,0,1,.74,3.11,6.15,6.15,0,0,1-1.07,3.09,7.62,7.62,0,0,1-2.67,2.41,7.72,7.72,0,0,1-3.45,1A6.06,6.06,0,0,1,148.77,425.7ZM153.35,436a5.8,5.8,0,0,1-.71-3,6.3,6.3,0,0,1,.91-3.07,6.54,6.54,0,0,1,2.43-2.32,1,1,0,0,1,.85,0,1.18,1.18,0,0,1,.67.57l4.23,7.72a4.36,4.36,0,0,0,1.9-2.62,4.26,4.26,0,0,0-.46-3.12,4.63,4.63,0,0,0-1.24-1.55,5.09,5.09,0,0,0-1.43-.73,1.31,1.31,0,0,1-.54-.53.89.89,0,0,1-.08-.76.94.94,0,0,1,.47-.59,1.23,1.23,0,0,1,1.08,0,6,6,0,0,1,2,1.1,6.39,6.39,0,0,1,1.61,1.91,7.17,7.17,0,0,1,1,3.53,5.91,5.91,0,0,1-.94,3.23,7,7,0,0,1-2.63,2.39,7.54,7.54,0,0,1-3.64,1,6.19,6.19,0,0,1-3.23-.83A5.76,5.76,0,0,1,153.35,436Zm7.9,19.8-.35.19a1,1,0,0,1-.91.11,1.71,1.71,0,0,1-.72-.79,1.53,1.53,0,0,1-.25-1,1,1,0,0,1,.58-.68l.35-.19a1,1,0,0,1,.9-.12,1.66,1.66,0,0,1,.71.78,1.52,1.52,0,0,1,.27,1A1,1,0,0,1,161.25,455.79Zm.45-6.11a1.06,1.06,0,0,1-.64-.54l-.7-1.28-1.84,1a1.16,1.16,0,0,1-.91.11,1.15,1.15,0,0,1-.72-.58,1.12,1.12,0,0,1-.09-.91,1.15,1.15,0,0,1,.58-.7l1.84-1-1-1.82a1,1,0,0,1-.11-.84,1.12,1.12,0,0,1,.54-.65,1,1,0,0,1,.83-.1,1.08,1.08,0,0,1,.64.55l1,1.82,6.54-3.58c.73-.4.91-.93.55-1.58a1.43,1.43,0,0,0-.3-.38,2.07,2.07,0,0,1-.31-.37.71.71,0,0,1,0-.62,1.06,1.06,0,0,1,1.58-.44,2.45,2.45,0,0,1,1,1,5.49,5.49,0,0,1,.57,1.41,2.19,2.19,0,0,1-.19,1.5,3.59,3.59,0,0,1-1.64,1.51l-6.62,3.62.7,1.27a1.09,1.09,0,0,1,.1.84,1.07,1.07,0,0,1-.54.66A1,1,0,0,1,161.7,449.68Zm2,4.17a1.09,1.09,0,0,1-.71-.57,1.11,1.11,0,0,1-.1-.92,1.15,1.15,0,0,1,.58-.7l9.5-5.2a1.14,1.14,0,0,1,.9-.11,1.16,1.16,0,0,1,.73.59,1.09,1.09,0,0,1,.09.9,1.2,1.2,0,0,1-.58.71l-9.5,5.19A1.16,1.16,0,0,1,163.72,453.85Zm6.19,17.77-.35.19a1,1,0,0,1-.91.12,1.76,1.76,0,0,1-.72-.79,1.55,1.55,0,0,1-.25-1,1,1,0,0,1,.58-.67l.35-.2a1,1,0,0,1,.9-.12,1.66,1.66,0,0,1,.71.78,1.54,1.54,0,0,1,.27,1A1,1,0,0,1,169.91,471.62Zm.75-7.73a4.17,4.17,0,0,1-2-.86,5.6,5.6,0,0,1-1.53-1.8,6.82,6.82,0,0,1-.75-2.31,4.47,4.47,0,0,1,.28-2.36,1.09,1.09,0,0,1,.49-.61,1.08,1.08,0,0,1,.87,0,.93.93,0,0,1,.5.44.94.94,0,0,1,.08.78,3.5,3.5,0,0,0-.19,1.58,4.31,4.31,0,0,0,.52,1.63,3.14,3.14,0,0,0,1.12,1.23,1.4,1.4,0,0,0,1.47,0,1.44,1.44,0,0,0,.77-1.29,10,10,0,0,0-.36-2.38,14.38,14.38,0,0,1-.4-2.29,3.94,3.94,0,0,1,.34-1.87,3.26,3.26,0,0,1,1.52-1.51,3.17,3.17,0,0,1,2.11-.39,4.36,4.36,0,0,1,2,.91,5.91,5.91,0,0,1,1.51,1.81,7.54,7.54,0,0,1,.92,2.82,5.53,5.53,0,0,1-.45,2.82,1.34,1.34,0,0,1-.49.53,1,1,0,0,1-1-.06.92.92,0,0,1-.43-.42,1.11,1.11,0,0,1-.07-.9,5.19,5.19,0,0,0,.34-2,4.54,4.54,0,0,0-.61-2,3.53,3.53,0,0,0-1.19-1.26,1.44,1.44,0,0,0-1.52,0,1.46,1.46,0,0,0-.79,1.28,8.23,8.23,0,0,0,.32,2.29,16.24,16.24,0,0,1,.42,2.42,4.28,4.28,0,0,1-.3,1.94,3.53,3.53,0,0,1-3.55,1.94Zm1.72,5.8a1.15,1.15,0,0,1-.71-.57,1.14,1.14,0,0,1-.1-.93,1.15,1.15,0,0,1,.58-.7l9.5-5.19a1.17,1.17,0,0,1,1.63.47,1.12,1.12,0,0,1,.09.91,1.21,1.21,0,0,1-.58.7l-9.5,5.19A1.21,1.21,0,0,1,172.38,469.69Zm8.07,13a1,1,0,0,1-.79.08,1.15,1.15,0,0,1-.71-.58,1.24,1.24,0,0,1-.17-.67,1.3,1.3,0,0,1,.25-.7l5.72-7.65-9.49,1.11a1.12,1.12,0,0,1-1.18-.56,1,1,0,0,1-.13-.84,1,1,0,0,1,.47-.65,1.58,1.58,0,0,1,.63-.16l11.73-1.28a1.27,1.27,0,0,1,.67.11,1.14,1.14,0,0,1,.49.4,1.08,1.08,0,0,1,.24.72,1.24,1.24,0,0,1-.26.74l-7,9.51A1.75,1.75,0,0,1,180.45,482.69Zm14,10.2a3.4,3.4,0,0,1-6.56-.55,3.38,3.38,0,0,1,.15-1.75,3.43,3.43,0,0,1,1-1.47,3.22,3.22,0,0,1,1.6-.73,3.39,3.39,0,0,1,1.73.16,3.44,3.44,0,0,1,2,4.34Zm18,15.38a7.68,7.68,0,0,1-2.8,2.26,6.07,6.07,0,0,1-3.21.57A5.73,5.73,0,0,1,202,508a5.19,5.19,0,0,1-.54-2.25l-3.66,4.6a1.14,1.14,0,0,1-.79.47,1.07,1.07,0,0,1-.87-.26,1.16,1.16,0,0,1-.47-.8,1.2,1.2,0,0,1,.27-.88l10-12.62a1.22,1.22,0,0,1,.79-.46,1.14,1.14,0,0,1,.89.27,1.09,1.09,0,0,1,.46.79,1.19,1.19,0,0,1-.28.88l-.44.55a5.31,5.31,0,0,1,4.63.92,5.6,5.6,0,0,1,1.87,2.6A6.17,6.17,0,0,1,214,505,7.58,7.58,0,0,1,212.46,508.27Zm10.4,10.08a6.24,6.24,0,0,1-3.18,1,5.82,5.82,0,0,1-3.06-.75,5.74,5.74,0,0,1-2.21-2.19,6.17,6.17,0,0,1-.85-3.08,6.41,6.41,0,0,1,.83-3.26,1,1,0,0,1,.7-.48,1.16,1.16,0,0,1,.87.13l7.67,4.3a4.33,4.33,0,0,0,.23-3.22,4.25,4.25,0,0,0-2.05-2.41,4.5,4.5,0,0,0-1.87-.65,5,5,0,0,0-1.6.13,1.33,1.33,0,0,1-.74-.16.91.91,0,0,1-.47-.61,1,1,0,0,1,.09-.75,1.23,1.23,0,0,1,.9-.58,5.81,5.81,0,0,1,2.28-.13,6.29,6.29,0,0,1,2.38.77,7.28,7.28,0,0,1,2.69,2.48,5.92,5.92,0,0,1,.91,3.23,7,7,0,0,1-1,3.42A7.74,7.74,0,0,1,222.86,518.35Zm9.61,4.76a1.06,1.06,0,0,1,.6,1.43,1,1,0,0,1-.58.6,1.07,1.07,0,0,1-.84,0l-1.35-.54-.79,1.94a1.14,1.14,0,0,1-.63.66,1.16,1.16,0,0,1-.93,0,1.09,1.09,0,0,1-.64-.64,1.2,1.2,0,0,1,0-.91l.79-2-1.92-.78a1.06,1.06,0,0,1-.61-.58,1.09,1.09,0,0,1,0-.85,1,1,0,0,1,.58-.6,1.07,1.07,0,0,1,.84,0l1.92.78,2.81-6.9c.31-.78.12-1.3-.57-1.59a2.05,2.05,0,0,0-.48-.09,2.66,2.66,0,0,1-.47-.1.7.7,0,0,1-.41-.46,1.05,1.05,0,0,1,.95-1.34,2.43,2.43,0,0,1,1.4.16,6,6,0,0,1,1.33.73,2.24,2.24,0,0,1,.8,1.28,3.63,3.63,0,0,1-.31,2.21l-2.85,7Zm4.57,7-.12.38a1,1,0,0,1-.57.71,1.77,1.77,0,0,1-1.07-.07,1.61,1.61,0,0,1-.89-.56,1,1,0,0,1,0-.89l.12-.38a1,1,0,0,1,.56-.72,1.74,1.74,0,0,1,1.06.07,1.66,1.66,0,0,1,.91.57A1,1,0,0,1,237,530.08Zm4.27-14.15-3.25,10.33a1.17,1.17,0,0,1-.58.71,1.12,1.12,0,0,1-.9.08,1.19,1.19,0,0,1-.72-.59,1.22,1.22,0,0,1-.06-.92l3.25-10.32a1.17,1.17,0,0,1,.57-.71,1.12,1.12,0,0,1,.93-.07,1.13,1.13,0,0,1,.7.58A1.19,1.19,0,0,1,241.31,515.93Zm12.05,4.46a1,1,0,0,1-.69.72,1,1,0,0,1-.6,0,1.11,1.11,0,0,1-.73-.54A5.22,5.22,0,0,0,250,519a4.72,4.72,0,0,0-1.92-.85,3.56,3.56,0,0,0-1.73.08,1.42,1.42,0,0,0-1,1.15,1.45,1.45,0,0,0,.44,1.43,8.33,8.33,0,0,0,1.94,1.26,15.42,15.42,0,0,1,2.11,1.26,4.08,4.08,0,0,1,1.27,1.5,3.14,3.14,0,0,1,.19,2.15,3.1,3.1,0,0,1-1,1.8,4.25,4.25,0,0,1-1.94.94,5.54,5.54,0,0,1-2.36,0,6.53,6.53,0,0,1-2.24-.94,4.47,4.47,0,0,1-1.6-1.75,1.1,1.1,0,0,1-.14-.77,1.07,1.07,0,0,1,.55-.68.88.88,0,0,1,.66-.08,1,1,0,0,1,.65.44,3.41,3.41,0,0,0,1.06,1.18,4.25,4.25,0,0,0,1.58.67,3.18,3.18,0,0,0,1.66,0,1.39,1.39,0,0,0,.92-1.14,1.44,1.44,0,0,0-.47-1.43,9.84,9.84,0,0,0-2-1.29,14.48,14.48,0,0,1-2-1.19,4,4,0,0,1-1.19-1.47,3.33,3.33,0,0,1-.15-2.15,3.22,3.22,0,0,1,1.09-1.85,4.44,4.44,0,0,1,2-.92,5.87,5.87,0,0,1,2.36,0,7.78,7.78,0,0,1,2.73,1.16,5.38,5.38,0,0,1,1.84,2.18A1.29,1.29,0,0,1,253.36,520.39Zm3.43,14.1a1,1,0,0,1-.44.8,1.71,1.71,0,0,1-1.06.12,1.51,1.51,0,0,1-1-.38,1,1,0,0,1-.21-.87l0-.39a1,1,0,0,1,.42-.81,1.68,1.68,0,0,1,1-.12,1.58,1.58,0,0,1,1,.38,1.08,1.08,0,0,1,.21.87Zm.35-4.34a1.17,1.17,0,0,1-.44.8,1.09,1.09,0,0,1-.87.25,1.15,1.15,0,0,1-.82-.45,1.22,1.22,0,0,1-.23-.89l1.3-10.74a1.18,1.18,0,0,1,.44-.81,1.16,1.16,0,0,1,.89-.24,1.09,1.09,0,0,1,.79.45,1.16,1.16,0,0,1,.24.88Zm15.19,1.59a1.16,1.16,0,0,1-.86.31,1.2,1.2,0,0,1-.67-.2,1.26,1.26,0,0,1-.46-.57l-3.6-8.85-3.95,8.7a1.15,1.15,0,0,1-1.09.73,1.12,1.12,0,0,1-.79-.33.94.94,0,0,1-.31-.74,1.7,1.7,0,0,1,.18-.63l5-10.7a1.37,1.37,0,0,1,.43-.52,1.15,1.15,0,0,1,.61-.21,1.11,1.11,0,0,1,.73.17,1.24,1.24,0,0,1,.5.6l4.54,10.9a2.08,2.08,0,0,1,.11.62A1,1,0,0,1,272.33,531.74Zm16.89-4.37a3.37,3.37,0,0,1-1,1.42,3.22,3.22,0,0,1-1.6.73,3.39,3.39,0,0,1-3.18-1.17,3.43,3.43,0,0,1-.75-1.64,3.36,3.36,0,0,1,.17-1.75,3.42,3.42,0,0,1,1-1.41,3.22,3.22,0,0,1,1.6-.73,3.34,3.34,0,0,1,1.74.16,3.38,3.38,0,0,1,1.44,1,3.28,3.28,0,0,1,.74,1.6A3.39,3.39,0,0,1,289.22,527.37Zm22.31-7.54a6.15,6.15,0,0,1-1.14,3,5.72,5.72,0,0,1-5,2.27,5.26,5.26,0,0,1-2.21-.68l2.11,5.49a1.17,1.17,0,0,1,0,.92,1.12,1.12,0,0,1-.67.62,1.17,1.17,0,0,1-.92,0,1.21,1.21,0,0,1-.63-.68l-5.78-15a1.15,1.15,0,0,1,0-.91,1.16,1.16,0,0,1,.68-.64,1.15,1.15,0,0,1,.91,0,1.18,1.18,0,0,1,.62.69l.25.65a5.32,5.32,0,0,1,3.15-3.51,5.53,5.53,0,0,1,3.18-.29,6.2,6.2,0,0,1,2.91,1.49,7.51,7.51,0,0,1,2,3A7.6,7.6,0,0,1,311.53,519.83Zm12.72-4.14a5.85,5.85,0,0,1-5.21,3,6.29,6.29,0,0,1-3.09-.84,6.57,6.57,0,0,1-2.39-2.38,1.13,1.13,0,0,1-.06-.85,1.25,1.25,0,0,1,.56-.68l7.62-4.41a4.37,4.37,0,0,0-2.67-1.84,4.21,4.21,0,0,0-3.11.54,4.54,4.54,0,0,0-1.52,1.28,5,5,0,0,0-.69,1.44,1.42,1.42,0,0,1-.52.56,1,1,0,0,1-.76.1,1,1,0,0,1-.6-.47,1.23,1.23,0,0,1-.05-1.07,5.89,5.89,0,0,1,1.06-2,6,6,0,0,1,1.87-1.66,7.12,7.12,0,0,1,3.5-1.05,5.85,5.85,0,0,1,3.25.86,7.05,7.05,0,0,1,2.45,2.57,7.6,7.6,0,0,1,1.11,3.62A6.29,6.29,0,0,1,324.25,515.69Zm11.17-4.82a1.19,1.19,0,0,1-1.1,1.91,1.19,1.19,0,0,1-.78-.47l-1.28-1.67-1.65,1.26a1.06,1.06,0,0,1-.81.23,1.09,1.09,0,0,1-.73-.44,1.05,1.05,0,0,1-.22-.81,1.07,1.07,0,0,1,.44-.71l1.65-1.26L326.42,503a1.05,1.05,0,0,0-1.65-.32,1.73,1.73,0,0,0-.32.36,1.72,1.72,0,0,1-.33.36.66.66,0,0,1-.6.11,1,1,0,0,1-.6-.42,1,1,0,0,1-.07-1.08,2.39,2.39,0,0,1,.84-1.11,5.87,5.87,0,0,1,1.31-.78,2.21,2.21,0,0,1,1.51,0,3.53,3.53,0,0,1,1.74,1.4l4.58,6,1.15-.88a1.1,1.1,0,0,1,.82-.23,1.07,1.07,0,0,1,.73.44,1,1,0,0,1,.22.8,1.08,1.08,0,0,1-.45.72l-1.15.88Zm4.07-5.85a1.12,1.12,0,0,1-.88.32,1.15,1.15,0,0,1-.82-.4l-7.25-8a1.17,1.17,0,0,1-.32-.86,1.12,1.12,0,0,1,.4-.84,1.14,1.14,0,0,1,.86-.3,1.21,1.21,0,0,1,.82.4l7.25,8a1.14,1.14,0,0,1,.32.85A1.12,1.12,0,0,1,339.49,505Zm3.43,2.29a1.84,1.84,0,0,1-.6.89,1.6,1.6,0,0,1-.93.48,1,1,0,0,1-.79-.41l-.27-.3a1,1,0,0,1-.33-.85,1.7,1.7,0,0,1,.59-.87,1.66,1.66,0,0,1,1-.5,1,1,0,0,1,.79.41l.27.3A1,1,0,0,1,342.92,507.31Zm4.85-11.09a5.6,5.6,0,0,1-1.21,2,6.65,6.65,0,0,1-1.95,1.46,4.56,4.56,0,0,1-2.32.5,1.07,1.07,0,0,1-.73-.27,1.08,1.08,0,0,1-.31-.82.93.93,0,0,1,.26-.61,1,1,0,0,1,.71-.34,3.37,3.37,0,0,0,1.55-.32,4.2,4.2,0,0,0,1.38-1,3.2,3.2,0,0,0,.81-1.46,1.4,1.4,0,0,0-.53-1.37,1.46,1.46,0,0,0-1.47-.32,10.26,10.26,0,0,0-2.14,1.11,13,13,0,0,1-2,1.12,3.88,3.88,0,0,1-1.88.29,3.32,3.32,0,0,1-1.92-.95,3.22,3.22,0,0,1-1.05-1.88,4.36,4.36,0,0,1,.21-2.19,6,6,0,0,1,1.22-2,7.73,7.73,0,0,1,2.38-1.78,5.38,5.38,0,0,1,2.82-.48,1.19,1.19,0,0,1,.65.29,1,1,0,0,1,.27,1,1,1,0,0,1-.26.54,1.17,1.17,0,0,1-.84.36,5.17,5.17,0,0,0-2,.32,4.71,4.71,0,0,0-1.71,1.24,3.46,3.46,0,0,0-.81,1.53,1.55,1.55,0,0,0,1.95,1.77,8.27,8.27,0,0,0,2.07-1,16.2,16.2,0,0,1,2.15-1.18,4.18,4.18,0,0,1,1.94-.34,3.49,3.49,0,0,1,3,2.72A4.19,4.19,0,0,1,347.77,496.22Zm5-5.73a1.14,1.14,0,0,1-.8.47,1.18,1.18,0,0,1-.88-.24l-8.63-6.53a1.19,1.19,0,0,1-.47-.79,1.15,1.15,0,0,1,.24-.9,1.13,1.13,0,0,1,.78-.45,1.17,1.17,0,0,1,.88.24l8.63,6.54a1.16,1.16,0,0,1,.48.78A1.13,1.13,0,0,1,352.8,490.49Zm3.38,2.58a1.61,1.61,0,0,1-.83.65,1,1,0,0,1-.85-.26l-.32-.24a1,1,0,0,1-.48-.77,1.72,1.72,0,0,1,.42-1,1.65,1.65,0,0,1,.83-.67,1.05,1.05,0,0,1,.86.26l.32.24a1,1,0,0,1,.47.78A1.72,1.72,0,0,1,356.18,493.07Zm5.23-15.65a1.3,1.3,0,0,1-.51.48,1.36,1.36,0,0,1-.73.11l-9.46-1.35,5.52,7.79a1.14,1.14,0,0,1,.08,1.31,1.07,1.07,0,0,1-.68.52,1,1,0,0,1-.8-.1,1.76,1.76,0,0,1-.44-.48L347.65,476a1.28,1.28,0,0,1-.23-.64,1.15,1.15,0,0,1,.12-.63,1.14,1.14,0,0,1,.51-.55,1.27,1.27,0,0,1,.78-.12l11.69,1.57a1.94,1.94,0,0,1,.6.22,1,1,0,0,1,.45.65A1.18,1.18,0,0,1,361.41,477.42Zm5.85-12.9a3.35,3.35,0,0,1-2.89,1.77,3.32,3.32,0,0,1-1.75-.43,3.24,3.24,0,0,1-1.27-1.22,3.54,3.54,0,0,1-.48-1.67,3.34,3.34,0,0,1,.42-1.71A3.26,3.26,0,0,1,362.5,460a3.3,3.3,0,0,1,1.67-.51,3.14,3.14,0,0,1,1.71.41,3.33,3.33,0,0,1,1.31,1.24,3.37,3.37,0,0,1,.07,3.38Zm12.49-9.86a1.21,1.21,0,0,1-.71.59,1.16,1.16,0,0,1-.92-.12L364,447.41a1.18,1.18,0,0,1-.59-.71,1.12,1.12,0,0,1,.11-.92,1.11,1.11,0,0,1,.7-.58,1.18,1.18,0,0,1,.91.12l.62.34a5.31,5.31,0,0,1,.13-4.72,5.57,5.57,0,0,1,2.24-2.27,6.08,6.08,0,0,1,3.18-.74,8.12,8.12,0,0,1,6.17,3.36,6,6,0,0,1,1.1,3.06,5.66,5.66,0,0,1-2.34,5,5.15,5.15,0,0,1-2.12.92l5.15,2.82a1.17,1.17,0,0,1,.6.7A1.14,1.14,0,0,1,379.75,454.66Zm5-19.76a5.81,5.81,0,0,1-2.16,2.24,6.3,6.3,0,0,1-3.08.88,6.53,6.53,0,0,1-3.27-.79,1.06,1.06,0,0,1-.49-.69,1.23,1.23,0,0,1,.12-.88l4.22-7.72a4.39,4.39,0,0,0-3.23-.19,4.24,4.24,0,0,0-2.38,2.08,4.44,4.44,0,0,0-.63,1.87,4.74,4.74,0,0,0,.15,1.6,1.42,1.42,0,0,1-.15.74,1,1,0,0,1-1.36.4,1.27,1.27,0,0,1-.59-.89,6,6,0,0,1-.15-2.28,6.3,6.3,0,0,1,.74-2.39,7.22,7.22,0,0,1,2.45-2.72,5.87,5.87,0,0,1,3.22-.94,7,7,0,0,1,3.43.92,7.56,7.56,0,0,1,2.82,2.52,6.17,6.17,0,0,1,1.05,3.17A5.73,5.73,0,0,1,384.74,434.9Zm8.54-9.68a1.13,1.13,0,0,1-.71.57,1.19,1.19,0,0,1-.9-.12l-1.84-1-1,1.82a1.07,1.07,0,0,1-.66.54,1.09,1.09,0,0,1-.84-.11,1.07,1.07,0,0,1-.53-.64,1.14,1.14,0,0,1,.12-.84l1-1.82L381.39,420c-.73-.4-1.27-.27-1.63.39a1.74,1.74,0,0,0-.16.45,1.45,1.45,0,0,1-.15.46.67.67,0,0,1-.51.35,1.07,1.07,0,0,1-.72-.14,1.1,1.1,0,0,1-.5-1,2.47,2.47,0,0,1,.33-1.36,5.6,5.6,0,0,1,.88-1.24,2.24,2.24,0,0,1,1.37-.65,3.66,3.66,0,0,1,2.15.57l6.61,3.64.7-1.27a1.07,1.07,0,0,1,.66-.54,1.15,1.15,0,0,1,1.37.75,1.14,1.14,0,0,1-.12.84l-.7,1.27,1.84,1a1.17,1.17,0,0,1,.58.71A1.12,1.12,0,0,1,393.28,425.22Zm.92-7.53a1.14,1.14,0,0,1-.76.53,1.16,1.16,0,0,1-.9-.18l-9.09-5.87a1.22,1.22,0,0,1-.53-.75,1.15,1.15,0,0,1,.18-.91,1.11,1.11,0,0,1,.75-.52,1.18,1.18,0,0,1,.89.18l9.09,5.88a1.16,1.16,0,0,1,.53.75A1.09,1.09,0,0,1,394.2,417.69Zm3.56,2.33a1.61,1.61,0,0,1-.77.71,1.05,1.05,0,0,1-.88-.2l-.33-.21a1,1,0,0,1-.54-.74,1.69,1.69,0,0,1,.35-1,1.61,1.61,0,0,1,.78-.72,1,1,0,0,1,.87.19l.34.22a1,1,0,0,1,.53.74A1.75,1.75,0,0,1,397.76,420Zm2.76-11.31a5.53,5.53,0,0,1-1.09,2.09,6.93,6.93,0,0,1-1.86,1.57,4.55,4.55,0,0,1-2.29.63,1.12,1.12,0,0,1-.75-.23,1.07,1.07,0,0,1-.35-.8.93.93,0,0,1,.22-.62.94.94,0,0,1,.69-.38,3.3,3.3,0,0,0,1.53-.41,4.26,4.26,0,0,0,1.32-1.1,3.15,3.15,0,0,0,.72-1.5,1.39,1.39,0,0,0-.6-1.34,1.45,1.45,0,0,0-1.48-.23,9.14,9.14,0,0,0-2.07,1.23,13.2,13.2,0,0,1-2,1.23,3.76,3.76,0,0,1-1.85.39,3.3,3.3,0,0,1-2-.84,3.19,3.19,0,0,1-1.15-1.81,4.35,4.35,0,0,1,.09-2.2,5.88,5.88,0,0,1,1.1-2.08A7.57,7.57,0,0,1,391,400.4a5.42,5.42,0,0,1,2.79-.65,1.31,1.31,0,0,1,.66.25,1,1,0,0,1,.33.95,1,1,0,0,1-.23.55,1.14,1.14,0,0,1-.81.41,5,5,0,0,0-2,.44,4.63,4.63,0,0,0-1.63,1.33,3.44,3.44,0,0,0-.72,1.57,1.56,1.56,0,0,0,2.05,1.66,8.78,8.78,0,0,0,2-1.15,15.47,15.47,0,0,1,2.08-1.31,4.22,4.22,0,0,1,1.91-.45,3.12,3.12,0,0,1,2,.81,3.2,3.2,0,0,1,1.13,1.74A4.18,4.18,0,0,1,400.52,408.71Zm4.72-4.54a1.16,1.16,0,0,1-.86.35,1.2,1.2,0,0,1-.84-.37L396,396.43a1.19,1.19,0,0,1-.35-.85,1.15,1.15,0,0,1,.37-.85,1.09,1.09,0,0,1,.84-.34,1.18,1.18,0,0,1,.84.37l7.58,7.73a1.18,1.18,0,0,1,.35.84A1.09,1.09,0,0,1,405.24,404.17Zm3.53,2.14a1.83,1.83,0,0,1-.57.91,1.57,1.57,0,0,1-.91.52,1.06,1.06,0,0,1-.81-.38l-.28-.28a1,1,0,0,1-.36-.84,1.63,1.63,0,0,1,.56-.89,1.59,1.59,0,0,1,.92-.54,1,1,0,0,1,.81.37l.28.29A1,1,0,0,1,408.77,406.31Zm7.55-11.38A1.24,1.24,0,0,1,415,395l-8.34-4.66,2.35,9.26a1.14,1.14,0,0,1-.4,1.25,1.12,1.12,0,0,1-.82.24,1.05,1.05,0,0,1-.71-.39,1.75,1.75,0,0,1-.24-.6L404,388.68a1.3,1.3,0,0,1,0-.68,1,1,0,0,1,.34-.54,1.1,1.1,0,0,1,.67-.33,1.25,1.25,0,0,1,.77.16L416.13,393a2.1,2.1,0,0,1,.48.42,1,1,0,0,1,.18.78A1.12,1.12,0,0,1,416.32,394.93Zm12.38-8.59a3.39,3.39,0,0,1-1.28,1.21,3.24,3.24,0,0,1-1.71.42,3.41,3.41,0,0,1-1.68-.49,3.45,3.45,0,0,1-1.24-1.3,3.36,3.36,0,0,1-.41-1.72,3.53,3.53,0,0,1,.5-1.67,3.41,3.41,0,0,1,3-1.62,3.44,3.44,0,0,1,1.69.47,3.31,3.31,0,0,1,1.22,1.27,3.42,3.42,0,0,1-.06,3.43Zm19.12-9.66a5.7,5.7,0,0,1-4.65,2.91,5.32,5.32,0,0,1-2.28-.37l2.82,5.15a1.18,1.18,0,0,1,.12.91,1.12,1.12,0,0,1-.58.71,1.2,1.2,0,0,1-.92.12,1.19,1.19,0,0,1-.71-.6l-7.72-14.12a1.22,1.22,0,0,1-.12-.91,1.14,1.14,0,0,1,.59-.72,1.1,1.1,0,0,1,.91-.11,1.17,1.17,0,0,1,.7.6l.34.61A5.27,5.27,0,0,1,439,367a5.56,5.56,0,0,1,3.12-.71,6.06,6.06,0,0,1,3.07,1.1,7.46,7.46,0,0,1,2.39,2.69,7.66,7.66,0,0,1,1,3.46A6.07,6.07,0,0,1,447.82,376.68Zm12.57-6.85a5.84,5.84,0,0,1-5.29,2.92,6.17,6.17,0,0,1-3.06-.92,6.41,6.41,0,0,1-2.33-2.43,1.09,1.09,0,0,1,0-.85,1.27,1.27,0,0,1,.58-.67l7.72-4.22a4.39,4.39,0,0,0-2.62-1.9,4.29,4.29,0,0,0-3.13.46,4.58,4.58,0,0,0-1.54,1.24,4.84,4.84,0,0,0-.73,1.43,1.45,1.45,0,0,1-.53.54,1,1,0,0,1-.77.08,1,1,0,0,1-.59-.48,1.21,1.21,0,0,1,0-1.07,5.71,5.71,0,0,1,1.1-2,6.39,6.39,0,0,1,1.91-1.61,7.27,7.27,0,0,1,3.53-1,5.89,5.89,0,0,1,3.22.95A7,7,0,0,1,460.2,363a7.62,7.62,0,0,1,1,3.65A6.31,6.31,0,0,1,460.39,369.83Zm11.46-6.15a1.08,1.08,0,0,1-.55.64L470,365l1,1.84a1.21,1.21,0,0,1,.12.91,1.2,1.2,0,0,1-.59.72,1.12,1.12,0,0,1-.91.09,1.15,1.15,0,0,1-.7-.58l-1-1.84-1.82,1a1,1,0,0,1-.84.11,1.12,1.12,0,0,1-.65-.54,1,1,0,0,1-.1-.83,1.08,1.08,0,0,1,.55-.64l1.82-1-3.58-6.54c-.4-.73-.92-.91-1.58-.55a1.61,1.61,0,0,0-.38.3,2.07,2.07,0,0,1-.37.31.71.71,0,0,1-.62,0,1.09,1.09,0,0,1-.53-.51,1.07,1.07,0,0,1,.09-1.08,2.55,2.55,0,0,1,1-1,5.49,5.49,0,0,1,1.41-.57,2.19,2.19,0,0,1,1.5.19,3.54,3.54,0,0,1,1.51,1.64l3.62,6.62,1.27-.7a1.11,1.11,0,0,1,.85-.1,1,1,0,0,1,.65.54A1.07,1.07,0,0,1,471.85,363.68Zm2.66-1.2a1.19,1.19,0,0,1-.7-.59l-5.19-9.49a1.22,1.22,0,0,1-.12-.91,1.2,1.2,0,0,1,.59-.72,1.16,1.16,0,0,1,1.61.49l5.19,9.49a1.22,1.22,0,0,1,.12.91,1.15,1.15,0,0,1-.57.71A1.18,1.18,0,0,1,474.51,362.48Zm3.74,2.91a1.71,1.71,0,0,1-.79.72,1.57,1.57,0,0,1-1,.26,1,1,0,0,1-.67-.59l-.2-.35a1,1,0,0,1-.12-.9,2.22,2.22,0,0,1,1.82-1,1,1,0,0,1,.67.59l.2.35A1,1,0,0,1,478.25,365.39Zm7.24-9.36a5.67,5.67,0,0,1-1.69,1.65,6.59,6.59,0,0,1-2.25.92,4.51,4.51,0,0,1-2.37-.11,1.13,1.13,0,0,1-.65-.45,1.09,1.09,0,0,1-.08-.87.89.89,0,0,1,.4-.52.94.94,0,0,1,.77-.15,3.54,3.54,0,0,0,1.59.09,4.47,4.47,0,0,0,1.59-.64,3.26,3.26,0,0,0,1.15-1.2,1.38,1.38,0,0,0-.16-1.46,1.44,1.44,0,0,0-1.34-.69,9.7,9.7,0,0,0-2.35.54,15.25,15.25,0,0,1-2.25.56,3.94,3.94,0,0,1-1.89-.2,3.34,3.34,0,0,1-1.62-1.42,3.18,3.18,0,0,1-.53-2.07,4.29,4.29,0,0,1,.76-2.07,5.79,5.79,0,0,1,1.7-1.64,7.61,7.61,0,0,1,2.74-1.12,5.46,5.46,0,0,1,2.85.25,1.36,1.36,0,0,1,.56.45,1,1,0,0,1,0,1,1,1,0,0,1-.39.45,1.15,1.15,0,0,1-.9.14,5.1,5.1,0,0,0-2-.2,4.5,4.5,0,0,0-2,.76A3.52,3.52,0,0,0,476,349.3a1.43,1.43,0,0,0,.11,1.52,1.46,1.46,0,0,0,1.33.69,8,8,0,0,0,2.26-.48,16,16,0,0,1,2.38-.59,4.25,4.25,0,0,1,2,.16,3.19,3.19,0,0,1,1.65,1.39,3.25,3.25,0,0,1,.53,2A4.28,4.28,0,0,1,485.49,356Zm5.41-4a1.22,1.22,0,0,1-.79-.46l-6.66-8.53a1.19,1.19,0,0,1-.26-.88,1.18,1.18,0,0,1,.47-.81,1.14,1.14,0,0,1,.87-.24,1.2,1.2,0,0,1,.79.46l6.67,8.53a1.19,1.19,0,0,1,.25.88,1.1,1.1,0,0,1-.44.79A1.17,1.17,0,0,1,490.9,352.05Zm4.16,2.27a1.84,1.84,0,0,1-.66.84,1.61,1.61,0,0,1-1,.41,1,1,0,0,1-.77-.46l-.24-.32a1,1,0,0,1-.27-.87,1.77,1.77,0,0,1,.65-.83,1.69,1.69,0,0,1,1-.43,1.05,1.05,0,0,1,.77.47l.24.31A1,1,0,0,1,495.06,354.32Zm8.41-13a1.23,1.23,0,0,1-.62.34,1.26,1.26,0,0,1-.73-.08l-8.8-3.7,3.36,8.94a1.15,1.15,0,0,1-1.05,1.61,1,1,0,0,1-.74-.3,1.76,1.76,0,0,1-.31-.58l-4.07-11.07a1.4,1.4,0,0,1-.05-.67,1.16,1.16,0,0,1,.27-.58,1.13,1.13,0,0,1,.64-.41,1.26,1.26,0,0,1,.78.08l10.92,4.49a2.12,2.12,0,0,1,.52.36,1,1,0,0,1,.27.75A1.16,1.16,0,0,1,503.47,341.33Zm-33.21,7.94L416,378.94A93.17,93.17,0,0,0,378.94,416l-29.67,54.24a91.77,91.77,0,0,1-161,0L158.56,416a93.17,93.17,0,0,0-37.08-37.08L67.24,349.27a91.77,91.77,0,0,1,0-161l54.24-29.67a93.17,93.17,0,0,0,37.08-37.08l29.67-54.24a91.77,91.77,0,0,1,161,0l29.67,54.24A93.17,93.17,0,0,0,416,158.56l54.24,29.67a91.77,91.77,0,0,1,0,161ZM513,327.07a3.4,3.4,0,0,1-1.94,2.79,3.32,3.32,0,0,1-1.73.31,3.44,3.44,0,0,1-1.69-.61,3.35,3.35,0,0,1-1.13-1.35,3.51,3.51,0,0,1-.3-1.72,3.26,3.26,0,0,1,.61-1.65,3.4,3.4,0,0,1,3-1.45,3.27,3.27,0,0,1,1.66.59,3.42,3.42,0,0,1,1.47,3.09Zm13.44-9.92a1.2,1.2,0,0,1-.65.66,1.16,1.16,0,0,1-.93,0L510,311.45a1.16,1.16,0,0,1-.63-1.57,1.11,1.11,0,0,1,.64-.65,1.18,1.18,0,0,1,.92,0l.65.27a5,5,0,0,1-.71-2.22,4.9,4.9,0,0,1,.38-2.48,5.64,5.64,0,0,1,2-2.49,6.13,6.13,0,0,1,3.09-1,8.21,8.21,0,0,1,6.47,2.75,6.14,6.14,0,0,1,1.39,2.95,5.54,5.54,0,0,1-.39,3.13,5.29,5.29,0,0,1-1.47,2,5.15,5.15,0,0,1-2,1.12l5.4,2.31a1.19,1.19,0,0,1,.66.64A1.11,1.11,0,0,1,526.41,317.15Zm2.43-21.89A5.86,5.86,0,0,1,527.3,298a6.41,6.41,0,0,1-2.76,1.62,6.48,6.48,0,0,1-3.36,0,1,1,0,0,1-.65-.55,1.15,1.15,0,0,1-.1-.87l2.17-8.53a4.35,4.35,0,0,0-3.18.62,4.26,4.26,0,0,0-1.8,2.6,4.83,4.83,0,0,0-.14,2,5.08,5.08,0,0,0,.55,1.5,1.43,1.43,0,0,1,0,.76,1,1,0,0,1-.47.62,1,1,0,0,1-.75.11,1.24,1.24,0,0,1-.79-.72,6,6,0,0,1-.72-2.17,6.54,6.54,0,0,1,.12-2.5,7.19,7.19,0,0,1,1.7-3.24,5.89,5.89,0,0,1,2.89-1.72,7,7,0,0,1,3.55,0A7.49,7.49,0,0,1,527,289.3a6.25,6.25,0,0,1,1.8,2.81A5.72,5.72,0,0,1,528.84,295.26Zm4.9-12.34a1.22,1.22,0,0,1-.89.23l-2.08-.27-.26,2.06a1.07,1.07,0,0,1-1.23.95,1,1,0,0,1-.73-.41,1.08,1.08,0,0,1-.2-.81l.26-2.06-7.39-.94q-1.25-.17-1.38,1a1.41,1.41,0,0,0,0,.48,1.63,1.63,0,0,1,0,.48.69.69,0,0,1-.34.51,1.07,1.07,0,0,1-.72.14,1.08,1.08,0,0,1-.82-.71,2.51,2.51,0,0,1-.2-1.39,6.29,6.29,0,0,1,.36-1.48,2.24,2.24,0,0,1,1-1.1,3.54,3.54,0,0,1,2.21-.26l7.49.95.18-1.44a1.07,1.07,0,0,1,1.23-.95,1,1,0,0,1,.73.41,1.09,1.09,0,0,1,.2.82l-.18,1.44,2.08.26a1.17,1.17,0,0,1,.8.44,1.19,1.19,0,0,1,.24.9A1.11,1.11,0,0,1,533.74,282.92Zm1.2-7.59-.4,0a1,1,0,0,1-.84-.36,1.75,1.75,0,0,1-.2-1,1.69,1.69,0,0,1,.31-1,1,1,0,0,1,.86-.27l.39,0a1,1,0,0,1,.84.37,1.84,1.84,0,0,1,.2,1.05,1.58,1.58,0,0,1-.31,1A1,1,0,0,1,534.94,275.33Z"/><path class="outline" d="M179.92,64.11l3.69-6.38-.17-.1a3.06,3.06,0,0,0-2.48-.06A3.76,3.76,0,0,0,179,59.23a3.64,3.64,0,0,0,.9,4.88Z"/><path class="outline" d="M135.88,139.23A5.29,5.29,0,0,0,138,140.5a4.06,4.06,0,0,0,2.18.11,4,4,0,0,0,2.88-3,4.06,4.06,0,0,0-.21-2.17,5.44,5.44,0,0,0-1.36-2,5.36,5.36,0,0,0-2.07-1.26,4.08,4.08,0,0,0-2.18-.12,4,4,0,0,0-2.89,3,4.1,4.1,0,0,0,.22,2.18A5.28,5.28,0,0,0,135.88,139.23Z"/><path class="outline" d="M443.94,369.31a4,4,0,0,0-2-.77,3.93,3.93,0,0,0-3.66,2,4.12,4.12,0,0,0-.46,2.13,5.46,5.46,0,0,0,.69,2.33,5.55,5.55,0,0,0,1.58,1.83,4.14,4.14,0,0,0,2.05.77,3.75,3.75,0,0,0,2.12-.47,3.81,3.81,0,0,0,1.55-1.53,4.07,4.07,0,0,0,.45-2.14,5.31,5.31,0,0,0-.69-2.32A5.22,5.22,0,0,0,443.94,369.31Z"/></g></g></svg>