<svg xmlns="http://www.w3.org/2000/svg" viewBox="0 0 537.5 537.5"><defs><style>.cls-1{fill:#a082af;}.cls-2{fill:#6763a8;}</style></defs><title>visited~</title><g id="Layer_2" data-name="Layer 2"><g id="shapes"><path class="cls-1" d="M470.62,187.57,416.38,157.9a92.45,92.45,0,0,1-36.78-36.78L349.93,66.88c-35.1-64.17-127.26-64.17-162.36,0L157.9,121.12a92.45,92.45,0,0,1-36.78,36.78L66.88,187.57c-64.17,35.1-64.17,127.26,0,162.36l54.24,29.67a92.45,92.45,0,0,1,36.78,36.78l29.67,54.24c35.1,64.17,127.26,64.17,162.36,0l29.67-54.24a92.45,92.45,0,0,1,36.78-36.78l54.24-29.67C534.79,314.83,534.79,222.67,470.62,187.57Z"/><path class="cls-2" d="M430.12,377a4,4,0,0,0-2-.76,3.9,3.9,0,0,0-3.66,2,4,4,0,0,0-.46,2.13,5.76,5.76,0,0,0,2.27,4.16,4,4,0,0,0,2,.77,3.9,3.9,0,0,0,3.66-2,4.06,4.06,0,0,0,.46-2.14,5.44,5.44,0,0,0-.69-2.32A5.22,5.22,0,0,0,430.12,377Z"/><path class="cls-2" d="M22.57,215.05a3.65,3.65,0,0,0-.57,2.09,3.93,3.93,0,0,0,.68,2.08,5.4,5.4,0,0,0,1.75,1.67,5.32,5.32,0,0,0,2.3.79,4.1,4.1,0,0,0,2.15-.36,3.63,3.63,0,0,0,1.59-1.47,3.67,3.67,0,0,0,.57-2.1,4,4,0,0,0-.67-2.07A5.34,5.34,0,0,0,28.61,214a5.28,5.28,0,0,0-2.29-.79,4,4,0,0,0-2.16.35A3.71,3.71,0,0,0,22.57,215.05Z"/><path class="cls-2" d="M100.94,160l-.09-.18a3,3,0,0,0-2.09-1.33,3.74,3.74,0,0,0-2.52.41,3.86,3.86,0,0,0-1.75,1.85,3.91,3.91,0,0,0,0,2.79Z"/><path class="cls-2" d="M17.08,233.83,19.86,227l-.18-.07a3,3,0,0,0-2.46.27,3.75,3.75,0,0,0-1.7,1.92,3.8,3.8,0,0,0-.19,2.54A3.89,3.89,0,0,0,17.08,233.83Z"/><path class="cls-2" d="M109.38,159.65a3.93,3.93,0,0,0,2,.76,3.68,3.68,0,0,0,2.12-.47,3.72,3.72,0,0,0,1.54-1.53,4,4,0,0,0,.46-2.13,5.76,5.76,0,0,0-2.27-4.16,4.14,4.14,0,0,0-2-.77,3.9,3.9,0,0,0-3.66,2,4,4,0,0,0-.46,2.14,5.31,5.31,0,0,0,.69,2.32A5.22,5.22,0,0,0,109.38,159.65Z"/><path class="cls-2" d="M176,65.08a3.66,3.66,0,0,0-.48,2.12,4,4,0,0,0,.78,2,5.73,5.73,0,0,0,4.15,2.28,4.18,4.18,0,0,0,2.14-.46,4,4,0,0,0,2-3.66,4.09,4.09,0,0,0-.76-2.05A5.53,5.53,0,0,0,182,63.76a5.47,5.47,0,0,0-2.32-.68,4,4,0,0,0-2.14.45A3.63,3.63,0,0,0,176,65.08Z"/><path class="cls-2" d="M170,82.79l3.53-6.47-.17-.1a3.06,3.06,0,0,0-2.48,0,3.73,3.73,0,0,0-1.9,1.71,3.62,3.62,0,0,0,1,4.86Z"/><path class="cls-2" d="M126.54,392.44a3.07,3.07,0,0,0-.42,2.44,3.74,3.74,0,0,0,1.36,2.16,3.86,3.86,0,0,0,2.39.9,3.92,3.92,0,0,0,2.57-1.07l-5.77-4.59Z"/><path class="cls-2" d="M188.54,487a3.1,3.1,0,0,0-.95,2.29,3.86,3.86,0,0,0,.85,2.42,3.9,3.9,0,0,0,2.14,1.39,3.84,3.84,0,0,0,2.74-.48l-4.62-5.74Z"/><path class="cls-2" d="M372.25,446.84l-3.54,6.47.17.1a3.06,3.06,0,0,0,2.48,0,3.73,3.73,0,0,0,1.9-1.71,3.86,3.86,0,0,0,.48-2.5A3.91,3.91,0,0,0,372.25,446.84Z"/><path class="cls-2" d="M366.24,464.55a3.68,3.68,0,0,0,.47-2.12,3.92,3.92,0,0,0-.77-2.05,5.33,5.33,0,0,0-1.83-1.58,5.16,5.16,0,0,0-2.33-.69,4,4,0,0,0-2.13.45,3.81,3.81,0,0,0-1.53,1.55,3.73,3.73,0,0,0-.47,2.12,4.09,4.09,0,0,0,.76,2,5.71,5.71,0,0,0,4.16,2.27,4.05,4.05,0,0,0,2.14-.45A3.78,3.78,0,0,0,366.24,464.55Z"/><path class="cls-2" d="M119.79,381a3.68,3.68,0,0,0-2.12-.48,4.07,4.07,0,0,0-2,.75,5.35,5.35,0,0,0-1.6,1.84,5.27,5.27,0,0,0-.69,2.31,4.08,4.08,0,0,0,.44,2.15,3.78,3.78,0,0,0,1.54,1.53,3.68,3.68,0,0,0,2.12.48,4,4,0,0,0,2-.76,5.46,5.46,0,0,0,1.59-1.83,5.27,5.27,0,0,0,.7-2.32,4.07,4.07,0,0,0-.45-2.14A3.72,3.72,0,0,0,119.79,381Z"/><path class="cls-2" d="M36.44,336.18a3.08,3.08,0,0,0-.73,2.37,3.73,3.73,0,0,0,1.08,2.32,3.63,3.63,0,0,0,4.94.46L36.59,336Z"/><path class="cls-2" d="M35,325.52a3.79,3.79,0,0,0-.71-2.06,3.73,3.73,0,0,0-1.7-1.36,4.06,4.06,0,0,0-2.17-.22,5.42,5.42,0,0,0-2.23.95,5.32,5.32,0,0,0-1.64,1.78,4.09,4.09,0,0,0-.54,2.12,3.68,3.68,0,0,0,.71,2,3.73,3.73,0,0,0,1.69,1.37,4.19,4.19,0,0,0,2.18.21,5.73,5.73,0,0,0,3.88-2.73A4.14,4.14,0,0,0,35,325.52Z"/><path class="cls-2" d="M254.6,11.51a3.08,3.08,0,0,0-1.55-1.93,3.73,3.73,0,0,0-2.53-.42,3.93,3.93,0,0,0-2.25,1.2,3.9,3.9,0,0,0-.9,2.64l7.26-1.29Z"/><path class="cls-2" d="M188.05,476.2a3.64,3.64,0,0,0-.53-2.1,3.71,3.71,0,0,0-1.56-1.51,4.07,4.07,0,0,0-2.14-.4,5.7,5.7,0,0,0-4.1,2.38,4,4,0,0,0-.72,2.06,3.89,3.89,0,0,0,2.09,3.61,4,4,0,0,0,2.16.4,5.45,5.45,0,0,0,2.3-.74,5.37,5.37,0,0,0,1.79-1.64A4,4,0,0,0,188.05,476.2Z"/><path class="cls-2" d="M285.16,525.7a3,3,0,0,0,1.59,1.9,3.76,3.76,0,0,0,2.53.37,3.63,3.63,0,0,0,3.08-3.89l-7.24,1.42Z"/><path class="cls-2" d="M523.61,322.38a1.19,1.19,0,0,1-.92-.07l-14.49-7a1.18,1.18,0,0,1-.62-.68,1.17,1.17,0,0,1,.06-.93,1.11,1.11,0,0,1,.67-.61,1.19,1.19,0,0,1,.92.08l.63.31a5.32,5.32,0,0,1-.1-4.72,5.56,5.56,0,0,1,2.13-2.39,6.05,6.05,0,0,1,3.14-.89,7.5,7.5,0,0,1,3.51.81,7.71,7.71,0,0,1,2.82,2.24,6.08,6.08,0,0,1,1.25,3,5.69,5.69,0,0,1-2.1,5.07,5.31,5.31,0,0,1-2.08,1l5.29,2.56a1.2,1.2,0,0,1,.64.67,1.14,1.14,0,0,1,0,.66A112.45,112.45,0,0,0,523,213.55q-1.8-3.17-3.81-6.2a1,1,0,0,1,0,.51,1.12,1.12,0,0,1-.5.78l-13,9.51a1.21,1.21,0,0,1-1.91-1.15,1.22,1.22,0,0,1,.51-.77l.56-.41a5.09,5.09,0,0,1-2.27-.52,5,5,0,0,1-1.94-1.6,5.63,5.63,0,0,1-1.11-3,6.07,6.07,0,0,1,.68-3.19,7.52,7.52,0,0,1,2.36-2.72,7.66,7.66,0,0,1,3.3-1.44,6.13,6.13,0,0,1,3.25.3,5.71,5.71,0,0,1,3.49,4.23,5.25,5.25,0,0,1-.07,2.31l4.74-3.46a1.19,1.19,0,0,1,.89-.25,1.06,1.06,0,0,1,.59.31,111.43,111.43,0,0,0-39.22-35.67l-54.24-29.67a73.52,73.52,0,0,1-29.33-29.33L366.38,57.88A110.9,110.9,0,0,0,324,14.48a112.46,112.46,0,0,0-110.4,0,110.9,110.9,0,0,0-42.43,43.4l-29.67,54.24a73.52,73.52,0,0,1-29.33,29.33L57.88,171.12a110.9,110.9,0,0,0-43.4,42.43,112.46,112.46,0,0,0,0,110.4,110.9,110.9,0,0,0,43.4,42.43l54.24,29.67a73.52,73.52,0,0,1,29.33,29.33l29.67,54.24a111.09,111.09,0,0,0,195.26,0l29.67-54.24a73.52,73.52,0,0,1,29.33-29.33l54.24-29.67A110.9,110.9,0,0,0,523,324c.34-.6.67-1.22,1-1.83A1,1,0,0,1,523.61,322.38ZM527.75,300a5.86,5.86,0,0,1-1.66,2.63,6.2,6.2,0,0,1-2.83,1.49,6.45,6.45,0,0,1-3.37-.1,1.1,1.1,0,0,1-.62-.58,1.22,1.22,0,0,1-.06-.88l2.56-8.42a4.3,4.3,0,0,0-3.2.47,4.25,4.25,0,0,0-1.92,2.52,4.64,4.64,0,0,0-.23,2,5.06,5.06,0,0,0,.48,1.53,1.36,1.36,0,0,1,0,.75.93.93,0,0,1-.49.6,1,1,0,0,1-.75.07,1.24,1.24,0,0,1-.77-.75,5.87,5.87,0,0,1-.61-2.2,6.3,6.3,0,0,1,.23-2.49,7.19,7.19,0,0,1,1.85-3.16,5.93,5.93,0,0,1,3-1.59,7.09,7.09,0,0,1,3.55.21,7.64,7.64,0,0,1,3.28,1.89,6.31,6.31,0,0,1,1.67,2.89A5.81,5.81,0,0,1,527.75,300Zm5.81-42.27a1,1,0,0,1,.81-.38l.4,0a1,1,0,0,1,.87.26,1.76,1.76,0,0,1,.35,1,1.61,1.61,0,0,1-.17,1,1.08,1.08,0,0,1-.81.39l-.4,0a1,1,0,0,1-.87-.25,2.17,2.17,0,0,1-.18-2.06Zm.18,20.09a1,1,0,0,1,.87-.23l.39,0a1,1,0,0,1,.82.42,1.72,1.72,0,0,1,.15,1.05,1.58,1.58,0,0,1-.35,1,1,1,0,0,1-.86.23l-.4,0a1,1,0,0,1-.82-.41,1.66,1.66,0,0,1-.15-1A1.62,1.62,0,0,1,533.74,277.79Zm-.24,8.38a1.15,1.15,0,0,1,.2.91,1.11,1.11,0,0,1-.49.76,1.17,1.17,0,0,1-.89.19l-2.07-.36-.36,2a1.05,1.05,0,0,1-.44.73,1.08,1.08,0,0,1-.83.17,1,1,0,0,1-.71-.44,1.08,1.08,0,0,1-.16-.83l.35-2L520.76,286c-.82-.14-1.29.16-1.42.9a1.88,1.88,0,0,0,0,.48,1.57,1.57,0,0,1,0,.48.69.69,0,0,1-.37.5,1,1,0,0,1-.72.1,1.08,1.08,0,0,1-.79-.74,2.55,2.55,0,0,1-.14-1.4,6.59,6.59,0,0,1,.43-1.46,2.27,2.27,0,0,1,1.09-1.05,3.48,3.48,0,0,1,2.22-.16l7.44,1.29.25-1.43a1.05,1.05,0,0,1,.44-.72,1.09,1.09,0,0,1,.83-.18,1,1,0,0,1,.71.44,1.13,1.13,0,0,1,.16.83l-.25,1.43,2.07.36A1.19,1.19,0,0,1,533.5,286.17Zm-14.93-8.74a1.16,1.16,0,0,1,.43-.8,1.2,1.2,0,0,1,.88-.26l10.78,1a1.18,1.18,0,0,1,.81.41,1.14,1.14,0,0,1,.27.87,1.16,1.16,0,0,1-.42.83,1.21,1.21,0,0,1-.88.25l-10.78-1a1.2,1.2,0,0,1-.82-.42A1.15,1.15,0,0,1,518.57,277.43Zm13.8-8.57a6.65,6.65,0,0,1-.45,2.38,4.55,4.55,0,0,1-1.37,1.94,1.13,1.13,0,0,1-.73.3,1.06,1.06,0,0,1-.77-.4,1,1,0,0,1,.07-1.35,3.56,3.56,0,0,0,.93-1.29,4.21,4.21,0,0,0,.32-1.69,3.12,3.12,0,0,0-.38-1.61,1.4,1.4,0,0,0-1.31-.66,1.45,1.45,0,0,0-1.3.76,9.58,9.58,0,0,0-.83,2.26,15,15,0,0,1-.75,2.2,3.8,3.8,0,0,1-1.19,1.48,3.32,3.32,0,0,1-2.06.6,3.2,3.2,0,0,1-2-.68,4.25,4.25,0,0,1-1.32-1.76,5.87,5.87,0,0,1-.47-2.32,7.7,7.7,0,0,1,.56-2.91,5.4,5.4,0,0,1,1.75-2.26,1.24,1.24,0,0,1,.67-.22,1,1,0,0,1,.85.52,1,1,0,0,1,.18.58,1.14,1.14,0,0,1-.38.82,5.21,5.21,0,0,0-1.27,1.61,4.58,4.58,0,0,0-.43,2.07,3.48,3.48,0,0,0,.44,1.67,1.42,1.42,0,0,0,1.33.73,1.44,1.44,0,0,0,1.3-.74,8.32,8.32,0,0,0,.83-2.16,15.28,15.28,0,0,1,.79-2.33,4.15,4.15,0,0,1,1.2-1.56,3.19,3.19,0,0,1,2.06-.64,3.26,3.26,0,0,1,2,.64,4.34,4.34,0,0,1,1.32,1.7A5.56,5.56,0,0,1,532.37,268.86Zm-.62-9.95a1.19,1.19,0,0,1-1.08,1.31l-10.78,1a1.15,1.15,0,0,1-.88-.26,1.11,1.11,0,0,1-.43-.82,1.13,1.13,0,0,1,.27-.87,1.17,1.17,0,0,1,.82-.41l10.78-1a1.21,1.21,0,0,1,.88.26A1.11,1.11,0,0,1,531.75,258.91Zm-2.45-15.46a1.16,1.16,0,0,1-.06.69,1.21,1.21,0,0,1-.46.58l-7.89,5.38,9.33,2a1.15,1.15,0,0,1,.79,1.76,1,1,0,0,1-.66.46,1.81,1.81,0,0,1-.65-.06l-11.51-2.6a1.26,1.26,0,0,1-.59-.32,1.11,1.11,0,0,1-.34-.54,1.13,1.13,0,0,1,0-.75,1.23,1.23,0,0,1,.49-.62l9.7-6.73a1.88,1.88,0,0,1,.58-.24,1,1,0,0,1,.78.18A1.17,1.17,0,0,1,529.3,243.45Zm-14-15.06a1.09,1.09,0,0,1,.66-.62l2.16-.93a1.19,1.19,0,0,1,.94,0,1.09,1.09,0,0,1,.65.63,4.31,4.31,0,0,0,1.94,2.14,3.12,3.12,0,0,0,2.75,0,3.16,3.16,0,0,0,1.79-1.83,3.29,3.29,0,0,0-.09-2.57,3.61,3.61,0,0,0-.91-1.28,4.11,4.11,0,0,0-1.35-.83,1.49,1.49,0,0,1-.81-.74,1.14,1.14,0,0,1,1.49-1.54,6.1,6.1,0,0,1,2.22,1.3,6.27,6.27,0,0,1,1.52,2.16,6,6,0,0,1,.49,3,5.52,5.52,0,0,1-1,2.71,5.59,5.59,0,0,1-2.37,1.87,5.33,5.33,0,0,1-2.71.44,5.18,5.18,0,0,1-2.44-.93,6.13,6.13,0,0,1-1.82-2.05s0,0,0,0,0,0,0,.06l-1.51.65a1.18,1.18,0,0,1-.92,0,1.09,1.09,0,0,1-.65-.63A1.16,1.16,0,0,1,515.28,228.39ZM511,230.06a1.28,1.28,0,0,1,.73-.67l.44-.18a1.29,1.29,0,0,1,1-.08,1.26,1.26,0,0,1,.67.72l.1.23a1.17,1.17,0,0,1,0,1,1.25,1.25,0,0,1-.73.67l-.44.19a1.28,1.28,0,0,1-1,.07,1.23,1.23,0,0,1-.67-.72l-.1-.23A1.17,1.17,0,0,1,511,230.06Zm-12.42-37.89a5.81,5.81,0,0,1,2.76,1.53,5.73,5.73,0,0,1,1.55,2.7,6.2,6.2,0,0,1,0,3.2,6.52,6.52,0,0,1-1.66,2.92,1.08,1.08,0,0,1-.81.28,1.21,1.21,0,0,1-.8-.36l-6.26-6.19a4.37,4.37,0,0,0-1.07,3.06,4.23,4.23,0,0,0,1.33,2.86,4.61,4.61,0,0,0,1.64,1.12,4.75,4.75,0,0,0,1.57.3,1.34,1.34,0,0,1,.67.35.92.92,0,0,1,.3.71,1,1,0,0,1-.29.7,1.24,1.24,0,0,1-1,.33,5.85,5.85,0,0,1-2.23-.49,6.21,6.21,0,0,1-2.1-1.37,7.29,7.29,0,0,1-1.93-3.11,5.91,5.91,0,0,1,0-3.36,7.16,7.16,0,0,1,1.83-3,7.73,7.73,0,0,1,3.21-2A6.22,6.22,0,0,1,498.62,192.17Zm-10-8.76,1.15.88,1.28-1.66a1.23,1.23,0,0,1,.79-.47,1.16,1.16,0,0,1,.9.25,1.15,1.15,0,0,1,.45.79,1.23,1.23,0,0,1-.25.88l-1.28,1.66,1.64,1.27a1,1,0,0,1,.43.72,1,1,0,0,1-.23.82,1,1,0,0,1-.72.42,1.1,1.1,0,0,1-.8-.24l-1.65-1.26-4.54,5.9a1.06,1.06,0,0,0,.13,1.68,2.08,2.08,0,0,0,.43.22,2.08,2.08,0,0,1,.43.22.7.7,0,0,1,.27.55,1.1,1.1,0,0,1-.25.7,1.06,1.06,0,0,1-1,.34,2.46,2.46,0,0,1-1.3-.52,6.56,6.56,0,0,1-1.1-1.06,2.29,2.29,0,0,1-.43-1.45,3.64,3.64,0,0,1,.9-2.05l4.6-6-1.15-.88a1.11,1.11,0,0,1-.44-.73,1.09,1.09,0,0,1,.24-.82,1,1,0,0,1,.72-.42A1.1,1.1,0,0,1,488.6,183.41Zm-3.89-6.23.22-.33a1,1,0,0,1,.75-.53,1.72,1.72,0,0,1,1,.35,1.61,1.61,0,0,1,.71.77,1,1,0,0,1-.2.88l-.21.33a1,1,0,0,1-.74.54,1.72,1.72,0,0,1-1-.35,1.59,1.59,0,0,1-.73-.78A1,1,0,0,1,484.71,177.18Zm-2,3.41a1.2,1.2,0,0,1,.74-.53,1.2,1.2,0,0,1,1.43.93,1.18,1.18,0,0,1-.18.89L478.81,191a1.21,1.21,0,0,1-.75.53,1.13,1.13,0,0,1-.92-.17,1.16,1.16,0,0,1-.51-.75,1.2,1.2,0,0,1,.18-.9Zm-8.85-6.11a5.54,5.54,0,0,1,2.26.69,6.7,6.7,0,0,1,1.88,1.54,4.43,4.43,0,0,1,1,2.14,1.13,1.13,0,0,1-.09.78,1.06,1.06,0,0,1-.72.48.84.84,0,0,1-.65-.1.94.94,0,0,1-.5-.61,3.5,3.5,0,0,0-.68-1.43,4.35,4.35,0,0,0-1.33-1.09,3.13,3.13,0,0,0-1.6-.44,1.42,1.42,0,0,0-1.21.84,1.44,1.44,0,0,0,.05,1.5,9.09,9.09,0,0,0,1.59,1.81,14.35,14.35,0,0,1,1.57,1.72,3.84,3.84,0,0,1,.72,1.75,3.33,3.33,0,0,1-.46,2.09,3.24,3.24,0,0,1-1.57,1.47,4.44,4.44,0,0,1-2.19.31,5.78,5.78,0,0,1-2.25-.7,7.57,7.57,0,0,1-2.29-1.88,5.41,5.41,0,0,1-1.14-2.62,1.28,1.28,0,0,1,.12-.7,1,1,0,0,1,.87-.5,1,1,0,0,1,.59.13,1.13,1.13,0,0,1,.54.72,5.25,5.25,0,0,0,.81,1.89,4.65,4.65,0,0,0,1.6,1.37,3.54,3.54,0,0,0,1.68.42,1.43,1.43,0,0,0,1.28-.83,1.45,1.45,0,0,0,0-1.49,8.68,8.68,0,0,0-1.5-1.77,15.25,15.25,0,0,1-1.67-1.8,4.16,4.16,0,0,1-.79-1.8,3.18,3.18,0,0,1,.43-2.12,3.21,3.21,0,0,1,1.51-1.43A4.15,4.15,0,0,1,473.86,174.48Zm-5.68-6.59.19-.35a1,1,0,0,1,.7-.59,1.84,1.84,0,0,1,1,.28,1.61,1.61,0,0,1,.76.72,1,1,0,0,1-.12.88l-.2.35a1,1,0,0,1-.69.59,2.17,2.17,0,0,1-1.8-1A1,1,0,0,1,468.18,167.89Zm-1,3a1.14,1.14,0,0,1,.9.1,1.16,1.16,0,0,1,.59.72,1.21,1.21,0,0,1-.11.91l-5.2,9.5a1.18,1.18,0,0,1-.7.58,1.14,1.14,0,0,1-.93-.11,1.08,1.08,0,0,1-.56-.71,1.14,1.14,0,0,1,.11-.9l5.19-9.5A1.22,1.22,0,0,1,467.14,170.85Zm-13.78-6a1.91,1.91,0,0,1,.19-.61,1,1,0,0,1,.63-.48,1.12,1.12,0,0,1,.9.12,1.18,1.18,0,0,1,.5.49,1.23,1.23,0,0,1,.15.72l-.9,9.51,7.52-5.89a1.16,1.16,0,0,1,1.31-.14,1.12,1.12,0,0,1,.55.66,1,1,0,0,1-.07.8,1.71,1.71,0,0,1-.45.47l-9.35,7.19a1.25,1.25,0,0,1-.63.26,1.13,1.13,0,0,1-.63-.09,1.16,1.16,0,0,1-.58-.49,1.31,1.31,0,0,1-.16-.77Zm-14.47-1.3,1.13-2.06a1.21,1.21,0,0,1,.71-.61,1.12,1.12,0,0,1,.91.09,4.37,4.37,0,0,0,2.85.5,3.46,3.46,0,0,0,2.43-4.26,3.37,3.37,0,0,0-1.66-2,3.77,3.77,0,0,0-1.51-.44,4,4,0,0,0-1.57.19,1.52,1.52,0,0,1-1.09-.09,1,1,0,0,1-.46-.51,1.08,1.08,0,0,1,.68-1.62,6.05,6.05,0,0,1,2.54-.35,6.28,6.28,0,0,1,2.54.76,6,6,0,0,1,2.21,2,5.5,5.5,0,0,1,.86,2.76,5.56,5.56,0,0,1-.72,2.93,5.28,5.28,0,0,1-1.86,2,5.2,5.2,0,0,1-2.49.77,6,6,0,0,1-2.69-.49s0,0,0,0a.08.08,0,0,0,.06,0l-.79,1.44a1.17,1.17,0,0,1-.7.59,1.1,1.1,0,0,1-.9-.1,1.13,1.13,0,0,1-.46-1.61Zm-2.28,3.85.23-.42a1.28,1.28,0,0,1,.73-.66,1.18,1.18,0,0,1,1,.15l.22.12a1.23,1.23,0,0,1,.65.74,1.3,1.3,0,0,1-.17,1l-.23.42a1.31,1.31,0,0,1-.73.67,1.24,1.24,0,0,1-1-.15l-.22-.12a1.22,1.22,0,0,1-.65-.74A1.27,1.27,0,0,1,436.61,167.38Zm-17.89-19.83a6,6,0,0,1,3.07-1.1,5.52,5.52,0,0,1,3.07.68,5.6,5.6,0,0,1,1.88,1.66,5.13,5.13,0,0,1,.92,2.13l2.82-5.15a1.17,1.17,0,0,1,.7-.6,1.1,1.1,0,0,1,.91.11,1.15,1.15,0,0,1,.59.71,1.2,1.2,0,0,1-.11.92L424.83,161a1.18,1.18,0,0,1-.7.58,1.14,1.14,0,0,1-.93-.11,1.08,1.08,0,0,1-.58-.7,1.18,1.18,0,0,1,.13-.91l.33-.62a5.29,5.29,0,0,1-4.71-.13,5.53,5.53,0,0,1-2.28-2.24,6.24,6.24,0,0,1-.74-3.19,7.73,7.73,0,0,1,1-3.46A7.64,7.64,0,0,1,418.72,147.55Zm-8.48-9a5.86,5.86,0,0,1,4.82,3.63,6.19,6.19,0,0,1,.42,3.17,6.48,6.48,0,0,1-1.27,3.12,1,1,0,0,1-.76.38,1.17,1.17,0,0,1-.84-.25l-7-5.32a4.32,4.32,0,0,0-.67,3.17,4.23,4.23,0,0,0,1.7,2.66,4.57,4.57,0,0,0,1.76.91,5.08,5.08,0,0,0,1.6.08,1.44,1.44,0,0,1,.72.26.94.94,0,0,1,.38.67,1,1,0,0,1-.19.73,1.24,1.24,0,0,1-1,.45,5.88,5.88,0,0,1-2.27-.18A6.2,6.2,0,0,1,405.4,151a7.24,7.24,0,0,1-2.33-2.83,6,6,0,0,1-.45-3.33,7,7,0,0,1,1.42-3.25,7.64,7.64,0,0,1,2.92-2.42A6.25,6.25,0,0,1,410.24,138.59Zm-9.67-14.87.31-.25a1,1,0,0,1,.87-.27,1.74,1.74,0,0,1,.85.65,1.61,1.61,0,0,1,.43,1,1.05,1.05,0,0,1-.46.77l-.31.25a1,1,0,0,1-.86.28,1.65,1.65,0,0,1-.84-.64,1.57,1.57,0,0,1-.45-1A1.05,1.05,0,0,1,400.57,123.72Zm-.25,6.29a1,1,0,0,1,.77-.32,1.07,1.07,0,0,1,.76.36l1,1,1.5-1.47a1.18,1.18,0,0,1,.84-.35,1.17,1.17,0,0,1,.86.37,1.13,1.13,0,0,1,.33.85,1.16,1.16,0,0,1-.37.83l-1.5,1.47,1.45,1.48a1.11,1.11,0,0,1,.33.79,1,1,0,0,1-.35.77,1,1,0,0,1-.77.32,1.1,1.1,0,0,1-.76-.35L403,134.3l-5.33,5.21c-.6.59-.63,1.15-.11,1.68a2.22,2.22,0,0,0,.4.28,1.51,1.51,0,0,1,.39.28.67.67,0,0,1,.19.58,1,1,0,0,1-.34.65,1,1,0,0,1-1.06.2,2.48,2.48,0,0,1-1.22-.7,6.27,6.27,0,0,1-.93-1.2,2.23,2.23,0,0,1-.22-1.5,3.55,3.55,0,0,1,1.17-1.89l5.39-5.29-1-1a1.1,1.1,0,0,1-.33-.78A1.09,1.09,0,0,1,400.32,130Zm-2.72-3.67a1.23,1.23,0,0,1,.88-.28,1.12,1.12,0,0,1,.79.44,1.14,1.14,0,0,1,.27.89,1.17,1.17,0,0,1-.45.79l-8.42,6.8a1.18,1.18,0,0,1-.88.27,1.16,1.16,0,0,1-.81-.45,1.11,1.11,0,0,1-.25-.87,1.19,1.19,0,0,1,.45-.8Zm-6.06-17.1.35-.2a1,1,0,0,1,.9-.11,1.71,1.71,0,0,1,.72.79,1.57,1.57,0,0,1,.26,1,1,1,0,0,1-.59.67l-.35.19a1,1,0,0,1-.9.13,2.22,2.22,0,0,1-1-1.82A1,1,0,0,1,391.54,109.24Zm1.15,8.4a5.59,5.59,0,0,1,1.65,1.7,6.56,6.56,0,0,1,.9,2.25,4.41,4.41,0,0,1-.11,2.37,1.13,1.13,0,0,1-.45.65,1.1,1.1,0,0,1-.87.08.92.92,0,0,1-.53-.41.94.94,0,0,1-.14-.77,3.5,3.5,0,0,0,.09-1.58,4.25,4.25,0,0,0-.63-1.6,3,3,0,0,0-1.2-1.15,1.38,1.38,0,0,0-1.46.15,1.46,1.46,0,0,0-.69,1.34,9.58,9.58,0,0,0,.53,2.35,13.77,13.77,0,0,1,.55,2.26,3.8,3.8,0,0,1-.21,1.88,3.36,3.36,0,0,1-1.41,1.62,3.22,3.22,0,0,1-2.08.52,4.3,4.3,0,0,1-2.07-.77,5.88,5.88,0,0,1-1.63-1.7,7.52,7.52,0,0,1-1.11-2.75,5.47,5.47,0,0,1,.26-2.85,1.2,1.2,0,0,1,.45-.55,1,1,0,0,1,1,0,1,1,0,0,1,.45.39,1.15,1.15,0,0,1,.13.9,5.3,5.3,0,0,0-.21,2,4.77,4.77,0,0,0,.76,2,3.39,3.39,0,0,0,1.27,1.18,1.41,1.41,0,0,0,1.51-.11,1.44,1.44,0,0,0,.7-1.32,8.38,8.38,0,0,0-.47-2.27,15.85,15.85,0,0,1-.58-2.38,4.07,4.07,0,0,1,.17-2,3.19,3.19,0,0,1,1.39-1.65,3.25,3.25,0,0,1,2-.53A4.37,4.37,0,0,1,392.69,117.64Zm-3.63-6.47a1.15,1.15,0,0,1,.71.57,1.12,1.12,0,0,1,.11.92,1.18,1.18,0,0,1-.59.71l-9.49,5.19a1.17,1.17,0,0,1-.91.11,1.15,1.15,0,0,1-.72-.58,1.16,1.16,0,0,1,.49-1.61l9.49-5.19A1.17,1.17,0,0,1,389.06,111.17Zm-7.87-12.92a1,1,0,0,1,.8-.07,1.2,1.2,0,0,1,.69.59,1.3,1.3,0,0,1,.16.69,1.2,1.2,0,0,1-.27.68l-5.88,7.52,9.51-.89a1.15,1.15,0,0,1,1.28,1.43,1,1,0,0,1-.49.64,1.8,1.8,0,0,1-.63.15l-11.76,1a1.22,1.22,0,0,1-.66-.12,1.19,1.19,0,0,1-.49-.42,1.12,1.12,0,0,1-.22-.72,1.23,1.23,0,0,1,.28-.73l7.2-9.35A2,2,0,0,1,381.19,98.25ZM373.41,88a3.47,3.47,0,0,0,4.35-2.28,3.37,3.37,0,0,0-.33-2.55,3.6,3.6,0,0,0-1-1.19A4.17,4.17,0,0,0,375,81.3a1.52,1.52,0,0,1-.87-.66A1.05,1.05,0,0,1,374,80a1.14,1.14,0,0,1,.54-.93,1.18,1.18,0,0,1,.91-.06A5.91,5.91,0,0,1,377.76,80a6.33,6.33,0,0,1,1.73,2,6,6,0,0,1,.76,2.9,5.53,5.53,0,0,1-.76,2.8,5.63,5.63,0,0,1-2.19,2.08,5.2,5.2,0,0,1-2.65.69,5.13,5.13,0,0,1-2.52-.69,6,6,0,0,1-2-1.86s0,0,0,0,0,0,0,.05l-1.44.79a1.17,1.17,0,0,1-.91.11,1.11,1.11,0,0,1-.71-.56,1.18,1.18,0,0,1-.11-.93,1.09,1.09,0,0,1,.6-.68l2.06-1.13a1.18,1.18,0,0,1,.93-.12,1.09,1.09,0,0,1,.71.57A4.37,4.37,0,0,0,373.41,88Zm-11-24.89a5.54,5.54,0,0,1,2.22,2.23,5.34,5.34,0,0,1,.69,2.42,5.17,5.17,0,0,1-.37,2.28l5.15-2.82a1.26,1.26,0,0,1,.92-.13,1.27,1.27,0,0,1,.82,1.51,1.19,1.19,0,0,1-.6.71L357.09,77a1.16,1.16,0,0,1-.91.11,1.15,1.15,0,0,1-.72-.58,1.1,1.1,0,0,1-.11-.91,1.17,1.17,0,0,1,.6-.7l.61-.34a5.17,5.17,0,0,1-2.18-.81A5.06,5.06,0,0,1,352.66,72a5.65,5.65,0,0,1-.71-3.12,6.22,6.22,0,0,1,1.1-3.08,8.23,8.23,0,0,1,6.16-3.38A6.06,6.06,0,0,1,362.38,63.12ZM366,90.21a1.28,1.28,0,0,1-.66.73l-.42.23a1.31,1.31,0,0,1-1,.16,1.22,1.22,0,0,1-.74-.65l-.12-.22a1.24,1.24,0,0,1-.15-1,1.31,1.31,0,0,1,.67-.73l.42-.23a1.32,1.32,0,0,1,1-.17,1.25,1.25,0,0,1,.74.65l.12.22A1.21,1.21,0,0,1,366,90.21Zm-11.36-40a5.85,5.85,0,0,1,3.36,5,6.27,6.27,0,0,1-.65,3.13,6.47,6.47,0,0,1-2.22,2.53,1.07,1.07,0,0,1-.84.11,1.18,1.18,0,0,1-.72-.51l-4.87-7.33a4.25,4.25,0,0,0-.95,5.85,4.84,4.84,0,0,0,1.37,1.43,5,5,0,0,0,1.49.6,1.52,1.52,0,0,1,.59.48,1,1,0,0,1,.14.76,1,1,0,0,1-.42.63,1.26,1.26,0,0,1-1.07.11,6,6,0,0,1-2.09-.93A6.31,6.31,0,0,1,346,60.37a7.17,7.17,0,0,1-1.26-3.44,5.85,5.85,0,0,1,.66-3.29A7,7,0,0,1,347.78,51a7.71,7.71,0,0,1,3.55-1.32A6.24,6.24,0,0,1,354.62,50.25Zm-5.46-10.86a1.18,1.18,0,0,1,1.69.12,1.13,1.13,0,0,1,.28.87,1.17,1.17,0,0,1-.43.81l-1.59,1.37,1.35,1.57a1.07,1.07,0,0,1,.28.8,1.08,1.08,0,0,1-.4.75,1,1,0,0,1-.79.27,1.1,1.1,0,0,1-.74-.4L347.46,44l-5.65,4.85c-.64.55-.71,1.1-.22,1.67a1.66,1.66,0,0,0,.38.3,1.85,1.85,0,0,1,.37.31.68.68,0,0,1,.15.59,1.05,1.05,0,0,1-.38.63,1.08,1.08,0,0,1-1.08.13,2.45,2.45,0,0,1-1.16-.78,6.21,6.21,0,0,1-.85-1.26,2.29,2.29,0,0,1-.13-1.51,3.61,3.61,0,0,1,1.29-1.81l5.73-4.92-.94-1.1a1.07,1.07,0,0,1-.28-.8,1.08,1.08,0,0,1,.4-.75,1,1,0,0,1,.79-.27,1.1,1.1,0,0,1,.74.4l.94,1.1Zm-5.09-6.63.28-.28a1,1,0,0,1,.84-.37,1.71,1.71,0,0,1,.91.55,1.63,1.63,0,0,1,.54.9,1,1,0,0,1-.37.81l-.28.29a1,1,0,0,1-.83.37,1.63,1.63,0,0,1-.9-.54,1.61,1.61,0,0,1-.56-.92A1,1,0,0,1,344.07,32.76Zm-1.81,2.56a1.17,1.17,0,0,1,.84.34,1.13,1.13,0,0,1,.36.86,1.18,1.18,0,0,1-.35.84l-7.61,7.7a1.2,1.2,0,0,1-.84.37,1.16,1.16,0,0,1-.86-.36,1.13,1.13,0,0,1-.35-.84,1.15,1.15,0,0,1,.36-.84l7.61-7.7A1.17,1.17,0,0,1,342.26,35.32Zm-8.46-7.46A5.6,5.6,0,0,1,335.89,29a6.93,6.93,0,0,1,1.57,1.86,4.55,4.55,0,0,1,.63,2.29,1.07,1.07,0,0,1-.23.75,1.06,1.06,0,0,1-.8.35.88.88,0,0,1-.62-.22.92.92,0,0,1-.37-.69,3.51,3.51,0,0,0-.42-1.53,4.26,4.26,0,0,0-1.1-1.32,3.17,3.17,0,0,0-1.49-.72,1.4,1.4,0,0,0-1.35.6,1.47,1.47,0,0,0-.23,1.49,9.59,9.59,0,0,0,1.23,2.07,14.21,14.21,0,0,1,1.24,2,3.88,3.88,0,0,1,.39,1.85,3.3,3.3,0,0,1-.84,2,3.2,3.2,0,0,1-1.81,1.15,4.45,4.45,0,0,1-2.2-.08,5.79,5.79,0,0,1-2.09-1.11,7.68,7.68,0,0,1-1.91-2.26,5.52,5.52,0,0,1-.65-2.79,1.23,1.23,0,0,1,.26-.67,1,1,0,0,1,.94-.32,1,1,0,0,1,.56.22,1.19,1.19,0,0,1,.4.82,5.39,5.39,0,0,0,.44,2,4.66,4.66,0,0,0,1.33,1.64,3.7,3.7,0,0,0,1.58.72A1.56,1.56,0,0,0,332,36.94a8.2,8.2,0,0,0-1.15-2,16.84,16.84,0,0,1-1.31-2.08,4.24,4.24,0,0,1-.45-1.92,3.16,3.16,0,0,1,.81-2,3.25,3.25,0,0,1,1.74-1.13A4.29,4.29,0,0,1,333.8,27.86Zm-5.67-7.75.22-.34a1,1,0,0,1,.76-.52,1.77,1.77,0,0,1,1,.37,1.52,1.52,0,0,1,.69.78,1,1,0,0,1-.2.87l-.22.33a1,1,0,0,1-.74.53,1.68,1.68,0,0,1-1-.36,1.58,1.58,0,0,1-.71-.79A1,1,0,0,1,328.13,20.11Zm-2,3.38a1.15,1.15,0,0,1,.75-.52,1.2,1.2,0,0,1,1.41.94,1.16,1.16,0,0,1-.19.9l-6,9a1.16,1.16,0,0,1-.75.52,1.21,1.21,0,0,1-1.42-.94,1.17,1.17,0,0,1,.19-.89Zm-13.7-7.14a2,2,0,0,1,.18-.62,1,1,0,0,1,.62-.49,1.18,1.18,0,0,1,.91.11,1.31,1.31,0,0,1,.51.48,1.28,1.28,0,0,1,.16.72L314,26.07l7.42-6a1.16,1.16,0,0,1,1.87.48,1,1,0,0,1-.06.8,1.66,1.66,0,0,1-.44.47l-9.23,7.36a1.23,1.23,0,0,1-.62.27,1.13,1.13,0,0,1-.63-.08,1.15,1.15,0,0,1-.59-.47,1.33,1.33,0,0,1-.17-.77ZM284.92,4.21a1.18,1.18,0,0,1,.53-.73,5.93,5.93,0,0,1,2.32-1.1,6.18,6.18,0,0,1,2.64,0,5.87,5.87,0,0,1,2.72,1.28A5.39,5.39,0,0,1,294.79,6a5.51,5.51,0,0,1,.2,3,5.34,5.34,0,0,1-1.17,2.49A5.28,5.28,0,0,1,291.68,13a6.14,6.14,0,0,1-2.72.34s0,0,0,0H289L288.69,15a1.21,1.21,0,0,1-.49.77,1.17,1.17,0,0,1-.89.18,1.14,1.14,0,0,1-.78-.51,1.09,1.09,0,0,1-.14-.9l.45-2.3a1.25,1.25,0,0,1,.5-.8,1.16,1.16,0,0,1,.89-.18,4.27,4.27,0,0,0,2.87-.39,3.09,3.09,0,0,0,1.53-2.28,3.11,3.11,0,0,0-.5-2.51A3.29,3.29,0,0,0,290,4.65a3.62,3.62,0,0,0-1.57,0,4.09,4.09,0,0,0-1.44.65,1.54,1.54,0,0,1-1.07.25,1.15,1.15,0,0,1-.6-.35A1.19,1.19,0,0,1,284.92,4.21Zm3.24,14.71-.09.47a1.28,1.28,0,0,1-.5.85,1.2,1.2,0,0,1-1,.15l-.25,0a1.25,1.25,0,0,1-.84-.51,1.34,1.34,0,0,1-.14-1l.1-.46a1.27,1.27,0,0,1,.5-.86,1.2,1.2,0,0,1,1-.15l.24.05a1.18,1.18,0,0,1,.85.51A1.27,1.27,0,0,1,288.16,18.92ZM260.64,8.82a5.93,5.93,0,0,1,2.11-2.49,5.71,5.71,0,0,1,5.46-.45,5.26,5.26,0,0,1,1.86,1.38l-.14-5.87a1.24,1.24,0,0,1,.31-.87,1.13,1.13,0,0,1,.84-.36,1.16,1.16,0,0,1,1.23,1.17l.37,16.1a1.18,1.18,0,0,1-1.17,1.23,1.16,1.16,0,0,1-.86-.32,1.18,1.18,0,0,1-.34-.86l0-.7a5.1,5.1,0,0,1-1.73,1.57,5,5,0,0,1-2.42.68,5.58,5.58,0,0,1-3.09-.8,6.13,6.13,0,0,1-2.23-2.39,7.56,7.56,0,0,1-.89-3.49A7.7,7.7,0,0,1,260.64,8.82Zm-15.16,2.34a6.3,6.3,0,0,1,1.82-2.8A5.75,5.75,0,0,1,250.14,7a5.87,5.87,0,0,1,3.1.28,6.36,6.36,0,0,1,2.61,1.85,6.49,6.49,0,0,1,1.43,3A1,1,0,0,1,257,13a1.14,1.14,0,0,1-.75.45L247.62,15a4.38,4.38,0,0,0,1.88,2.64,4.27,4.27,0,0,0,3.11.57,4.58,4.58,0,0,0,1.86-.69,5.1,5.1,0,0,0,1.15-1.12,1.45,1.45,0,0,1,.67-.35.91.91,0,0,1,.75.18,1,1,0,0,1,.41.63,1.25,1.25,0,0,1-.33,1,5.88,5.88,0,0,1-1.68,1.54,6.34,6.34,0,0,1-2.32.92,7.2,7.2,0,0,1-3.66-.21,5.84,5.84,0,0,1-2.75-1.93,6.93,6.93,0,0,1-1.43-3.25A7.56,7.56,0,0,1,245.48,11.16ZM233.72,12a1.13,1.13,0,0,1,.66-.52l1.39-.42-.62-2a1.19,1.19,0,0,1,.07-.91,1.16,1.16,0,0,1,.72-.59,1.11,1.11,0,0,1,.91.09,1.17,1.17,0,0,1,.57.71l.62,2,2-.61a1,1,0,0,1,.85.06,1.1,1.1,0,0,1,.53.66,1,1,0,0,1-.74,1.35l-2,.62,2.19,7.11c.25.8.73,1.09,1.45.87a1.82,1.82,0,0,0,.42-.23,2.51,2.51,0,0,1,.43-.22.71.71,0,0,1,.61.1,1,1,0,0,1,.42.6,1.08,1.08,0,0,1-.31,1,2.49,2.49,0,0,1-1.18.76,6.48,6.48,0,0,1-1.49.28,2.28,2.28,0,0,1-1.44-.49,3.65,3.65,0,0,1-1.15-1.91l-2.22-7.22-1.39.43a1.06,1.06,0,0,1-.84-.07,1,1,0,0,1-.53-.66A1,1,0,0,1,233.72,12Zm-3.47,1.12a1.19,1.19,0,0,1,.63.67l4,10a1.22,1.22,0,0,1,0,.92,1.22,1.22,0,0,1-1.58.63,1.22,1.22,0,0,1-.63-.67l-4-10a1.18,1.18,0,0,1,0-.92,1.12,1.12,0,0,1,.65-.63A1.16,1.16,0,0,1,230.25,13.11ZM226.9,9.77a1.71,1.71,0,0,1,.87-.62,1.62,1.62,0,0,1,1-.13,1.1,1.1,0,0,1,.6.66l.15.37a1,1,0,0,1,0,.91,1.72,1.72,0,0,1-.86.62,1.64,1.64,0,0,1-1.06.14,1,1,0,0,1-.6-.66l-.15-.38A1,1,0,0,1,226.9,9.77Zm-9.34,10.68a4.2,4.2,0,0,1,.91-1.95A5.49,5.49,0,0,1,220.31,17a6.44,6.44,0,0,1,2.33-.69,4.44,4.44,0,0,1,2.35.34,1.12,1.12,0,0,1,.6.5,1.08,1.08,0,0,1,0,.88.91.91,0,0,1-.45.48.94.94,0,0,1-.78.07,3.46,3.46,0,0,0-1.57-.24,4.31,4.31,0,0,0-1.65.48,3.12,3.12,0,0,0-1.25,1.08,1.37,1.37,0,0,0,0,1.47,1.42,1.42,0,0,0,1.27.81,9.5,9.5,0,0,0,2.39-.3,14.71,14.71,0,0,1,2.3-.34,3.86,3.86,0,0,1,1.85.39,3.27,3.27,0,0,1,1.48,1.56,3.17,3.17,0,0,1,.33,2.12,4.41,4.41,0,0,1-1,2,5.79,5.79,0,0,1-1.85,1.47,7.53,7.53,0,0,1-2.84.84,5.43,5.43,0,0,1-2.81-.52,1.29,1.29,0,0,1-.51-.5,1,1,0,0,1,.08-1,1,1,0,0,1,.43-.42,1.16,1.16,0,0,1,.9,0,5.26,5.26,0,0,0,2,.4,4.68,4.68,0,0,0,2-.56,3.56,3.56,0,0,0,1.29-1.16,1.56,1.56,0,0,0-1.22-2.34,8.21,8.21,0,0,0-2.3.26,16.64,16.64,0,0,1-2.43.36,4.13,4.13,0,0,1-1.93-.36,3.14,3.14,0,0,1-1.51-1.54A3.16,3.16,0,0,1,217.56,20.45ZM212.63,22a1.21,1.21,0,0,1,.75.54l5.84,9.11a1.14,1.14,0,0,1,.17.89,1.12,1.12,0,0,1-.53.76,1.07,1.07,0,0,1-.9.16,1.17,1.17,0,0,1-.74-.53l-5.84-9.11a1.2,1.2,0,0,1-.18-.9,1.11,1.11,0,0,1,.52-.75A1.15,1.15,0,0,1,212.63,22Zm-3.92-2.65a1.68,1.68,0,0,1,.73-.77,1.56,1.56,0,0,1,1-.32,1,1,0,0,1,.71.53l.22.34a1,1,0,0,1,.18.89,1.64,1.64,0,0,1-.72.76,1.55,1.55,0,0,1-1,.34,1,1,0,0,1-.71-.53l-.22-.34A1,1,0,0,1,208.71,19.34Zm-9.61,12.2a1.26,1.26,0,0,1,.65-.28,1.36,1.36,0,0,1,.72.14l8.44,4.49-2.55-9.21a1.14,1.14,0,0,1,.37-1.25,1.1,1.1,0,0,1,.82-.26,1,1,0,0,1,.72.37,1.73,1.73,0,0,1,.25.6l3,11.4a1.27,1.27,0,0,1,0,.67,1.15,1.15,0,0,1-.33.55,1.13,1.13,0,0,1-.67.35,1.37,1.37,0,0,1-.78-.15L199.33,33.5a2.15,2.15,0,0,1-.49-.41,1,1,0,0,1-.19-.77A1.14,1.14,0,0,1,199.1,31.54Zm-4.79,20,.16-.2a1.18,1.18,0,0,1,.84-.5,1.3,1.3,0,0,1,.94.33l.37.3a1.29,1.29,0,0,1,.52.84,1.18,1.18,0,0,1-.32.93l-.15.2a1.25,1.25,0,0,1-.85.51,1.33,1.33,0,0,1-.93-.34l-.37-.3a1.31,1.31,0,0,1-.53-.84A1.26,1.26,0,0,1,194.31,51.53Zm-12.89-7.71a6.08,6.08,0,0,1,1.2-2.36A5.88,5.88,0,0,1,185,39.65a5.46,5.46,0,0,1,5.63.86,5.34,5.34,0,0,1,1.66,2.19,5.27,5.27,0,0,1,.32,2.58,6,6,0,0,1-1,2.57s0,0,0,0,0,0,0-.06l1.29,1a1.17,1.17,0,0,1,.45.79,1.12,1.12,0,0,1-.26.87,1.13,1.13,0,0,1-.81.46,1.15,1.15,0,0,1-.86-.29l-1.83-1.48a1.22,1.22,0,0,1-.47-.81,1.12,1.12,0,0,1,.26-.87,4.34,4.34,0,0,0,1-2.72,3.1,3.1,0,0,0-1.3-2.42,3.16,3.16,0,0,0-2.46-.73,3.34,3.34,0,0,0-2.23,1.28,3.6,3.6,0,0,0-.7,1.41,4,4,0,0,0-.1,1.58,1.52,1.52,0,0,1-.28,1.06,1.07,1.07,0,0,1-.58.36,1.14,1.14,0,0,1-1.07-.15,1.18,1.18,0,0,1-.41-.81A6,6,0,0,1,181.42,43.82ZM172.05,57.1a1.19,1.19,0,0,1,.71-.6,1.16,1.16,0,0,1,.92.12l14.13,7.73a1.18,1.18,0,0,1,.58.7,1.24,1.24,0,0,1-.81,1.51,1.18,1.18,0,0,1-.91-.13l-.62-.33a5.29,5.29,0,0,1-.13,4.71,5.53,5.53,0,0,1-2.24,2.28,6.18,6.18,0,0,1-3.18.74,7.52,7.52,0,0,1-3.47-1,7.62,7.62,0,0,1-2.7-2.37,6,6,0,0,1-1.1-3.07,5.69,5.69,0,0,1,2.34-5,5.28,5.28,0,0,1,2.12-.92l-5.15-2.81a1.2,1.2,0,0,1-.6-.7A1.14,1.14,0,0,1,172.05,57.1Zm-5,19.78a5.81,5.81,0,0,1,2.16-2.24,6.19,6.19,0,0,1,3.08-.88,6.43,6.43,0,0,1,3.27.79,1.09,1.09,0,0,1,.49.69,1.18,1.18,0,0,1-.13.88l-4.22,7.72a4.34,4.34,0,0,0,3.23.18A4.18,4.18,0,0,0,177.32,82a4.73,4.73,0,0,0,.63-1.88,5.24,5.24,0,0,0-.15-1.59,1.25,1.25,0,0,1,.15-.74.91.91,0,0,1,.6-.48.93.93,0,0,1,.75.08,1.25,1.25,0,0,1,.6.89,6,6,0,0,1,.15,2.28,6.3,6.3,0,0,1-.74,2.39,7.39,7.39,0,0,1-2.45,2.72,6,6,0,0,1-3.23.94,7,7,0,0,1-3.43-.92,7.57,7.57,0,0,1-2.82-2.53,6.29,6.29,0,0,1-1-3.16A5.83,5.83,0,0,1,167.05,76.88Zm-8.57,9.72a1.15,1.15,0,0,1,.71-.57,1.26,1.26,0,0,1,.91.11l1.84,1,1-1.82a1.07,1.07,0,0,1,.66-.54,1.09,1.09,0,0,1,.84.1,1.06,1.06,0,0,1,.53.65,1.14,1.14,0,0,1-.12.84l-1,1.82,6.53,3.57c.73.4,1.28.27,1.64-.39a1.46,1.46,0,0,0,.15-.45,2.23,2.23,0,0,1,.15-.46.68.68,0,0,1,.51-.35,1.06,1.06,0,0,1,.72.13,1.07,1.07,0,0,1,.5,1,2.5,2.5,0,0,1-.32,1.37,5.84,5.84,0,0,1-.88,1.24,2.21,2.21,0,0,1-1.36.65,3.53,3.53,0,0,1-2.16-.57l-6.62-3.62-.7,1.27a1.07,1.07,0,0,1-1.49.44,1,1,0,0,1-.53-.65,1.07,1.07,0,0,1,.11-.83l.7-1.27-1.84-1a1.18,1.18,0,0,1-.59-.71A1.16,1.16,0,0,1,158.48,86.6Zm-.82,7.8a1.15,1.15,0,0,1,.72-.58,1.16,1.16,0,0,1,.91.11l9.5,5.19a1.2,1.2,0,0,1,.58.71,1.21,1.21,0,0,1-.82,1.49,1.18,1.18,0,0,1-.9-.11l-9.5-5.2a1.2,1.2,0,0,1-.59-.7A1.17,1.17,0,0,1,157.66,94.4Zm-3.72-2.06a1.61,1.61,0,0,1,.72-.76,1,1,0,0,1,.88.13l.35.19a1,1,0,0,1,.59.69,2.21,2.21,0,0,1-1,1.81,1,1,0,0,1-.88-.13l-.35-.19a1,1,0,0,1-.59-.71A1.86,1.86,0,0,1,153.94,92.34Zm-1.43,12.1a5.71,5.71,0,0,1,.7-2.26,6.53,6.53,0,0,1,1.54-1.88,4.44,4.44,0,0,1,2.13-1,1.12,1.12,0,0,1,.78.09,1,1,0,0,1,.49.72.91.91,0,0,1-.1.66,1,1,0,0,1-.61.49,3.44,3.44,0,0,0-1.43.68,4.53,4.53,0,0,0-1.1,1.33,3.21,3.21,0,0,0-.43,1.6,1.41,1.41,0,0,0,.83,1.21,1.46,1.46,0,0,0,1.51,0,9.8,9.8,0,0,0,1.81-1.59,13.47,13.47,0,0,1,1.71-1.57,3.83,3.83,0,0,1,1.75-.73,3.36,3.36,0,0,1,2.1.46,3.17,3.17,0,0,1,1.46,1.57,4.33,4.33,0,0,1,.32,2.19,6,6,0,0,1-.7,2.25,7.72,7.72,0,0,1-1.88,2.29,5.35,5.35,0,0,1-2.62,1.14,1.28,1.28,0,0,1-.7-.12,1,1,0,0,1-.5-.87,1,1,0,0,1,.12-.59,1.18,1.18,0,0,1,.73-.54,5.25,5.25,0,0,0,1.89-.81,4.44,4.44,0,0,0,1.36-1.6,3.54,3.54,0,0,0,.42-1.68,1.42,1.42,0,0,0-.82-1.28,1.47,1.47,0,0,0-1.5,0,8.46,8.46,0,0,0-1.76,1.51,16.87,16.87,0,0,1-1.8,1.66,4.15,4.15,0,0,1-1.81.79,3.52,3.52,0,0,1-3.54-1.94A4.27,4.27,0,0,1,152.51,104.44ZM149,110.29a1.16,1.16,0,0,1,.72-.59,1.2,1.2,0,0,1,.91.11l9.5,5.2a1.18,1.18,0,0,1,.58.7,1.14,1.14,0,0,1-.11.93,1.09,1.09,0,0,1-.7.56,1.16,1.16,0,0,1-.91-.11l-9.5-5.19a1.17,1.17,0,0,1-.58-.71A1.09,1.09,0,0,1,149,110.29Zm-3.72-2.06a1.57,1.57,0,0,1,.72-.76,1.05,1.05,0,0,1,.89.12l.35.2a1,1,0,0,1,.59.69,1.68,1.68,0,0,1-.28,1,1.63,1.63,0,0,1-.72.78,1,1,0,0,1-.89-.13l-.35-.19a1,1,0,0,1-.58-.7A1.74,1.74,0,0,1,145.25,108.23Zm-3.65,14.66a1.18,1.18,0,0,1,.52-.47,1.25,1.25,0,0,1,.73-.1l9.44,1.45-5.44-7.85a1.13,1.13,0,0,1-.06-1.31,1.11,1.11,0,0,1,.68-.52,1,1,0,0,1,.8.12,1.76,1.76,0,0,1,.44.48l6.63,9.76a1.23,1.23,0,0,1,.22.63,1.12,1.12,0,0,1-.12.63,1.16,1.16,0,0,1-.52.55,1.21,1.21,0,0,1-.78.11l-11.68-1.7a2.29,2.29,0,0,1-.59-.22,1,1,0,0,1-.45-.66A1.19,1.19,0,0,1,141.6,122.89Zm-8.53,24a1.31,1.31,0,0,1,.84.53l.29.37a1.3,1.3,0,0,1,.33.94,1.24,1.24,0,0,1-.51.84l-.2.15a1.17,1.17,0,0,1-.93.31,1.27,1.27,0,0,1-.84-.53l-.3-.37a1.27,1.27,0,0,1-.33-.93,1.18,1.18,0,0,1,.52-.84l.19-.16A1.24,1.24,0,0,1,133.07,146.87Zm-12-9.88a6.29,6.29,0,0,1,4.41-3.29,5.52,5.52,0,0,1,5.31,2.08,5.3,5.3,0,0,1,1.14,2.5,5.21,5.21,0,0,1-.26,2.59,5.92,5.92,0,0,1-1.5,2.29s0,0,0,0,0,0,0-.05l1,1.29a1.2,1.2,0,0,1,.27.88,1.18,1.18,0,0,1-.44.8,1.2,1.2,0,0,1-.9.26,1.13,1.13,0,0,1-.77-.47l-1.46-1.84a1.21,1.21,0,0,1-.28-.9,1.07,1.07,0,0,1,.44-.79,4.39,4.39,0,0,0,1.56-2.44,3.46,3.46,0,0,0-3-3.89,3.33,3.33,0,0,0-2.46.76,3.56,3.56,0,0,0-1,1.22,4.09,4.09,0,0,0-.44,1.52,1.54,1.54,0,0,1-.5,1,1.07,1.07,0,0,1-.65.23,1.07,1.07,0,0,1-1.23-1.26A5.93,5.93,0,0,1,121.05,137ZM105.5,152.28a5.7,5.7,0,0,1,4.65-2.91,5.36,5.36,0,0,1,2.29.37l-2.82-5.15a1.15,1.15,0,0,1-.13-.91,1.1,1.1,0,0,1,.58-.71,1.2,1.2,0,0,1,.92-.12,1.19,1.19,0,0,1,.71.6l7.73,14.12a1.21,1.21,0,0,1,.11.91,1.14,1.14,0,0,1-.59.72,1.1,1.1,0,0,1-.91.11,1.17,1.17,0,0,1-.7-.6l-.33-.61a5,5,0,0,1-.82,2.18,4.9,4.9,0,0,1-1.84,1.72,5.56,5.56,0,0,1-3.12.71,6.09,6.09,0,0,1-3.07-1.1,7.46,7.46,0,0,1-2.39-2.69,7.78,7.78,0,0,1-1-3.46A6.17,6.17,0,0,1,105.5,152.28Zm-12.57,6.85a5.73,5.73,0,0,1,2.25-2.2,5.9,5.9,0,0,1,3-.72,6.31,6.31,0,0,1,3.07.92,6.39,6.39,0,0,1,2.32,2.43,1,1,0,0,1,0,.85,1.21,1.21,0,0,1-.57.67l-7.72,4.22A4.32,4.32,0,0,0,98,167.2a4.2,4.2,0,0,0,3.12-.45,4.64,4.64,0,0,0,1.55-1.25,5,5,0,0,0,.73-1.42,1.34,1.34,0,0,1,.53-.55,1,1,0,0,1,.76-.08,1,1,0,0,1,.59.48,1.21,1.21,0,0,1,0,1.07,5.88,5.88,0,0,1-1.1,2,6.28,6.28,0,0,1-1.91,1.62,7.39,7.39,0,0,1-3.53,1,5.92,5.92,0,0,1-3.23-1A7,7,0,0,1,93.11,166a7.57,7.57,0,0,1-1-3.65A6.24,6.24,0,0,1,92.93,159.13ZM81.44,165.3a1.08,1.08,0,0,1,.55-.64l1.27-.7-1-1.84a1.21,1.21,0,0,1-.11-.91,1.16,1.16,0,0,1,.59-.72,1.14,1.14,0,0,1,.9-.1,1.22,1.22,0,0,1,.71.59l1,1.84,1.82-1a1,1,0,0,1,.84-.11,1.12,1.12,0,0,1,.65.54,1.07,1.07,0,0,1,.1.83,1.08,1.08,0,0,1-.55.64l-1.82,1L90,171.27c.4.73.93.91,1.59.55a1.61,1.61,0,0,0,.38-.3,1.77,1.77,0,0,1,.37-.31.69.69,0,0,1,.61,0,1.1,1.1,0,0,1,.54.51,1.06,1.06,0,0,1-.1,1.07,2.42,2.42,0,0,1-1,1,5.49,5.49,0,0,1-1.41.57,2.19,2.19,0,0,1-1.5-.19,3.49,3.49,0,0,1-1.51-1.64l-3.62-6.62-1.28.69a1.06,1.06,0,0,1-1.49-.43A1,1,0,0,1,81.44,165.3Zm-2.68,1.21a1.17,1.17,0,0,1,.71.58l5.19,9.5a1.16,1.16,0,0,1,.11.91,1.13,1.13,0,0,1-.59.72,1.09,1.09,0,0,1-.9.09,1.15,1.15,0,0,1-.7-.58l-5.2-9.5a1.16,1.16,0,0,1-.11-.91,1.12,1.12,0,0,1,.57-.71A1.15,1.15,0,0,1,78.76,166.51ZM75,163.59a1.82,1.82,0,0,1,.79-.72,1.54,1.54,0,0,1,1-.25,1,1,0,0,1,.68.58l.19.35a1,1,0,0,1,.12.91,1.72,1.72,0,0,1-.78.71,1.55,1.55,0,0,1-1,.26,1,1,0,0,1-.68-.58l-.19-.35A1,1,0,0,1,75,163.59Zm-7.82,10.69a4.25,4.25,0,0,1,.86-2,5.6,5.6,0,0,1,1.8-1.53,6.82,6.82,0,0,1,2.31-.75,4.46,4.46,0,0,1,2.36.28,1.09,1.09,0,0,1,.61.49,1,1,0,0,1,0,.87.89.89,0,0,1-.44.5.94.94,0,0,1-.78.08,3.6,3.6,0,0,0-1.57-.19,4.15,4.15,0,0,0-1.64.53,3.19,3.19,0,0,0-1.23,1.11,1.42,1.42,0,0,0,0,1.47,1.46,1.46,0,0,0,1.29.77,9.11,9.11,0,0,0,2.39-.36,14.2,14.2,0,0,1,2.29-.4,3.88,3.88,0,0,1,1.86.34A3.32,3.32,0,0,1,78.91,177a3.23,3.23,0,0,1,.38,2.11,4.36,4.36,0,0,1-.91,2,5.78,5.78,0,0,1-1.81,1.51,7.54,7.54,0,0,1-2.82.92,5.34,5.34,0,0,1-2.82-.45,1.22,1.22,0,0,1-.52-.48,1,1,0,0,1,0-1,1,1,0,0,1,.42-.43,1.14,1.14,0,0,1,.91-.07,5.35,5.35,0,0,0,2,.35,4.78,4.78,0,0,0,2-.62,3.7,3.7,0,0,0,1.26-1.19,1.42,1.42,0,0,0,0-1.52,1.44,1.44,0,0,0-1.27-.79,8.53,8.53,0,0,0-2.29.32,15.23,15.23,0,0,1-2.42.42,4.07,4.07,0,0,1-1.95-.3,3.51,3.51,0,0,1-1.94-3.54Zm-4.33.91a1.18,1.18,0,0,1,.71.59l5.19,9.49a1.17,1.17,0,0,1,.11.91,1.22,1.22,0,0,1-1.49.82,1.17,1.17,0,0,1-.7-.59l-5.2-9.49a1.21,1.21,0,0,1-.11-.91,1.13,1.13,0,0,1,.57-.71A1.16,1.16,0,0,1,62.88,175.19Zm-3.73-2.92a1.75,1.75,0,0,1,.79-.71,1.57,1.57,0,0,1,1-.26,1,1,0,0,1,.67.59l.19.35a1,1,0,0,1,.13.9,2.22,2.22,0,0,1-1.82,1,1.06,1.06,0,0,1-.68-.59l-.19-.35A1,1,0,0,1,59.15,172.27ZM48.2,184.19a1.15,1.15,0,0,1,.53-.74,1.27,1.27,0,0,1,.67-.22,1.19,1.19,0,0,1,.7.21l8,5.23-1.69-9.4a1.14,1.14,0,0,1,.48-1.22,1.06,1.06,0,0,1,.84-.18,1,1,0,0,1,.68.43,1.79,1.79,0,0,1,.2.62l2,11.63a1.38,1.38,0,0,1-.07.67,1.23,1.23,0,0,1-1.07.8,1.29,1.29,0,0,1-.76-.22l-9.92-6.38a1.9,1.9,0,0,1-.45-.45A1,1,0,0,1,48.2,184.19ZM42.07,202.9l.17-.18a1.23,1.23,0,0,1,.89-.43,1.3,1.3,0,0,1,.9.42l.34.34a1.25,1.25,0,0,1,.44.88,1.21,1.21,0,0,1-.4.9l-.17.18a1.23,1.23,0,0,1-.89.43,1.36,1.36,0,0,1-.9-.43l-.34-.33a1.23,1.23,0,0,1-.44-.88A1.16,1.16,0,0,1,42.07,202.9ZM30,194a6.24,6.24,0,0,1,1.41-2.24,6,6,0,0,1,2.55-1.58,5.49,5.49,0,0,1,2.9-.09,5.61,5.61,0,0,1,2.63,1.48,5.22,5.22,0,0,1,1.44,2.33,5.13,5.13,0,0,1,.08,2.61,5.88,5.88,0,0,1-1.2,2.46s0,0,0,0,0,0,0-.05L41,200.1a1.17,1.17,0,0,1,.37.84,1.12,1.12,0,0,1-.33.84,1.11,1.11,0,0,1-.85.37,1.07,1.07,0,0,1-.83-.37l-1.68-1.64a1.19,1.19,0,0,1-.39-.85,1.12,1.12,0,0,1,.33-.84,4.34,4.34,0,0,0,1.24-2.62,3.46,3.46,0,0,0-3.45-3.48,3.31,3.31,0,0,0-2.34,1.06,3.75,3.75,0,0,0-.84,1.34,4.17,4.17,0,0,0-.24,1.56,1.53,1.53,0,0,1-.38,1,1.05,1.05,0,0,1-.61.31,1.17,1.17,0,0,1-1-.25,1.21,1.21,0,0,1-.33-.85A6,6,0,0,1,30,194ZM19,206.9a1.16,1.16,0,0,1,1.65-.4l13.76,8.35a1.2,1.2,0,0,1,.56.73,1.17,1.17,0,0,1-.15.92,1.13,1.13,0,0,1-.73.55,1.2,1.2,0,0,1-.91-.17l-.6-.36a5,5,0,0,1,.39,2.3,4.88,4.88,0,0,1-.73,2.4,5.64,5.64,0,0,1-2.34,2.18,6.08,6.08,0,0,1-3.21.59,7.47,7.47,0,0,1-3.42-1.14,7.68,7.68,0,0,1-2.6-2.49,6.19,6.19,0,0,1-1-3.11,5.54,5.54,0,0,1,.82-3,5.42,5.42,0,0,1,1.75-1.81,5.13,5.13,0,0,1,2.16-.82l-5-3.05a1.2,1.2,0,0,1-.57-.73A1.13,1.13,0,0,1,19,206.9Zm-5.49,21.38a5.86,5.86,0,0,1,1.9-2.46,6.1,6.1,0,0,1,2.95-1.22,6.55,6.55,0,0,1,3.34.41,1.1,1.1,0,0,1,.57.64,1.27,1.27,0,0,1,0,.88l-3.33,8.15a4.36,4.36,0,0,0,3.23-.18,4.23,4.23,0,0,0,2.14-2.33,4.63,4.63,0,0,0,.41-1.94,4.53,4.53,0,0,0-.33-1.56,1.45,1.45,0,0,1,.07-.76,1,1,0,0,1,.54-.55,1,1,0,0,1,.76,0,1.26,1.26,0,0,1,.69.82,5.87,5.87,0,0,1,.41,2.25,6.34,6.34,0,0,1-.47,2.46,7.2,7.2,0,0,1-2.13,3,5.93,5.93,0,0,1-3.09,1.31,7.16,7.16,0,0,1-3.52-.53,7.63,7.63,0,0,1-3.08-2.19,6.26,6.26,0,0,1-1.4-3A5.8,5.8,0,0,1,13.48,228.28ZM6.37,240.59a1.12,1.12,0,0,1,.55-.72,1.2,1.2,0,0,1,.91-.1l2,.54.54-2a1.09,1.09,0,0,1,.5-.68,1,1,0,0,1,.85-.09,1,1,0,0,1,.66.5,1.1,1.1,0,0,1,.09.84l-.54,2,7.19,1.94c.81.22,1.31,0,1.5-.76a2,2,0,0,0,0-.48,2,2,0,0,1,0-.48.65.65,0,0,1,.41-.46,1.06,1.06,0,0,1,.73,0,1,1,0,0,1,.71.82,2.47,2.47,0,0,1,0,1.4,6.48,6.48,0,0,1-.57,1.41,2.23,2.23,0,0,1-1.17,1,3.54,3.54,0,0,1-2.23,0l-7.29-2-.38,1.4a1,1,0,0,1-.51.68,1.06,1.06,0,0,1-.84.1,1,1,0,0,1-.66-.5,1.11,1.11,0,0,1-.09-.84l.38-1.4-2-.55a1.2,1.2,0,0,1-.73-.55A1.09,1.09,0,0,1,6.37,240.59Zm14.18,11a1.12,1.12,0,0,1-.5.76,1.18,1.18,0,0,1-.9.18l-10.64-2a1.15,1.15,0,0,1-.77-.48,1.13,1.13,0,0,1-.2-.89,1.19,1.19,0,0,1,1.4-1l10.65,2a1.17,1.17,0,0,1,.77.49A1.14,1.14,0,0,1,20.55,251.57ZM6,258.85a6.63,6.63,0,0,1,.66-2.34,4.65,4.65,0,0,1,1.55-1.81,1.16,1.16,0,0,1,.75-.23,1.1,1.1,0,0,1,.74.47.87.87,0,0,1,.16.64,1,1,0,0,1-.36.7,3.46,3.46,0,0,0-1,1.2A4.3,4.3,0,0,0,8,259.13a3.08,3.08,0,0,0,.24,1.64,1.41,1.41,0,0,0,1.25.78,1.46,1.46,0,0,0,1.36-.64,9.75,9.75,0,0,0,1-2.18,13.16,13.16,0,0,1,.95-2.12,3.79,3.79,0,0,1,1.31-1.36,3.25,3.25,0,0,1,2.11-.41,3.2,3.2,0,0,1,2,.85,4.37,4.37,0,0,1,1.16,1.88,5.93,5.93,0,0,1,.25,2.34,7.73,7.73,0,0,1-.81,2.85,5.45,5.45,0,0,1-1.95,2.1,1.25,1.25,0,0,1-.7.16,1.16,1.16,0,0,1-.92-1.19,1.18,1.18,0,0,1,.45-.79,5.25,5.25,0,0,0,1.42-1.49,4.58,4.58,0,0,0,.61-2,3.55,3.55,0,0,0-.28-1.71,1.42,1.42,0,0,0-1.27-.84,1.44,1.44,0,0,0-1.36.61,8.91,8.91,0,0,0-1,2.08,15.45,15.45,0,0,1-1,2.25,4.08,4.08,0,0,1-1.33,1.44,3.14,3.14,0,0,1-2.11.45A3.17,3.17,0,0,1,7.46,263a4.13,4.13,0,0,1-1.17-1.81A5.51,5.51,0,0,1,6,258.85Zm-2.19,11a1,1,0,0,1-.84.32H2.6a1,1,0,0,1-.85-.34,1.73,1.73,0,0,1-.25-1,1.61,1.61,0,0,1,.26-1,1,1,0,0,1,.84-.31H3a1,1,0,0,1,.85.32,1.68,1.68,0,0,1,.25,1A1.62,1.62,0,0,1,3.84,269.84ZM4.59,250l-.39-.07a1,1,0,0,1-.77-.49,1.67,1.67,0,0,1-.06-1.07,1.51,1.51,0,0,1,.44-.94,1,1,0,0,1,.88-.16l.4.07a1,1,0,0,1,.77.48,1.6,1.6,0,0,1,.06,1.05,1.6,1.6,0,0,1-.45,1A1,1,0,0,1,4.59,250ZM6.1,267.94A1.2,1.2,0,0,1,7,267.6H17.77a1.18,1.18,0,0,1,.86.34,1.21,1.21,0,0,1,0,1.7,1.21,1.21,0,0,1-.85.33H7a1.16,1.16,0,0,1-.85-.34,1.11,1.11,0,0,1-.35-.83A1.18,1.18,0,0,1,6.1,267.94Zm1.1,17.31a1.11,1.11,0,0,1-.41-.81,1.16,1.16,0,0,1,.12-.69,1.23,1.23,0,0,1,.51-.53l8.35-4.64-9.11-2.87a1.14,1.14,0,0,1-.86-1,1.12,1.12,0,0,1,.23-.82,1,1,0,0,1,.7-.4,1.57,1.57,0,0,1,.64.11l11.23,3.64a1.25,1.25,0,0,1,.56.37,1.15,1.15,0,0,1,.29.57,1.14,1.14,0,0,1-.08.75,1.24,1.24,0,0,1-.54.57L8.56,285.31a1.81,1.81,0,0,1-.61.19A1,1,0,0,1,7.2,285.25Zm8.42,20.89a3.11,3.11,0,0,0-2.75,0,3.12,3.12,0,0,0-1.82,1.79,3.35,3.35,0,0,0,0,2.58,3.69,3.69,0,0,0,.89,1.29,4.19,4.19,0,0,0,1.33.85,1.53,1.53,0,0,1,.8.76,1,1,0,0,1,0,.68,1.11,1.11,0,0,1-.65.86,1.13,1.13,0,0,1-.9,0,5.92,5.92,0,0,1-2.19-1.34,6.18,6.18,0,0,1-1.49-2.19,5.92,5.92,0,0,1-.42-3,5.41,5.41,0,0,1,1.07-2.69A5.55,5.55,0,0,1,12,303.89a5.41,5.41,0,0,1,2.71-.39,5.19,5.19,0,0,1,2.42,1,6,6,0,0,1,1.78,2.09h0s0,0,0-.05l1.53-.62a1.18,1.18,0,0,1,.92,0,1.12,1.12,0,0,1,.64.64,1.16,1.16,0,0,1,0,.93,1.09,1.09,0,0,1-.67.61L19.1,309a1.2,1.2,0,0,1-.93,0,1.13,1.13,0,0,1-.65-.65A4.34,4.34,0,0,0,15.62,306.14Zm15.19,26.53a6,6,0,0,1-3.23-.36A5.69,5.69,0,0,1,24.16,328a5.27,5.27,0,0,1,.12-2.32l-4.81,3.38a1.17,1.17,0,0,1-.89.23,1.15,1.15,0,0,1-.77-.5,1.15,1.15,0,0,1,.3-1.67l13.17-9.26a1.17,1.17,0,0,1,.89-.21,1.09,1.09,0,0,1,.78.5,1.13,1.13,0,0,1,.21.89,1.17,1.17,0,0,1-.52.76l-.57.4a5.14,5.14,0,0,1,2.26.57,4.87,4.87,0,0,1,1.91,1.63,5.58,5.58,0,0,1,1.06,3,6.06,6.06,0,0,1-.75,3.18,7.56,7.56,0,0,1-2.41,2.68A7.75,7.75,0,0,1,30.81,332.67ZM23.26,304.8a1.27,1.27,0,0,1,.74-.65l.44-.18a1.28,1.28,0,0,1,1-.05,1.22,1.22,0,0,1,.67.73l.09.23a1.25,1.25,0,0,1,0,1,1.34,1.34,0,0,1-.75.66l-.44.17a1.28,1.28,0,0,1-1,.06,1.23,1.23,0,0,1-.66-.73l-.1-.23A1.23,1.23,0,0,1,23.26,304.8ZM37.94,344a5.8,5.8,0,0,1-2.73-1.58,5.88,5.88,0,0,1-1.5-2.73,6.21,6.21,0,0,1,.06-3.2,6.5,6.5,0,0,1,1.72-2.89,1,1,0,0,1,.8-.26,1.16,1.16,0,0,1,.8.37L43.23,340a4.37,4.37,0,0,0,1.13-3,4.24,4.24,0,0,0-1.28-2.89,4.58,4.58,0,0,0-1.61-1.15,4.78,4.78,0,0,0-1.57-.32,1.41,1.41,0,0,1-.66-.37.94.94,0,0,1-.29-.72,1,1,0,0,1,.3-.69,1.22,1.22,0,0,1,1-.3,5.66,5.66,0,0,1,2.22.52,6.24,6.24,0,0,1,2.07,1.41,7.22,7.22,0,0,1,1.88,3.14A5.91,5.91,0,0,1,46.4,339a7.07,7.07,0,0,1-1.88,3,7.65,7.65,0,0,1-3.25,1.95A6.19,6.19,0,0,1,37.94,344Zm9.84,8.93L46.65,352l-1.31,1.64a1.2,1.2,0,0,1-.8.46,1.22,1.22,0,0,1-1.33-1.06,1.18,1.18,0,0,1,.27-.88l1.31-1.64-1.62-1.29a1.07,1.07,0,0,1-.17-1.55,1,1,0,0,1,.72-.41,1.09,1.09,0,0,1,.81.26l1.62,1.29L50.8,343a1.06,1.06,0,0,0-.1-1.68,2,2,0,0,0-.43-.23,1.85,1.85,0,0,1-.43-.23.69.69,0,0,1-.25-.55,1,1,0,0,1,.26-.69,1.09,1.09,0,0,1,1-.33,2.47,2.47,0,0,1,1.29.55,6.05,6.05,0,0,1,1.07,1.08,2.2,2.2,0,0,1,.4,1.46,3.48,3.48,0,0,1-.93,2L48,350.31l1.14.91a1.06,1.06,0,0,1,.17,1.54,1,1,0,0,1-.73.41A1.07,1.07,0,0,1,47.78,352.92Zm3.77,6.29-.22.33a1,1,0,0,1-.76.52,1.8,1.8,0,0,1-1-.38,1.62,1.62,0,0,1-.69-.78,1.07,1.07,0,0,1,.21-.87l.22-.33a1,1,0,0,1,.75-.52,1.67,1.67,0,0,1,1,.36,1.6,1.6,0,0,1,.71.8A1,1,0,0,1,51.55,359.21Zm1.31-2.86a1.13,1.13,0,0,1-.89-.17,1.17,1.17,0,0,1-.32-1.67l6.06-9a1.17,1.17,0,0,1,1.66-.33,1.13,1.13,0,0,1,.5.76,1.17,1.17,0,0,1-.2.9l-6.05,9A1.18,1.18,0,0,1,52.86,356.35Zm11.57,5.43a4.2,4.2,0,0,1-2.13.3,5.56,5.56,0,0,1-2.24-.75,6.44,6.44,0,0,1-1.85-1.58,4.54,4.54,0,0,1-1-2.16,1.09,1.09,0,0,1,.1-.77,1.13,1.13,0,0,1,.74-.48,1,1,0,0,1,1.13.74,3.51,3.51,0,0,0,.65,1.45,4.45,4.45,0,0,0,1.3,1.12,3.15,3.15,0,0,0,1.59.47,1.37,1.37,0,0,0,1.23-.81,1.42,1.42,0,0,0,0-1.5A9.53,9.53,0,0,0,62.4,356a12.94,12.94,0,0,1-1.53-1.75,3.8,3.8,0,0,1-.68-1.76,3.58,3.58,0,0,1,2.11-3.52,4.29,4.29,0,0,1,2.18-.26,5.72,5.72,0,0,1,2.24.75A7.57,7.57,0,0,1,69,351.35,5.45,5.45,0,0,1,70.06,354a1.26,1.26,0,0,1-.15.69,1,1,0,0,1-.88.48,1,1,0,0,1-.58-.14,1.13,1.13,0,0,1-.53-.73,5.14,5.14,0,0,0-.76-1.91,4.6,4.6,0,0,0-1.57-1.4,3.54,3.54,0,0,0-1.67-.46,1.56,1.56,0,0,0-1.31,2.29,8.31,8.31,0,0,0,1.46,1.8,14.29,14.29,0,0,1,1.62,1.84,4.19,4.19,0,0,1,.76,1.82,3.16,3.16,0,0,1-.48,2.1A3.21,3.21,0,0,1,64.43,361.78Zm3.8,7-.19.35a1,1,0,0,1-.7.58,1.69,1.69,0,0,1-1-.28,1.56,1.56,0,0,1-.76-.71,1,1,0,0,1,.12-.89l.2-.35a1,1,0,0,1,.69-.59,1.68,1.68,0,0,1,1,.28,1.63,1.63,0,0,1,.78.72A1,1,0,0,1,68.23,368.75Zm1-3a1.09,1.09,0,0,1-.9-.09,1.16,1.16,0,0,1-.59-.72,1.2,1.2,0,0,1,.11-.91l5.2-9.5a1.15,1.15,0,0,1,.7-.58,1.18,1.18,0,0,1,.93.1,1.11,1.11,0,0,1,.56.71,1.16,1.16,0,0,1-.11.91L70,365.2A1.17,1.17,0,0,1,69.27,365.78Zm13.78,6a2.2,2.2,0,0,1-.19.61,1,1,0,0,1-.63.48,1.16,1.16,0,0,1-.9-.13,1.19,1.19,0,0,1-.65-1.21l.89-9.51-7.52,5.89a1.13,1.13,0,0,1-1.3.14,1.09,1.09,0,0,1-.55-.66,1,1,0,0,1,.07-.8,1.57,1.57,0,0,1,.45-.46l9.35-7.2a1.35,1.35,0,0,1,.62-.26,1.37,1.37,0,0,1,.64.09,1.14,1.14,0,0,1,.57.49,1.19,1.19,0,0,1,.16.77Zm17.48,2.95-1.13,2.06a1.16,1.16,0,0,1-.71.6,1.12,1.12,0,0,1-.91-.09,4.3,4.3,0,0,0-2.85-.49,3.45,3.45,0,0,0-2.43,4.25,3.34,3.34,0,0,0,1.66,2,3.77,3.77,0,0,0,1.51.44,4.16,4.16,0,0,0,1.57-.18,1.47,1.47,0,0,1,1.09.08,1,1,0,0,1,.46.51,1.07,1.07,0,0,1-.68,1.62,5.9,5.9,0,0,1-2.54.35,6.28,6.28,0,0,1-2.54-.76,6,6,0,0,1-2.21-2,5.53,5.53,0,0,1-.14-5.7,5.41,5.41,0,0,1,1.85-2,5.31,5.31,0,0,1,2.49-.77,6,6,0,0,1,2.7.49h0s0,0-.06,0l.79-1.45a1.2,1.2,0,0,1,.7-.59,1.22,1.22,0,0,1,1.49.82A1.11,1.11,0,0,1,100.53,374.76Zm2.28-3.86-.23.42a1.34,1.34,0,0,1-.73.67,1.26,1.26,0,0,1-1-.15l-.22-.12A1.25,1.25,0,0,1,100,371a1.32,1.32,0,0,1,.17-1l.23-.42a1.26,1.26,0,0,1,.73-.66,1.19,1.19,0,0,1,1,.14l.22.12a1.25,1.25,0,0,1,.65.74A1.27,1.27,0,0,1,102.81,370.9Zm17.9,19.86a6.08,6.08,0,0,1-3.07,1.09,5.69,5.69,0,0,1-5-2.36,5.11,5.11,0,0,1-.91-2.13l-2.84,5.14a1.17,1.17,0,0,1-.7.6,1.14,1.14,0,0,1-.91-.11,1.16,1.16,0,0,1-.59-.72,1.14,1.14,0,0,1,.12-.91l7.78-14.1a1.17,1.17,0,0,1,1.63-.47,1.13,1.13,0,0,1,.58.71,1.24,1.24,0,0,1-.13.91l-.34.61a5.1,5.1,0,0,1,2.28-.48,5,5,0,0,1,2.43.63,5.47,5.47,0,0,1,2.27,2.25,6.07,6.07,0,0,1,.73,3.18,8.18,8.18,0,0,1-3.38,6.16ZM129,400a5.83,5.83,0,0,1-4.74-3.73,6.22,6.22,0,0,1-.35-3.18,6.54,6.54,0,0,1,1.33-3.09,1.07,1.07,0,0,1,.77-.37,1.18,1.18,0,0,1,.84.27l6.9,5.47a4.4,4.4,0,0,0,.73-3.15,4.3,4.3,0,0,0-1.64-2.71,4.61,4.61,0,0,0-1.75-.93,4.76,4.76,0,0,0-1.59-.12,1.38,1.38,0,0,1-.71-.28.92.92,0,0,1-.37-.67,1,1,0,0,1,.21-.73,1.23,1.23,0,0,1,1-.44,6.18,6.18,0,0,1,2.27.24,6.53,6.53,0,0,1,2.23,1.13,7.22,7.22,0,0,1,2.26,2.88,6,6,0,0,1,.39,3.34,7.06,7.06,0,0,1-1.49,3.22,7.67,7.67,0,0,1-3,2.36A6.29,6.29,0,0,1,129,400Zm9.36,15.07-.32.25a1,1,0,0,1-.88.25,1.74,1.74,0,0,1-.83-.67,1.55,1.55,0,0,1-.41-1,1.05,1.05,0,0,1,.47-.76l.32-.24a1,1,0,0,1,.87-.26,1.59,1.59,0,0,1,.82.65,1.62,1.62,0,0,1,.43,1A1,1,0,0,1,138.38,415.06Zm.38-6.29a1,1,0,0,1-.78.31,1.13,1.13,0,0,1-.76-.37l-1-1.06-1.53,1.44a1.2,1.2,0,0,1-.85.33A1.12,1.12,0,0,1,133,409a1.14,1.14,0,0,1-.32-.85,1.23,1.23,0,0,1,.39-.83l1.54-1.43-1.42-1.52a1,1,0,0,1-.31-.79,1,1,0,0,1,.36-.76,1,1,0,0,1,.78-.3,1,1,0,0,1,.75.37l1.42,1.51,5.44-5.1c.6-.57.65-1.13.14-1.67a1.78,1.78,0,0,0-.39-.29,1.78,1.78,0,0,1-.39-.29.63.63,0,0,1-.17-.58,1.11,1.11,0,0,1,.35-.65,1.08,1.08,0,0,1,1.07-.18,2.56,2.56,0,0,1,1.2.73,5.85,5.85,0,0,1,.9,1.23,2.18,2.18,0,0,1,.19,1.5,3.56,3.56,0,0,1-1.21,1.87l-5.5,5.16,1,1.06a1.09,1.09,0,0,1,.31.79A1.05,1.05,0,0,1,138.76,408.77Zm2.64,3.74a1.15,1.15,0,0,1-.88.25,1.08,1.08,0,0,1-.79-.44,1.12,1.12,0,0,1-.25-.9,1.18,1.18,0,0,1,.46-.79l8.57-6.61a1.19,1.19,0,0,1,.88-.26,1.18,1.18,0,0,1,.8.47,1.1,1.1,0,0,1,.24.88,1.19,1.19,0,0,1-.47.79Zm5.87,17.3-.35.19a1,1,0,0,1-.91.11,1.82,1.82,0,0,1-.72-.79,1.54,1.54,0,0,1-.25-1,1,1,0,0,1,.58-.68l.35-.19a1,1,0,0,1,.91-.12,1.72,1.72,0,0,1,.71.78,1.55,1.55,0,0,1,.26,1A1,1,0,0,1,147.27,429.81Zm.86-7.75a4.27,4.27,0,0,1-2-.77,5.58,5.58,0,0,1-1.61-1.73,6.9,6.9,0,0,1-.86-2.27,4.51,4.51,0,0,1,.17-2.37,1.14,1.14,0,0,1,.46-.63,1.06,1.06,0,0,1,.87-.06.87.87,0,0,1,.52.41.92.92,0,0,1,.12.78,3.5,3.5,0,0,0-.12,1.58,4.28,4.28,0,0,0,.6,1.61,3.23,3.23,0,0,0,1.17,1.18,1.41,1.41,0,0,0,1.47-.12,1.44,1.44,0,0,0,.71-1.33,9.54,9.54,0,0,0-.47-2.36,13.37,13.37,0,0,1-.5-2.27,3.8,3.8,0,0,1,.24-1.88,3.34,3.34,0,0,1,1.45-1.58,3.17,3.17,0,0,1,2.09-.48,4.26,4.26,0,0,1,2.05.81,5.8,5.8,0,0,1,1.6,1.74,7.45,7.45,0,0,1,1,2.77,5.35,5.35,0,0,1-.31,2.84,1.34,1.34,0,0,1-.46.55,1,1,0,0,1-1,0,1,1,0,0,1-.45-.4,1.15,1.15,0,0,1-.11-.9,5.29,5.29,0,0,0,.25-2,4.58,4.58,0,0,0-.71-2,3.49,3.49,0,0,0-1.24-1.21,1.56,1.56,0,0,0-2.25,1.39,8.43,8.43,0,0,0,.42,2.27,16.9,16.9,0,0,1,.54,2.4,4.22,4.22,0,0,1-.22,2,3.13,3.13,0,0,1-1.43,1.61A3.24,3.24,0,0,1,148.13,422.06Zm1.61,5.81a1.12,1.12,0,0,1-.71-.57,1.15,1.15,0,0,1-.1-.92,1.17,1.17,0,0,1,.58-.71l9.5-5.19a1.16,1.16,0,0,1,.91-.11,1.13,1.13,0,0,1,.72.59,1.09,1.09,0,0,1,.09.9,1.15,1.15,0,0,1-.58.7l-9.5,5.2A1.16,1.16,0,0,1,149.74,427.87Zm7.87,12.93a1,1,0,0,1-.79.06,1.13,1.13,0,0,1-.69-.59,1.18,1.18,0,0,1-.16-.68,1.31,1.31,0,0,1,.26-.69l5.89-7.52-9.51.9a1.13,1.13,0,0,1-1.17-.58,1.11,1.11,0,0,1-.11-.85,1,1,0,0,1,.49-.64,1.6,1.6,0,0,1,.63-.15l11.76-1a1.35,1.35,0,0,1,.66.13,1.1,1.1,0,0,1,.49.41,1.18,1.18,0,0,1,.22.72,1.26,1.26,0,0,1-.28.74l-7.2,9.35A2.08,2.08,0,0,1,157.61,440.8Zm11.22,16.52a3.46,3.46,0,0,0-4.34,2.28,3.28,3.28,0,0,0,.33,2.55,3.57,3.57,0,0,0,1,1.19,4.07,4.07,0,0,0,1.42.69,1.52,1.52,0,0,1,.87.66,1.07,1.07,0,0,1,.12.68,1.08,1.08,0,0,1-1.45,1,6.05,6.05,0,0,1-2.33-1.08,6.2,6.2,0,0,1-1.72-2,5.86,5.86,0,0,1-.77-2.9,5.54,5.54,0,0,1,2.95-4.88,5.24,5.24,0,0,1,2.66-.69,5.07,5.07,0,0,1,2.51.69,6,6,0,0,1,2,1.87h0s0,0,0-.05l1.45-.79a1.16,1.16,0,0,1,.91-.11,1.09,1.09,0,0,1,.7.56,1.14,1.14,0,0,1,.11.93,1.08,1.08,0,0,1-.59.68l-2.07,1.13a1.17,1.17,0,0,1-.93.12,1.09,1.09,0,0,1-.7-.56A4.36,4.36,0,0,0,168.83,457.32Zm11.24,25a5.71,5.71,0,0,1-3-4.57,5.21,5.21,0,0,1,.32-2.29l-5.08,3a1.24,1.24,0,0,1-.91.15,1.15,1.15,0,0,1-.72-.57,1.19,1.19,0,0,1-.14-.91,1.16,1.16,0,0,1,.58-.73L185,468.27a1.17,1.17,0,0,1,.91-.13,1.09,1.09,0,0,1,.73.57,1.12,1.12,0,0,1,.14.9,1.17,1.17,0,0,1-.59.71l-.6.36a5,5,0,0,1,2.2.75,5.09,5.09,0,0,1,1.77,1.8,5.62,5.62,0,0,1,.78,3.1,6.09,6.09,0,0,1-1,3.1,8.16,8.16,0,0,1-6.07,3.54A6,6,0,0,1,180.07,482.32Zm-3.81-27.19a1.29,1.29,0,0,1,.67-.74l.41-.23a1.31,1.31,0,0,1,1-.16,1.22,1.22,0,0,1,.74.65l.12.22a1.24,1.24,0,0,1,.15,1,1.32,1.32,0,0,1-.67.74l-.41.22a1.28,1.28,0,0,1-1,.17,1.22,1.22,0,0,1-.74-.65l-.12-.22A1.24,1.24,0,0,1,176.26,455.13Zm13,39.78a5.8,5.8,0,0,1-2.57-1.83,5.9,5.9,0,0,1-1.24-2.86,6.21,6.21,0,0,1,.36-3.18,6.56,6.56,0,0,1,2-2.72,1.07,1.07,0,0,1,.83-.18,1.19,1.19,0,0,1,.76.44l5.52,6.86a4.33,4.33,0,0,0,1.41-2.92,4.2,4.2,0,0,0-1-3,4.47,4.47,0,0,0-1.5-1.3,4.68,4.68,0,0,0-1.53-.47,1.39,1.39,0,0,1-.63-.43.94.94,0,0,1-.21-.74,1,1,0,0,1,.37-.66,1.23,1.23,0,0,1,1.05-.21,6.07,6.07,0,0,1,2.16.73,6.53,6.53,0,0,1,1.93,1.6,7.26,7.26,0,0,1,1.57,3.31,6,6,0,0,1-.36,3.34,7,7,0,0,1-2.17,2.81,7.48,7.48,0,0,1-3.41,1.64A6.17,6.17,0,0,1,189.3,494.91Zm7.92,8.82-1.46,1.51a1.21,1.21,0,0,1-.83.38,1.16,1.16,0,0,1-.86-.35,1.12,1.12,0,0,1-.36-.84,1.17,1.17,0,0,1,.34-.84l1.46-1.51L194,500.64a1,1,0,0,1-.35-.77,1.06,1.06,0,0,1,.32-.79,1,1,0,0,1,.76-.34,1.1,1.1,0,0,1,.78.33l1.49,1.44,5.18-5.36a1.05,1.05,0,0,0,.05-1.68,1.45,1.45,0,0,0-.4-.26,1.94,1.94,0,0,1-.4-.27.68.68,0,0,1-.2-.58,1,1,0,0,1,.32-.66,1.07,1.07,0,0,1,1.06-.23,2.5,2.5,0,0,1,1.23.67,6,6,0,0,1,1,1.17,2.25,2.25,0,0,1,.27,1.49,3.54,3.54,0,0,1-1.12,1.93l-5.24,5.43,1,1a1,1,0,0,1,.35.77,1.15,1.15,0,0,1-1.08,1.13,1.15,1.15,0,0,1-.78-.34Zm4.25,7.64-.25.31a1,1,0,0,1-.8.44,1.68,1.68,0,0,1-1-.46,1.5,1.5,0,0,1-.62-.84,1,1,0,0,1,.29-.85l.25-.31a1,1,0,0,1,.79-.45,1.72,1.72,0,0,1,1,.45,1.69,1.69,0,0,1,.64.86A1.06,1.06,0,0,1,201.47,511.37Zm1.56-2.73a1.11,1.11,0,0,1-.87-.25,1.15,1.15,0,0,1-.44-.82,1.17,1.17,0,0,1,.27-.87l6.85-8.39a1.18,1.18,0,0,1,.8-.44,1.14,1.14,0,0,1,.89.27,1.13,1.13,0,0,1,.43.8,1.19,1.19,0,0,1-.28.87l-6.85,8.39A1.12,1.12,0,0,1,203,508.64Zm11.28,6.47a4.19,4.19,0,0,1-2.15.16,5.61,5.61,0,0,1-2.19-.89,6.68,6.68,0,0,1-1.74-1.7,4.46,4.46,0,0,1-.84-2.22,1,1,0,0,1,.91-1.19,1,1,0,0,1,1.08.81,3.52,3.52,0,0,0,.56,1.48,4.14,4.14,0,0,0,1.22,1.21,3.2,3.2,0,0,0,1.56.58,1.39,1.39,0,0,0,1.28-.73,1.45,1.45,0,0,0,.09-1.5,9.41,9.41,0,0,0-1.43-1.94,14.7,14.7,0,0,1-1.41-1.85,3.93,3.93,0,0,1-.57-1.81,3.35,3.35,0,0,1,.65-2,3.18,3.18,0,0,1,1.69-1.31,4.44,4.44,0,0,1,2.21-.13,6,6,0,0,1,2.18.9,7.74,7.74,0,0,1,2.11,2.08,5.41,5.41,0,0,1,.91,2.71,1.22,1.22,0,0,1-.19.69,1,1,0,0,1-.91.41.93.93,0,0,1-.57-.17,1.17,1.17,0,0,1-.48-.77,5.32,5.32,0,0,0-.63-2,4.68,4.68,0,0,0-1.48-1.5,3.5,3.5,0,0,0-1.64-.56,1.41,1.41,0,0,0-1.34.7,1.45,1.45,0,0,0-.11,1.5,8.27,8.27,0,0,0,1.34,1.88,16.11,16.11,0,0,1,1.5,1.95,4.12,4.12,0,0,1,.63,1.86,3.18,3.18,0,0,1-.62,2.07A3.14,3.14,0,0,1,214.31,515.11Zm4.19,7.32-.19.36a1,1,0,0,1-.7.58,1.74,1.74,0,0,1-1-.27,1.54,1.54,0,0,1-.77-.71,1,1,0,0,1,.12-.88l.19-.36a1,1,0,0,1,.69-.59,1.66,1.66,0,0,1,1,.27,1.57,1.57,0,0,1,.79.72A1,1,0,0,1,218.5,522.43Zm1-3a1.21,1.21,0,0,1-1.49-.8,1.16,1.16,0,0,1,.1-.91l5.13-9.54a1.2,1.2,0,0,1,.7-.59,1.18,1.18,0,0,1,.93.1,1.15,1.15,0,0,1,.57.71,1.21,1.21,0,0,1-.11.91l-5.13,9.53A1.14,1.14,0,0,1,219.51,519.46Zm14.9,5.87a1,1,0,0,1-.58.54,1.15,1.15,0,0,1-.91,0,1.24,1.24,0,0,1-.55-.43,1.3,1.3,0,0,1-.23-.7l-.16-9.55-6.82,6.69a1.13,1.13,0,0,1-1.28.28,1.09,1.09,0,0,1-.62-.59,1,1,0,0,1,0-.81,1.63,1.63,0,0,1,.39-.51l8.5-8.19a1.27,1.27,0,0,1,.59-.32,1.07,1.07,0,0,1,.64,0,1.14,1.14,0,0,1,.63.42,1.27,1.27,0,0,1,.24.75l.3,11.79A2.35,2.35,0,0,1,234.41,525.33Zm20.59,8.2a1.17,1.17,0,0,1-.52.75,5.92,5.92,0,0,1-2.3,1.14,6.17,6.17,0,0,1-2.64.09,6,6,0,0,1-2.74-1.23,5.51,5.51,0,0,1-2-5.35,5.25,5.25,0,0,1,1.12-2.51,5.18,5.18,0,0,1,2.11-1.52,6,6,0,0,1,2.71-.4h0s0,0-.07,0l.29-1.63a1.17,1.17,0,0,1,.49-.78,1.09,1.09,0,0,1,.88-.19,1.13,1.13,0,0,1,.95,1.38l-.42,2.32a1.21,1.21,0,0,1-.48.8,1.12,1.12,0,0,1-.89.2,4.29,4.29,0,0,0-2.86.44,3.45,3.45,0,0,0-.94,4.81,3.29,3.29,0,0,0,2.19,1.34,3.52,3.52,0,0,0,1.58-.06,4,4,0,0,0,1.42-.67,1.51,1.51,0,0,1,1.07-.27,1,1,0,0,1,.6.34A1.14,1.14,0,0,1,255,533.53Zm-3.51-14.64.08-.47a1.3,1.3,0,0,1,.49-.86,1.2,1.2,0,0,1,1-.17l.25,0a1.25,1.25,0,0,1,.85.5,1.31,1.31,0,0,1,.15,1l-.08.46a1.26,1.26,0,0,1-.49.87,1.23,1.23,0,0,1-1,.17l-.24,0a1.24,1.24,0,0,1-.85-.5A1.27,1.27,0,0,1,251.49,518.89Zm27.7,9.61a6,6,0,0,1-2.06,2.52,5.57,5.57,0,0,1-3,1,5.5,5.5,0,0,1-4.35-1.8l.24,5.87a1.22,1.22,0,0,1-.29.88,1.17,1.17,0,0,1-.83.37,1.21,1.21,0,0,1-.88-.3,1.18,1.18,0,0,1-.37-.85L267,520.1a1.13,1.13,0,0,1,.3-.86,1.22,1.22,0,0,1,1.71-.08,1.23,1.23,0,0,1,.36.84l0,.7a5.34,5.34,0,0,1,4.1-2.32,5.7,5.7,0,0,1,3.11.75,6.21,6.21,0,0,1,2.28,2.35,7.59,7.59,0,0,1,.94,3.47A7.81,7.81,0,0,1,279.19,528.5Zm15.09-2.62a6.29,6.29,0,0,1-1.76,2.83,5.83,5.83,0,0,1-2.82,1.42,5.75,5.75,0,0,1-3.1-.23,6.27,6.27,0,0,1-2.65-1.8,6.55,6.55,0,0,1-1.48-3,1.07,1.07,0,0,1,.22-.82,1.2,1.2,0,0,1,.75-.47l8.63-1.69a4.36,4.36,0,0,0-1.92-2.61A4.25,4.25,0,0,0,287,519a4.59,4.59,0,0,0-1.85.72,4.8,4.8,0,0,0-1.12,1.13,1.35,1.35,0,0,1-.67.36.93.93,0,0,1-.76-.15,1,1,0,0,1-.42-.63,1.27,1.27,0,0,1,.31-1,5.88,5.88,0,0,1,1.66-1.58,6.34,6.34,0,0,1,2.3-1,7.22,7.22,0,0,1,3.66.15,5.89,5.89,0,0,1,2.79,1.87,7.14,7.14,0,0,1,1.49,3.23A7.59,7.59,0,0,1,294.28,525.88Zm11.76-1a1.14,1.14,0,0,1-.66.53l-1.38.45.66,2a1.22,1.22,0,0,1-.06.92,1.21,1.21,0,0,1-1.61.53,1.21,1.21,0,0,1-.59-.7l-.65-2-2,.65a1.06,1.06,0,0,1-1.39-.71,1,1,0,0,1,.05-.83,1.14,1.14,0,0,1,.66-.53l2-.65-2.32-7.07c-.26-.8-.75-1.08-1.46-.84a1.68,1.68,0,0,0-.43.23,1.82,1.82,0,0,1-.42.23.67.67,0,0,1-.61-.09,1.07,1.07,0,0,1-.43-.59,1.09,1.09,0,0,1,.29-1.05,2.45,2.45,0,0,1,1.16-.77,5.73,5.73,0,0,1,1.5-.31,2.26,2.26,0,0,1,1.44.46,3.56,3.56,0,0,1,1.18,1.89l2.36,7.17,1.37-.45a1.08,1.08,0,0,1,.85.05,1.15,1.15,0,0,1,.49,1.49Zm3.45-1.19a1.19,1.19,0,0,1-.64-.66l-4.2-10a1.18,1.18,0,0,1,0-.92,1.14,1.14,0,0,1,.66-.65,1.11,1.11,0,0,1,.91,0,1.19,1.19,0,0,1,.64.66l4.2,10a1.18,1.18,0,0,1,0,.92,1.12,1.12,0,0,1-.64.64A1.16,1.16,0,0,1,309.49,523.65Zm3.42,3.28a1.73,1.73,0,0,1-.86.63,1.59,1.59,0,0,1-1,.15,1,1,0,0,1-.61-.65l-.15-.37a1,1,0,0,1,0-.91,2.17,2.17,0,0,1,1.9-.79,1,1,0,0,1,.61.65l.16.37A1,1,0,0,1,312.91,526.93Zm9.15-10.87a4.37,4.37,0,0,1-.87,2,5.71,5.71,0,0,1-1.81,1.51,6.7,6.7,0,0,1-2.32.73,4.37,4.37,0,0,1-2.36-.29,1.12,1.12,0,0,1-.6-.5,1.08,1.08,0,0,1,0-.87,1,1,0,0,1,1.23-.57,3.44,3.44,0,0,0,1.57.2,4.28,4.28,0,0,0,1.64-.51,3.21,3.21,0,0,0,1.24-1.1,1.42,1.42,0,0,0,0-1.47,1.46,1.46,0,0,0-1.29-.79,9.87,9.87,0,0,0-2.38.35,14.18,14.18,0,0,1-2.3.38,3.88,3.88,0,0,1-1.86-.35,3.27,3.27,0,0,1-1.5-1.53,3.18,3.18,0,0,1-.37-2.11,4.38,4.38,0,0,1,.92-2,5.92,5.92,0,0,1,1.82-1.5,7.53,7.53,0,0,1,2.82-.89,5.39,5.39,0,0,1,2.83.47,1.19,1.19,0,0,1,.51.48,1,1,0,0,1-.06,1,1,1,0,0,1-.42.43,1.15,1.15,0,0,1-.9.06,5.42,5.42,0,0,0-2-.36,4.6,4.6,0,0,0-2,.6,3.51,3.51,0,0,0-1.26,1.18,1.41,1.41,0,0,0,0,1.52,1.44,1.44,0,0,0,1.27.8,8.42,8.42,0,0,0,2.29-.3,16.28,16.28,0,0,1,2.42-.41,4.2,4.2,0,0,1,1.95.32,3.2,3.2,0,0,1,1.54,1.51A3.27,3.27,0,0,1,322.06,516.06Zm4.87-1.61a1.15,1.15,0,0,1-.75-.52l-6-9A1.24,1.24,0,0,1,320,504a1.16,1.16,0,0,1,.53-.77,1.09,1.09,0,0,1,.89-.18,1.2,1.2,0,0,1,.75.52l6,9a1.16,1.16,0,0,1,.19.9,1.08,1.08,0,0,1-.5.75A1.12,1.12,0,0,1,326.93,514.45Zm4,2.58a1.8,1.8,0,0,1-.73.78,1.56,1.56,0,0,1-1,.34,1,1,0,0,1-.72-.52l-.22-.33a1,1,0,0,1-.21-.89,1.71,1.71,0,0,1,.72-.78,1.65,1.65,0,0,1,1-.35,1,1,0,0,1,.72.52l.22.33A1,1,0,0,1,330.91,517Zm9.37-12.38a1.24,1.24,0,0,1-.64.29,1.28,1.28,0,0,1-.73-.13l-8.51-4.33,2.71,9.16a1.15,1.15,0,0,1-1.16,1.54,1,1,0,0,1-.72-.36,1.55,1.55,0,0,1-.27-.59l-3.26-11.34a1.42,1.42,0,0,1,0-.68,1.22,1.22,0,0,1,.32-.55,1.14,1.14,0,0,1,.66-.36,1.27,1.27,0,0,1,.78.13L340,502.69a2.28,2.28,0,0,1,.5.4,1,1,0,0,1,.21.77A1.14,1.14,0,0,1,340.28,504.65Zm8.53-25.89-.14.21a1.21,1.21,0,0,1-.8.58,1.26,1.26,0,0,1-1-.25l-.39-.26a1.3,1.3,0,0,1-.6-.79,1.24,1.24,0,0,1,.23-1l.14-.2a1.21,1.21,0,0,1,.79-.59,1.32,1.32,0,0,1,1,.25l.4.27a1.3,1.3,0,0,1,.6.79A1.2,1.2,0,0,1,348.81,478.76Zm13.54,6.51a6.36,6.36,0,0,1-1,2.46,6,6,0,0,1-2.22,2,5.5,5.5,0,0,1-5.68-.35,5.15,5.15,0,0,1-2.41-4.57,6.08,6.08,0,0,1,.72-2.64s0,0,0,0,0,0,0,.06l-1.38-.92a1.15,1.15,0,0,1-.52-.75,1.2,1.2,0,0,1,.94-1.41,1.07,1.07,0,0,1,.88.21l2,1.3a1.21,1.21,0,0,1,.54.76,1.15,1.15,0,0,1-.17.9,4.32,4.32,0,0,0-.74,2.79,3.47,3.47,0,0,0,4,2.79,3.3,3.3,0,0,0,2.11-1.48A3.49,3.49,0,0,0,360,485a4.19,4.19,0,0,0,0-1.58,1.46,1.46,0,0,1,.18-1.08,1.08,1.08,0,0,1,.54-.42,1.08,1.08,0,0,1,1.56.83A6,6,0,0,1,362.35,485.27Zm7.85-12.75a1.19,1.19,0,0,1-.71.6,1.16,1.16,0,0,1-.92-.12l-14.13-7.72a1.2,1.2,0,0,1-.58-.71,1.11,1.11,0,0,1,.11-.92,1.13,1.13,0,0,1,.7-.59,1.19,1.19,0,0,1,.91.13l.62.34a5.17,5.17,0,0,1-.5-2.28,5,5,0,0,1,.63-2.44,5.65,5.65,0,0,1,2.24-2.28,6.18,6.18,0,0,1,3.18-.74,8.2,8.2,0,0,1,6.17,3.36,6.06,6.06,0,0,1,1.1,3.07,5.69,5.69,0,0,1-2.34,5,5.26,5.26,0,0,1-2.13.92l5.16,2.82a1.21,1.21,0,0,1,.6.7A1.15,1.15,0,0,1,370.2,472.52Zm5-19.76A5.78,5.78,0,0,1,373,455a6.27,6.27,0,0,1-3.07.89,6.5,6.5,0,0,1-3.28-.8,1.05,1.05,0,0,1-.48-.69,1.1,1.1,0,0,1,.12-.87l4.22-7.73a4.34,4.34,0,0,0-3.23-.18,4.28,4.28,0,0,0-2.39,2.07,4.78,4.78,0,0,0-.63,1.88,5,5,0,0,0,.16,1.59,1.48,1.48,0,0,1-.15.75,1,1,0,0,1-.61.48,1,1,0,0,1-.75-.09,1.21,1.21,0,0,1-.6-.89,6,6,0,0,1-.15-2.28,6.48,6.48,0,0,1,.74-2.39,7.22,7.22,0,0,1,2.46-2.71,5.86,5.86,0,0,1,3.22-.95A7.15,7.15,0,0,1,372,444a7.58,7.58,0,0,1,2.82,2.53,6.32,6.32,0,0,1,1.05,3.16A5.86,5.86,0,0,1,375.19,452.76Zm8.57-9.73a1.13,1.13,0,0,1-.71.57,1.18,1.18,0,0,1-.9-.11l-1.85-1-1,1.82a1,1,0,0,1-.65.54,1.11,1.11,0,0,1-.85-.1,1.09,1.09,0,0,1-.53-.65,1.14,1.14,0,0,1,.12-.84l1-1.82-6.53-3.57c-.73-.4-1.28-.27-1.64.39a2.23,2.23,0,0,0-.15.46,1.46,1.46,0,0,1-.15.45.67.67,0,0,1-.51.35,1.06,1.06,0,0,1-.72-.13,1.1,1.1,0,0,1-.5-1,2.5,2.5,0,0,1,.32-1.37,6.22,6.22,0,0,1,.88-1.24,2.24,2.24,0,0,1,1.37-.65,3.52,3.52,0,0,1,2.15.57l6.62,3.62.7-1.27a1.07,1.07,0,0,1,1.49-.44,1,1,0,0,1,.53.65,1.07,1.07,0,0,1-.11.83l-.7,1.27,1.85,1a1.2,1.2,0,0,1,.58.71A1.12,1.12,0,0,1,383.76,443Zm.83-7.81a1.15,1.15,0,0,1-.72.58,1.16,1.16,0,0,1-.91-.11l-9.5-5.19a1.2,1.2,0,0,1-.58-.71,1.12,1.12,0,0,1,.11-.92,1.13,1.13,0,0,1,.7-.57,1.16,1.16,0,0,1,.91.12l9.5,5.19a1.15,1.15,0,0,1,.58.7A1.12,1.12,0,0,1,384.59,435.22Zm3.72,2.06a1.61,1.61,0,0,1-.72.76,1,1,0,0,1-.89-.13l-.35-.19a1,1,0,0,1-.59-.69,1.68,1.68,0,0,1,.28-1,1.61,1.61,0,0,1,.72-.79,1.06,1.06,0,0,1,.89.13l.35.19a1,1,0,0,1,.58.71A1.76,1.76,0,0,1,388.31,437.28Zm1.43-12.11a5.54,5.54,0,0,1-.69,2.26,6.88,6.88,0,0,1-1.54,1.88,4.51,4.51,0,0,1-2.14,1,1.13,1.13,0,0,1-.78-.08,1.06,1.06,0,0,1-.49-.73.89.89,0,0,1,.1-.65,1,1,0,0,1,.61-.5,3.44,3.44,0,0,0,1.43-.68,4.15,4.15,0,0,0,1.1-1.33,3.11,3.11,0,0,0,.43-1.6,1.39,1.39,0,0,0-.83-1.21,1.46,1.46,0,0,0-1.51.05,9.38,9.38,0,0,0-1.81,1.59,15.16,15.16,0,0,1-1.71,1.57,3.88,3.88,0,0,1-1.75.72,3.3,3.3,0,0,1-2.1-.46,3.21,3.21,0,0,1-1.46-1.57,4.31,4.31,0,0,1-.32-2.18A5.7,5.7,0,0,1,377,421a7.5,7.5,0,0,1,1.88-2.3,5.5,5.5,0,0,1,2.62-1.14,1.21,1.21,0,0,1,.7.13,1,1,0,0,1,.49.86,1,1,0,0,1-.12.59,1.16,1.16,0,0,1-.73.55,5.22,5.22,0,0,0-1.89.8,4.63,4.63,0,0,0-1.36,1.6,3.54,3.54,0,0,0-.42,1.68,1.41,1.41,0,0,0,.82,1.28,1.44,1.44,0,0,0,1.5,0,8.67,8.67,0,0,0,1.76-1.5,15,15,0,0,1,1.81-1.66,4.08,4.08,0,0,1,1.8-.8,3.52,3.52,0,0,1,3.54,1.94A4.27,4.27,0,0,1,389.74,425.17Zm3.54-5.67a1.13,1.13,0,0,1-.74.55,1.22,1.22,0,0,1-.91-.15l-9.24-5.63a1.21,1.21,0,0,1-.55-.73,1.16,1.16,0,0,1,.15-.92,1.1,1.1,0,0,1,.74-.54,1.16,1.16,0,0,1,.9.16l9.24,5.63a1.15,1.15,0,0,1,.55.73A1.11,1.11,0,0,1,393.28,419.5Zm3.62,2.23a1.56,1.56,0,0,1-.75.73,1,1,0,0,1-.88-.17l-.34-.21a1,1,0,0,1-.56-.72,1.68,1.68,0,0,1,.32-1,1.55,1.55,0,0,1,.77-.75,1,1,0,0,1,.87.17l.35.2a1,1,0,0,1,.55.73A1.83,1.83,0,0,1,396.9,421.73Zm4.89-13.94a1.26,1.26,0,0,1-.56.41,1.31,1.31,0,0,1-.74,0l-9.22-2.48,4.54,8.4a1.14,1.14,0,0,1-.08,1.31,1.08,1.08,0,0,1-.74.43,1,1,0,0,1-.78-.2,1.68,1.68,0,0,1-.38-.53l-5.53-10.42a1.28,1.28,0,0,1-.15-.66,1.17,1.17,0,0,1,.2-.61,1.18,1.18,0,0,1,.57-.49,1.25,1.25,0,0,1,.79,0l11.42,3a1.88,1.88,0,0,1,.57.28,1,1,0,0,1,.37.71A1.18,1.18,0,0,1,401.79,407.79Zm3.82-18.94-.29-.38a1.35,1.35,0,0,1-.31-1,1.23,1.23,0,0,1,.54-.82l.2-.16a1.25,1.25,0,0,1,.94-.29,1.32,1.32,0,0,1,.82.55l.29.38a1.34,1.34,0,0,1,.31.95,1.24,1.24,0,0,1-.53.82l-.2.15a1.24,1.24,0,0,1-.94.3A1.34,1.34,0,0,1,405.61,388.85Zm12.63,10.69a6.36,6.36,0,0,1-1.73,2,5.93,5.93,0,0,1-2.76,1.18,5.51,5.51,0,0,1-5.26-2.19,5.3,5.3,0,0,1-1.08-2.52,5.22,5.22,0,0,1,.31-2.59,6.07,6.07,0,0,1,1.55-2.26s0,0,0,0,0,0,0,0l-1-1.31A1.23,1.23,0,0,1,408,391a1.21,1.21,0,0,1,1.36-1,1.08,1.08,0,0,1,.76.49l1.42,1.87a1.21,1.21,0,0,1,.26.9,1.17,1.17,0,0,1-.45.79,4.35,4.35,0,0,0-1.62,2.4,3.45,3.45,0,0,0,2.9,3.95,3.34,3.34,0,0,0,2.48-.7,3.93,3.93,0,0,0,1-1.2,4.28,4.28,0,0,0,.47-1.51,1.5,1.5,0,0,1,.52-1,1.08,1.08,0,0,1,.66-.21,1.15,1.15,0,0,1,1,.4,1.18,1.18,0,0,1,.2.88A6.11,6.11,0,0,1,418.24,399.54ZM434,384.35a5.57,5.57,0,0,1-2.24,2.22,5.42,5.42,0,0,1-2.41.69,5.19,5.19,0,0,1-2.29-.37l2.82,5.15a1.21,1.21,0,0,1,.13.92,1.14,1.14,0,0,1-.58.7,1.15,1.15,0,0,1-1.63-.48l-7.73-14.12a1.21,1.21,0,0,1-.11-.91,1.16,1.16,0,0,1,.59-.72,1.1,1.1,0,0,1,.91-.11,1.17,1.17,0,0,1,.7.6l.33.61a5.06,5.06,0,0,1,.82-2.18,5,5,0,0,1,1.84-1.72,5.63,5.63,0,0,1,3.11-.71,6.09,6.09,0,0,1,3.08,1.1,7.49,7.49,0,0,1,2.39,2.7,7.73,7.73,0,0,1,1,3.45A6.07,6.07,0,0,1,434,384.35Zm12.57-6.85a5.84,5.84,0,0,1-5.28,2.92,6.27,6.27,0,0,1-3.07-.91,6.52,6.52,0,0,1-2.33-2.44,1,1,0,0,1,0-.85,1.21,1.21,0,0,1,.57-.67l7.72-4.22a4.39,4.39,0,0,0-2.62-1.9,4.29,4.29,0,0,0-3.13.46,4.69,4.69,0,0,0-1.54,1.24,4.84,4.84,0,0,0-.73,1.43,1.38,1.38,0,0,1-.53.54,1,1,0,0,1-.77.08,1,1,0,0,1-.59-.48,1.24,1.24,0,0,1,0-1.07,5.88,5.88,0,0,1,1.1-2,6.39,6.39,0,0,1,1.91-1.61,7.27,7.27,0,0,1,3.53-1A5.89,5.89,0,0,1,444,368a7,7,0,0,1,2.39,2.62,7.62,7.62,0,0,1,1,3.65A6.31,6.31,0,0,1,446.57,377.5ZM458,371.34a1.06,1.06,0,0,1-.54.64l-1.28.7,1,1.84a1.16,1.16,0,0,1,.11.91,1.22,1.22,0,0,1-1.49.82,1.2,1.2,0,0,1-.7-.59l-1-1.84-1.82,1a1,1,0,0,1-.84.11,1.12,1.12,0,0,1-.65-.54,1,1,0,0,1-.1-.83,1.08,1.08,0,0,1,.55-.64l1.82-1-3.58-6.54c-.4-.73-.93-.91-1.59-.55a1.6,1.6,0,0,0-.37.3,1.78,1.78,0,0,1-.38.31.68.68,0,0,1-.61,0,1.06,1.06,0,0,1-.44-1.58,2.45,2.45,0,0,1,1-1,5.88,5.88,0,0,1,1.41-.57,2.19,2.19,0,0,1,1.5.19,3.59,3.59,0,0,1,1.51,1.64l3.62,6.62,1.27-.69a1,1,0,0,1,.84-.11,1.07,1.07,0,0,1,.66.54A1,1,0,0,1,458,371.34Zm2.69-1.21a1.2,1.2,0,0,1-.7-.59l-5.2-9.49a1.21,1.21,0,0,1-.11-.91,1.11,1.11,0,0,1,.59-.72,1.1,1.1,0,0,1,.9-.1,1.18,1.18,0,0,1,.71.59l5.19,9.49a1.22,1.22,0,0,1,.12.91,1.15,1.15,0,0,1-.57.71A1.18,1.18,0,0,1,460.73,370.13Zm3.74,2.91a1.76,1.76,0,0,1-.79.72,1.64,1.64,0,0,1-1,.26,1,1,0,0,1-.67-.59l-.2-.35a1,1,0,0,1-.12-.9,2.22,2.22,0,0,1,1.82-1,1,1,0,0,1,.67.58l.19.36A1,1,0,0,1,464.47,373Zm7.81-10.68a4.25,4.25,0,0,1-.86,2,5.57,5.57,0,0,1-1.8,1.52,6.62,6.62,0,0,1-2.31.76,4.56,4.56,0,0,1-2.36-.28,1.09,1.09,0,0,1-.61-.49,1,1,0,0,1,0-.87.86.86,0,0,1,.44-.5.94.94,0,0,1,.78-.09,3.46,3.46,0,0,0,1.57.2,4.32,4.32,0,0,0,1.64-.53A3.19,3.19,0,0,0,470,363a1.42,1.42,0,0,0-.05-1.47,1.49,1.49,0,0,0-1.29-.78,9.66,9.66,0,0,0-2.39.37,13,13,0,0,1-2.29.39,3.77,3.77,0,0,1-1.86-.33,3.37,3.37,0,0,1-1.52-1.52,3.23,3.23,0,0,1-.38-2.11,4.36,4.36,0,0,1,.91-2,5.81,5.81,0,0,1,1.81-1.52,7.52,7.52,0,0,1,2.82-.91,5.34,5.34,0,0,1,2.82.45,1.22,1.22,0,0,1,.52.48,1.14,1.14,0,0,1-.47,1.43,1.15,1.15,0,0,1-.9.07,5.24,5.24,0,0,0-2-.35,4.64,4.64,0,0,0-2,.62,3.5,3.5,0,0,0-1.25,1.19,1.41,1.41,0,0,0,0,1.52,1.43,1.43,0,0,0,1.27.78,8.18,8.18,0,0,0,2.3-.31,16.31,16.31,0,0,1,2.41-.43,4.2,4.2,0,0,1,1.95.31,3.51,3.51,0,0,1,1.94,3.54Zm4.54-1a1.17,1.17,0,0,1-.72-.57l-5.4-9.38a1.2,1.2,0,0,1-.14-.9,1.21,1.21,0,0,1,1.48-.85,1.17,1.17,0,0,1,.71.56l5.41,9.39a1.19,1.19,0,0,1,.13.9,1.21,1.21,0,0,1-1.47.85Zm3.79,2.83a1.77,1.77,0,0,1-.77.74,1.57,1.57,0,0,1-1,.27,1,1,0,0,1-.69-.57l-.2-.34a1,1,0,0,1-.14-.9,1.67,1.67,0,0,1,.76-.73,1.61,1.61,0,0,1,1-.29,1,1,0,0,1,.69.57l.2.35A1,1,0,0,1,480.61,364.18Zm10.67-12a1.12,1.12,0,0,1-.51.75,1.38,1.38,0,0,1-.67.23,1.3,1.3,0,0,1-.71-.2l-8.08-5.09,1.86,9.37a1.13,1.13,0,0,1-.46,1.23,1.09,1.09,0,0,1-.83.19,1,1,0,0,1-.69-.42,1.91,1.91,0,0,1-.21-.61L478.77,346a1.3,1.3,0,0,1,.06-.68,1.07,1.07,0,0,1,.36-.52,1.14,1.14,0,0,1,.7-.3,1.21,1.21,0,0,1,.76.21l10,6.2a2,2,0,0,1,.46.45A1,1,0,0,1,491.28,352.14Zm-21-2.87L416,378.94A93.17,93.17,0,0,0,378.94,416l-29.67,54.24a91.77,91.77,0,0,1-161,0L158.56,416a93.17,93.17,0,0,0-37.08-37.08L67.24,349.27a91.77,91.77,0,0,1,0-161l54.24-29.67a93.17,93.17,0,0,0,37.08-37.08l29.67-54.24a91.77,91.77,0,0,1,161,0l29.67,54.24A93.17,93.17,0,0,0,416,158.56l54.24,29.67a91.77,91.77,0,0,1,0,161Zm31.4-21.33-.16.2a1.18,1.18,0,0,1-.84.5,1.31,1.31,0,0,1-.94-.33l-.37-.3a1.29,1.29,0,0,1-.52-.84,1.18,1.18,0,0,1,.32-.93l.15-.2a1.23,1.23,0,0,1,.85-.51,1.33,1.33,0,0,1,.93.34l.37.3a1.31,1.31,0,0,1,.53.84A1.26,1.26,0,0,1,501.66,327.94Zm12.89,7.71a6.08,6.08,0,0,1-1.2,2.36,5.9,5.9,0,0,1-2.39,1.81,5.52,5.52,0,0,1-5.63-.86,5.34,5.34,0,0,1-1.66-2.19,5.27,5.27,0,0,1-.32-2.58,6,6,0,0,1,1-2.57s0,0,0,0,0,0,0,.06l-1.28-1a1.22,1.22,0,0,1-.46-.79,1.12,1.12,0,0,1,.26-.87,1.13,1.13,0,0,1,.81-.46,1.15,1.15,0,0,1,.86.29l1.83,1.48a1.22,1.22,0,0,1,.47.81,1.11,1.11,0,0,1-.25.87,4.29,4.29,0,0,0-1,2.72,3.45,3.45,0,0,0,3.76,3.14,3.3,3.3,0,0,0,2.23-1.28,3.64,3.64,0,0,0,.71-1.4,4.22,4.22,0,0,0,.09-1.58,1.52,1.52,0,0,1,.28-1.06,1.07,1.07,0,0,1,.58-.36,1.14,1.14,0,0,1,1.07.15,1.16,1.16,0,0,1,.41.81A6,6,0,0,1,514.55,335.65Z"/><path class="cls-2" d="M275.43,521.11a3.69,3.69,0,0,0-2.11-.52,3.74,3.74,0,0,0-2.06.69A4.07,4.07,0,0,0,269.9,523a5.74,5.74,0,0,0,.2,4.73,4,4,0,0,0,1.49,1.6,3.61,3.61,0,0,0,2.11.51,3.73,3.73,0,0,0,2.06-.68,4,4,0,0,0,1.36-1.72,5.34,5.34,0,0,0,.41-2.38,5.25,5.25,0,0,0-.61-2.35A4,4,0,0,0,275.43,521.11Z"/><path class="cls-2" d="M500.26,200a3.06,3.06,0,0,0,.69-2.39,4,4,0,0,0-3.4-3.44,3.86,3.86,0,0,0-2.67.78l5.24,5.19Z"/><path class="cls-2" d="M508.4,205.83a4,4,0,0,0-2.18-.17,5.38,5.38,0,0,0-2.21,1,5.32,5.32,0,0,0-1.61,1.82,3.94,3.94,0,0,0-.49,2.12,3.66,3.66,0,0,0,.74,2,3.75,3.75,0,0,0,1.72,1.33,4,4,0,0,0,2.17.18,5.76,5.76,0,0,0,3.83-2.8,4,4,0,0,0,.5-2.13,3.75,3.75,0,0,0-.75-2A3.65,3.65,0,0,0,508.4,205.83Z"/><path class="cls-2" d="M523.65,294.78l-2.14,7.06.19.06a3.07,3.07,0,0,0,2.43-.51,3.72,3.72,0,0,0,1.51-2.06,3.84,3.84,0,0,0,0-2.55A3.89,3.89,0,0,0,523.65,294.78Z"/><path class="cls-2" d="M438.55,376.67l.1.18a3.06,3.06,0,0,0,2.08,1.34,3.82,3.82,0,0,0,2.53-.41,3.64,3.64,0,0,0,1.76-4.65Z"/><path class="cls-2" d="M519.94,314a3.61,3.61,0,0,0,.37-2.14,4,4,0,0,0-.87-2,5.35,5.35,0,0,0-1.9-1.49,5.18,5.18,0,0,0-2.36-.57,4.06,4.06,0,0,0-2.11.56,3.94,3.94,0,0,0-1.82,3.76,4,4,0,0,0,.86,2,5.79,5.79,0,0,0,4.27,2.06,4.05,4.05,0,0,0,2.11-.55A3.75,3.75,0,0,0,519.94,314Z"/><path class="cls-2" d="M354.65,58.2A3,3,0,0,0,355.8,56a3.81,3.81,0,0,0-.62-2.48,3.65,3.65,0,0,0-4.78-1.36l4.08,6.14Z"/><path class="cls-2" d="M355,67a4.09,4.09,0,0,0-.76,2.05,3.9,3.9,0,0,0,2,3.66,4.12,4.12,0,0,0,2.13.46,5.72,5.72,0,0,0,4.16-2.28,3.92,3.92,0,0,0,.77-2,3.65,3.65,0,0,0-.47-2.12,3.75,3.75,0,0,0-1.53-1.55,4.05,4.05,0,0,0-2.14-.45,5.43,5.43,0,0,0-2.32.68A5.53,5.53,0,0,0,355,67Z"/><path class="cls-2" d="M264.26,16.27a4,4,0,0,0,4.18-.09,4,4,0,0,0,1.38-1.69,5.25,5.25,0,0,0,.46-2.38,5.33,5.33,0,0,0-.57-2.35,3.93,3.93,0,0,0-1.46-1.63,3.92,3.92,0,0,0-4.17.1,4,4,0,0,0-1.39,1.69,5.45,5.45,0,0,0-.46,2.37,5.35,5.35,0,0,0,.57,2.37A4.07,4.07,0,0,0,264.26,16.27Z"/><path class="cls-2" d="M419.67,157.34a3.66,3.66,0,0,0,2.12.48,4.09,4.09,0,0,0,2-.76,5.71,5.71,0,0,0,2.27-4.16,4.05,4.05,0,0,0-.45-2.14,3.93,3.93,0,0,0-3.66-2,4,4,0,0,0-2.05.78,5.71,5.71,0,0,0-2.27,4.15,4,4,0,0,0,.45,2.13A3.63,3.63,0,0,0,419.67,157.34Z"/><path class="cls-2" d="M412.88,146.09a3.05,3.05,0,0,0,.37-2.45,3.77,3.77,0,0,0-1.41-2.14,3.62,3.62,0,0,0-4.95.29l5.87,4.46Z"/><path class="cls-2" d="M519,207a1,1,0,0,0-.18-.18l.37.56A1,1,0,0,0,519,207Z"/><path class="cls-2" d="M524.36,321.5l-.34.62a1.14,1.14,0,0,0,.27-.37A1,1,0,0,0,524.36,321.5Z"/></g></g></svg>