<svg xmlns="http://www.w3.org/2000/svg" xmlns:xlink="http://www.w3.org/1999/xlink" viewBox="0 0 505.96 342.86"><defs><style>.cls-1{fill:none;}.cls-2{isolation:isolate;}.cls-3{fill:#323545;}.cls-4{clip-path:url(#clip-path);}.cls-5{fill:#00c2b1;}.cls-5,.cls-8{mix-blend-mode:hard-light;}.cls-6{fill:#6763a8;}.cls-7{fill:#a082af;}.cls-8{fill:#c95998;}.cls-9{font-size:28.28px;font-family:#9Slide03QuicksandMedium, "#9Slide03 Quicksand Medium";letter-spacing:-0.08em;}.cls-13,.cls-9{fill:#f8f7f7;}.cls-10{letter-spacing:-0.08em;}.cls-11{letter-spacing:-0.08em;}.cls-12{letter-spacing:-0.07em;}</style><clipPath id="clip-path" transform="translate(91.82 10.85)"><rect class="cls-1" width="284.44" height="320"/></clipPath></defs><title>login</title><g class="cls-2"><g id="Layer_2" data-name="Layer 2"><g id="OBJECTS"><rect class="cls-3" x="91.82" y="10.85" width="284.44" height="320"/><g class="cls-4"><path class="cls-5" d="M281.5,142.8c37.39-7,80.51-19.63,120.71-36.47V0H277.87c-5.82,26-22.47,54.47-42.43,74-76.52,74.81-207.35,23.19-219.2,61.94-8.34,27.28,56.11,54.2,52.42,96.34-3.1,35.37-51.82,54.63-95.3,70.77v17H171C152.25,272.54,114.18,218,137,178.93,156.74,145.05,202.2,157.54,281.5,142.8Z" transform="translate(91.82 10.85)"/><path class="cls-6" d="M-49.65,18.68C-32.11,25.05-14.52,30,4.47,30a113.18,113.18,0,0,0,39.89-7.4c14.75-5.47,25.23-11.69,37.38-18.9,7.55-4.48,15.72-9.33,25.85-14.5h-3.75c-8.83,4.62-16.17,9-23,13C68.78,9.34,58.36,15.53,43.76,20.94c-35.49,13.17-63.63,6.84-93.32-4C-49.61,17.49-49.64,18.08-49.65,18.68Z" transform="translate(91.82 10.85)"/><path class="cls-7" d="M375.85,286.73a184.47,184.47,0,0,0-29.12-16.43c-42-18.59-75-7.84-113.19,4.61-31.75,10.35-67.72,22.08-113.41,15.86-35.93-4.89-56.41-18.6-72.88-29.62C33.39,251.86,22.44,244.53,7,244.53h0c-48.33.05-64.68,29.64-80.48,58.27C-79.11,312.85-84.77,323-91.82,332V329.3C-85.6,321-80.4,311.61-75.08,302c16-29.06,32.64-59.11,82-59.16H7c16,0,27.72,7.84,41.26,16.91,16.32,10.92,36.62,24.51,72.15,29.35,45.28,6.16,79.52-5,112.63-15.79,36.93-12,71.8-23.41,114.44-4.55a182.61,182.61,0,0,1,28.41,15.93Z" transform="translate(91.82 10.85)"/><path class="cls-7" d="M-53.53,44C-47.82,65.41-39,82.88-19,88.73c16.46,4.82,28.93-3,44.71-13C42.52,65.2,63.43,52,97.3,49.52c45.57-3.38,79.06,9.84,111.44,22.63C244.86,86.41,279,99.89,322.68,83.67c14.74-5.47,25.23-11.69,37.37-18.9,12.32-7.31,26.27-15.59,47.7-24.67,2.12-.9,4.26-1.75,6.39-2.61V35.63c-2.36.95-4.73,1.89-7.07,2.88C385.54,47.64,371.53,56,359.16,63.29c-12.07,7.17-22.49,13.35-37.09,18.77C279,98,246.73,85.3,209.38,70.55c-31-12.26-66.23-26.16-112.21-22.75-34.3,2.56-55.42,15.84-72.38,26.52C9.38,84-2.78,91.67-18.5,87.08c-21.26-6.2-29.44-26.33-35-50.27Z" transform="translate(91.82 10.85)"/></g><path class="cls-8" d="M142.11,228.75c-3.36,33.56,87,56.86,81.42,90.63,0,.21-.09.41-.13.62h61V164.16C213.47,162.89,144.91,200.71,142.11,228.75Z" transform="translate(91.82 10.85)"/><path class="cls-8" d="M0,111.72v62.79c77.55-61.2,203.54-31.29,211.94-67.73,6.35-27.55-65-47.4-65-89A38,38,0,0,1,151.52,0H65.16c15.56,26.84,25.9,53.37,13.92,76.84S40.89,104.71,0,111.72Z" transform="translate(91.82 10.85)"/><text class="cls-9" transform="translate(180.71 215.88)">t<tspan class="cls-10" x="8.48" y="0">our </tspan><tspan class="cls-11" x="53.05" y="0">g</tspan><tspan class="cls-12" x="68.43" y="0">uru</tspan></text><path class="cls-13" d="M159.07,165.49h0a26.24,26.24,0,0,0,5.43-7.85,5.38,5.38,0,0,0,.13-4h0a6.86,6.86,0,0,0,5.5-6.71,6.78,6.78,0,0,0-2.55-5.33v0a4.37,4.37,0,0,0,.11-1v-5.93A27.12,27.12,0,0,0,146,108h0a27.63,27.63,0,0,0-5.46-.55,27.06,27.06,0,0,0-16.87,5.88h0a23.53,23.53,0,0,0-3.58,3.4,32.29,32.29,0,0,0-2.53,3.43c-.4.61-1,1.63-1.34,2.28a27,27,0,0,0-2.9,12.21v5.93a3.85,3.85,0,0,0,.12,1v0a6.84,6.84,0,0,0,3,12s0,0,0,0a5.38,5.38,0,0,0,.13,4,26.24,26.24,0,0,0,5.43,7.85h0l16.68,20.24a2.34,2.34,0,0,0,3.6,0Zm5.53-36.88h0c-5.79-2.31-8.26-5.7-8.28-5.73l-.06-.07a23.4,23.4,0,0,1-4.5-10.33s0,0,0,0A25,25,0,0,1,164.6,128.61Zm-35.38-16.13a0,0,0,0,1,0,0,23.36,23.36,0,0,1-4.5,10.32l-.06.06s-2.49,3.43-8.29,5.74h0A25,25,0,0,1,129.22,112.48Zm-13.58,22.15a23.71,23.71,0,0,1,.22-3.29h0c7.2-2.45,10.36-6.56,10.72-7.05,2.64-3.22,4.4-7.58,5.26-12.94,0,0,0,0,0,0a24.61,24.61,0,0,1,5.58-1.36s0,0,0,0c0,5.85-1.07,13.49-5.33,18.68l-.05.07a16.3,16.3,0,0,1-4,3.53,27.82,27.82,0,0,1-12.41,4.15s0,0,0,0Zm-2.44,12.25a4.46,4.46,0,0,1,1.39-3.25h0a4.26,4.26,0,0,0,2,1.08v0c-.06.71-.1,1.43-.1,2.15a24.12,24.12,0,0,0,.41,4.41h0A4.5,4.5,0,0,1,113.2,146.88Zm2.44-6.33v-1.76h0c12.65-1.24,17.83-8,18.31-8.66,4.72-5.77,5.81-14.06,5.84-20.32h.69a25,25,0,0,1,4.15.34h0c.35,3.45,1.23,16.7-5.07,24.37l-.05.07a16.66,16.66,0,0,1-4.65,3.94c-3,1.8-8.12,4-15.81,4h-1.52A1.91,1.91,0,0,1,115.64,140.55Zm46.27,4.26H162a20.49,20.49,0,0,1,.1,2.07,22,22,0,0,1-.53,4.79h0L156.8,154a8.29,8.29,0,0,1-6.84,0,34.83,34.83,0,0,0-9.47-1.94,23.92,23.92,0,0,0-9.46,2.1,8.25,8.25,0,0,1-6.84-.12l-4.76-2.26h0a22.06,22.06,0,0,1-.53-4.8,20.43,20.43,0,0,1,.1-2.06h.08c12.64,0,19.12-5.32,21.41-7.73,0,0,0,0,0,0C142.8,139.5,149.29,144.81,161.91,144.81Zm.44,11.87a24,24,0,0,1-43.72,0,3,3,0,0,1,.13-2.7h0l4.4,2.09a10.65,10.65,0,0,0,8.79.16,21.55,21.55,0,0,1,17.06,0,10.65,10.65,0,0,0,8.79-.16l4.4-2.09h0A3,3,0,0,1,162.35,156.68Zm-.44-14.22c-12.19,0-18.16-5.34-19.9-7.23h0a24,24,0,0,0,3.53-7.17h0a19.87,19.87,0,0,0,7.88,7.25,1.22,1.22,0,0,0,.56.14,1.18,1.18,0,0,0,.56-2.21,17.56,17.56,0,0,1-5.62-4.5l-.06-.07a18.63,18.63,0,0,1-2.46-4h0a43.77,43.77,0,0,0,.77-5.92,54.92,54.92,0,0,0-.09-8.09h0q1,.28,2,.66a0,0,0,0,1,0,0c.86,5.37,2.62,9.73,5.26,13,.36.49,3.52,4.6,10.72,7.05h0a23.92,23.92,0,0,1,.22,3.29v1.76s0,0,0,0a32.11,32.11,0,0,1-6.65-1.4,1.18,1.18,0,0,0-1.53.88,1.22,1.22,0,0,0,.84,1.37,34,34,0,0,0,7.34,1.51h0v1.77a1.91,1.91,0,0,1-1.9,1.91Zm2.15,8.84h0a24.15,24.15,0,0,0,.41-4.42c0-.71,0-1.43-.1-2.14v0a4.23,4.23,0,0,0,2-1.08h0a4.5,4.5,0,0,1-2.34,7.67Z" transform="translate(91.82 10.85)"/><path class="cls-13" d="M130.25,151.43h0a3.4,3.4,0,0,0,2.56-1.17,1.18,1.18,0,1,0-1.78-1.55,1,1,0,0,1-.78.36h0a1,1,0,0,1-.79-.36,1.18,1.18,0,0,0-1.78,1.55A3.42,3.42,0,0,0,130.25,151.43Z" transform="translate(91.82 10.85)"/><path class="cls-13" d="M150.73,151.41h0a3.41,3.41,0,0,0,2.56-1.17,1.18,1.18,0,1,0-1.78-1.55,1,1,0,0,1-.79.36h0a1,1,0,0,1-.78-.36,1.19,1.19,0,0,0-1.67-.11,1.17,1.17,0,0,0-.11,1.66,3.41,3.41,0,0,0,2.56,1.17Z" transform="translate(91.82 10.85)"/><path class="cls-13" d="M143.86,157.77a1.19,1.19,0,0,0-1.67.11,2.23,2.23,0,0,1-3.39,0,1.18,1.18,0,0,0-1.78,1.55,4.59,4.59,0,0,0,6.95,0A1.17,1.17,0,0,0,143.86,157.77Z" transform="translate(91.82 10.85)"/><path class="cls-13" d="M140.5,149.07a4.32,4.32,0,1,0-4.33-4.32A4.33,4.33,0,0,0,140.5,149.07Zm0-6.29a2,2,0,1,1-2,2A2,2,0,0,1,140.5,142.78Z" transform="translate(91.82 10.85)"/></g></g></g></svg>