<svg xmlns="http://www.w3.org/2000/svg" viewBox="0 0 1390.62 1856.45"><defs><style>.cls-1{fill:#6763a8;opacity:0.6;}.cls-2{fill:#00c2b1;opacity:0.8;}</style></defs><g id="Layer_2" data-name="Layer 2"><g id="logo"><path class="cls-1" d="M1261.58,1082.74c73.49-14.7,129-79.7,129-157.44a159.44,159.44,0,0,0-59.76-125,.28.28,0,0,1-.09-.26,99.14,99.14,0,0,0,2.66-22.8V638.11c0-168.49-67.78-333.78-187.32-452.7C1058.59,98.35,945.17,37.87,824.27,13.05c-.17,0-.34-.05-.51-.08a3.37,3.37,0,0,1-.34-.1A642.93,642.93,0,0,0,695.32,0,635.05,635.05,0,0,0,299.6,137.87l.17.16c-36.55,28.24-58.19,50.88-83.82,79.75-21.56,24.28-40.95,53.08-59.26,80.53-9.49,14.22-23.81,38.19-31.51,53.45a633.91,633.91,0,0,0-68,286.35V777.23A99.71,99.71,0,0,0,59.86,800a.25.25,0,0,1-.09.26A159.52,159.52,0,0,0,0,925.3c0,77.75,55.56,142.75,129.05,157.44a.25.25,0,0,1,.19.34c-11.1,30.36-10.62,64.5,3,94.74a617.52,617.52,0,0,0,127.2,184h0l391.19,474.7a54.86,54.86,0,0,0,84.46.25l396-474.89v0a617.36,617.36,0,0,0,127.26-184c13.61-30.23,14.08-64.37,3-94.73A.25.25,0,0,1,1261.58,1082.74Zm-302-964.17c149.43,76.37,260,215,301.1,378.28a.28.28,0,0,1-.37.32c-135.89-54.2-193.64-133.65-194.21-134.45-.41-.58-.84-1.15-1.29-1.7-50-60.88-85.42-142.2-105.62-242.14A.28.28,0,0,1,959.55,118.57Zm-528.49.13a.28.28,0,0,1,.4.31c-20.21,99.89-55.64,181.16-105.61,242-.4.5-.86,1.09-1.23,1.62-.62.87-58.44,80.39-194.44,134.58a.28.28,0,0,1-.38-.32C171,331.86,282.78,194.45,431.06,118.7ZM112.47,638.11a585.58,585.58,0,0,1,5.12-77.22.26.26,0,0,1,.18-.22C286.61,503.3,360.72,407,369.14,395.39,430.93,319.82,472.35,217.7,492.45,91.85a.27.27,0,0,1,.17-.21,578.6,578.6,0,0,1,131-32,.27.27,0,0,1,.3.27c-1.17,137.32-25.08,316.48-125,438.12-.41.5-.86,1.1-1.23,1.62s-29.21,40.54-93.82,82.82c-56.36,36.88-151.65,82.58-291.12,97.25a.28.28,0,0,1-.3-.27Zm30.16,390.94a105.3,105.3,0,0,1-54.73-180h0a99.66,99.66,0,0,0,47.6,25.51.27.27,0,0,1,.21.28c-1.49,16.73-2.28,33.61-2.28,50.41A565.89,565.89,0,0,0,143,1028.73.28.28,0,0,1,142.63,1029.05ZM112.47,777V735.59a.26.26,0,0,1,.24-.27C409.34,706.28,531,548,542.25,532.43c110.64-135.33,136.2-329.86,137-476.67a.26.26,0,0,1,.26-.26q7.89-.22,15.85-.23a589.17,589.17,0,0,1,97.31,8.09.26.26,0,0,1,.22.23c8.3,80.84,28.9,391.56-118.89,571.54-.41.49-.86,1.09-1.23,1.62s-33.72,46.76-109,92.4C494.07,771.36,373.23,821.67,193,821.67H157.18A44.71,44.71,0,0,1,112.47,777ZM1208,1155.13c-90.81,201.71-292,332-512.69,332s-421.89-130.33-512.69-332a70.05,70.05,0,0,1-3.33-47.7,5.51,5.51,0,0,1,0-4.91,17.93,17.93,0,0,0,.93-2.37,5.35,5.35,0,0,1,.1-1c4.19-21.77,17.21-41.3,20.51-63.16a508.86,508.86,0,0,1-12.18-110.68c0-16.12.78-32.32,2.29-48.35h2c296.4,0,448.51-124.88,502.2-181.44a.25.25,0,0,1,.38,0c54,56.81,206.11,181.44,502.15,181.44h2c1.51,16,2.3,32.22,2.3,48.36a509.28,509.28,0,0,1-12.32,111.34v12.19c.46,3.33,1.05,6.64,1.76,9.91,2.59,12,7.36,22.49,13.3,33.08a.28.28,0,0,1,.33.12A70.86,70.86,0,0,1,1208,1155.13Zm-10.33-333.47c-285.85,0-426-125.06-466.75-169.44a.26.26,0,0,1,0-.33Q783.34,581,813.7,483.71h0a467,467,0,0,0,34.71,48.75c6.4,8.77,52.07,68.26,150,121.31a27.64,27.64,0,0,0,26.32-48.61C933.34,555.65,893.31,500.24,893,499.78s-.84-1.16-1.29-1.71c-22.07-26.88-41.51-58.23-57.9-93.16a.3.3,0,0,1,0-.16q13.13-64.87,17.93-138.89a1277.39,1277.39,0,0,0-2-189.56A.27.27,0,0,1,850,76q24.46,6.72,48,15.47a.25.25,0,0,1,.17.21c20.08,125.9,61.5,228.07,123.33,303.69C1029.9,407,1104,503.3,1272.81,560.66a.29.29,0,0,1,.18.22,578.81,578.81,0,0,1,5.17,77.22v41.4a.28.28,0,0,1-.3.27c-55.23-5.79-107.6-16.81-156-32.86a27.64,27.64,0,0,0-35.78,20.66c-2.94,14,6.1,27.75,19.7,32.23,53.48,17.63,111.3,29.5,172.11,35.48a.26.26,0,0,1,.24.26V777a44.7,44.7,0,0,1-44.7,44.71ZM1248,1029a.28.28,0,0,1-.32-.32,565.81,565.81,0,0,0,9.52-103.44c0-16.8-.81-33.67-2.29-50.4a.26.26,0,0,1,.2-.28,99.64,99.64,0,0,0,47.43-25.33.27.27,0,0,1,.37,0A105.29,105.29,0,0,1,1248,1029Z"/><path class="cls-1" d="M892.29,1053h.06a65.45,65.45,0,0,0,49.3-22.5,22.66,22.66,0,0,0-34.19-29.75,20.1,20.1,0,0,1-15.15,6.93h0a20.1,20.1,0,0,1-15.15-6.9,22.66,22.66,0,0,0-34.14,29.8A65.42,65.42,0,0,0,892.29,1053Z"/><path class="cls-2" d="M682.3,1154.58A38.61,38.61,0,1,0,643.69,1116,38.65,38.65,0,0,0,682.3,1154.58Zm0-56.15A17.55,17.55,0,1,1,664.75,1116,17.56,17.56,0,0,1,682.3,1098.43Z"/><path class="cls-2" d="M672.9,1009.13a12.42,12.42,0,0,1,9.33-3.9q18.66-.56,30.51-10.45t11.85-28.29q0-15.88-10.87-26.33T687,929.71a40.69,40.69,0,0,0-17.14,3.76,46.34,46.34,0,0,0-14.35,10.17q-5.58,5-11.15,5a11.83,11.83,0,0,1-7.24-2.51Q631,941.7,631,935.84a12.75,12.75,0,0,1,4.18-9.19,66.41,66.41,0,0,1,23-17A68.94,68.94,0,0,1,687,903.52a66,66,0,0,1,32.46,8.08,61.37,61.37,0,0,1,31.91,54.89q0,16.72-7.39,29.68a58,58,0,0,1-20.2,20.9,67.44,67.44,0,0,1-29,9.61c-.19,0-.24,0-.14.14s.32,0,.7-.14v18.39a13.18,13.18,0,0,1-3.76,9.48,12.47,12.47,0,0,1-9.34,3.9,12.76,12.76,0,0,1-9.61-3.9,12.23,12.23,0,0,1-3.49-9.48v-26.19A13.48,13.48,0,0,1,672.9,1009.13Z"/><path class="cls-1" d="M498.28,1053.34h.06a65.42,65.42,0,0,0,49.3-22.5,22.66,22.66,0,0,0-34.19-29.75A20.08,20.08,0,0,1,498.3,1008h0a20.1,20.1,0,0,1-15.15-6.9A22.66,22.66,0,0,0,449,1030.93,65.44,65.44,0,0,0,498.28,1053.34Z"/></g></g></svg>