<svg xmlns="http://www.w3.org/2000/svg" viewBox="0 0 347.42 488.61"><defs><style>.cls-1{fill:#6763a8;}.cls-2{fill:#00c2b1;}</style></defs><title>logo fill_1</title><g id="Layer_2" data-name="Layer 2"><g id="logo"><path class="cls-1" d="M138,182.9c20.44-12.39,29.5-25,29.59-25.08a3.68,3.68,0,0,1,.34-.44C208,108.53,202.44,24.2,200.18,2.26a.06.06,0,0,0-.06-.06A159.63,159.63,0,0,0,173.71,0c-1.44,0-2.87,0-4.3.06a.07.07,0,0,0-.07.07C169.13,40,162.2,92.78,132.17,129.5c-3,4.22-36.07,47.19-116.58,55.07a.08.08,0,0,0-.07.07v11.23A12.15,12.15,0,0,0,27.66,208h9.71C86.29,208,119.09,194.35,138,182.9Z"/><circle class="cls-2" cx="173.74" cy="222.59" r="12.5"/><path class="cls-1" d="M21.83,222.45a.08.08,0,0,0,0-.08,27.12,27.12,0,0,1-12.93-6.92h0a28.58,28.58,0,0,0,14.86,48.84c.05,0,.09,0,.09-.09a153.09,153.09,0,0,1-2.59-28.07C21.21,231.57,21.43,227,21.83,222.45Z"/><path class="cls-1" d="M274.34,83.45c.15.21,15.83,21.77,52.71,36.48a.07.07,0,0,0,.1-.08A159.34,159.34,0,0,0,245.43,17.18a.08.08,0,0,0-.11.08C250.8,44.39,260.42,66.46,274,83,274.11,83.13,274.23,83.29,274.34,83.45Z"/><path class="cls-1" d="M20.33,120C57.24,105.24,72.94,83.66,73.1,83.42s.23-.3.34-.44C87,66.47,96.61,44.41,102.1,17.3a.08.08,0,0,0-.11-.08A158.84,158.84,0,0,0,20.23,119.86.07.07,0,0,0,20.33,120Z"/><path class="cls-1" d="M15.6,169.49c37.86-4,63.72-16.38,79-26.39,17.53-11.48,25.38-22.37,25.46-22.48s.22-.3.34-.44c27.1-33,33.6-81.64,33.91-118.91a.07.07,0,0,0-.08-.07A157.12,157.12,0,0,0,118.7,9.87a.1.1,0,0,0,0,.06C113.2,44.08,102,71.8,85.19,92.31,82.9,95.45,62.79,121.6,17,137.17a.1.1,0,0,0-.05.06,159.25,159.25,0,0,0-1.39,21v11.23A.08.08,0,0,0,15.6,169.49Z"/><path class="cls-1" d="M37.37,223h-.54c-.41,4.35-.62,8.75-.62,13.13a138,138,0,0,0,3.41,30.52.1.1,0,0,0,0,.05l30.26,14.43a52.72,52.72,0,0,0,43.55.74c19.06-8.21,39.34-13.39,60.26-13.39,14.56,0,47.49,6.88,60.24,12.37,14,6,29.88,6.79,43.53.28l30.26-14.43a.1.1,0,0,0,0-.05,138,138,0,0,0,3.41-30.52c0-4.38-.21-8.77-.63-13.12h-.52c-80.35,0-121.64-33.83-136.29-49.25a.07.07,0,0,0-.1,0C159.1,189.11,117.81,223,37.37,223Zm87.47,34.65a21.67,21.67,0,0,1-16.32,7.45h0a21.66,21.66,0,0,1-16.32-7.42,7.5,7.5,0,0,1,11.3-9.86,6.67,6.67,0,0,0,5,2.28h0a6.68,6.68,0,0,0,5-2.29,7.5,7.5,0,1,1,11.32,9.84ZM223.31,247a7.49,7.49,0,0,1,10.58.71,6.65,6.65,0,0,0,5,2.29h0a6.66,6.66,0,0,0,5-2.3,7.5,7.5,0,1,1,11.31,9.85A21.65,21.65,0,0,1,238.93,265h0a21.68,21.68,0,0,1-16.32-7.42A7.5,7.5,0,0,1,223.31,247Zm-22.07-24.39a27.5,27.5,0,1,1-27.5-27.5A27.53,27.53,0,0,1,201.24,222.59Z"/><path class="cls-1" d="M331.9,195.87V184.63a.07.07,0,0,0-.06-.07,217.48,217.48,0,0,1-46.72-9.63,7.73,7.73,0,0,1-5.34-8.75,7.5,7.5,0,0,1,9.71-5.61,200.71,200.71,0,0,0,42.33,8.92.07.07,0,0,0,.08-.07V158.19a157.89,157.89,0,0,0-1.4-21,.1.1,0,0,0-.05-.06c-45.83-15.57-65.93-41.72-68.21-44.86-16.78-20.52-28-48.25-33.47-82.42a.1.1,0,0,0-.05-.06c-4.25-1.58-8.6-3-13-4.2a.08.08,0,0,0-.1.08,347.17,347.17,0,0,1,.56,51.45,283.65,283.65,0,0,1-4.87,37.69.09.09,0,0,0,0,.05A120.07,120.07,0,0,0,227,120.18c.12.15.24.3.35.46s10.95,15.17,35.77,28.61A7.5,7.5,0,0,1,256,162.44c-26.58-14.4-39-30.55-40.72-32.93a126.45,126.45,0,0,1-9.42-13.23h0q-8.22,26.35-22.47,45.65a.06.06,0,0,0,0,.09c11.05,12,49.09,46,126.68,46h9.71A12.13,12.13,0,0,0,331.9,195.87Z"/><path class="cls-1" d="M311.94,281.32l-28,13.35a67.73,67.73,0,0,1-55.94,1,137.82,137.82,0,0,0-108.61,0,67.73,67.73,0,0,1-55.94-1l-28-13.35a.09.09,0,0,0-.1,0,19.22,19.22,0,0,0-.81,17.15,152.48,152.48,0,0,0,278.29,0,19.19,19.19,0,0,0-.82-17.15A.08.08,0,0,0,311.94,281.32ZM195.86,316.06a29.33,29.33,0,0,1-44.24,0,7.5,7.5,0,0,1,11.31-9.85,14.34,14.34,0,0,0,21.62,0,7.5,7.5,0,1,1,11.31,9.85Z"/><path class="cls-1" d="M338.52,215.5a27.1,27.1,0,0,1-12.88,6.87.08.08,0,0,0-.05.08c.4,4.54.62,9.12.62,13.68a154,154,0,0,1-2.58,28.07.07.07,0,0,0,.08.09,28.58,28.58,0,0,0,14.91-48.79A.07.07,0,0,0,338.52,215.5Z"/><path class="cls-1" d="M97.35,395.42l36.06,8.72a170.76,170.76,0,0,0,80.22,0l36.05-8.72a3.05,3.05,0,0,1,3,5L189,481.75a20.82,20.82,0,0,1-30.88,0L94.37,400.43A3.05,3.05,0,0,1,97.35,395.42Z"/></g></g></svg>