<svg xmlns="http://www.w3.org/2000/svg" viewBox="0 0 377.42 503.85"><defs><style>.cls-1{fill:#6763a8;}.cls-2{fill:#00c2b1;}</style></defs><title>logo only</title><g id="Layer_2" data-name="Layer 2"><g id="logo"><path class="cls-1" d="M307,369.61h0a167.79,167.79,0,0,0,34.54-49.94,34.21,34.21,0,0,0,.81-25.72.07.07,0,0,1,0-.09,43.59,43.59,0,0,0,18.8-76.66.06.06,0,0,1,0-.07,26.89,26.89,0,0,0,.72-6.19V173.19A172.55,172.55,0,0,0,223.71,3.54l-.14,0-.09,0A175,175,0,0,0,188.71,0,172.34,172.34,0,0,0,81.31,37.42l0,0A151.51,151.51,0,0,0,58.61,59.11C52.76,65.7,47.5,73.51,42.53,81A167.75,167.75,0,0,0,34,95.47a172.08,172.08,0,0,0-18.45,77.72v37.75a27,27,0,0,0,.73,6.2.11.11,0,0,1,0,.07A43.58,43.58,0,0,0,35,293.86a.08.08,0,0,1,.06.1,34.09,34.09,0,0,0,.81,25.71,167.46,167.46,0,0,0,34.52,49.92h0L176.59,498.43a14.89,14.89,0,0,0,22.92.07Zm35.16-234.76a.07.07,0,0,1-.1.08c-36.88-14.71-52.56-36.27-52.71-36.48s-.23-.32-.35-.47c-13.57-16.52-23.18-38.59-28.67-65.72a.08.08,0,0,1,.11-.08A159.34,159.34,0,0,1,342.15,134.85ZM117,32.22a.08.08,0,0,1,.11.08C111.61,59.41,102,81.47,88.44,98c-.11.14-.24.3-.34.44S72.24,120.24,35.33,135a.07.07,0,0,1-.1-.09A158.84,158.84,0,0,1,117,32.22Zm-86.47,141a159.25,159.25,0,0,1,1.39-21,.1.1,0,0,1,.05-.06c45.83-15.57,65.94-41.72,68.23-44.86,16.77-20.51,28-48.22,33.46-82.38a.1.1,0,0,1,0-.06,157.12,157.12,0,0,1,35.55-8.67.07.07,0,0,1,.08.07c-.31,37.27-6.8,85.9-33.91,118.91-.12.14-.24.3-.34.44s-7.93,11-25.46,22.48c-15.3,10-41.16,22.41-79,26.39a.08.08,0,0,1-.09-.07ZM15,251.13a28.38,28.38,0,0,1,8.86-20.68h0a27,27,0,0,0,12.92,6.92.07.07,0,0,1,0,.08c-.4,4.54-.62,9.12-.62,13.68A153.09,153.09,0,0,0,38.8,279.2a.08.08,0,0,1-.09.09A28.62,28.62,0,0,1,15,251.13Zm15.52-40.26V199.64a.08.08,0,0,1,.07-.07c80.51-7.88,113.53-50.85,116.58-55.07,30-36.72,37-89.52,37.17-129.37a.07.07,0,0,1,.07-.07c1.43,0,2.86-.06,4.3-.06a159.54,159.54,0,0,1,26.41,2.2.06.06,0,0,1,.06.06c2.26,21.94,7.85,106.27-32.26,155.12a5.12,5.12,0,0,0-.34.44c-.09.12-9.15,12.69-29.59,25.08C134.09,209.35,101.3,223,52.37,223H42.66A12.15,12.15,0,0,1,30.52,210.87ZM325.06,238h.53c.41,4.35.62,8.74.62,13.12a138,138,0,0,1-3.41,30.52.1.1,0,0,1,0,.05L292.5,296.13c-13.65,6.51-29.51,5.76-43.53-.28-12.75-5.49-45.68-12.37-60.24-12.37-20.91,0-41.2,5.18-60.26,13.39a52.73,52.73,0,0,1-43.55-.74L54.66,281.7a.1.1,0,0,1,0-.05,138.61,138.61,0,0,1-3.41-30.52c0-4.38.21-8.78.62-13.13h.54c80.44,0,121.73-33.89,136.3-49.24a.07.07,0,0,1,.1,0C203.42,204.18,244.71,238,325.06,238Zm2.8,75.5a152.48,152.48,0,0,1-278.29,0,19.22,19.22,0,0,1,.81-17.15.09.09,0,0,1,.1,0l28,13.35a67.73,67.73,0,0,0,55.94,1,137.82,137.82,0,0,1,108.61,0,67.73,67.73,0,0,0,55.94-1l28-13.35a.07.07,0,0,1,.09,0A19.19,19.19,0,0,1,327.86,313.51ZM325.06,223c-77.58,0-115.63-33.94-126.68-46a.06.06,0,0,1,0-.09q14.24-19.25,22.47-45.65h0a126.45,126.45,0,0,0,9.42,13.23C232,146.89,244.4,163,271,177.44a7.5,7.5,0,0,0,7.15-13.19c-24.82-13.44-35.68-28.48-35.77-28.61s-.23-.31-.35-.46A120.07,120.07,0,0,1,226.3,109.9a.09.09,0,0,1,0-.05,283.65,283.65,0,0,0,4.87-37.69,347.17,347.17,0,0,0-.56-51.45.08.08,0,0,1,.1-.08c4.42,1.22,8.77,2.62,13,4.2a.1.1,0,0,1,.05.06c5.45,34.17,16.69,61.9,33.47,82.42,2.28,3.14,22.39,29.29,68.21,44.86a.1.1,0,0,1,.05.06,157.89,157.89,0,0,1,1.4,21v11.23a.07.07,0,0,1-.08.07,200.84,200.84,0,0,1-42.33-8.92,7.5,7.5,0,0,0-9.71,5.61,7.73,7.73,0,0,0,5.34,8.75,217.48,217.48,0,0,0,46.72,9.63.07.07,0,0,1,.06.07v11.24A12.13,12.13,0,0,1,334.77,223Zm13.65,56.29a.07.07,0,0,1-.08-.09,154,154,0,0,0,2.58-28.07c0-4.56-.22-9.14-.62-13.68a.08.08,0,0,1,.06-.08,27.06,27.06,0,0,0,12.87-6.87.07.07,0,0,1,.1,0,28.58,28.58,0,0,1-14.91,48.79Z"/><path class="cls-1" d="M123.5,280.1h0a21.67,21.67,0,0,0,16.32-7.45,7.5,7.5,0,1,0-11.32-9.84,6.67,6.67,0,0,1-5,2.29h0a6.67,6.67,0,0,1-5-2.28,7.49,7.49,0,1,0-11.29,9.86A21.62,21.62,0,0,0,123.5,280.1Z"/><path class="cls-1" d="M253.91,280h0a21.67,21.67,0,0,0,16.32-7.45,7.5,7.5,0,0,0-11.32-9.85,6.66,6.66,0,0,1-5,2.3h0a6.61,6.61,0,0,1-5-2.29,7.51,7.51,0,0,0-11.31,9.87A21.69,21.69,0,0,0,253.91,280Z"/><path class="cls-1" d="M210.13,320.48a7.49,7.49,0,0,0-10.58.73,14.34,14.34,0,0,1-21.62,0,7.5,7.5,0,0,0-11.31,9.85,29.33,29.33,0,0,0,44.24,0A7.5,7.5,0,0,0,210.13,320.48Z"/><path class="cls-2" d="M188.74,265.09a27.5,27.5,0,1,0-27.5-27.5A27.53,27.53,0,0,0,188.74,265.09Zm0-40a12.5,12.5,0,1,1-12.5,12.5A12.52,12.52,0,0,1,188.74,225.09Z"/></g></g></svg>