<?xml version="1.0" encoding="utf-8"?>
<!-- Generator: Adobe Illustrator 22.0.1, SVG Export Plug-In . SVG Version: 6.00 Build 0)  -->
<svg version="1.1" id="Layer_1" xmlns="http://www.w3.org/2000/svg" xmlns:xlink="http://www.w3.org/1999/xlink" x="0px" y="0px"
	 viewBox="0 0 492.8 491.1" style="enable-background:new 0 0 492.8 491.1;" xml:space="preserve">
<style type="text/css">
	.st0{fill:#6763A8;}
	.st1{fill:#00C2B1;}
</style>
<title>logo only</title>
<g id="Layer_2_1_">
	<g id="logo">
		<path class="st0" d="M219.8,474L219.8,474c24.3,0,48.5-4.4,71.2-13c9.9-3.8,17.9-11.4,22.4-21c0,0,0-0.1,0.1-0.1
			c23.9,15.9,56.2,9.4,72.1-14.5c6.7-10.1,9.7-22.3,8.4-34.3c0,0,0-0.1,0.1-0.1c2.1-1.3,4.1-2.9,5.8-4.6l31.8-31.8
			c69.6-69.1,80.7-177.8,26.6-259.6l-0.1-0.1l-0.1-0.1c-7.7-11.6-16.5-22.4-26.3-32.3c-32.9-32.9-75.9-53.7-122.1-59l0,0
			c-12.4-1.6-25-1.9-37.4-0.9c-10.5,0.6-21.5,2.8-32,4.9c-6.5,1.3-13,3-19.4,5c-30.8,10.1-58.6,27.3-81.3,50l-31.8,31.9
			c-1.8,1.8-3.3,3.7-4.6,5.8c0,0,0,0-0.1,0.1c-28.5-3.1-54.2,17.6-57.2,46.1c-1.3,12.1,1.7,24.2,8.4,34.3v0.1l0,0
			c-9.7,4.4-17.2,12.5-21,22.4c-8.6,22.7-13,46.9-13,71.2l0,0L1.1,472.7c-0.9,9.8,6.2,18.4,16,19.4c1.1,0.1,2.2,0.1,3.3,0L219.8,474
			z M447.4,305.7c0,0-0.1,0.1-0.1,0l0,0c-18.7-43.5-13.7-74.9-13.7-75.2s0.1-0.5,0.1-0.7c2.5-25.4,13-52.1,31.2-79.6h0.1l0,0
			C481.8,202.1,475.3,258.8,447.4,305.7L447.4,305.7z M344.1,29.2l0.1,0.1l0,0c-27.6,18.3-54.3,28.8-79.7,31.3
			c-0.2,0-0.5,0.1-0.7,0.1c-0.2,0-31.8,5-75.3-13.7l-0.1-0.1c0,0,0-0.1,0.1-0.1C235.4,18.8,292.1,12.4,344.1,29.2z M152.2,75.2
			c5.9-5.9,12.2-11.4,18.9-16.5h0.1C223,84.2,262,79.1,266.6,78.4c31.4-3.2,64.3-17.1,97.7-41.3c0,0,0,0,0.1-0.1
			c13.3,6.1,25.8,13.7,37.3,22.7v0.1l0,0C370,91,323.5,126.5,272.8,131.5c-0.2,0-0.5,0.1-0.7,0.1c-0.2,0-16,2.6-40.4-2.5
			c-21.3-4.5-53.6-15.8-88.9-44.4v-0.1l0,0L152.2,75.2z M73.4,127.8c6.6-6.6,15.6-10.2,24.9-10l0,0c0.1,5.9,1.9,11.7,5.1,16.7
			c0,0,0,0.1-0.1,0.1c-4.2,3.5-8.2,7.2-12.1,11c-7.9,8-15.1,16.7-21.4,26c0,0-0.1,0.1-0.1,0l0,0C60.1,158,61.7,139.6,73.4,127.8z
			 M120.5,107l9.5-9.5h0.1c74.5,61.3,138.6,52.9,144.8,51.9c56.3-5.7,106.7-44.3,140.5-77.8h0.1l0,0c1.2,1.2,2.5,2.4,3.7,3.6
			c7.5,7.5,14.3,15.5,20.4,24.1v0.1c-16.6,20.4-83,96.2-158,103.6c-0.2,0-0.4,0-0.7,0.1c-0.2,0-18.4,3-46.1-3.8
			c-25.6-6.3-64.8-22.4-106-63.7l-8.2-8.2C114.8,121.8,114.8,112.6,120.5,107L120.5,107z M346,378.2l0.4,0.4
			c-3.3,4-6.8,7.9-10.5,11.6c-8.7,8.7-18.3,16.3-28.6,22.9l0,0l-37.7-13.4c-17-6-29.7-20-36.5-36.9c-6.1-15.4-28.1-49-40.4-61.2
			c-17.6-17.6-39.1-30.4-62.1-39.5c-16.9-6.7-30-20.3-36.1-37.4L81.1,187l0,0c6.5-10.4,14.2-20,22.9-28.6c3.7-3.7,7.6-7.2,11.6-10.6
			l0.5,0.5c67.8,67.8,131.2,74.1,156.5,73.4c0,0,0.1,0,0.1,0.1l0,0C271.9,247.1,278.2,310.5,346,378.2z M284.7,444.3
			C190.8,480.1,85.8,433,50,339.1c-15.9-41.7-15.9-87.8,0-129.5c2.6-6.7,8.2-11.8,15.1-13.8c0,0,0.1,0,0.1,0.1l12.4,34.9
			c7.8,21.9,24.7,39.4,46.3,48c41.8,16.7,74.9,49.8,91.6,91.6c8.6,21.6,26.1,38.5,48,46.3l34.9,12.4c0,0,0.1,0,0.1,0.1
			C296.5,436.1,291.4,441.7,284.7,444.3L284.7,444.3z M358.6,365.6c-65.4-65.4-68.9-126.1-68-145.6c0,0,0-0.1,0.1-0.1l0,0
			c18.8-2.8,38-9.3,57.5-19.5l0,0c-1.5,6.3-2.6,12.7-3.2,19.1c-0.6,3.5-3.7,27.5,6.6,62.1c1.4,4.7,6.4,7.4,11.1,6s7.4-6.4,6-11.1
			c-9.6-32.3-6.1-54.1-6-54.3c0-0.2,0.1-0.5,0.1-0.7c1.2-11.8,3.9-23.4,8.1-34.6l0,0c12.6-8.4,24.6-17.7,35.9-27.7
			c15.4-13.5,29.7-28.2,42.9-43.9h0.1l0,0c2.7,4.8,5.2,9.6,7.4,14.5v0.1c-24.2,33.4-38.1,66.3-41.3,97.7
			c-0.7,4.6-5.8,43.6,19.7,95.4v0.1c-5.1,6.7-10.6,13-16.5,18.9l-9.5,9.5h-0.1l0,0c-10.9-13.4-20.4-27.8-28.2-43.2
			c-2.2-4.4-7.6-6.2-12-4c-0.3,0.2-0.6,0.3-0.9,0.5c-3.8,2.7-5.1,7.8-2.9,11.9c8.7,16.9,19.1,32.9,31.3,47.5v0.1l-9.5,9.5
			c-5.7,5.6-14.8,5.6-20.4,0L358.6,365.6z M322.7,424.6v-0.1l0,0c9.3-6.4,17.9-13.6,25.8-21.5c3.8-3.8,7.5-7.9,11-12.1h0.1
			c5,3.2,10.7,4.9,16.6,5.1c0,0,0.1,0,0.1,0.1l0,0c0.4,18.8-14.5,34.4-33.4,34.8C335.8,431,328.6,428.8,322.7,424.6z"/>
		<path class="st0" d="M140.5,243.8L140.5,243.8c5.3,5.3,12.6,8,20,7.5c4.9-0.3,8.7-4.5,8.4-9.4s-4.5-8.7-9.4-8.4
			c-0.1,0-0.1,0-0.2,0c-2.3,0.2-4.5-0.7-6.1-2.3l0,0c-1.6-1.6-2.4-3.9-2.3-6.1c0.3-4.9-3.4-9.2-8.3-9.5c-4.9-0.3-9.2,3.4-9.5,8.3
			C132.5,231.2,135.2,238.5,140.5,243.8z"/>
		<path class="st0" d="M250.6,353.7L250.6,353.7c5.3,5.3,12.6,8,20,7.5c4.9-0.3,8.6-4.6,8.3-9.5c-0.3-4.9-4.6-8.6-9.5-8.3
			c-2.3,0.2-4.5-0.7-6.2-2.3l0,0c-1.6-1.6-2.5-3.9-2.3-6.1c0.2-4.9-3.7-9.1-8.7-9.3c-4.7-0.2-8.7,3.4-9.2,8
			C242.6,341.1,245.3,348.4,250.6,353.7z"/>
		<path class="st0" d="M179.5,350.9c-0.3-4.9-4.6-8.6-9.5-8.3l0,0c-9.4,0.6-17.6-6.5-18.2-15.9c-0.1-0.8-0.1-1.6,0-2.3
			c0.3-4.9-3.5-9.1-8.5-9.4c-4.8-0.3-9,3.4-9.4,8.2c-1.3,19.3,13.2,36,32.5,37.3c1.6,0.1,3.2,0.1,4.8,0
			C176.1,360.1,179.8,355.8,179.5,350.9z"/>
		<path class="st1" d="M208.2,286.1c12.8,12.8,33.6,12.8,46.4,0c12.8-12.8,12.8-33.6,0-46.4c-12.8-12.8-33.6-12.8-46.4,0l0,0
			C195.4,252.6,195.4,273.3,208.2,286.1z M241.9,252.4c5.8,5.8,5.8,15.3,0,21.1s-15.3,5.8-21.1,0s-5.8-15.3,0-21.1
			C226.6,246.6,236.1,246.6,241.9,252.4z"/>
	</g>
</g>
</svg>
