<svg xmlns="http://www.w3.org/2000/svg" viewBox="0 0 284.44 320"><defs><style>.cls-1{isolation:isolate;}.cls-2{fill:#323545;}.cls-3,.cls-5,.cls-8{mix-blend-mode:hard-light;}.cls-4,.cls-5{fill:#00c2b1;}.cls-6{fill:#a082af;}.cls-7{fill:#6763a8;}.cls-8,.cls-9{fill:#c95998;}.cls-10{fill:#f8f7f7;}</style></defs><title>login</title><g class="cls-1"><g id="Layer_2" data-name="Layer 2"><g id="OBJECTS"><path class="cls-2" d="M199.85,285.08a226.24,226.24,0,0,1-41.24,7c4.45,9.47,8.76,18.84,12.35,27.95H223.4c0-.21.09-.41.13-.62C225.6,306.86,214.49,295.78,199.85,285.08Z"/><path class="cls-2" d="M7,242.81c16,0,27.72,7.84,41.26,16.91l4.23,2.82c9.17-8.65,15.18-18.58,16.21-30.28C71.31,202,38.9,179.63,23.44,159.32A154.52,154.52,0,0,0,0,174.51v68.54c2.24-.14,4.53-.23,6.91-.24Z"/><path class="cls-2" d="M79.08,76.84a48.84,48.84,0,0,0,5.1-25.73c-26.36,4.47-44,15.53-58.46,24.66C16.5,81.57,8.41,86.66,0,88.93v22.79C40.89,104.71,67.09,100.33,79.08,76.84Z"/><path class="cls-2" d="M47.25,261.15C33.39,251.86,22.44,244.53,7,244.53h0c-2.39,0-4.68.1-6.92.24v48c19.64-8.09,38.24-17.36,51.14-29Z"/><path class="cls-2" d="M160.94,159.33a45.86,45.86,0,0,0-17.83,11.34A24,24,0,0,0,160.94,159.33Z"/><path class="cls-2" d="M43.76,20.94A173.23,173.23,0,0,0,69.93,8.56C68.41,5.71,66.81,2.86,65.16,0H0V28.25A110.84,110.84,0,0,0,43.76,20.94Z"/><path class="cls-2" d="M154.51,194.9a4.73,4.73,0,0,0-1.68-1.86,4.75,4.75,0,0,0-4.9,0,4.72,4.72,0,0,0-1.68,1.88,6.15,6.15,0,0,0,0,5.34,4.72,4.72,0,0,0,1.68,1.88,4.42,4.42,0,0,0,2.44.68,4.62,4.62,0,0,0,2.46-.66,4.69,4.69,0,0,0,1.68-1.87,6.26,6.26,0,0,0,0-5.39Z"/><path class="cls-2" d="M170.73,58.32c14.71,13,32,23.92,38.74,35.44a134.47,134.47,0,0,0,19.47-13.85c-6.71-2.43-13.42-5.08-20.2-7.76C196.44,67.29,184,62.37,170.73,58.32Z"/><path class="cls-2" d="M167.87,55.73c14.88,4.31,28.56,9.71,41.51,14.82,7.16,2.83,14.13,5.58,21,8.07,1.7-1.49,3.38-3,5-4.64,20-19.51,36.61-48,42.43-74H151.52A38,38,0,0,0,147,17.76C147,32.8,156.28,45,167.87,55.73Z"/><path class="cls-2" d="M84.05,49.39c-1.16-12.71-6.31-25.92-13.32-39.3A175,175,0,0,1,44.36,22.55,113.18,113.18,0,0,1,4.47,30c-1.5,0-3,0-4.47-.1V87.12c8.06-2.27,15.88-7.19,24.79-12.8C39.48,65.08,57.28,53.88,84.05,49.39Z"/><path class="cls-2" d="M164.21,158.21a26.2,26.2,0,0,1-5.14,7.28h0l-16.88,20.25a2.34,2.34,0,0,1-3.6,0l-3.2-3.88a50.45,50.45,0,0,0-4,11.06,5.25,5.25,0,0,1,1.81-2.15,5.05,5.05,0,0,1,2.83-.89,2.17,2.17,0,0,1,1.27.38,1.14,1.14,0,0,1,.54.95,1.37,1.37,0,0,1-.36,1,1.15,1.15,0,0,1-.86.36,2.8,2.8,0,0,1-.76-.17,3,3,0,0,0-.94-.2,2.86,2.86,0,0,0-1.71.61,4.39,4.39,0,0,0-1.35,1.66,5.28,5.28,0,0,0-.53,2.36v6.82a1.3,1.3,0,0,1-.38,1,1.27,1.27,0,0,1-1,.4l-.08,0c-.59,26.25,14.21,56.28,27.93,85.43a217,217,0,0,0,40.23-6.63c-24.71-17.69-58-34.44-56-55.06.57-5.78,3.95-12,9.57-18.16a12.12,12.12,0,0,1-1.37.09,10.66,10.66,0,0,1-2.64-.39,4.82,4.82,0,0,1-1.94-.82c-.59-.3-.88-.68-.88-1.13a1.42,1.42,0,0,1,.11-.46,1.07,1.07,0,0,1,1-.7,2,2,0,0,1,.79.17,10.72,10.72,0,0,0,3.54.87,5,5,0,0,0,3.46-1.09,3.81,3.81,0,0,0,1.2-3v-1.53a4.89,4.89,0,0,1-2,1.9,5.89,5.89,0,0,1-3,.79,6.68,6.68,0,0,1-3.56-1,6.9,6.9,0,0,1-2.53-2.76,9,9,0,0,1,0-7.94,6.87,6.87,0,0,1,2.52-2.76,6.54,6.54,0,0,1,3.52-1,6.44,6.44,0,0,1,5,2.43v-.9a1.41,1.41,0,0,1,.37-1,1.25,1.25,0,0,1,1-.4,1.35,1.35,0,0,1,1,.38,1.39,1.39,0,0,1,.38,1v12.44a9.12,9.12,0,0,1-.05.92c.81-.72,1.65-1.44,2.52-2.15a7,7,0,0,1-.83-3.52v-7.52a1.34,1.34,0,0,1,.38-1,1.25,1.25,0,0,1,.95-.4,1.29,1.29,0,0,1,1,.4,1.34,1.34,0,0,1,.38,1v7.52a5.13,5.13,0,0,0,.29,1.81q3.16-2.44,6.72-4.82v-4.51a1.34,1.34,0,0,1,.38-1,1.35,1.35,0,0,1,1.92,0,1.3,1.3,0,0,1,.39,1v2.76c.62-.4,1.25-.79,1.89-1.18v-1.58a1.34,1.34,0,0,1,.38-1,1.25,1.25,0,0,1,.95-.4,1.29,1.29,0,0,1,1,.4,1.32,1.32,0,0,1,.37.93c27.18-15.87,67.27-28.11,108.15-27.38V142.23l-2.94.57C227.65,152.81,189.41,150.27,164.21,158.21Z"/><g class="cls-3"><path class="cls-4" d="M160.94,159.33a23.13,23.13,0,0,0,1.41-2.65,3,3,0,0,0-.13-2.7h0l-4.4,2.09a10.65,10.65,0,0,1-8.79.16,21.55,21.55,0,0,0-17.06,0,10.65,10.65,0,0,1-8.79-.16l-4.4-2.09h0a3,3,0,0,0-.13,2.7,24,24,0,0,0,21.86,14.15,22.89,22.89,0,0,0,2.62-.16A45.86,45.86,0,0,1,160.94,159.33Zm-17,.1a4.59,4.59,0,0,1-6.95,0,1.18,1.18,0,0,1,1.78-1.55,2.23,2.23,0,0,0,3.39,0,1.19,1.19,0,0,1,1.67-.11A1.17,1.17,0,0,1,144,159.43Z"/></g><path class="cls-5" d="M228.94,79.91a134.47,134.47,0,0,1-19.47,13.85c2.46,4.22,3.51,8.51,2.47,13-2.95,12.8-20.43,17.41-45.22,20.67a27.15,27.15,0,0,1,1,7.18v5.93a4.37,4.37,0,0,1-.11,1v0a6.78,6.78,0,0,1,2.55,5.33,6.86,6.86,0,0,1-5.5,6.71h0a5.38,5.38,0,0,1-.13,4c-.09.2-.19.38-.29.57,25.2-7.94,63.44-5.4,117.29-15.41l2.94-.57V91.05C264.92,91.34,246.91,86.41,228.94,79.91Z"/><path class="cls-5" d="M164.35,144.73c.07.71.1,1.43.1,2.14a24.15,24.15,0,0,1-.41,4.42h0a4.5,4.5,0,0,0,2.34-7.67h0a4.23,4.23,0,0,1-2,1.08Z"/><path class="cls-5" d="M140.5,142.78a2,2,0,1,0,2,2A2,2,0,0,0,140.5,142.78Z"/><path class="cls-5" d="M120.13,290.77c-33.15-4.51-53.16-16.54-69-27-12.9,11.63-31.5,20.9-51.14,29V320H171c-3.59-9.11-7.9-18.48-12.35-27.95A187.77,187.77,0,0,1,120.13,290.77Z"/><path class="cls-5" d="M116.63,144.73v0a4.26,4.26,0,0,1-2-1.08,4.49,4.49,0,0,0,2.33,7.67h0a24.12,24.12,0,0,1-.41-4.41C116.53,146.16,116.57,145.44,116.63,144.73Z"/><path class="cls-5" d="M235.44,74c-1.65,1.61-3.33,3.15-5,4.64,17.86,6.46,35.22,11.15,54,10.82V0h-6.57C272.05,26,255.4,54.47,235.44,74Z"/><path class="cls-5" d="M115.65,138.78h0v1.76a1.91,1.91,0,0,0,1.91,1.91h1.52c7.69,0,12.84-2.15,15.81-4a16.66,16.66,0,0,0,4.65-3.94l.05-.07a18.7,18.7,0,0,0,2.6-4.26c-3,.32-6.06.65-9.17,1C131,133.37,125.66,137.8,115.65,138.78Z"/><path class="cls-5" d="M108.36,193a4.77,4.77,0,0,0-4.84,0,4.79,4.79,0,0,0-1.72,1.87,5.67,5.67,0,0,0-.64,2.73,5.5,5.5,0,0,0,.64,2.68,4.76,4.76,0,0,0,1.72,1.86,4.77,4.77,0,0,0,4.84,0,4.76,4.76,0,0,0,1.72-1.86,5.5,5.5,0,0,0,.64-2.68,5.67,5.67,0,0,0-.64-2.73A4.79,4.79,0,0,0,108.36,193Z"/><g class="cls-3"><path class="cls-4" d="M121.91,165.49a26.24,26.24,0,0,1-5.43-7.85,5.38,5.38,0,0,1-.13-4s0,0,0,0a6.84,6.84,0,0,1-3-12v0a3.85,3.85,0,0,1-.12-1v-5.93c0-.33,0-.66,0-1-29.49,4-61.49,10.63-89.88,25.68C38.9,179.63,71.31,202,68.66,232.26c-1,11.7-7,21.63-16.21,30.28,15.63,10.33,35.39,22.1,67.92,26.53a187.34,187.34,0,0,0,37.49,1.37c-13.72-29.15-28.52-59.18-27.93-85.43a1.26,1.26,0,0,1-.89-.36,1.38,1.38,0,0,1-.36-1v-12.1a1.3,1.3,0,0,1,.38-1,1.24,1.24,0,0,1,.95-.4,1.27,1.27,0,0,1,1,.4,1.3,1.3,0,0,1,.38,1V193l.06-.1a50.45,50.45,0,0,1,4-11.06l-13.48-16.36ZM96.18,202.68a1.83,1.83,0,0,0,.54-.1,2.42,2.42,0,0,1,.54-.1.8.8,0,0,1,.62.31,1.18,1.18,0,0,1-.42,1.81,2.78,2.78,0,0,1-1.53.43,7,7,0,0,1-1.71-.2,2.58,2.58,0,0,1-1.39-1,4.11,4.11,0,0,1-.6-2.45v-8.54H90.59a1.2,1.2,0,0,1-1.25-1.25,1.17,1.17,0,0,1,.35-.87,1.25,1.25,0,0,1,.9-.34h1.64V188a1.33,1.33,0,0,1,.38-1,1.3,1.3,0,0,1,1-.39,1.27,1.27,0,0,1,1,.39,1.37,1.37,0,0,1,.38,1v2.38h2.35a1.23,1.23,0,0,1,.89.35,1.21,1.21,0,0,1,.35.89,1.15,1.15,0,0,1-.35.88,1.22,1.22,0,0,1-.89.34H94.91v8.43C94.91,202.21,95.34,202.68,96.18,202.68Zm16.24-1.1a7.18,7.18,0,0,1-2.7,2.74,7.69,7.69,0,0,1-7.55,0,7,7,0,0,1-2.7-2.74,7.92,7.92,0,0,1-1-4,8.09,8.09,0,0,1,1-4,7,7,0,0,1,2.7-2.77,7.69,7.69,0,0,1,7.55,0,7.12,7.12,0,0,1,2.7,2.77,8.09,8.09,0,0,1,1,4A7.92,7.92,0,0,1,112.42,201.58Zm11.68-2.49v-7.52a1.3,1.3,0,0,1,.38-1,1.23,1.23,0,0,1,.94-.4,1.27,1.27,0,0,1,1,.4,1.34,1.34,0,0,1,.38,1v7.52a5.64,5.64,0,0,1-6.22,6.19,6.13,6.13,0,0,1-4.55-1.62,6.2,6.2,0,0,1-1.61-4.57v-7.52a1.3,1.3,0,0,1,.38-1,1.23,1.23,0,0,1,.94-.4,1.27,1.27,0,0,1,1,.4,1.34,1.34,0,0,1,.38,1v7.52q0,3.71,3.48,3.7a3.5,3.5,0,0,0,2.63-.93A3.85,3.85,0,0,0,124.1,199.09Z"/></g><path class="cls-5" d="M164.58,128.62h0l-.24-.86-1.36.17C163.5,128.16,164,128.4,164.58,128.62Z"/><g class="cls-3"><path class="cls-4" d="M161.91,144.81c-12.62,0-19.11-5.31-21.41-7.73,0,0,0,0,0,0-2.29,2.41-8.77,7.73-21.41,7.73H119a20.43,20.43,0,0,0-.1,2.06,22.06,22.06,0,0,0,.53,4.8h0l4.76,2.26a8.25,8.25,0,0,0,6.84.12,23.92,23.92,0,0,1,9.46-2.1A34.83,34.83,0,0,1,150,153.9a8.29,8.29,0,0,0,6.84,0l4.75-2.27h0a22,22,0,0,0,.53-4.79,20.49,20.49,0,0,0-.1-2.07Zm-29.1,5.45a3.4,3.4,0,0,1-2.56,1.17h0a3.42,3.42,0,0,1-2.57-1.17,1.18,1.18,0,0,1,1.78-1.55,1,1,0,0,0,.79.36h0a1,1,0,0,0,.78-.36,1.18,1.18,0,1,1,1.78,1.55Zm7.69-1.19a4.32,4.32,0,1,1,4.32-4.32A4.33,4.33,0,0,1,140.5,149.07Zm12.8,1.17a3.41,3.41,0,0,1-2.56,1.17h0a3.41,3.41,0,0,1-2.56-1.17,1.17,1.17,0,0,1,.11-1.66,1.19,1.19,0,0,1,1.67.11,1,1,0,0,0,.78.36h0a1,1,0,0,0,.79-.36,1.18,1.18,0,1,1,1.78,1.55Z"/></g><path class="cls-5" d="M154.54,133.23a1.18,1.18,0,0,1-.56,2.21,1.22,1.22,0,0,1-.56-.14,19.72,19.72,0,0,1-6.4-5.17c-.1-.12-.19-.25-.28-.38l-1.87.2a23.06,23.06,0,0,1-2.86,5.27h0c1.74,1.89,7.71,7.23,19.9,7.23h1.53a1.91,1.91,0,0,0,1.9-1.91v-1.77h0a34,34,0,0,1-7.34-1.51,1.22,1.22,0,0,1-.84-1.37,1.18,1.18,0,0,1,1.53-.88,32.11,32.11,0,0,0,6.65,1.4s0,0,0,0v-1.76a23.92,23.92,0,0,0-.22-3.29h0a26.42,26.42,0,0,1-6.09-2.94c-3.08.36-6.25.71-9.49,1.06A19.29,19.29,0,0,0,154.54,133.23Z"/><path class="cls-5" d="M115.64,134.63v1.76s0,0,0,0a27.82,27.82,0,0,0,12.41-4.15l.8-.55q-6.48.73-13.18,1.61C115.66,133.75,115.64,134.19,115.64,134.63Z"/><path class="cls-6" d="M84.18,51.11c0-.57-.08-1.15-.13-1.72C57.28,53.88,39.48,65.08,24.79,74.32,15.88,79.93,8.06,84.85,0,87.12v1.81c8.41-2.27,16.5-7.36,25.72-13.16C40.23,66.64,57.82,55.58,84.18,51.11Z"/><path class="cls-6" d="M209.38,70.55C196.43,65.44,182.75,60,167.87,55.73c.94.87,1.9,1.73,2.86,2.59,13.23,4,25.71,9,38,13.83,6.78,2.68,13.49,5.33,20.2,7.76.49-.42,1-.86,1.47-1.29C223.51,76.13,216.54,73.38,209.38,70.55Z"/><path class="cls-7" d="M230.41,78.62c-.49.43-1,.87-1.47,1.29,18,6.5,36,11.43,55.5,11.14V89.44C265.63,89.77,248.27,85.08,230.41,78.62Z"/><path class="cls-6" d="M44.36,22.55A175,175,0,0,0,70.73,10.09c-.26-.51-.53-1-.8-1.53A173.23,173.23,0,0,1,43.76,20.94,110.84,110.84,0,0,1,0,28.25v1.6c1.48.06,3,.1,4.47.1A113.18,113.18,0,0,0,44.36,22.55Z"/><path class="cls-6" d="M7,244.53c15.48,0,26.43,7.33,40.29,16.62l3.89,2.59c.45-.4.88-.8,1.31-1.2l-4.23-2.82C34.68,250.65,23,242.81,7,242.81h0c-2.38,0-4.67.1-6.91.24v1.72c2.24-.14,4.53-.23,6.92-.24Z"/><path class="cls-6" d="M199.85,285.08l-1.76-1.27a217,217,0,0,1-40.23,6.63l.75,1.61A226.24,226.24,0,0,0,199.85,285.08Z"/><path class="cls-7" d="M120.37,289.07c-32.53-4.43-52.29-16.2-67.92-26.53-.43.4-.86.8-1.31,1.2,15.83,10.49,35.84,22.52,69,27a187.77,187.77,0,0,0,38.48,1.28l-.75-1.61A187.34,187.34,0,0,1,120.37,289.07Z"/><path class="cls-8" d="M165.5,202.79a3.53,3.53,0,0,0,2.63-.93,3.85,3.85,0,0,0,.9-2.77v-3q-3.56,2.37-6.72,4.82A3,3,0,0,0,165.5,202.79Z"/><g class="cls-3"><path class="cls-9" d="M176.29,191.54s0,0,0,0V193a5.36,5.36,0,0,1,1.86-2.25,5.08,5.08,0,0,1,2.83-.89,2.14,2.14,0,0,1,1.27.38,1.14,1.14,0,0,1,.54.95,1.41,1.41,0,0,1-.35,1,1.16,1.16,0,0,1-.86.36,2.85,2.85,0,0,1-.77-.17,2.88,2.88,0,0,0-.93-.2,2.82,2.82,0,0,0-1.71.61,4.42,4.42,0,0,0-1.36,1.66,5.27,5.27,0,0,0-.52,2.36v6.82a1.34,1.34,0,0,1-.38,1,1.29,1.29,0,0,1-1,.4,1.27,1.27,0,0,1-1-.38,1.34,1.34,0,0,1-.37-1V193.15c-.64.39-1.27.78-1.89,1.18v4.76a6.49,6.49,0,0,1-10.78,4.57,5,5,0,0,1-.78-1c-.87.71-1.71,1.43-2.52,2.15a6.5,6.5,0,0,1-.93,2.91,5.85,5.85,0,0,1-2.64,2.28,8.77,8.77,0,0,1-2.39.64c-5.62,6.18-9,12.38-9.57,18.16-2.06,20.62,31.27,37.37,56,55.06,12-3.08,23.54-6.83,34.91-10.53,17.26-5.63,34.08-11.11,51.44-13.42v-95.7C243.56,163.43,203.47,175.67,176.29,191.54Zm19.27,7.55a5.65,5.65,0,0,1-6.23,6.19,6.14,6.14,0,0,1-4.55-1.62,6.24,6.24,0,0,1-1.61-4.57v-7.52a1.34,1.34,0,0,1,.38-1,1.25,1.25,0,0,1,.95-.4,1.27,1.27,0,0,1,1,.4,1.3,1.3,0,0,1,.39,1v7.52q0,3.71,3.47,3.7a3.5,3.5,0,0,0,2.63-.93,3.81,3.81,0,0,0,.91-2.77v-7.52a1.34,1.34,0,0,1,.38-1,1.25,1.25,0,0,1,.95-.4,1.27,1.27,0,0,1,1,.4,1.3,1.3,0,0,1,.39,1Z"/></g><path class="cls-8" d="M199.85,285.08c14.64,10.7,25.75,21.78,23.68,34.3,0,.21-.09.41-.13.62h61V261.49c-16.79,2.31-33.29,7.68-50.9,13.42C222.86,278.39,211.7,282,199.85,285.08Z"/><path class="cls-7" d="M198.09,283.81l1.76,1.27c11.85-3.05,23-6.69,33.69-10.17,17.61-5.74,34.11-11.11,50.9-13.42v-1.63c-17.36,2.31-34.18,7.79-51.44,13.42C221.63,277,210.13,280.73,198.09,283.81Z"/><path class="cls-8" d="M137.45,110s0,0,0,0a24.61,24.61,0,0,0-5.58,1.36s0,0,0,0a35.26,35.26,0,0,1-1.29,5.42q3.22-.32,6.47-.7A48.93,48.93,0,0,0,137.45,110Z"/><path class="cls-8" d="M144.65,110.13h0a25,25,0,0,0-4.15-.34h-.69a50.81,50.81,0,0,1-.37,6q2.73-.34,5.47-.75C144.89,112.85,144.75,111.1,144.65,110.13Z"/><path class="cls-8" d="M149.14,111.33a0,0,0,0,0,0,0q-1-.37-2-.66h0c.09,1,.17,2.37.19,4l2.48-.4C149.51,113.32,149.3,112.35,149.14,111.33Z"/><path class="cls-8" d="M151.74,112.49c.1.47.2.93.31,1.37l1.62-.28a20.1,20.1,0,0,0-1.91-1.1S151.74,112.48,151.74,112.49Z"/><path class="cls-8" d="M80.85,2.18,84.52,0H65.16c1.65,2.86,3.25,5.71,4.77,8.56C73.52,6.52,77.11,4.4,80.85,2.18Z"/><path class="cls-8" d="M16.24,135.92C23,114,67.76,121,119.27,117.66c.26-.33.51-.65.78-1a23.53,23.53,0,0,1,3.58-3.4h0a27.06,27.06,0,0,1,16.87-5.88A27.63,27.63,0,0,1,146,108h0a27.36,27.36,0,0,1,11,5c18-3.59,35.93-9.48,52.52-19.19-6.72-11.52-24-22.46-38.74-35.44-21.58-6.61-45.18-10.9-73.43-8.8-4.61.34-9,.89-13.12,1.59a48.84,48.84,0,0,1-5.1,25.73c-12,23.49-38.19,27.87-79.08,34.88v62.79a154.52,154.52,0,0,1,23.44-15.19C17.35,151.31,13.88,143.63,16.24,135.92Z"/><path class="cls-8" d="M70.73,10.09c7,13.38,12.16,26.59,13.32,39.3,4.15-.7,8.51-1.24,13.12-1.59,26.79-2,49.92,1.91,70.7,7.93C156.28,45,147,32.8,147,17.76A38,38,0,0,1,151.52,0H87.92q-3.18,1.86-6.18,3.65C78,5.89,74.36,8,70.73,10.09Z"/><path class="cls-8" d="M129.22,112.48a25.08,25.08,0,0,0-6.64,5c1.79-.13,3.59-.28,5.4-.44a30.81,30.81,0,0,0,1.26-4.49A0,0,0,0,0,129.22,112.48Z"/><path class="cls-7" d="M145.54,128.05h0c-.21.65-.43,1.29-.67,1.9l1.87-.2A19.14,19.14,0,0,1,145.54,128.05Z"/><path class="cls-7" d="M116.38,128.61h0c5.8-2.31,8.27-5.7,8.29-5.74l.06-.06A20.28,20.28,0,0,0,128,117c-1.81.16-3.61.31-5.4.44A24.75,24.75,0,0,0,116.38,128.61Z"/><path class="cls-7" d="M132.07,128.73l.05-.07c2.88-3.51,4.28-8.15,4.9-12.6q-3.24.39-6.47.7a23.17,23.17,0,0,1-4,7.52c-.36.49-3.52,4.6-10.71,7.05h0c-.09.65-.14,1.31-.18,2q6.7-.88,13.18-1.61A16,16,0,0,0,132.07,128.73Z"/><path class="cls-7" d="M144.9,115q-2.75.41-5.47.75c-.62,5-2.14,10.29-5.47,14.35a11.31,11.31,0,0,1-1,1.12c3.11-.35,6.16-.68,9.17-1C144.44,125.22,144.92,119.29,144.9,115Z"/><path class="cls-7" d="M154.4,124.28a24.7,24.7,0,0,1-4.66-10l-2.48.4c0,1.24,0,2.62-.1,4.1a43.77,43.77,0,0,1-.77,5.92h0a18.63,18.63,0,0,0,2.46,4l.06.07a8.2,8.2,0,0,0,.62.72c3.24-.35,6.41-.7,9.49-1.06A18.17,18.17,0,0,1,154.4,124.28Z"/><path class="cls-7" d="M114.33,127.14a27.36,27.36,0,0,1,1.85-4.72c.33-.65.94-1.67,1.34-2.28.56-.83,1.14-1.68,1.75-2.48C67.76,121,23,114,16.24,135.92c-2.36,7.71,1.11,15.39,7.2,23.4,28.39-15,60.39-21.68,89.88-25.68A26.93,26.93,0,0,1,114.33,127.14Z"/><path class="cls-7" d="M156.24,122.82l.06.07a18.59,18.59,0,0,0,6.7,5l1.36-.17a25,25,0,0,0-10.69-14.17l-1.62.28A22.6,22.6,0,0,0,156.24,122.82Z"/><path class="cls-7" d="M159.71,115.33a27.19,27.19,0,0,1,7,12.12c24.79-3.26,42.27-7.87,45.22-20.67,1-4.51,0-8.8-2.47-13C192.88,103.47,175,109.36,157,113A26,26,0,0,1,159.71,115.33Z"/><path class="cls-7" d="M97.17,47.8c-4.61.35-9,.89-13.12,1.59,0,.57.09,1.15.13,1.72,4.15-.7,8.51-1.25,13.12-1.59,28.25-2.1,51.85,2.19,73.43,8.8-1-.86-1.92-1.72-2.86-2.59C147.09,49.71,124,45.81,97.17,47.8Z"/><path class="cls-7" d="M69.93,8.56c.27.51.54,1,.8,1.53C74.36,8,78,5.89,81.74,3.65q3-1.78,6.18-3.65h-3.4L80.85,2.18C77.11,4.4,73.52,6.52,69.93,8.56Z"/><path class="cls-10" d="M97.26,192.84a1.22,1.22,0,0,0,.89-.34,1.15,1.15,0,0,0,.35-.88,1.21,1.21,0,0,0-.35-.89,1.23,1.23,0,0,0-.89-.35H94.91V188a1.37,1.37,0,0,0-.38-1,1.27,1.27,0,0,0-1-.39,1.3,1.3,0,0,0-1,.39,1.33,1.33,0,0,0-.38,1v2.38H90.59a1.25,1.25,0,0,0-.9.34,1.17,1.17,0,0,0-.35.87,1.2,1.2,0,0,0,1.25,1.25h1.64v8.54a4.11,4.11,0,0,0,.6,2.45,2.58,2.58,0,0,0,1.39,1,7,7,0,0,0,1.71.2,2.78,2.78,0,0,0,1.53-.43,1.18,1.18,0,0,0,.42-1.81.8.8,0,0,0-.62-.31,2.42,2.42,0,0,0-.54.1,1.83,1.83,0,0,1-.54.1c-.84,0-1.27-.47-1.27-1.41v-8.43Z"/><path class="cls-10" d="M109.72,190.86a7.69,7.69,0,0,0-7.55,0,7,7,0,0,0-2.7,2.77,8.09,8.09,0,0,0-1,4,7.92,7.92,0,0,0,1,4,7,7,0,0,0,2.7,2.74,7.69,7.69,0,0,0,7.55,0,7.18,7.18,0,0,0,2.7-2.74,7.92,7.92,0,0,0,1-4,8.09,8.09,0,0,0-1-4A7.12,7.12,0,0,0,109.72,190.86Zm.36,9.44a4.76,4.76,0,0,1-1.72,1.86,4.77,4.77,0,0,1-4.84,0,4.76,4.76,0,0,1-1.72-1.86,5.5,5.5,0,0,1-.64-2.68,5.67,5.67,0,0,1,.64-2.73,4.79,4.79,0,0,1,1.72-1.87,4.77,4.77,0,0,1,4.84,0,4.79,4.79,0,0,1,1.72,1.87,5.67,5.67,0,0,1,.64,2.73A5.5,5.5,0,0,1,110.08,200.3Z"/><path class="cls-10" d="M117.08,199.09v-7.52a1.34,1.34,0,0,0-.38-1,1.27,1.27,0,0,0-1-.4,1.23,1.23,0,0,0-.94.4,1.3,1.3,0,0,0-.38,1v7.52a6.2,6.2,0,0,0,1.61,4.57,6.13,6.13,0,0,0,4.55,1.62,5.64,5.64,0,0,0,6.22-6.19v-7.52a1.34,1.34,0,0,0-.38-1,1.27,1.27,0,0,0-1-.4,1.23,1.23,0,0,0-.94.4,1.3,1.3,0,0,0-.38,1v7.52a3.85,3.85,0,0,1-.91,2.77,3.5,3.5,0,0,1-2.63.93Q117.08,202.79,117.08,199.09Z"/><path class="cls-10" d="M130,205a1.27,1.27,0,0,0,1-.4,1.3,1.3,0,0,0,.38-1v-6.82a5.28,5.28,0,0,1,.53-2.36,4.39,4.39,0,0,1,1.35-1.66,2.86,2.86,0,0,1,1.71-.61,3,3,0,0,1,.94.2,2.8,2.8,0,0,0,.76.17,1.15,1.15,0,0,0,.86-.36,1.37,1.37,0,0,0,.36-1,1.14,1.14,0,0,0-.54-.95,2.17,2.17,0,0,0-1.27-.38,5.05,5.05,0,0,0-2.83.89,5.25,5.25,0,0,0-1.81,2.15,58.57,58.57,0,0,0-1.49,12.1Z"/><path class="cls-10" d="M131.36,191.57a1.3,1.3,0,0,0-.38-1,1.27,1.27,0,0,0-1-.4,1.24,1.24,0,0,0-.95.4,1.3,1.3,0,0,0-.38,1v12.1a1.38,1.38,0,0,0,.36,1,1.26,1.26,0,0,0,.89.36,58.57,58.57,0,0,1,1.49-12.1l-.06.1Z"/><path class="cls-10" d="M157.64,204.76a9.12,9.12,0,0,0,.05-.92V191.4a1.39,1.39,0,0,0-.38-1,1.35,1.35,0,0,0-1-.38,1.25,1.25,0,0,0-1,.4,1.41,1.41,0,0,0-.37,1v.9a6.44,6.44,0,0,0-5-2.43,6.54,6.54,0,0,0-3.52,1,6.87,6.87,0,0,0-2.52,2.76,9,9,0,0,0,0,7.94,6.9,6.9,0,0,0,2.53,2.76,6.68,6.68,0,0,0,3.56,1,5.89,5.89,0,0,0,3-.79,4.89,4.89,0,0,0,2-1.9v1.53a3.81,3.81,0,0,1-1.2,3,5,5,0,0,1-3.46,1.09,10.72,10.72,0,0,1-3.54-.87,2,2,0,0,0-.79-.17,1.07,1.07,0,0,0-1,.7,1.42,1.42,0,0,0-.11.46c0,.45.29.83.88,1.13a4.82,4.82,0,0,0,1.94.82,10.66,10.66,0,0,0,2.64.39,12.12,12.12,0,0,0,1.37-.09A73.57,73.57,0,0,1,157.64,204.76Zm-3.13-4.47a4.69,4.69,0,0,1-1.68,1.87,4.62,4.62,0,0,1-2.46.66,4.42,4.42,0,0,1-2.44-.68,4.72,4.72,0,0,1-1.68-1.88,6.15,6.15,0,0,1,0-5.34,4.72,4.72,0,0,1,1.68-1.88,4.75,4.75,0,0,1,4.9,0,4.73,4.73,0,0,1,1.68,1.86,6.26,6.26,0,0,1,0,5.39Z"/><path class="cls-10" d="M156.71,207.67a6.5,6.5,0,0,0,.93-2.91,73.57,73.57,0,0,0-6,5.83,8.77,8.77,0,0,0,2.39-.64A5.85,5.85,0,0,0,156.71,207.67Z"/><path class="cls-10" d="M162,199.09v-7.52a1.34,1.34,0,0,0-.38-1,1.29,1.29,0,0,0-1-.4,1.25,1.25,0,0,0-.95.4,1.34,1.34,0,0,0-.38,1v7.52a7,7,0,0,0,.83,3.52c.7-.57,1.42-1.14,2.15-1.71A5.13,5.13,0,0,1,162,199.09Z"/><path class="cls-10" d="M171.72,191.57a1.3,1.3,0,0,0-.39-1,1.35,1.35,0,0,0-1.92,0,1.34,1.34,0,0,0-.38,1v4.51c.88-.59,1.77-1.17,2.69-1.75Z"/><path class="cls-10" d="M165.5,205.28a5.65,5.65,0,0,0,6.22-6.19v-4.76c-.92.58-1.81,1.16-2.69,1.75v3a3.85,3.85,0,0,1-.9,2.77,3.53,3.53,0,0,1-2.63.93,3,3,0,0,1-3.19-1.89c-.73.57-1.45,1.14-2.15,1.71a5,5,0,0,0,.78,1A6.15,6.15,0,0,0,165.5,205.28Z"/><path class="cls-10" d="M175.92,190.61a1.29,1.29,0,0,0-1-.4,1.25,1.25,0,0,0-.95.4,1.34,1.34,0,0,0-.38,1v1.58c.88-.54,1.78-1.07,2.68-1.61A1.32,1.32,0,0,0,175.92,190.61Z"/><path class="cls-10" d="M174,204.65a1.27,1.27,0,0,0,1,.38,1.29,1.29,0,0,0,1-.4,1.34,1.34,0,0,0,.38-1v-6.82a5.27,5.27,0,0,1,.52-2.36,4.42,4.42,0,0,1,1.36-1.66,2.82,2.82,0,0,1,1.71-.61,2.88,2.88,0,0,1,.93.2,2.85,2.85,0,0,0,.77.17,1.16,1.16,0,0,0,.86-.36,1.41,1.41,0,0,0,.35-1,1.14,1.14,0,0,0-.54-.95,2.14,2.14,0,0,0-1.27-.38,5.08,5.08,0,0,0-2.83.89A5.36,5.36,0,0,0,176.3,193v-1.44s0,0,0,0c-.9.54-1.8,1.07-2.68,1.61v10.52A1.34,1.34,0,0,0,174,204.65Z"/><path class="cls-10" d="M194.2,190.21a1.25,1.25,0,0,0-.95.4,1.34,1.34,0,0,0-.38,1v7.52a3.81,3.81,0,0,1-.91,2.77,3.5,3.5,0,0,1-2.63.93q-3.47,0-3.47-3.7v-7.52a1.3,1.3,0,0,0-.39-1,1.27,1.27,0,0,0-1-.4,1.25,1.25,0,0,0-.95.4,1.34,1.34,0,0,0-.38,1v7.52a6.24,6.24,0,0,0,1.61,4.57,6.14,6.14,0,0,0,4.55,1.62,5.65,5.65,0,0,0,6.23-6.19v-7.52a1.3,1.3,0,0,0-.39-1A1.27,1.27,0,0,0,194.2,190.21Z"/><path class="cls-10" d="M143.11,170.67a44.49,44.49,0,0,0-6.15,8.26c-.56,1-1.08,1.94-1.57,2.92l3.2,3.88a2.34,2.34,0,0,0,3.6,0l16.88-20.25h0a26.2,26.2,0,0,0,5.14-7.28c-1.11.35-2.21.73-3.27,1.12A24,24,0,0,1,143.11,170.67Z"/><path class="cls-10" d="M164.6,128.61h0c-.56-.22-1.08-.46-1.58-.7l-4,.47a26.42,26.42,0,0,0,6.09,2.94h0a23.92,23.92,0,0,1,.22,3.29v1.76s0,0,0,0a32.11,32.11,0,0,1-6.65-1.4,1.18,1.18,0,0,0-1.53.88,1.22,1.22,0,0,0,.84,1.37,34,34,0,0,0,7.34,1.51h0v1.77a1.91,1.91,0,0,1-1.9,1.91h-1.53c-12.19,0-18.16-5.34-19.9-7.23h0a23.06,23.06,0,0,0,2.86-5.27l-2.69.29a18.7,18.7,0,0,1-2.6,4.26l-.05.07a16.66,16.66,0,0,1-4.65,3.94c-3,1.8-8.12,4-15.81,4h-1.52a1.91,1.91,0,0,1-1.91-1.91v-1.76h0c10-1,15.33-5.41,17.36-7.54l-4.15.47-.8.55a27.82,27.82,0,0,1-12.41,4.15s0,0,0,0v-1.76c0-.44,0-.88,0-1.31l-2.36.32c0,.33,0,.66,0,1v5.93a3.85,3.85,0,0,0,.12,1v0a6.84,6.84,0,0,0,3,12s0,0,0,0a5.38,5.38,0,0,0,.13,4,26.24,26.24,0,0,0,5.43,7.85h0l13.48,16.36c.49-1,1-2,1.57-2.92a44.49,44.49,0,0,1,6.15-8.26,22.89,22.89,0,0,1-2.62.16,24,24,0,0,1-21.86-14.15,3,3,0,0,1,.13-2.7h0l4.4,2.09a10.65,10.65,0,0,0,8.79.16,21.55,21.55,0,0,1,17.06,0,10.65,10.65,0,0,0,8.79-.16l4.4-2.09h0a3,3,0,0,1,.13,2.7,23.13,23.13,0,0,1-1.41,2.65c1.06-.39,2.16-.77,3.27-1.12.1-.19.2-.37.29-.57a5.38,5.38,0,0,0,.13-4h0a6.86,6.86,0,0,0,5.5-6.71,6.78,6.78,0,0,0-2.55-5.33v0a4.37,4.37,0,0,0,.11-1v-5.93a27.15,27.15,0,0,0-1-7.18l-2.36.3ZM116.92,151.3a4.49,4.49,0,0,1-2.33-7.67,4.26,4.26,0,0,0,2,1.08v0c-.06.71-.1,1.43-.1,2.15a24.12,24.12,0,0,0,.41,4.41Zm44.64.37h0L156.8,154a8.29,8.29,0,0,1-6.84,0,34.83,34.83,0,0,0-9.47-1.94,23.92,23.92,0,0,0-9.46,2.1,8.25,8.25,0,0,1-6.84-.12l-4.76-2.26h0a22.06,22.06,0,0,1-.53-4.8,20.43,20.43,0,0,1,.1-2.06h.08c12.64,0,19.12-5.32,21.41-7.73,0,0,0,0,0,0,2.3,2.42,8.79,7.73,21.41,7.73H162a20.49,20.49,0,0,1,.1,2.07A22,22,0,0,1,161.56,151.67Zm4.84-8a4.5,4.5,0,0,1-2.34,7.67h0a24.15,24.15,0,0,0,.41-4.42c0-.71,0-1.43-.1-2.14v0a4.23,4.23,0,0,0,2-1.08Z"/><path class="cls-10" d="M147,130.13a19.72,19.72,0,0,0,6.4,5.17,1.22,1.22,0,0,0,.56.14,1.18,1.18,0,0,0,.56-2.21,19.29,19.29,0,0,1-5-3.78l-2.8.3C146.83,129.88,146.92,130,147,130.13Z"/><path class="cls-10" d="M129.22,112.48a0,0,0,0,1,0,0A30.81,30.81,0,0,1,128,117l2.57-.23a35.26,35.26,0,0,0,1.29-5.42s0,0,0,0a24.61,24.61,0,0,1,5.58-1.36s0,0,0,0a48.93,48.93,0,0,1-.43,6.08l2.41-.29a50.81,50.81,0,0,0,.37-6h.69a25,25,0,0,1,4.15.34h0c.1,1,.24,2.72.25,4.89.79-.11,1.58-.24,2.36-.36,0-1.62-.1-3-.19-4h0q1,.28,2,.66a0,0,0,0,1,0,0c.16,1,.37,2,.6,2.93l2.31-.4c-.11-.44-.21-.9-.31-1.37,0,0,0,0,0,0a20.1,20.1,0,0,1,1.91,1.1c1.1-.21,2.19-.41,3.28-.63a27.36,27.36,0,0,0-11-5h0a27.63,27.63,0,0,0-5.46-.55,27.06,27.06,0,0,0-16.87,5.88h0a23.53,23.53,0,0,0-3.58,3.4c-.27.3-.52.62-.78,1l3.31-.23A25.08,25.08,0,0,1,129.22,112.48Z"/><path class="cls-10" d="M157,113c-1.09.22-2.18.42-3.28.63a25,25,0,0,1,10.69,14.17l2.36-.3a27.19,27.19,0,0,0-7-12.12A26,26,0,0,0,157,113Z"/><path class="cls-10" d="M139.43,115.77l-2.41.29c-.62,4.45-2,9.09-4.9,12.6l-.05.07a16,16,0,0,1-3.21,3l4.15-.47a11.31,11.31,0,0,0,1-1.12C137.29,126.06,138.81,120.75,139.43,115.77Z"/><path class="cls-10" d="M156.3,122.89l-.06-.07a22.6,22.6,0,0,1-4.19-9l-2.31.4a24.7,24.7,0,0,0,4.66,10,18.17,18.17,0,0,0,4.63,4.11l4-.47A18.59,18.59,0,0,1,156.3,122.89Z"/><path class="cls-10" d="M116.18,122.42a27.36,27.36,0,0,0-1.85,4.72,26.93,26.93,0,0,0-1,6.5l2.36-.32c0-.67.09-1.33.18-2h0c7.19-2.45,10.35-6.56,10.71-7.05a23.17,23.17,0,0,0,4-7.52L128,117a20.28,20.28,0,0,1-3.24,5.83l-.06.06s-2.49,3.43-8.29,5.74h0a24.75,24.75,0,0,1,6.2-11.18l-3.31.23c-.61.8-1.19,1.65-1.75,2.48C117.12,120.75,116.51,121.77,116.18,122.42Z"/><path class="cls-10" d="M145.54,128.05a19.14,19.14,0,0,0,1.2,1.7l2.8-.3a8.2,8.2,0,0,1-.62-.72l-.06-.07a18.63,18.63,0,0,1-2.46-4h0a43.77,43.77,0,0,0,.77-5.92c.1-1.48.12-2.86.1-4.1-.78.12-1.57.25-2.36.36,0,4.27-.46,10.2-2.72,15.22l2.69-.29c.24-.61.46-1.25.67-1.9Z"/><path class="cls-10" d="M131,148.71a1,1,0,0,1-.78.36h0a1,1,0,0,1-.79-.36,1.18,1.18,0,0,0-1.78,1.55,3.42,3.42,0,0,0,2.57,1.17h0a3.4,3.4,0,0,0,2.56-1.17,1.18,1.18,0,1,0-1.78-1.55Z"/><path class="cls-10" d="M151.52,148.69a1,1,0,0,1-.79.36h0a1,1,0,0,1-.78-.36,1.19,1.19,0,0,0-1.67-.11,1.17,1.17,0,0,0-.11,1.66,3.41,3.41,0,0,0,2.56,1.17h0a3.41,3.41,0,0,0,2.56-1.17,1.18,1.18,0,1,0-1.78-1.55Z"/><path class="cls-10" d="M142.19,157.88a2.23,2.23,0,0,1-3.39,0,1.18,1.18,0,0,0-1.78,1.55,4.59,4.59,0,0,0,6.95,0,1.17,1.17,0,0,0-.11-1.66A1.19,1.19,0,0,0,142.19,157.88Z"/><path class="cls-10" d="M140.5,140.43a4.32,4.32,0,1,0,4.32,4.32A4.33,4.33,0,0,0,140.5,140.43Zm0,6.28a2,2,0,1,1,2-2A2,2,0,0,1,140.5,146.71Z"/></g></g></g></svg>