<svg xmlns="http://www.w3.org/2000/svg" xmlns:xlink="http://www.w3.org/1999/xlink" viewBox="0 0 145.78 132.85"><defs><style>.cls-1{isolation:isolate;}.cls-2{fill:url(#linear-gradient);}.cls-3{fill:url(#linear-gradient-2);}.cls-4{fill:url(#linear-gradient-3);}.cls-5{fill:url(#linear-gradient-4);}.cls-6{fill:url(#linear-gradient-5);}.cls-7{fill:#fff;stroke-miterlimit:10;}.cls-11,.cls-7{stroke:#a082af;}.cls-8{fill:#a082af;}.cls-9{opacity:0.15;mix-blend-mode:overlay;}.cls-10{fill:#00c2b1;}.cls-11{fill:none;stroke-linecap:round;stroke-linejoin:round;stroke-width:0.5px;stroke-dasharray:4;}</style><linearGradient id="linear-gradient" x1="67.86" y1="58.96" x2="85.27" y2="136.7" gradientUnits="userSpaceOnUse"><stop offset="0" stop-color="#f8f7f7"/><stop offset="1" stop-color="#dbee24"/></linearGradient><linearGradient id="linear-gradient-2" x1="22.37" y1="42" x2="25.16" y2="52.57" xlink:href="#linear-gradient"/><linearGradient id="linear-gradient-3" x1="132.33" y1="186.56" x2="114.16" y2="-42.98" xlink:href="#linear-gradient"/><linearGradient id="linear-gradient-4" x1="108.92" y1="17.11" x2="115.6" y2="17.11" xlink:href="#linear-gradient"/><linearGradient id="linear-gradient-5" x1="38.85" y1="193.97" x2="20.68" y2="-35.58" xlink:href="#linear-gradient"/></defs><title>l-1</title><g class="cls-1"><g id="Layer_2" data-name="Layer 2"><g id="Layer_3" data-name="Layer 3"><path class="cls-2" d="M30.76,77c-15.1,3.21-14,5.88-13.14,11.58S-3.59,95.64.51,106.9s17.88,5,35.85,1.81,32.28,4.57,31.54,9-21.63,1.14-20,9.7,16.52,5.16,36.07,2.13,27.92-10.33,26-13.72-8.88,2-9.7-3.82,40-5.8,42.32-17.74-9.09-13.9-16.93-12.48-7.67-11,7.3-12.6,15.51-14.37,8.56-17-51.32,6.09-51.32,6.09Z"/><path class="cls-3" d="M29.23,47.29a5.47,5.47,0,1,1-5.47-5.47A5.46,5.46,0,0,1,29.23,47.29Z"/><path class="cls-4" d="M129.86,113.17a3.34,3.34,0,1,1-3.34-3.34A3.33,3.33,0,0,1,129.86,113.17Z"/><path class="cls-5" d="M115.6,17.11a3.34,3.34,0,1,1-3.34-3.34A3.35,3.35,0,0,1,115.6,17.11Z"/><path class="cls-6" d="M36.75,125.23a3.34,3.34,0,1,1-3.34-3.34A3.33,3.33,0,0,1,36.75,125.23Z"/><path class="cls-7" d="M120.36,78.23c0,.61,0,1.22,0,1.83a46.86,46.86,0,0,1-12.53,30.16l0,0a46.84,46.84,0,0,1-34.39,15c-.93,0-1.85,0-2.77-.08L69.14,125c-1.3-.11-2.6-.28-3.87-.5l-.18,0c-.67-.12-1.34-.26-2-.41s-1.56-.37-2.33-.58-1.65-.48-2.47-.76A47.05,47.05,0,0,1,39.71,111q-1.5-1.55-2.87-3.22a46.76,46.76,0,0,1-9.26-18.94c-.12-.51-.23-1-.33-1.55-.16-.79-.3-1.59-.41-2.4a45,45,0,0,1-.44-4.82c0-.63,0-1.25,0-1.88a47,47,0,0,1,32.12-44.6,46.34,46.34,0,0,1,10.17-2.16c.95-.1,1.92-.17,2.89-.2.56,0,1.12,0,1.69,0h.13A46.73,46.73,0,0,1,84.65,32.6l.08,0a45.44,45.44,0,0,1,6.24,2c.78.31,1.54.65,2.3,1,.59.28,1.18.58,1.76.88a47,47,0,0,1,16.3,14,45.29,45.29,0,0,1,5.32,9.39A46.75,46.75,0,0,1,120.36,78.23Z"/><path class="cls-8" d="M73.36,31.48c1,0,2,0,2.93.1a46.73,46.73,0,0,1,12,2.33c.88.3,1.65.58,2.37.87a12.86,12.86,0,0,0-.92,3.8c-.24,1.91-.44,3.42-2.28,4.44a5.12,5.12,0,0,1-2.7.78h-.83A2,2,0,0,0,82,45a6.5,6.5,0,0,0-1,3.36,15.72,15.72,0,0,1-.65,3.47c-.65,2-3.71,4.84-6.67,7.56a55.77,55.77,0,0,0-4.87,4.82C67,66.37,64.11,69,61.89,69a2.36,2.36,0,0,1-2.25-1.84c-1-2.7,2.37-6.39,5-9.36a19.78,19.78,0,0,0,3.14-4c.68-1.51-.18-3-1.1-4.56-1.07-1.84-2.18-3.73-1.32-6.09,1.13-3.12,5.43-8.58,7.94-11.62h0m0-.25h-.13c-2.53,3.05-6.9,8.58-8.06,11.78-1.67,4.57,3.8,7.6,2.43,10.63s-9.74,9.27-8.2,13.55a2.58,2.58,0,0,0,2.49,2c2.15,0,5-2.33,7.14-4.87,3.15-3.8,10.51-9.09,11.58-12.47s.24-4.63,1.61-6.77A1.77,1.77,0,0,1,83.91,44l.83,0a5.45,5.45,0,0,0,2.82-.81c3.21-1.78,1.71-5.08,3.41-8.6-.86-.35-1.74-.67-2.62-1a46.63,46.63,0,0,0-12-2.34c-1-.07-2-.1-2.94-.1Z"/><path class="cls-8" d="M65.33,89.82h0A2.83,2.83,0,0,1,68,91.24c1.07,2.09-.37,6.11-3.94,11-3.84,5.27-3.55,7.57-3.25,10a10.8,10.8,0,0,1-1,6.91c-.49,1-1,2.1-1.62,3.28q-1.65-.57-3.09-1.2a46.47,46.47,0,0,1-13.92-9.16,42.66,42.66,0,0,1-4-4.29c3.37-4.6,5.57-6.31,8.08-6.31a9.17,9.17,0,0,1,3.61.91,3.29,3.29,0,0,0,1.34.28c3,0,6.17-3.94,9-7.41,2.22-2.76,4.32-5.35,5.84-5.45h.32m0-.25H65c-3.62.22-9.6,12.86-14.8,12.86a3,3,0,0,1-1.24-.26,9.4,9.4,0,0,0-3.71-.93c-2.68,0-5,1.88-8.4,6.57A45.92,45.92,0,0,0,41,112.28a46.88,46.88,0,0,0,14,9.21c1.08.47,2.19.89,3.31,1.27.55-1.05,1.13-2.2,1.72-3.48,3.56-7.72-2.38-7.72,4.28-16.87,6.46-8.88,4.74-12.84,1-12.84Z"/><path class="cls-8" d="M114.29,55.6c.67,1.21,1.3,2.49,1.88,3.81a46.12,46.12,0,0,1,3.92,17.85c0,.32,0,.65,0,1,0,.63,0,1.19,0,1.7-3,2.19-4.68,5.23-6,10.81-1.23,5.1-4.06,7.36-8,10.49-1.68,1.34-3.57,2.85-5.61,4.81-4.15,4-9.21,6.88-12,6.88a1.84,1.84,0,0,1-1.53-.57,2.68,2.68,0,0,1-.19-2.28c.72-3,4.56-5.5,7.66-7.5,2.4-1.56,4.48-2.9,4.75-4.21a1.44,1.44,0,0,0-.24-1.11,2.31,2.31,0,0,0-2.08-1,10.72,10.72,0,0,0-2.36.38,10.07,10.07,0,0,1-2.26.38c-1,0-2-.32-2.26-2.68-.25-2.59,2.55-4.83,5.51-7.2,3.93-3.15,8-6.4,5.42-10.9a8.54,8.54,0,0,1-.89-6.69c1.25-4.51,6.19-9.32,14.3-13.95m.09-.34c-11.48,6.49-17.81,13.91-13.72,21.1,4.37,7.67-11.58,11.77-11,18,.24,2.3,1.24,2.91,2.51,2.91,1.43,0,3.2-.76,4.62-.76a2.07,2.07,0,0,1,1.87.88c2,3-10.78,6.62-12.21,12.62-.52,2.21.34,3.16,2,3.16,2.81,0,7.92-2.83,12.2-7,6.77-6.51,11.85-8,13.64-15.42,1.35-5.61,3.06-8.61,6-10.74,0-.61,0-1.22,0-1.83,0-.33,0-.66,0-1a46.7,46.7,0,0,0-3.94-17.93,44.94,44.94,0,0,0-2-4.05Z"/><path class="cls-8" d="M86.32,55.05a.53.53,0,0,1,.45.35c.21.53,0,1.73-1.45,3.53L84,60.58c-2.35,3-5.58,7-6.21,8.8-.24.67-.27.77-.17.9l.07.11h.13c.17,0,.22-.09.45-.45s.86-1.33,1.23-1.33h0a.49.49,0,0,1,.22.37A5.33,5.33,0,0,1,78,72.59a2.89,2.89,0,0,1-1.65,1.08.18.18,0,0,1-.17-.07c-.06-.1-.06-.34.14-.73s.21-.61.1-.79A.42.42,0,0,0,76,71.9c-.62,0-1.91,1.08-2.87,2.4A1.45,1.45,0,0,1,72,75a1.18,1.18,0,0,1-1.09-.76,2,2,0,0,1,.84-2.13c2.47-2.23,3.13-2.91,3.05-3.42a.46.46,0,0,0-.31-.38.54.54,0,0,0-.25-.06,1.13,1.13,0,0,0-.69.34.87.87,0,0,1-.46.26.52.52,0,0,1-.34-.21s-.09-.25.62-1.31c1.69-2.51,5.62-6.4,6.26-6.41a.13.13,0,0,1,.08.07c0,.13-.14.47-.28.74-.29.54-.64,1.2-.19,1.71a.34.34,0,0,0,.28.13c.56,0,1.46-1.24,3.55-4.29,1.12-1.64,2.81-4.12,3.26-4.22m0-.25c-1,0-5.84,8.51-6.81,8.51a.13.13,0,0,1-.1,0c-.66-.76,1.16-2.19.32-2.59h-.08c-1.13,0-7.88,7.25-7.1,8.12a.73.73,0,0,0,.53.3c.44,0,.77-.6,1.15-.6a.4.4,0,0,1,.15,0c.58.27-.31,1.14-2.81,3.39-1.83,1.65-.83,3.33.42,3.33a1.69,1.69,0,0,0,1.37-.79A5.72,5.72,0,0,1,76,72.15c.21,0,.25.19,0,.61-.35.71-.2,1.16.26,1.16a3.12,3.12,0,0,0,1.84-1.16c1.64-1.74,2.31-3.92,1.47-4.37a.47.47,0,0,0-.16,0c-.65,0-1.55,1.79-1.65,1.79s0-.19.2-.68c.76-2.14,5.44-7.75,7.49-10.38s1.82-4.14.82-4.28Z"/><path class="cls-8" d="M84.81,98.49a.68.68,0,0,1,.51.24,3.49,3.49,0,0,1,.51,2.42c-.13,1.44-3.77,5.5-5.68,5.5a.8.8,0,0,1-.65-.29c-1-1.2,0-2.75,2-4.87.42-.47.88-1,1.35-1.46l.67-.71a2.15,2.15,0,0,1,1.34-.83m0-.25a2.29,2.29,0,0,0-1.52.91c-.71.76-1.41,1.48-2,2.17-1.87,2.07-3.06,3.81-2,5.19a1,1,0,0,0,.84.39c2,0,5.78-4.11,5.93-5.73.13-1.35-.28-2.93-1.27-2.93Z"/><path class="cls-8" d="M66.06,112.29a1.65,1.65,0,0,1,1.51.83c1.11,1.81.2,6-2.43,11.14-1.38-.24-2.73-.55-4-.91.52-1.37,1-2.87,1.41-4.31,1.06-3.47,2-6.75,3.56-6.75m0-.25c-2.41,0-3.41,6.63-5.31,11.48,1.48.41,3,.75,4.52,1,4.16-8.1,3.58-12.5.79-12.5Z"/><path class="cls-8" d="M58,34.07A55.18,55.18,0,0,0,53.58,45.2C52.08,51,50,54,47.67,54a3.24,3.24,0,0,1-1.23-.26c-1.1-.44-.59-2.75-.22-4.43.31-1.39.46-2.2.17-2.56a.51.51,0,0,0-.4-.19,1.61,1.61,0,0,0-.86.38C43.62,48,43.34,49.71,43,51.83A18,18,0,0,1,40.54,59a20.09,20.09,0,0,1-5.22,5.19c-2.48,1.9-4.82,3.7-5.38,7.13a2.69,2.69,0,0,0,.3,2.23,1.63,1.63,0,0,0,1.33.51,9.3,9.3,0,0,0,1.66-.23,9.23,9.23,0,0,1,1.55-.21,1.16,1.16,0,0,1,.94.32,2.46,2.46,0,0,1,.16,1.9c-.62,3.45-3.51,5.27-7.17,7.57L27,84.51a46.73,46.73,0,0,1,24.09-47.4,45.6,45.6,0,0,1,6.84-3m.51-.44A45.64,45.64,0,0,0,51,36.89,46.93,46.93,0,0,0,26.36,78.23a46.35,46.35,0,0,0,.48,6.7c4.59-3,8.53-4.83,9.28-9,.37-2-.32-2.51-1.34-2.51s-2.24.44-3.21.44-1.71-.48-1.39-2.45c.95-5.82,7.13-6.77,10.57-12.23s1.66-10,4.52-12a1.46,1.46,0,0,1,.72-.33c1.25,0-1.86,6.27.35,7.16a3.49,3.49,0,0,0,1.33.28c2.13,0,4.38-2.24,6.15-9a55,55,0,0,1,4.66-11.63Z"/><path class="cls-9" d="M77.53,78.23c-2.76,3.06-5.83,4.88-4.17,7.26s0,3,.37,5.76,4.93,1.13,6.59-2.79-1.37-3.81,1.54-8S81.57,73.76,77.53,78.23Z"/><path class="cls-8" d="M50.58,37.41a6.81,6.81,0,0,1-2.53,2.83,9.71,9.71,0,0,0-2.64,2.58,7.09,7.09,0,0,1-3.81,2.92c-2.66.85-2.76,2.11-3,5.16A54.15,54.15,0,0,1,38,56.54c-.62,3.54-2.93,4.82-5.61,6.31a24.22,24.22,0,0,0-3.94,2.53,46.87,46.87,0,0,1,22.17-28m.43-.52A47,47,0,0,0,27.94,66.12c4.08-3.81,9.27-3.87,10.26-9.54,1.33-7.66-.18-9.44,3.47-10.6s3.66-3.75,6.51-5.53A6.57,6.57,0,0,0,51,36.89Z"/><path class="cls-8" d="M116.26,59.62a46.14,46.14,0,0,1,3.83,17.52,9.23,9.23,0,0,1-6.85,2.35H112c-.75,0-1.4,0-1.67.41a.91.91,0,0,0,0,.86c.38,1.13,2.15,7-1,11.74-1.75,2.64-4.14,4.41-5.27,4.41a.5.5,0,0,1-.42-.16,1.36,1.36,0,0,1-.05-1,2.91,2.91,0,0,0-1-2.84c-.38-.42-.69-.76-.65-1.17s.54-1.12,1.54-1.92c1.27-1,2.22-1.67,2.92-2.15,1.57-1.07,2.1-1.44,2.53-3.3a4.3,4.3,0,0,0-.92-3.25c-.71-1.17-1.07-1.87-.12-2.64,2-1.6,1.13-3.86,0-7-.19-.52-.4-1.07-.6-1.65a4.76,4.76,0,0,1,.47-3.77c1.42-2.77,4.66-5.21,8.5-6.39m.14-.31c-6.43,1.89-10.6,7-9.35,10.55,1.42,4,2.85,6.64.71,8.37s1.55,3.44.95,6-1.34,2.09-5.36,5.31.7,3,0,6.07c-.23,1,.09,1.51.72,1.51,1.23,0,3.67-1.78,5.47-4.52,2.74-4.12,1.91-9.35,1-12-.29-.84.34-.94,1.48-.94h1.2a9.46,9.46,0,0,0,7.1-2.5,46.7,46.7,0,0,0-3.94-17.93Z"/><path class="cls-8" d="M76.39,31.59a46,46,0,0,1,11.66,2.25,21.59,21.59,0,0,1-1.19,3.57c-1,2.13-3.38,3.18-6.11,4.4l-1,.47c-2.08.95-2.3,2.1-2.58,3.56a10.43,10.43,0,0,1-.93,3c-1,1.93-2.17,3.13-3.15,3.13-.53,0-1-.36-1.28-1.07a4.9,4.9,0,0,1-.13-4c.14-.53.3-1.14.45-1.9a16.91,16.91,0,0,1,.46-1.8c.39-1.31.57-1.9-.48-4.14s.89-4.47,4.32-7.43m-.09-.26c-3.19,2.74-5.64,5.27-4.46,7.79,1.38,2.94.58,2.85,0,5.79s-1.36,3.74-.3,6.06c.38.83.91,1.22,1.51,1.22,1.07,0,2.35-1.21,3.37-3.27,1.61-3.21.27-5,3.39-6.42s6.08-2.49,7.27-5a22.7,22.7,0,0,0,1.27-3.84,46.63,46.63,0,0,0-12-2.34Z"/><path class="cls-8" d="M58.29,102.8h0l.14,0A2.14,2.14,0,0,1,60.05,104a3.05,3.05,0,0,1-.61,2.72,4.13,4.13,0,0,1-2.92,1.52,3.69,3.69,0,0,0-2.79,1.5c-.62,1.06-.12,2.33.45,3.8a10.48,10.48,0,0,1,1,5.14c-.12.9-.24,1.72-.39,2.42a46.49,46.49,0,0,1-13.5-8.9c.43-.68.8-1.3,1.12-1.85,1.18-2,1.77-3,2.82-3a3.61,3.61,0,0,1,1.48.42,5.81,5.81,0,0,0,2.42.67,3.55,3.55,0,0,0,1.26-.25,2.46,2.46,0,0,1,.9-.2,2.51,2.51,0,0,1,.63.09,1,1,0,0,0,.3,0c1,0,2.11-1.35,3.25-2.79,1-1.2,2-2.57,2.82-2.57m0-.25c-1.8,0-4.26,5.36-6.07,5.36a1,1,0,0,1-.24,0,2.67,2.67,0,0,0-.69-.1c-.79,0-1.23.45-2.16.45a5.52,5.52,0,0,1-2.32-.65,4,4,0,0,0-1.58-.44c-1.54,0-2.15,1.8-4.26,5.14a46.88,46.88,0,0,0,14,9.21c.17-.78.32-1.69.45-2.74.48-4-2.61-6.89-1.48-8.85s4.22-.77,5.7-3,.72-3.89-1.16-4.33l-.19,0Z"/><path class="cls-10" d="M38.89,10.66a11.71,11.71,0,0,0-10.18,3.2c-2.14,2.12-3.88,5.46-2.34,10.37,3.28,10.42,15.88,14.9,15.88,14.9S50,28.24,46.74,17.82C45.19,12.91,41.85,11.17,38.89,10.66Zm-1,14.44a3.41,3.41,0,1,1,2.22-4.27A3.41,3.41,0,0,1,37.84,25.1Z"/><path class="cls-10" d="M136.23,32.86a11.71,11.71,0,0,0-7.49-7.6c-2.86-.94-6.63-1-10.29,2.65-7.78,7.67-6,20.93-6,20.93s13.23,1.94,21-5.73C137.1,39.5,137.13,35.73,136.23,32.86ZM122.9,38.51a3.4,3.4,0,1,1,4.82,0A3.41,3.41,0,0,1,122.9,38.51Z"/><path class="cls-11" d="M48.05,32.91S58.82,18.59,80.17,19.49s31.16,21.23,31.16,21.23"/><path class="cls-8" d="M81.84.25h0a.5.5,0,0,1,.44.26l.13.25a19.22,19.22,0,0,1,1.85,5.62l0,.24.24,0L85,6.5l.79-.13.26,0a10.62,10.62,0,0,1,1.47-.15,3.62,3.62,0,0,1,1.73.41.69.69,0,0,1,.34.41.65.65,0,0,1,0,.53.49.49,0,0,1-.14.18,4.67,4.67,0,0,1-3,1.1l-.26,0c-.26,0-.52.06-.79.09l-.5.05-.24,0,0,.24a19.07,19.07,0,0,1-.3,5.92l-.06.27a.49.49,0,0,1-.48.38H83.7a.49.49,0,0,1-.38-.42l-.8-5.91,0-.24-.24,0c-1.41.13-2.81.21-4.16.25l-.26,0,0,.25a4.56,4.56,0,0,1,0,.64,6.28,6.28,0,0,1-.31,1.76l-.09.23a.22.22,0,0,1-.2.14h-.08a.24.24,0,0,1-.14-.18l-.35-2.62,0-.22h-1.1a.51.51,0,0,1-.37-.15A.54.54,0,0,1,75,9a.52.52,0,0,1,.38-.5L76,8.36l.28-.08.21-.06,0-.21-.35-2.63a.21.21,0,0,1,.21-.24.21.21,0,0,1,.18.09l.14.2A5.88,5.88,0,0,1,77.39,7a4.94,4.94,0,0,1,.17.64l.06.25.25-.06C79.18,7.55,80.55,7.26,82,7l.23,0,0-.23L81.35.81a.51.51,0,0,1,.43-.56h.06m0-.25h-.1a.73.73,0,0,0-.63.83l.79,5.92c-1.37.25-2.73.54-4.09.87A5.09,5.09,0,0,0,77.63,7a6.77,6.77,0,0,0-.8-1.68l-.14-.2a.48.48,0,0,0-.39-.19h-.06a.47.47,0,0,0-.4.53L76.19,8l-.85.23a.79.79,0,0,0-.56.74.77.77,0,0,0,.77.78h.88l.35,2.62a.48.48,0,0,0,.31.38.45.45,0,0,0,.16,0,.47.47,0,0,0,.44-.31l.08-.23a6.31,6.31,0,0,0,.33-1.83,4,4,0,0,0,0-.69c1.4,0,2.8-.13,4.19-.25l.79,5.92a.74.74,0,0,0,.58.62.44.44,0,0,0,.16,0,.75.75,0,0,0,.73-.58l.06-.27a19.29,19.29,0,0,0,.3-6c.43-.05.86-.08,1.29-.14A5.34,5.34,0,0,0,89.61,7.9a.92.92,0,0,0,.19-.25.94.94,0,0,0-.39-1.28,3.92,3.92,0,0,0-1.85-.44,11.7,11.7,0,0,0-1.77.2l-1.28.2A19.61,19.61,0,0,0,82.63.64L82.5.39A.77.77,0,0,0,81.84,0Z"/></g></g></g></svg>