<svg xmlns="http://www.w3.org/2000/svg" xmlns:xlink="http://www.w3.org/1999/xlink" viewBox="0 0 127.97 96.72"><defs><style>.dls-1{fill:url(#linear-gradient-l2);}.dls-2{fill:#fff;stroke:#a082af;}.dls-2,.dls-3,.dls-5,.dls-7,.dls-9{stroke-miterlimit:10;}.dls-3,.dls-5,.dls-7,.dls-9{fill:none;}.dls-3{stroke:#c95998;}.dls-4,.dls-8{fill:#a082af;}.dls-4,.dls-5{opacity:0.15;}.dls-5{stroke:#0000a9;stroke-width:0.25px;}.dls-6{fill:#c95998;}.dls-7{stroke:#fff;stroke-width:0.96px;}.dls-9{stroke:#00c2b1;}.dls-10{fill:#00c2b1;}.dls-11{fill:url(#linear-gradient-l2-2);}.dls-12{fill:url(#linear-gradient-l2-3);}.dls-13{fill:url(#linear-gradient-l2-4);}</style><linearGradient id="linear-gradient-l2" x1="50.33" y1="10.07" x2="74.93" y2="102.71" gradientUnits="userSpaceOnUse"><stop offset="0.17" stop-color="#f8f7f7"/><stop offset="0.45" stop-color="#edf4a8"/><stop offset="0.71" stop-color="#e3f161"/><stop offset="0.9" stop-color="#ddef35"/><stop offset="1" stop-color="#dbee24"/></linearGradient><linearGradient id="linear-gradient-l2-2" x1="2.28" y1="32.85" x2="5.09" y2="41.53" xlink:href="#linear-gradient-l2"/><linearGradient id="linear-gradient-l2-3" x1="111.51" y1="85.74" x2="115" y2="95.27" xlink:href="#linear-gradient-l2"/><linearGradient id="linear-gradient-l2-4" x1="107.34" y1="-0.75" x2="110.06" y2="9.38" xlink:href="#linear-gradient-l2"/></defs><title>l-2</title><g id="Layer_2" data-name="Layer 2"><g id="Layer_3" data-name="Layer 3"><path class="dls-1" d="M28.29,37.69C21.7,43.87,2.63,42.28,4.23,57s15,2.17,18.8,5.49S11,65.25,5,75.41.85,95.65,13.14,96.67,55.6,83.5,61.19,85,53.68,86.64,56,93.41,102.61,81.82,105.82,77s-10.63-5.51-8.17-9.08,31.69-11.72,30.27-26-25.1-1.14-32.27-5.33,7.09-3.62,13.53-8.51S108.85,18,91.12,21.65,28.29,37.69,28.29,37.69Z"/><path class="dls-2" d="M92.47,20.39,99,66.65a5.25,5.25,0,0,1-4,6L30.47,84.87a5.46,5.46,0,0,1-6.55-4.55L16.6,28.8Z"/><path class="dls-2" d="M97.65,19.82l6.52,45.89a5.18,5.18,0,0,1-3.92,5.91L36.73,83.69a5.39,5.39,0,0,1-6.44-4.53L23,28.09Z"/><path class="dls-3" d="M96.88,14.37a5.19,5.19,0,0,0-5.42-4.58l-1.26.12-4,.38-1.61.15L35.2,15.12,30,15.61l-2.92.28-6.34.6a5.46,5.46,0,0,0-5,6.19l.87,6.12L23,28.09l69.44-7.7,5.18-.57Z"/><path class="dls-4" d="M74,30.75,52.73,33.37A1.62,1.62,0,0,1,51,32h0a1.53,1.53,0,0,1,1.33-1.75l21.27-2.52a1.54,1.54,0,0,1,1.67,1.34h0A1.47,1.47,0,0,1,74,30.75Z"/><path class="dls-5" d="M43.81,46l-9.06,1.26a1.29,1.29,0,0,1-1.46-1.09l-.75-5.32a1.26,1.26,0,0,1,1.1-1.43l9.07-1.16a1.28,1.28,0,0,1,1.42,1.08l.74,5.24A1.25,1.25,0,0,1,43.81,46Z"/><path class="dls-5" d="M56.77,44.2,48,45.42a1.26,1.26,0,0,1-1.41-1.07l-.74-5.22a1.22,1.22,0,0,1,1-1.4l8.75-1.12a1.23,1.23,0,0,1,1.37,1.06l.73,5.15A1.21,1.21,0,0,1,56.77,44.2Z"/><path class="dls-5" d="M69.26,42.47l-8.42,1.17a1.23,1.23,0,0,1-1.36-1l-.73-5.14a1.19,1.19,0,0,1,1-1.36L68.2,35a1.21,1.21,0,0,1,1.33,1.06l.72,5A1.19,1.19,0,0,1,69.26,42.47Z"/><path class="dls-5" d="M81.32,40.79,73.2,41.92a1.19,1.19,0,0,1-1.32-1l-.72-5a1.17,1.17,0,0,1,1-1.34l8.14-1a1.18,1.18,0,0,1,1.29,1l.7,5A1.15,1.15,0,0,1,81.32,40.79Z"/><path class="dls-5" d="M93,39.17l-7.85,1.09a1.16,1.16,0,0,1-1.27-1l-.71-5A1.14,1.14,0,0,1,84.08,33l7.86-1a1.16,1.16,0,0,1,1.25,1l.69,4.88A1.13,1.13,0,0,1,93,39.17Z"/><path class="dls-5" d="M45.2,55.79l-9,1.39a1.27,1.27,0,0,1-1.46-1.07L34,50.79a1.28,1.28,0,0,1,1.1-1.45l9.05-1.29a1.26,1.26,0,0,1,1.42,1.07l.74,5.24A1.27,1.27,0,0,1,45.2,55.79Z"/><path class="dls-5" d="M58.13,53.81l-8.71,1.34A1.24,1.24,0,0,1,48,54.09l-.74-5.22a1.25,1.25,0,0,1,1.06-1.42l8.72-1.23a1.21,1.21,0,0,1,1.37,1.05l.73,5.14A1.23,1.23,0,0,1,58.13,53.81Z"/><path class="dls-5" d="M70.6,51.9l-8.4,1.29a1.21,1.21,0,0,1-1.36-1L60.11,47a1.21,1.21,0,0,1,1-1.38l8.41-1.2a1.19,1.19,0,0,1,1.33,1l.72,5.05A1.21,1.21,0,0,1,70.6,51.9Z"/><path class="dls-5" d="M82.64,50.06,74.53,51.3a1.18,1.18,0,0,1-1.32-1l-.71-5a1.19,1.19,0,0,1,1-1.36l8.12-1.15a1.16,1.16,0,0,1,1.28,1l.71,5A1.17,1.17,0,0,1,82.64,50.06Z"/><path class="dls-5" d="M94.26,48.28l-7.83,1.2a1.14,1.14,0,0,1-1.27-1l-.71-4.95a1.16,1.16,0,0,1,.94-1.33l7.85-1.11a1.12,1.12,0,0,1,1.24,1L95.17,47A1.14,1.14,0,0,1,94.26,48.28Z"/><path class="dls-5" d="M46.59,65.58l-9,1.5a1.25,1.25,0,0,1-1.46-1l-.75-5.32a1.3,1.3,0,0,1,1.09-1.46l9-1.41a1.24,1.24,0,0,1,1.42,1l.74,5.24A1.3,1.3,0,0,1,46.59,65.58Z"/><path class="dls-5" d="M59.5,63.42l-8.7,1.45a1.21,1.21,0,0,1-1.4-1l-.75-5.23a1.28,1.28,0,0,1,1.06-1.43l8.71-1.36a1.21,1.21,0,0,1,1.37,1L60.52,62A1.26,1.26,0,0,1,59.5,63.42Z"/><path class="dls-5" d="M71.94,61.34l-8.38,1.4a1.18,1.18,0,0,1-1.36-1l-.73-5.13a1.24,1.24,0,0,1,1-1.4l8.4-1.31a1.17,1.17,0,0,1,1.33,1L72.92,60A1.22,1.22,0,0,1,71.94,61.34Z"/><path class="dls-6" d="M84,59.33l-8.1,1.35a1.14,1.14,0,0,1-1.31-1l-.72-5a1.22,1.22,0,0,1,1-1.38L82.92,52a1.14,1.14,0,0,1,1.28,1l.7,5A1.19,1.19,0,0,1,84,59.33Z"/><path class="dls-5" d="M95.56,57.39,87.74,58.7a1.12,1.12,0,0,1-1.27-1l-.7-5a1.16,1.16,0,0,1,.93-1.35l7.83-1.22a1.1,1.1,0,0,1,1.24,1l.7,4.87A1.17,1.17,0,0,1,95.56,57.39Z"/><path class="dls-5" d="M48,75.36,39,77a1.22,1.22,0,0,1-1.45-1l-.75-5.32a1.32,1.32,0,0,1,1.09-1.48l9-1.54a1.22,1.22,0,0,1,1.41,1L49,73.89A1.32,1.32,0,0,1,48,75.36Z"/><path class="dls-5" d="M60.86,73,52.18,74.6a1.2,1.2,0,0,1-1.4-1L50,68.36a1.28,1.28,0,0,1,1.05-1.45l8.69-1.48a1.19,1.19,0,0,1,1.37,1l.73,5.14A1.29,1.29,0,0,1,60.86,73Z"/><path class="dls-5" d="M73.28,70.77l-8.37,1.52a1.15,1.15,0,0,1-1.35-1l-.73-5.13a1.25,1.25,0,0,1,1-1.42l8.38-1.43a1.16,1.16,0,0,1,1.33,1l.71,5.05A1.23,1.23,0,0,1,73.28,70.77Z"/><path class="dls-5" d="M85.27,68.6l-8.08,1.47a1.14,1.14,0,0,1-1.31-1l-.71-5a1.21,1.21,0,0,1,1-1.39l8.09-1.38a1.12,1.12,0,0,1,1.28,1l.71,5A1.22,1.22,0,0,1,85.27,68.6Z"/><path class="dls-5" d="M96.85,66.5l-7.8,1.42a1.1,1.1,0,0,1-1.27-1L87.08,62A1.18,1.18,0,0,1,88,60.63l7.82-1.33a1.1,1.1,0,0,1,1.24,1l.69,4.88A1.18,1.18,0,0,1,96.85,66.5Z"/><polyline class="dls-7" points="77.49 56.48 79.2 57.8 81.48 54.53"/><path class="dls-8" d="M34.11,20.89a1.23,1.23,0,0,1-.46-1.83c2.44-3.18,1.14-7-1.46-7.73-2.89-.85-4.93,1.08-5.88,4.63l-2.48.23s1.53-9,8.54-7.4S38,17.4,35.67,20.51a1.25,1.25,0,0,1-1.56.38Z"/><path class="dls-8" d="M89.67,15.64a1.23,1.23,0,0,1-.45-1.83c2.44-3.18,1.13-7-1.46-7.73-2.9-.85-4.93,1.08-5.88,4.63l-2.48.23s1.53-9,8.54-7.4,5.63,8.61,3.3,11.72a1.26,1.26,0,0,1-1.57.38Z"/><polyline class="dls-9" points="92.09 48.73 81.48 56.97 93.67 51.35"/><path class="dls-10" d="M96.6,56.22,89.24,44a.41.41,0,0,1,.45-.61l2.59.65a1.72,1.72,0,0,0,1.24-.15l10.58-5.66a1.16,1.16,0,0,1,1.54.43L109,44.25a1.18,1.18,0,0,1-.35,1.57l-10,6.69a1.74,1.74,0,0,0-.72,1l-.63,2.58A.41.41,0,0,1,96.6,56.22Z"/><path class="dls-11" d="M6.68,36.11a3.34,3.34,0,1,1-3.34-3.34A3.33,3.33,0,0,1,6.68,36.11Z"/><path class="dls-12" d="M116.56,90.42a3.34,3.34,0,1,1-3.34-3.34A3.33,3.33,0,0,1,116.56,90.42Z"/><circle class="dls-13" cx="108.44" cy="3.34" r="3.34"/></g></g></svg>