<svg xmlns="http://www.w3.org/2000/svg" xmlns:xlink="http://www.w3.org/1999/xlink" viewBox="0 0 145.73 104.48"><defs><style>.els-1{fill:url(#linear-gradient-l3);}.els-2,.els-3{fill:#00c2b1;}.els-2{opacity:0.6;}.els-4{fill:#f8f7f7;}.els-5{fill:#c95998;}.els-6{fill:#a082af;}.els-7{fill:#6763a8;}</style><linearGradient id="linear-gradient-l3" x1="77" y1="13.07" x2="66.45" y2="103.96" gradientUnits="userSpaceOnUse"><stop offset="0.17" stop-color="#f8f7f7"/><stop offset="0.45" stop-color="#edf4a8"/><stop offset="0.71" stop-color="#e3f161"/><stop offset="0.9" stop-color="#ddef35"/><stop offset="1" stop-color="#dbee24"/></linearGradient></defs><title>l-3</title><g id="Layer_2" data-name="Layer 2"><g id="Layer_3" data-name="Layer 3"><path class="els-1" d="M105.49,36.47c17.14-.36,23.57,11.51,22.68,17.22s12.21,7.38,17.1,18.32c3.88,8.66-17.88,5-35.85,1.81s-32.28,4.57-31.54,9,21.63,1.14,20,9.7-16.52,5.17-36.07,2.14S25.6,84.34,27.56,81s17.17,2,18-3.82-21.75-10-33-14.58C3.24,58.72,11,47.87,20.17,46.91c7.92-.82,7.66-10.95-7.31-12.6S-2.65,19.94,4.3,17.3c5.77-2.19,26.13-3.65,50.87,21.06,2,2,5.22,2,8,2.11Z"/><path class="els-2" d="M41.07,46.16l-2.36-.3a1.13,1.13,0,0,0-.52.07.9.9,0,0,0-.39.33l-.06.14a.35.35,0,0,0,0,.14L33.55,79.37a.86.86,0,0,0,.76.9h0l2.35.3h0a.85.85,0,0,0,1-.68l4.16-32.83v-.14a.8.8,0,0,0,0-.15.87.87,0,0,0-.29-.42A1.13,1.13,0,0,0,41.07,46.16Z"/><path class="els-3" d="M35.77,61.87,33.54,79.45a.83.83,0,0,0,.77.82h0l2.35.3h0a.82.82,0,0,0,1-.6l1.95-15.42A7.92,7.92,0,0,1,35.77,61.87Z"/><rect class="els-3" x="39.17" y="48.09" width="0.38" height="4.2" transform="translate(-15.37 82.95) rotate(-82.8)"/><rect class="els-3" x="39.01" y="49.35" width="0.38" height="4.2" transform="translate(-16.78 83.87) rotate(-82.77)"/><rect class="els-3" x="38.82" y="50.87" width="0.38" height="4.2" transform="translate(-18.44 85.02) rotate(-82.79)"/><rect class="els-3" x="38.53" y="53.19" width="0.38" height="4.2" transform="translate(-21 86.76) rotate(-82.78)"/><rect class="els-3" x="38.22" y="55.65" width="0.38" height="4.2" transform="translate(-23.71 88.6) rotate(-82.78)"/><rect class="els-3" x="37.74" y="59.41" width="0.38" height="4.2" transform="translate(-27.86 91.4) rotate(-82.77)"/><rect class="els-3" x="37.3" y="62.93" width="0.38" height="4.2" transform="translate(-31.74 94.07) rotate(-82.8)"/><rect class="els-3" x="36.9" y="66.08" width="0.38" height="4.2" transform="translate(-35.21 96.41) rotate(-82.78)"/><rect class="els-3" x="39.33" y="46.89" width="0.38" height="4.2" transform="translate(-14.06 82.03) rotate(-82.77)"/><rect class="els-3" x="39.43" y="46.1" width="0.38" height="4.2" transform="translate(-13.18 81.44) rotate(-82.78)"/><rect class="els-3" x="39.52" y="45.33" width="0.38" height="4.2" transform="translate(-12.34 80.86) rotate(-82.77)"/><path class="els-3" d="M41.85,47.3l-4.17-.53,0-.23a.35.35,0,0,1,0-.14l4.14.53v.14Z"/><path class="els-3" d="M41.85,46.78l-4.05-.52a.9.9,0,0,1,.39-.33l3.37.43A.87.87,0,0,1,41.85,46.78Z"/><path class="els-2" d="M37,45l-2.36-.3a1,1,0,0,0-.52.07.9.9,0,0,0-.39.33l-.06.14a.32.32,0,0,0,0,.14L29.48,78.15a.87.87,0,0,0,.76.91h.05l2.35.3h0a.86.86,0,0,0,1-.68L37.8,45.86a.71.71,0,0,0,0-.14l0-.15a.82.82,0,0,0-.29-.42A1,1,0,0,0,37,45Z"/><path class="els-3" d="M31.7,60.65,29.47,78.24a.82.82,0,0,0,.77.82h.05l2.35.3h0a.82.82,0,0,0,1-.6l2-15.43A7.75,7.75,0,0,1,31.7,60.65Z"/><rect class="els-3" x="35.1" y="46.88" width="0.38" height="4.2" transform="translate(-17.73 77.85) rotate(-82.8)"/><rect class="els-3" x="34.94" y="48.14" width="0.38" height="4.2" transform="translate(-19.13 78.77) rotate(-82.77)"/><rect class="els-3" x="34.75" y="49.66" width="0.38" height="4.2" transform="matrix(0.13, -0.99, 0.99, 0.13, -20.79, 79.92)"/><rect class="els-3" x="34.46" y="51.98" width="0.38" height="4.2" transform="matrix(0.13, -0.99, 0.99, 0.13, -23.36, 81.66)"/><rect class="els-3" x="34.15" y="54.43" width="0.38" height="4.2" transform="translate(-26.06 83.5) rotate(-82.78)"/><rect class="els-3" x="33.67" y="58.2" width="0.38" height="4.2" transform="translate(-30.21 86.32) rotate(-82.79)"/><rect class="els-3" x="33.22" y="61.72" width="0.38" height="4.2" transform="translate(-34.1 88.95) rotate(-82.78)"/><rect class="els-3" x="32.83" y="64.87" width="0.38" height="4.2" transform="translate(-37.57 91.31) rotate(-82.78)"/><rect class="els-3" x="35.26" y="45.68" width="0.38" height="4.2" transform="matrix(0.13, -0.99, 0.99, 0.13, -16.41, 76.94)"/><rect class="els-3" x="35.36" y="44.88" width="0.38" height="4.2" transform="translate(-15.54 76.33) rotate(-82.77)"/><rect class="els-3" x="35.45" y="44.12" width="0.38" height="4.2" transform="translate(-14.69 75.76) rotate(-82.77)"/><path class="els-3" d="M37.78,46.09l-4.17-.53,0-.23a.32.32,0,0,1,0-.14l4.14.53a.71.71,0,0,1,0,.14Z"/><path class="els-3" d="M37.78,45.57l-4.05-.52a.9.9,0,0,1,.39-.33l3.37.43A.82.82,0,0,1,37.78,45.57Z"/><path class="els-2" d="M42.94,79.42l-.67,2.28a.93.93,0,0,0,0,.52.87.87,0,0,0,.27.44l.12.09.13,0,31.74,9.37a.86.86,0,0,0,1-.61v0l.68-2.28v0a.85.85,0,0,0-.52-1.06L44,78.77l-.14,0h-.16a.89.89,0,0,0-.46.22A1,1,0,0,0,42.94,79.42Z"/><path class="els-3" d="M57.59,87.17l17,5a.81.81,0,0,0,.93-.63v0l.68-2.28v0a.81.81,0,0,0-.44-1L60.87,83.76A7.81,7.81,0,0,1,57.59,87.17Z"/><rect class="els-3" x="44.54" y="81.56" width="4.2" height="0.38" transform="translate(-44.97 103.34) rotate(-73.55)"/><rect class="els-3" x="45.76" y="81.92" width="4.2" height="0.38" transform="translate(-44.44 104.76) rotate(-73.55)"/><rect class="els-3" x="47.23" y="82.36" width="4.2" height="0.38" transform="translate(-43.8 106.5) rotate(-73.57)"/><rect class="els-3" x="49.47" y="83.02" width="4.2" height="0.38" transform="translate(-42.83 109.1) rotate(-73.55)"/><rect class="els-3" x="51.84" y="83.72" width="4.2" height="0.38" transform="translate(-41.8 111.88) rotate(-73.55)"/><rect class="els-3" x="55.48" y="84.79" width="4.2" height="0.38" transform="translate(-40.23 116.14) rotate(-73.55)"/><rect class="els-3" x="58.89" y="85.8" width="4.2" height="0.38" transform="translate(-38.75 120.13) rotate(-73.55)"/><rect class="els-3" x="61.93" y="86.7" width="4.2" height="0.38" transform="translate(-37.42 123.72) rotate(-73.56)"/><rect class="els-3" x="43.38" y="81.22" width="4.2" height="0.38" transform="matrix(0.28, -0.96, 0.96, 0.28, -45.47, 101.98)"/><rect class="els-3" x="42.61" y="80.99" width="4.2" height="0.38" transform="translate(-45.81 101.05) rotate(-73.53)"/><rect class="els-3" x="41.87" y="80.78" width="4.2" height="0.38" transform="translate(-46.13 100.21) rotate(-73.55)"/><path class="els-3" d="M44.19,78.84l-1.19,4-.23-.07-.13,0,1.19-4,.14,0Z"/><path class="els-3" d="M43.67,78.75l-1.15,3.91a.87.87,0,0,1-.27-.44l1-3.25A.89.89,0,0,1,43.67,78.75Z"/><path class="els-2" d="M47.52,76.39l-.67,2.28a1.06,1.06,0,0,0,0,.53.8.8,0,0,0,.26.43.6.6,0,0,0,.13.09l.13,0,31.73,9.37a.87.87,0,0,0,1-.6v-.05l.67-2.27,0,0a.87.87,0,0,0-.53-1.06L48.55,75.74h-.14a.38.38,0,0,0-.15,0h-.14l0,0,0,0,0,0h0l0,0-.08,0,0,0,0,0,0,0A1.15,1.15,0,0,0,47.52,76.39Z"/><path class="els-3" d="M62.17,84.15l17,5a.84.84,0,0,0,.93-.63v-.05l.67-2.27,0,0a.83.83,0,0,0-.44-1L65.45,80.73a.31.31,0,0,1,0,.1A7.74,7.74,0,0,1,62.17,84.15Z"/><rect class="els-3" x="49.13" y="78.54" width="4.2" height="0.38" transform="translate(-38.78 105.56) rotate(-73.55)"/><rect class="els-3" x="50.35" y="78.9" width="4.2" height="0.38" transform="translate(-38.25 106.99) rotate(-73.55)"/><rect class="els-3" x="51.81" y="79.33" width="4.2" height="0.38" transform="translate(-37.62 108.71) rotate(-73.55)"/><rect class="els-3" x="54.06" y="79.99" width="4.2" height="0.38" transform="translate(-36.64 111.33) rotate(-73.55)"/><rect class="els-3" x="56.43" y="80.69" width="4.2" height="0.38" transform="matrix(0.28, -0.96, 0.96, 0.28, -35.62, 114.09)"/><rect class="els-3" x="60.07" y="81.77" width="4.2" height="0.38" transform="translate(-34.03 118.39) rotate(-73.56)"/><rect class="els-3" x="63.47" y="82.77" width="4.2" height="0.38" transform="translate(-32.56 122.36) rotate(-73.55)"/><rect class="els-3" x="66.52" y="83.67" width="4.2" height="0.38" transform="translate(-31.25 125.89) rotate(-73.53)"/><rect class="els-3" x="47.97" y="78.19" width="4.2" height="0.38" transform="translate(-39.29 104.2) rotate(-73.55)"/><rect class="els-3" x="47.2" y="77.97" width="4.2" height="0.38" transform="translate(-39.62 103.3) rotate(-73.55)"/><rect class="els-3" x="46.46" y="77.75" width="4.2" height="0.38" transform="translate(-39.94 102.44) rotate(-73.55)"/><path class="els-3" d="M48.78,75.81l-1.2,4-.22-.07-.13,0,1.18-4,.14,0Z"/><path class="els-3" d="M48.26,75.72,47.1,79.63a.8.8,0,0,1-.26-.43l1-3.26A.83.83,0,0,1,48.26,75.72Z"/><path class="els-2" d="M47.05,72l-.68,2.28a1,1,0,0,0,0,.52.85.85,0,0,0,.26.44.57.57,0,0,0,.13.08.38.38,0,0,0,.13.06l31.74,9.37a.62.62,0,0,0,.38,0,.89.89,0,0,0,.61-.57s0,0,0,0v0l.68-2.28v0a.86.86,0,0,0-.52-1.06L48.07,71.33l-.14,0h-.15a.83.83,0,0,0-.46.22A1,1,0,0,0,47.05,72Z"/><path class="els-3" d="M61.7,79.73l17,5a.56.56,0,0,0,.34,0,1,1,0,0,0,.57-.59s0,0,0,0v0l.68-2.28v0a.82.82,0,0,0-.44-1L65,76.32a7.94,7.94,0,0,1-3.15,3.34Z"/><path class="els-2" d="M47.48,67.73,46.81,70a1,1,0,0,0,0,.53.84.84,0,0,0,.27.43.34.34,0,0,0,.12.09l.13.06,31.74,9.37a.86.86,0,0,0,1-.61v0l.68-2.28v0a.87.87,0,0,0-.43-1l-.09,0L48.51,67.08l-.14,0h-.16a.91.91,0,0,0-.46.23A1,1,0,0,0,47.48,67.73Z"/><path class="els-3" d="M62.13,75.48l17,5a.82.82,0,0,0,.93-.63v0l.68-2.28v0a.86.86,0,0,0-.36-1l-.08,0-14.91-4.4h0A7.81,7.81,0,0,1,62.13,75.48Z"/><path class="els-2" d="M51,64.39l-.67,2.28a.87.87,0,0,0,0,.53.8.8,0,0,0,.26.43l.13.09,0,0h.09l31.73,9.37a.85.85,0,0,0,1-.6l0-.05.67-2.27v-.09a.87.87,0,0,0-.35-.93l0,0-.16-.07L52,63.74h-.29a.83.83,0,0,0-.46.22A1,1,0,0,0,51,64.39Z"/><path class="els-3" d="M65.65,72.15l17,5a.83.83,0,0,0,.93-.63l0-.05.67-2.27v-.09a.87.87,0,0,0-.3-.93h0l-.11,0L68.93,68.73v0a7.81,7.81,0,0,1-3.26,3.38Z"/><path class="els-2" d="M52.25,60.41l-.67,2.28a1,1,0,0,0,0,.53.8.8,0,0,0,.26.43l.1.07h0l0,0,.13,0,31.73,9.37.1,0h0a.89.89,0,0,0,.87-.63l0,0,.67-2.27v0A.85.85,0,0,0,85,69.13L53.28,59.76h-.14a.38.38,0,0,0-.15,0h-.14l-.05,0,0,0,0,0h0l-.08,0,0,0,0,0,0,0A1,1,0,0,0,52.25,60.41Z"/><path class="els-3" d="M66.9,68.17l17,5H84a.84.84,0,0,0,.84-.64l0,0,.67-2.27v0a.81.81,0,0,0-.43-1L70.18,64.75l-.05.1a7.87,7.87,0,0,1-3.19,3.3Z"/><path class="els-2" d="M51.77,56l-.67,2.27a1.06,1.06,0,0,0,0,.53.79.79,0,0,0,.26.44.57.57,0,0,0,.13.08.52.52,0,0,0,.13.06l31.73,9.37a.86.86,0,0,0,.39,0,.93.93,0,0,0,.61-.57l0,0v0L85,65.82l0,0a.86.86,0,0,0-.52-1.06L52.8,55.35a.58.58,0,0,0-.14,0h-.15a.83.83,0,0,0-.46.22A1.08,1.08,0,0,0,51.77,56Z"/><path class="els-3" d="M66.43,63.75l17,5a.65.65,0,0,0,.34,0,1,1,0,0,0,.57-.59l0,0v0L85,65.82l0,0a.84.84,0,0,0-.44-1l-14.91-4.4a8,8,0,0,1-3.15,3.34Z"/><path class="els-2" d="M50.37,51.2l-.67,2.28a1.06,1.06,0,0,0,0,.53.8.8,0,0,0,.26.43.6.6,0,0,0,.13.09l.13,0L81.94,64a.87.87,0,0,0,1-.6V63.3L83.64,61l0-.05a.87.87,0,0,0-.44-1,.2.2,0,0,0-.08,0L51.4,50.55l-.14,0h-.15a.83.83,0,0,0-.46.22A1.15,1.15,0,0,0,50.37,51.2Z"/><path class="els-3" d="M65,59l17,5a.84.84,0,0,0,.93-.63V63.3L83.64,61l0-.05a.85.85,0,0,0-.36-1l-.08,0L68.3,55.54h0A7.81,7.81,0,0,1,65,59Z"/><path class="els-2" d="M55.73,48.41l-.67,2.28a.93.93,0,0,0,0,.52.87.87,0,0,0,.27.44l.12.09,0,0h.09L87.3,61.16a.85.85,0,0,0,1-.61l0,0L89,58.23v0a.85.85,0,0,0-.52-1.06L56.76,47.76h0l-.1,0h-.23l0,0h-.1l-.1.06,0,0h0l0,0,0,0A1,1,0,0,0,55.73,48.41Z"/><path class="els-3" d="M70.38,56.16l17,5a.81.81,0,0,0,.93-.63l0,0L89,58.23v0a.82.82,0,0,0-.44-1l-14.91-4.4a.41.41,0,0,1,0,.09,7.76,7.76,0,0,1-3.22,3.32Z"/><path class="els-2" d="M54.56,43.79l-.67,2.27a.87.87,0,0,0,0,.53.76.76,0,0,0,.26.43.38.38,0,0,0,.13.09l.13,0,31.73,9.37a.67.67,0,0,0,.37,0,.91.91,0,0,0,.63-.58v0l0,0,.67-2.27v0a.87.87,0,0,0-.43-1l-.09,0L55.59,43.14a.35.35,0,0,0-.14,0H55.3a.84.84,0,0,0-.46.23A.94.94,0,0,0,54.56,43.79Z"/><path class="els-3" d="M69.21,51.54l17,5a.65.65,0,0,0,.34,0,.94.94,0,0,0,.58-.6v0l0,0,.67-2.27v0a.84.84,0,0,0-.36-1l-.07,0-14.92-4.4h0a8,8,0,0,1-3.15,3.35Z"/><path class="els-2" d="M58.08,40.45l-.67,2.28a1.06,1.06,0,0,0,0,.53.8.8,0,0,0,.26.43l.13.09,0,0h.09L89.65,53.2a.87.87,0,0,0,1-.6v-.05l.67-2.27,0-.05a.86.86,0,0,0-.52-1.06L59.11,39.8l-.14,0h-.15a.83.83,0,0,0-.46.22A1.15,1.15,0,0,0,58.08,40.45Z"/><path class="els-3" d="M72.74,48.21l17,5a.84.84,0,0,0,.93-.63v-.05l.67-2.27,0-.05a.83.83,0,0,0-.44-1L76,44.79a7.81,7.81,0,0,1-3.28,3.41Z"/><rect class="els-3" x="48.65" y="74.12" width="4.2" height="0.38" transform="translate(-34.89 101.94) rotate(-73.55)"/><rect class="els-3" x="49.87" y="74.48" width="4.2" height="0.38" transform="translate(-34.37 103.35) rotate(-73.53)"/><rect class="els-3" x="51.34" y="74.92" width="4.2" height="0.38" transform="translate(-33.73 105.06) rotate(-73.54)"/><rect class="els-3" x="53.58" y="75.58" width="4.2" height="0.38" transform="translate(-32.75 107.71) rotate(-73.55)"/><rect class="els-3" x="55.95" y="76.28" width="4.2" height="0.38" transform="translate(-31.72 110.49) rotate(-73.55)"/><rect class="els-3" x="59.59" y="77.35" width="4.2" height="0.38" transform="translate(-30.15 114.75) rotate(-73.55)"/><rect class="els-3" x="63" y="78.36" width="4.2" height="0.38" transform="translate(-28.68 118.71) rotate(-73.53)"/><rect class="els-3" x="66.04" y="79.26" width="4.2" height="0.38" transform="translate(-27.35 122.3) rotate(-73.55)"/><rect class="els-3" x="47.49" y="73.78" width="4.2" height="0.38" transform="translate(-35.39 100.58) rotate(-73.55)"/><rect class="els-3" x="46.72" y="73.55" width="4.2" height="0.38" transform="translate(-35.73 99.66) rotate(-73.53)"/><rect class="els-3" x="45.98" y="73.33" width="4.2" height="0.38" transform="translate(-36.05 98.81) rotate(-73.55)"/><path class="els-3" d="M48.3,71.4l-1.19,4-.23-.07a.38.38,0,0,1-.13-.06l1.18-4,.14,0Z"/><path class="els-3" d="M47.78,71.31l-1.16,3.91a.85.85,0,0,1-.26-.44l1-3.25A.83.83,0,0,1,47.78,71.31Z"/><rect class="els-3" x="60.02" y="73.1" width="4.2" height="0.38" transform="translate(-25.76 112.11) rotate(-73.55)"/><rect class="els-3" x="63.43" y="74.11" width="4.2" height="0.38" transform="translate(-24.28 116.1) rotate(-73.55)"/><rect class="els-3" x="66.47" y="75" width="4.2" height="0.38" transform="translate(-22.96 119.66) rotate(-73.55)"/><path class="els-3" d="M49.25,71.68l1.19-4,.31.09,0,0,1.18-4H52l1.15-3.91-.14,0-1.14,3.87a.8.8,0,0,1-.26-.43l1-3.26a.79.79,0,0,1,.37-.2l-.13,0,1.2-4,.36.11-1.17,3.94.12,0,.22.07-1.19,4-.06,0-1.19,4-.22-.07h0l-1.19,4Z"/><rect class="els-3" x="47.15" y="69.3" width="4.2" height="0.38" transform="translate(-31.34 97.05) rotate(-73.55)"/><rect class="els-3" x="46.41" y="69.08" width="4.2" height="0.38" transform="translate(-31.65 96.2) rotate(-73.56)"/><path class="els-3" d="M48.73,67.14l-1.19,4-.23-.06-.13-.06,1.19-4,.14,0Z"/><path class="els-3" d="M48.21,67.05,47.06,71a.84.84,0,0,1-.27-.43l1-3.25A.91.91,0,0,1,48.21,67.05Z"/><polygon class="els-3" points="53.93 68.69 55.12 64.66 55.19 64.68 56.37 60.67 56.73 60.78 55.54 64.81 55.48 64.79 54.29 68.78 54.65 68.89 53.45 72.92 53.09 72.81 54.28 68.79 53.93 68.69"/><polygon class="els-3" points="57.81 65.45 57.87 65.47 59.06 61.47 59.42 61.58 58.23 65.6 58.16 65.58 56.98 69.58 56.89 69.56 55.7 73.58 55.34 73.47 56.53 69.44 56.62 69.47 57.81 65.45"/><path class="els-3" d="M51.74,63.72l-1.16,3.91a.8.8,0,0,1-.26-.43l1-3.26A.83.83,0,0,1,51.74,63.72Z"/><polygon class="els-3" points="61.3 62.13 61.66 62.24 60.47 66.27 60.4 66.25 59.22 70.24 59.26 70.25 58.07 74.28 57.71 74.17 58.9 70.15 58.86 70.14 60.05 66.11 60.12 66.13 61.3 62.13"/><polygon class="els-3" points="63.67 62.83 64.03 62.94 62.84 66.97 62.78 66.95 61.59 70.95 61.23 70.84 62.42 66.81 62.49 66.83 63.67 62.83"/><polygon class="els-3" points="67.31 63.91 67.67 64.01 66.48 68.04 66.42 68.02 65.23 72.02 64.87 71.92 66.06 67.89 66.13 67.91 67.31 63.91"/><polygon class="els-3" points="70.72 64.91 71.08 65.02 69.89 69.05 69.82 69.03 68.64 73.03 68.28 72.92 69.47 68.89 69.54 68.91 70.72 64.91"/><polygon class="els-3" points="73.76 65.81 74.12 65.92 72.93 69.94 72.86 69.92 71.68 73.92 71.32 73.82 72.51 69.79 72.58 69.81 73.76 65.81"/><polygon class="els-3" points="55.21 60.33 55.57 60.44 54.38 64.47 54.31 64.45 53.13 68.44 53.18 68.46 51.99 72.49 51.63 72.38 52.82 68.36 52.77 68.34 53.96 64.31 54.03 64.33 55.21 60.33"/><polygon class="els-3" points="54.44 60.11 54.73 60.19 55.9 56.26 56.26 56.37 55.06 60.4 54.77 60.31 53.61 64.24 53.55 64.22 52.36 68.22 52 68.11 53.19 64.09 53.26 64.11 54.44 60.11"/><rect class="els-3" x="54.6" y="58.5" width="4.2" height="0.38" transform="translate(-15.64 96.45) rotate(-73.55)"/><polygon class="els-3" points="57.78 61.09 57.95 61.14 56.76 65.17 56.7 65.15 55.51 69.15 55.15 69.05 56.34 65.02 56.41 65.04 57.56 61.13 57.39 61.08 58.58 57.05 58.94 57.16 57.78 61.09"/><rect class="els-3" x="58.31" y="59.6" width="4.2" height="0.38" transform="translate(-14.02 100.81) rotate(-73.57)"/><rect class="els-3" x="60.68" y="60.3" width="4.2" height="0.38" transform="translate(-13.01 103.57) rotate(-73.55)"/><rect class="els-3" x="64.32" y="61.37" width="4.2" height="0.38" transform="translate(-11.43 107.83) rotate(-73.55)"/><rect class="els-3" x="67.73" y="62.38" width="4.2" height="0.38" transform="translate(-9.96 111.8) rotate(-73.54)"/><rect class="els-3" x="70.77" y="63.28" width="4.2" height="0.38" transform="matrix(0.28, -0.96, 0.96, 0.28, -8.63, 115.38)"/><polygon class="els-3" points="53.93 59.95 54.06 59.99 52.87 64.02 52.8 64 51.62 68 51.96 68.1 50.77 72.13 50.41 72.02 51.6 68 51.26 67.9 52.45 63.87 52.52 63.89 53.67 59.99 53.54 59.95 54.73 55.92 55.09 56.02 53.93 59.95"/><rect class="els-3" x="50.71" y="57.35" width="4.2" height="0.38" transform="translate(-17.33 91.89) rotate(-73.55)"/><path class="els-3" d="M51.48,59.32l1.18-4a.58.58,0,0,1,.14,0l.23.06-1.19,4-.23-.06A.52.52,0,0,1,51.48,59.32Z"/><path class="els-3" d="M51.09,58.8l1-3.25a.83.83,0,0,1,.46-.22l-1.16,3.91A.79.79,0,0,1,51.09,58.8Z"/><rect class="els-3" x="51.98" y="53.35" width="4.2" height="0.38" transform="translate(-12.58 90.24) rotate(-73.55)"/><rect class="els-3" x="56.91" y="54.8" width="4.2" height="0.38" transform="translate(-10.44 96.01) rotate(-73.55)"/><rect class="els-3" x="59.28" y="55.5" width="4.2" height="0.38" transform="translate(-9.41 98.79) rotate(-73.55)"/><rect class="els-3" x="62.92" y="56.58" width="4.2" height="0.38" transform="translate(-7.83 103.05) rotate(-73.55)"/><rect class="els-3" x="66.32" y="57.58" width="4.2" height="0.38" transform="translate(-6.36 107.04) rotate(-73.55)"/><rect class="els-3" x="69.37" y="58.48" width="4.2" height="0.38" transform="translate(-5.05 110.58) rotate(-73.53)"/><rect class="els-3" x="50.82" y="53" width="4.2" height="0.38" transform="translate(-13.08 88.88) rotate(-73.55)"/><rect class="els-3" x="50.05" y="52.78" width="4.2" height="0.38" transform="translate(-13.42 87.98) rotate(-73.55)"/><rect class="els-3" x="49.31" y="52.56" width="4.2" height="0.38" transform="translate(-13.74 87.11) rotate(-73.55)"/><path class="els-3" d="M51.63,50.62l-1.2,4-.22-.07-.13,0,1.18-4,.14,0Z"/><path class="els-3" d="M51.11,50.53,50,54.44a.8.8,0,0,1-.26-.43l1-3.26A.83.83,0,0,1,51.11,50.53Z"/><polygon class="els-3" points="59.02 52.81 58.66 52.7 59.85 48.67 60.2 48.78 61.37 44.85 61.01 44.74 62.21 40.72 62.57 40.82 61.38 44.84 61.73 44.95 60.54 48.98 60.18 48.87 59.02 52.81"/><rect class="els-3" x="58.56" y="50.91" width="4.2" height="0.38" transform="translate(-5.52 94.82) rotate(-73.57)"/><rect class="els-3" x="64.64" y="52.71" width="4.2" height="0.38" transform="translate(-2.89 101.92) rotate(-73.55)"/><rect class="els-3" x="68.27" y="53.78" width="4.2" height="0.38" transform="translate(-1.32 106.18) rotate(-73.55)"/><rect class="els-3" x="71.68" y="54.79" width="4.2" height="0.38" transform="translate(0.16 110.17) rotate(-73.55)"/><rect class="els-3" x="74.72" y="55.69" width="4.2" height="0.38" transform="translate(1.48 113.73) rotate(-73.55)"/><polygon class="els-3" points="57.86 52.47 57.54 52.37 56.35 56.4 55.99 56.29 57.18 52.26 57.5 52.35 58.69 48.33 58.74 48.35 59.9 44.42 59.85 44.4 61.04 40.37 61.4 40.48 60.21 44.5 60.26 44.52 59.07 48.55 59.02 48.53 57.86 52.47"/><rect class="els-3" x="55.4" y="49.98" width="4.2" height="0.38" transform="translate(-6.92 91.08) rotate(-73.52)"/><path class="els-3" d="M56.39,47.75h-.06l1.19-4,.32.09-.05,0,1.18-4,.14,0,.23.07-1.19,4-.23-.07h0l-1.16,3.93h0l.22.07-1.19,4,.2.06,1.19-4,.34.1,1.16-3.93-.34-.1,1.19-4,.37.1-1.2,4,.34.1-1.19,4-.34-.1L56.35,52l-.28-.08-1.19,4-.36-.1,1.19-4-.14,0-.14,0,1.16-3.93-.14,0-1.14,3.88a.87.87,0,0,1-.27-.44L56,48A1,1,0,0,1,56.39,47.75Z"/><rect class="els-3" x="67.11" y="49.16" width="4.2" height="0.38" transform="translate(2.27 101.73) rotate(-73.53)"/><rect class="els-3" x="70.51" y="50.17" width="4.2" height="0.38" transform="translate(3.76 105.73) rotate(-73.55)"/><rect class="els-3" x="73.55" y="51.06" width="4.2" height="0.38" transform="translate(5.08 109.3) rotate(-73.55)"/><rect class="els-3" x="54.24" y="45.36" width="4.2" height="0.38" transform="translate(-3.3 86.68) rotate(-73.55)"/><rect class="els-3" x="53.49" y="45.14" width="4.2" height="0.38" transform="translate(-3.62 85.81) rotate(-73.55)"/><path class="els-3" d="M55.81,43.2l-1.19,4-.22-.07-.13,0,1.18-4a.35.35,0,0,1,.14,0Z"/><path class="els-3" d="M53.88,46.59l1-3.25a.78.78,0,0,1,.46-.23L54.14,47A.76.76,0,0,1,53.88,46.59Z"/><rect class="els-3" x="60.91" y="42.96" width="4.2" height="0.38" transform="translate(3.79 91.36) rotate(-73.55)"/><polygon class="els-3" points="64.89 41.51 65.25 41.62 64.06 45.64 63.97 45.62 62.81 49.55 62.9 49.57 61.7 53.6 61.34 53.5 62.51 49.56 62.42 49.53 63.61 45.51 63.7 45.53 64.89 41.51"/><polygon class="els-3" points="66.31 46.3 66.34 46.31 65.15 50.34 65.11 50.33 63.95 54.27 63.59 54.16 64.78 50.13 64.82 50.14 65.98 46.21 65.94 46.2 67.14 42.17 67.5 42.28 66.31 46.3"/><rect class="els-3" x="66.99" y="44.75" width="4.2" height="0.38" transform="translate(6.43 98.48) rotate(-73.55)"/><rect class="els-3" x="70.63" y="45.83" width="4.2" height="0.38" transform="translate(8 102.74) rotate(-73.55)"/><rect class="els-3" x="74.04" y="46.83" width="4.2" height="0.38" transform="translate(9.5 106.74) rotate(-73.56)"/><rect class="els-3" x="77.08" y="47.73" width="4.2" height="0.38" transform="translate(10.78 110.27) rotate(-73.53)"/><rect class="els-3" x="57.76" y="42.03" width="4.2" height="0.38" transform="translate(2.44 87.68) rotate(-73.57)"/><path class="els-3" d="M58.82,39.78l-1.16,3.91a.8.8,0,0,1-.26-.43l1-3.26A.83.83,0,0,1,58.82,39.78Z"/><path class="els-2" d="M45.06,47.37,42.7,47.1a1,1,0,0,0-.53.08.87.87,0,0,0-.38.33.84.84,0,0,0-.06.14.35.35,0,0,0,0,.14L38,80.67a.86.86,0,0,0,.77.89h.05l2.36.27h0a.86.86,0,0,0,1-.7l3.73-32.87a.15.15,0,0,0,0-.07v-.07a.41.41,0,0,0,0-.16v0l0,0v0a.05.05,0,0,1,0,0l0,0,0,0h0l0,0-.06-.07h0l0,0,0,0A1.05,1.05,0,0,0,45.06,47.37Z"/><path class="els-3" d="M40,63.14,38,80.75a.83.83,0,0,0,.78.81h.05l2.36.27h0a.82.82,0,0,0,1-.61l1.75-15.45-.1,0A7.85,7.85,0,0,1,40,63.14Z"/><rect class="els-3" x="43.21" y="49.32" width="0.38" height="4.2" transform="translate(-12.58 88.76) rotate(-83.53)"/><rect class="els-3" x="43.07" y="50.59" width="0.38" height="4.2" transform="translate(-13.98 89.71) rotate(-83.51)"/><rect class="els-3" x="42.9" y="52.1" width="0.38" height="4.2" transform="translate(-15.64 90.89) rotate(-83.52)"/><rect class="els-3" x="42.63" y="54.43" width="0.38" height="4.2" transform="translate(-18.18 92.69) rotate(-83.52)"/><rect class="els-3" x="42.35" y="56.89" width="0.38" height="4.2" transform="translate(-20.88 94.58) rotate(-83.51)"/><rect class="els-3" x="41.92" y="60.65" width="0.38" height="4.2" transform="translate(-24.99 97.52) rotate(-83.52)"/><rect class="els-3" x="41.52" y="64.18" width="0.38" height="4.2" transform="translate(-28.87 100.23) rotate(-83.51)"/><rect class="els-3" x="41.17" y="67.33" width="0.38" height="4.2" transform="translate(-32.3 102.7) rotate(-83.53)"/><rect class="els-3" x="43.35" y="48.12" width="0.38" height="4.2" transform="translate(-11.27 87.81) rotate(-83.52)"/><rect class="els-3" x="43.44" y="47.32" width="0.38" height="4.2" transform="translate(-10.4 87.19) rotate(-83.52)"/><rect class="els-3" x="43.53" y="46.55" width="0.38" height="4.2" transform="translate(-9.56 86.6) rotate(-83.52)"/><path class="els-3" d="M45.85,48.5,41.67,48l0-.23a.35.35,0,0,1,0-.14l4.14.48a.33.33,0,0,1,0,.14Z"/><path class="els-3" d="M45.84,48l-4.05-.46a.85.85,0,0,1,.39-.33l3.37.38A.84.84,0,0,1,45.84,48Z"/><circle class="els-4" cx="73.17" cy="14.56" r="14.56"/><path class="els-3" d="M73.25,2A12.56,12.56,0,0,0,60.69,14.49,12.57,12.57,0,1,0,73.25,2m0-2A14.57,14.57,0,1,1,63,4.21,14.5,14.5,0,0,1,73.25,0Z"/><path class="els-5" d="M72.36,10.46a2.2,2.2,0,0,0-.16.75,1.81,1.81,0,0,0,.15.71,3.17,3.17,0,0,0,.49.72,9.58,9.58,0,0,0,.84.8,20,20,0,0,1,1.54,1.46,6.37,6.37,0,0,1,1.07,1.45,3.85,3.85,0,0,1,.45,1.54,4.08,4.08,0,0,1-.31,1.75A3.92,3.92,0,0,1,75.56,21a3.68,3.68,0,0,1-1.28.85,4.84,4.84,0,0,1-1.6.31,6.14,6.14,0,0,1-1.84-.26L70,24l-1.65-.64.81-2.08a5.66,5.66,0,0,1-1.42-1.1,4.21,4.21,0,0,1-.87-1.4,4.25,4.25,0,0,1-.26-1.64,5.55,5.55,0,0,1,.4-1.84l3,1.16a2.74,2.74,0,0,0-.17,1.93A1.9,1.9,0,0,0,71,19.45a2.36,2.36,0,0,0,.85.18,1.52,1.52,0,0,0,.69-.14,1.58,1.58,0,0,0,.53-.4,2.36,2.36,0,0,0,.51-1.31,1.66,1.66,0,0,0-.15-.67,3.17,3.17,0,0,0-.49-.72,8.92,8.92,0,0,0-.87-.85c-.57-.51-1.07-1-1.52-1.48a6.85,6.85,0,0,1-1-1.46,3.9,3.9,0,0,1-.45-1.55,4,4,0,0,1,.3-1.73,4,4,0,0,1,.89-1.4,3.75,3.75,0,0,1,1.28-.84,4.37,4.37,0,0,1,1.6-.28A6.77,6.77,0,0,1,75,7.07l.74-1.9,1.65.64-.74,1.9a7.7,7.7,0,0,1,1.51,1,4.82,4.82,0,0,1,1.09,1.38,4.2,4.2,0,0,1,.46,1.75,5.17,5.17,0,0,1-.4,2.12l-3-1.16a3.31,3.31,0,0,0,.25-1.21,1.94,1.94,0,0,0-.23-.93,1.87,1.87,0,0,0-.58-.67A3.3,3.3,0,0,0,75,9.58a2.76,2.76,0,0,0-.9-.21,1.8,1.8,0,0,0-.75.11,1.48,1.48,0,0,0-.58.37A1.8,1.8,0,0,0,72.36,10.46Z"/><path class="els-6" d="M50.8,14.22s0,.1,0,.15a9.13,9.13,0,0,1-5.83,6.05l-.37.15h-.09l-.15,0a5.64,5.64,0,0,0-4,3.86L25.91,72.74a3.34,3.34,0,0,0,2.25,4.16L77.78,91.68a3.28,3.28,0,0,0,.82.14h.16a3.45,3.45,0,0,0,1.51-.35,3.33,3.33,0,0,0,1-.71l0-.05h0A3.47,3.47,0,0,0,82,89.56l.07-.21L96.34,41.5a6.24,6.24,0,0,0-1.27-5.86h0l0,0A9.11,9.11,0,0,1,93.2,27c0-.05,0-.09,0-.14L50.8,14.22m-1.67-2.58,46.92,14a7.25,7.25,0,0,0-.94,2,7.15,7.15,0,0,0,1.45,6.72h0a8.29,8.29,0,0,1,1.7,7.77L84,89.92a2.53,2.53,0,0,1-.12.36,5.28,5.28,0,0,1-1.11,1.8l-.07.07a5.2,5.2,0,0,1-1.56,1.12,5.37,5.37,0,0,1-2.38.55h-.25a5.36,5.36,0,0,1-1.3-.22L27.59,78.82A5.37,5.37,0,0,1,24,72.17L38.37,23.9a7.69,7.69,0,0,1,5.43-5.23h0c.15,0,.29-.08.43-.12h0a7.16,7.16,0,0,0,4.61-4.75,7,7,0,0,0,.29-2.16Z"/><circle class="els-4" cx="90" cy="83.73" r="20"/><path class="els-3" d="M90.11,66h0a16.88,16.88,0,0,0-2.93.25A17.71,17.71,0,0,0,77,95.63c.17.19.34.38.53.56l.18.19.43.41a17.72,17.72,0,0,0,26.05-23.85,19.57,19.57,0,0,0-1.41-1.61c-.18-.18-.36-.36-.56-.54s-.36-.34-.55-.5a18,18,0,0,0-1.8-1.35,17.4,17.4,0,0,0-2.89-1.54A17.71,17.71,0,0,0,90.11,66m0-3a20.65,20.65,0,0,1,8,1.6,20.3,20.3,0,0,1,3.38,1.79,24,24,0,0,1,2.1,1.58l.65.59c.22.2.44.41.65.63A20.72,20.72,0,0,1,76.06,99l-.5-.48-.21-.21-.62-.66A20.73,20.73,0,0,1,90.11,63Z"/><path class="els-5" d="M82.37,78.56a1.82,1.82,0,0,0,0,.33A5.3,5.3,0,0,0,82.81,81a5.55,5.55,0,0,0,1.35,1.86,9.7,9.7,0,0,0,2.12,1.43c.82.42,1.74.83,2.75,1.24a12.71,12.71,0,0,1,1.57.71,4.18,4.18,0,0,1,1,.73,2,2,0,0,1,.52.82,2.86,2.86,0,0,1,.14,1,3.23,3.23,0,0,1-.18,1,2.15,2.15,0,0,1-.51.81,2.44,2.44,0,0,1-.86.52,3.46,3.46,0,0,1-1.22.17,2.69,2.69,0,0,1-2.07-.92,3.81,3.81,0,0,1-.72-2.65l-4.55-.1a8,8,0,0,0,.35,2.65,6.15,6.15,0,0,0,1.15,2.07,6,6,0,0,0,1.84,1.45,7.84,7.84,0,0,0,2.44.77l-.07,3.18,2.52.06.07-3.14A8.56,8.56,0,0,0,93,94.13a6.46,6.46,0,0,0,2-1.19,5.2,5.2,0,0,0,1.3-1.75,6.27,6.27,0,0,0,0-4.75A5.51,5.51,0,0,0,95,84.59a9.38,9.38,0,0,0-2.13-1.41A27.26,27.26,0,0,0,90.12,82a10.86,10.86,0,0,1-1.5-.67,4,4,0,0,1-1-.72,2.29,2.29,0,0,1-.55-.86,3.09,3.09,0,0,1-.15-1.09,2.7,2.7,0,0,1,.21-1,2.19,2.19,0,0,1,.59-.79,2.85,2.85,0,0,1,1-.5,4,4,0,0,1,1.3-.16,4.61,4.61,0,0,1,1.27.2,2.67,2.67,0,0,1,1.09.61,2.82,2.82,0,0,1,.76,1.13,4.51,4.51,0,0,1,.25,1.74l4.55.1a7.18,7.18,0,0,0-.49-3,6.05,6.05,0,0,0-1.47-2.13,6.78,6.78,0,0,0-2.14-1.31,10.62,10.62,0,0,0-2.51-.63l.06-2.9-2.5-.06-.07,2.92a9.37,9.37,0,0,0-2.59.52,6.83,6.83,0,0,0-1.88,1l-.12.11a5,5,0,0,0-1.31,1.74A5.63,5.63,0,0,0,82.37,78.56Z"/><rect class="els-7" x="70.81" y="-6.2" width="3.1" height="51.16" rx="0.41" transform="translate(33.13 83.21) rotate(-73.41)"/></g></g></svg>